<?xml version="1.0" encoding="UTF-8" standalone="no"?>
<!DOCTYPE svg PUBLIC "-//W3C//DTD SVG 1.1//EN"
 "http://www.w3.org/Graphics/SVG/1.1/DTD/svg11.dtd">
<!-- Generated by graphviz version 2.26.3 (20100126.1600)
 -->
<!-- Title: gameplay.ai.phrasing.Phrasing.Phrasing Pages: 1 -->
<svg width="340pt" height="48pt"
 viewBox="0.00 0.00 340.00 48.00" xmlns="http://www.w3.org/2000/svg" xmlns:xlink="http://www.w3.org/1999/xlink">
<g id="graph1" class="graph" transform="scale(1 1) rotate(0) translate(4 44)">
<title>gameplay.ai.phrasing.Phrasing.Phrasing</title>
<polygon fill="white" stroke="white" points="-4,5 -4,-44 337,-44 337,5 -4,5"/>
<!-- Node1 -->
<g id="node1" class="node"><title>Node1</title>
<polygon fill="#bfbfbf" stroke="black" points="0,-0 0,-40 152,-40 152,-0 0,-0"/>
<text text-anchor="start" x="8" y="-27" font-family="Helvetica,sans-Serif" font-size="10.00">gameplay.ai.phrasing.Phrasing.</text>
<text text-anchor="middle" x="76" y="-11" font-family="Helvetica,sans-Serif" font-size="10.00">Phrasing</text>
</g>
<!-- Node2 -->
<g id="node3" class="node"><title>Node2</title>
<a xlink:href="$a00017.html#a82dab0d4c111eea30c98cdb288a469c8" xlink:title="main.Philophobia.getPhrases\lFilePrefix">
<polygon fill="white" stroke="black" points="188.5,-0 188.5,-40 331.5,-40 331.5,-0 188.5,-0"/>
<text text-anchor="start" x="196.5" y="-27" font-family="Helvetica,sans-Serif" font-size="10.00">main.Philophobia.getPhrases</text>
<text text-anchor="middle" x="260" y="-11" font-family="Helvetica,sans-Serif" font-size="10.00">FilePrefix</text>
</a>
</g>
<!-- Node1&#45;&gt;Node2 -->
<g id="edge2" class="edge"><title>Node1&#45;&gt;Node2</title>
<path fill="none" stroke="midnightblue" d="M152.168,-20C160.766,-20 169.555,-20 178.221,-20"/>
<polygon fill="midnightblue" stroke="midnightblue" points="178.319,-23.5001 188.319,-20 178.319,-16.5001 178.319,-23.5001"/>
</g>
</g>
</svg>
