<?xml version="1.0" encoding="UTF-8" standalone="no"?>
<!DOCTYPE svg PUBLIC "-//W3C//DTD SVG 1.1//EN"
 "http://www.w3.org/Graphics/SVG/1.1/DTD/svg11.dtd">
<!-- Generated by graphviz version 2.26.3 (20100126.1600)
 -->
<!-- Title: gameplay.ai.AI.newBetrayal Pages: 1 -->
<svg width="350pt" height="148pt"
 viewBox="0.00 0.00 350.00 148.00" xmlns="http://www.w3.org/2000/svg" xmlns:xlink="http://www.w3.org/1999/xlink">
<g id="graph1" class="graph" transform="scale(1 1) rotate(0) translate(4 144)">
<title>gameplay.ai.AI.newBetrayal</title>
<polygon fill="white" stroke="white" points="-4,5 -4,-144 347,-144 347,5 -4,5"/>
<!-- Node1 -->
<g id="node1" class="node"><title>Node1</title>
<polygon fill="#bfbfbf" stroke="black" points="0,-66 0,-90 138,-90 138,-66 0,-66"/>
<text text-anchor="middle" x="69" y="-77" font-family="Helvetica,sans-Serif" font-size="10.00">gameplay.ai.AI.newBetrayal</text>
</g>
<!-- Node2 -->
<g id="node3" class="node"><title>Node2</title>
<a xlink:href="$a00001.html#adbb46250627224cb4cd42ad99eaf42ba" xlink:title="Change the current mood field from a Class object. ">
<polygon fill="white" stroke="black" points="188,-116 188,-140 328,-140 328,-116 188,-116"/>
<text text-anchor="middle" x="258" y="-127" font-family="Helvetica,sans-Serif" font-size="10.00">gameplay.ai.AI.changeMood</text>
</a>
</g>
<!-- Node1&#45;&gt;Node2 -->
<g id="edge2" class="edge"><title>Node1&#45;&gt;Node2</title>
<path fill="none" stroke="midnightblue" d="M111.594,-90.0189C130.655,-95.3316 153.424,-101.588 174,-107 182.15,-109.144 190.759,-111.356 199.235,-113.503"/>
<polygon fill="midnightblue" stroke="midnightblue" points="198.536,-116.937 209.089,-115.987 200.247,-110.149 198.536,-116.937"/>
</g>
<!-- Node3 -->
<g id="node5" class="node"><title>Node3</title>
<a xlink:href="$a00015.html#aa0080ad0116bb5b614bbbc56d448ad22" xlink:title="When the betrayal threshold is exceeded, this function is called and return a new mood given their pr...">
<polygon fill="white" stroke="black" points="188.5,-58 188.5,-98 327.5,-98 327.5,-58 188.5,-58"/>
<text text-anchor="start" x="196.5" y="-85" font-family="Helvetica,sans-Serif" font-size="10.00">gameplay.ai.mood.Mood.get</text>
<text text-anchor="middle" x="258" y="-69" font-family="Helvetica,sans-Serif" font-size="10.00">NextMood</text>
</a>
</g>
<!-- Node1&#45;&gt;Node3 -->
<g id="edge4" class="edge"><title>Node1&#45;&gt;Node3</title>
<path fill="none" stroke="midnightblue" d="M138.036,-78C151.06,-78 164.782,-78 178.108,-78"/>
<polygon fill="midnightblue" stroke="midnightblue" points="178.202,-81.5001 188.202,-78 178.202,-74.5001 178.202,-81.5001"/>
</g>
<!-- Node4 -->
<g id="node7" class="node"><title>Node4</title>
<a xlink:href="$a00015.html#a322adb08d4a6f7dcd0eb00c77649d2d2" xlink:title="Increment and return the betrayal count field. ">
<polygon fill="white" stroke="black" points="174,-0 174,-40 342,-40 342,-0 174,-0"/>
<text text-anchor="start" x="182" y="-27" font-family="Helvetica,sans-Serif" font-size="10.00">gameplay.ai.mood.Mood.increment</text>
<text text-anchor="middle" x="258" y="-11" font-family="Helvetica,sans-Serif" font-size="10.00">BetrayalCount</text>
</a>
</g>
<!-- Node1&#45;&gt;Node4 -->
<g id="edge6" class="edge"><title>Node1&#45;&gt;Node4</title>
<path fill="none" stroke="midnightblue" d="M108.161,-65.9824C129.733,-59.3624 157.245,-50.9195 182.792,-43.0796"/>
<polygon fill="midnightblue" stroke="midnightblue" points="183.938,-46.3893 192.471,-40.1095 181.884,-39.6973 183.938,-46.3893"/>
</g>
</g>
</svg>
