<?xml version="1.0" encoding="UTF-8" standalone="no"?>
<!DOCTYPE svg PUBLIC "-//W3C//DTD SVG 1.1//EN"
 "http://www.w3.org/Graphics/SVG/1.1/DTD/svg11.dtd">
<!-- Generated by graphviz version 2.26.3 (20100126.1600)
 -->
<!-- Title: window.topbar.TopBarButton.paintComponent Pages: 1 -->
<svg width="336pt" height="48pt"
 viewBox="0.00 0.00 336.00 48.00" xmlns="http://www.w3.org/2000/svg" xmlns:xlink="http://www.w3.org/1999/xlink">
<g id="graph1" class="graph" transform="scale(1 1) rotate(0) translate(4 44)">
<title>window.topbar.TopBarButton.paintComponent</title>
<polygon fill="white" stroke="white" points="-4,5 -4,-44 333,-44 333,5 -4,5"/>
<!-- Node1 -->
<g id="node1" class="node"><title>Node1</title>
<polygon fill="#bfbfbf" stroke="black" points="0,-0 0,-40 164,-40 164,-0 0,-0"/>
<text text-anchor="start" x="8" y="-27" font-family="Helvetica,sans-Serif" font-size="10.00">window.topbar.TopBarButton.paint</text>
<text text-anchor="middle" x="82" y="-11" font-family="Helvetica,sans-Serif" font-size="10.00">Component</text>
</g>
<!-- Node2 -->
<g id="node3" class="node"><title>Node2</title>
<a xlink:href="$a00031.html#adfdb55a34a781ed9c1c28dcc820b10e3" xlink:title="window.topbar.TopBar.get\lTopBarMargin">
<polygon fill="white" stroke="black" points="200,-0 200,-40 328,-40 328,-0 200,-0"/>
<text text-anchor="start" x="208" y="-27" font-family="Helvetica,sans-Serif" font-size="10.00">window.topbar.TopBar.get</text>
<text text-anchor="middle" x="264" y="-11" font-family="Helvetica,sans-Serif" font-size="10.00">TopBarMargin</text>
</a>
</g>
<!-- Node1&#45;&gt;Node2 -->
<g id="edge2" class="edge"><title>Node1&#45;&gt;Node2</title>
<path fill="none" stroke="midnightblue" d="M164.214,-20C172.72,-20 181.328,-20 189.74,-20"/>
<polygon fill="midnightblue" stroke="midnightblue" points="189.881,-23.5001 199.881,-20 189.881,-16.5001 189.881,-23.5001"/>
</g>
</g>
</svg>
