<?xml version="1.0" encoding="UTF-8" standalone="no"?>
<!DOCTYPE svg PUBLIC "-//W3C//DTD SVG 1.1//EN"
 "http://www.w3.org/Graphics/SVG/1.1/DTD/svg11.dtd">
<!-- Generated by graphviz version 2.26.3 (20100126.1600)
 -->
<!-- Title: main.Philophobia.getPhrasesFilePrefix Pages: 1 -->
<svg width="340pt" height="48pt"
 viewBox="0.00 0.00 340.00 48.00" xmlns="http://www.w3.org/2000/svg" xmlns:xlink="http://www.w3.org/1999/xlink">
<g id="graph1" class="graph" transform="scale(1 1) rotate(0) translate(4 44)">
<title>main.Philophobia.getPhrasesFilePrefix</title>
<polygon fill="white" stroke="white" points="-4,5 -4,-44 337,-44 337,5 -4,5"/>
<!-- Node1 -->
<g id="node1" class="node"><title>Node1</title>
<polygon fill="#bfbfbf" stroke="black" points="0.5,-0 0.5,-40 143.5,-40 143.5,-0 0.5,-0"/>
<text text-anchor="start" x="8.5" y="-27" font-family="Helvetica,sans-Serif" font-size="10.00">main.Philophobia.getPhrases</text>
<text text-anchor="middle" x="72" y="-11" font-family="Helvetica,sans-Serif" font-size="10.00">FilePrefix</text>
</g>
<!-- Node2 -->
<g id="node3" class="node"><title>Node2</title>
<a xlink:href="$a00018.html#a369fb65d1e9363006fb8f4fa31b438de" xlink:title="Phrasing class constructor. ">
<polygon fill="white" stroke="black" points="180,-0 180,-40 332,-40 332,-0 180,-0"/>
<text text-anchor="start" x="188" y="-27" font-family="Helvetica,sans-Serif" font-size="10.00">gameplay.ai.phrasing.Phrasing.</text>
<text text-anchor="middle" x="256" y="-11" font-family="Helvetica,sans-Serif" font-size="10.00">Phrasing</text>
</a>
</g>
<!-- Node1&#45;&gt;Node2 -->
<g id="edge2" class="edge"><title>Node1&#45;&gt;Node2</title>
<path fill="none" stroke="midnightblue" d="M153.807,-20C162.51,-20 171.336,-20 179.969,-20"/>
<polygon fill="midnightblue" stroke="midnightblue" points="153.666,-16.5001 143.666,-20 153.666,-23.5001 153.666,-16.5001"/>
</g>
</g>
</svg>
