<?xml version="1.0" encoding="UTF-8" standalone="no"?>
<!DOCTYPE svg PUBLIC "-//W3C//DTD SVG 1.1//EN"
 "http://www.w3.org/Graphics/SVG/1.1/DTD/svg11.dtd">
<!-- Generated by graphviz version 2.26.3 (20100126.1600)
 -->
<!-- Title: window.topbar.TopBar.getTopBarMargin Pages: 1 -->
<svg width="336pt" height="48pt"
 viewBox="0.00 0.00 336.00 48.00" xmlns="http://www.w3.org/2000/svg" xmlns:xlink="http://www.w3.org/1999/xlink">
<g id="graph1" class="graph" transform="scale(1 1) rotate(0) translate(4 44)">
<title>window.topbar.TopBar.getTopBarMargin</title>
<polygon fill="white" stroke="white" points="-4,5 -4,-44 333,-44 333,5 -4,5"/>
<!-- Node1 -->
<g id="node1" class="node"><title>Node1</title>
<polygon fill="#bfbfbf" stroke="black" points="0,-0 0,-40 128,-40 128,-0 0,-0"/>
<text text-anchor="start" x="8" y="-27" font-family="Helvetica,sans-Serif" font-size="10.00">window.topbar.TopBar.get</text>
<text text-anchor="middle" x="64" y="-11" font-family="Helvetica,sans-Serif" font-size="10.00">TopBarMargin</text>
</g>
<!-- Node2 -->
<g id="node3" class="node"><title>Node2</title>
<a xlink:href="$a00032.html#a5268cb4eb3f6f1f7dc3925827c1664d8" xlink:title="window.topbar.TopBarButton.paint\lComponent">
<polygon fill="white" stroke="black" points="164,-0 164,-40 328,-40 328,-0 164,-0"/>
<text text-anchor="start" x="172" y="-27" font-family="Helvetica,sans-Serif" font-size="10.00">window.topbar.TopBarButton.paint</text>
<text text-anchor="middle" x="246" y="-11" font-family="Helvetica,sans-Serif" font-size="10.00">Component</text>
</a>
</g>
<!-- Node1&#45;&gt;Node2 -->
<g id="edge2" class="edge"><title>Node1&#45;&gt;Node2</title>
<path fill="none" stroke="midnightblue" d="M138.334,-20C146.766,-20 155.397,-20 163.922,-20"/>
<polygon fill="midnightblue" stroke="midnightblue" points="138.166,-16.5001 128.166,-20 138.166,-23.5001 138.166,-16.5001"/>
</g>
</g>
</svg>
