<?xml version="1.0" encoding="UTF-8" standalone="no"?>
<!DOCTYPE svg PUBLIC "-//W3C//DTD SVG 1.1//EN"
 "http://www.w3.org/Graphics/SVG/1.1/DTD/svg11.dtd">
<!-- Generated by graphviz version 2.26.3 (20100126.1600)
 -->
<!-- Title: gameplay.ai.AI.changeMood Pages: 1 -->
<svg width="322pt" height="74pt"
 viewBox="0.00 0.00 322.00 74.00" xmlns="http://www.w3.org/2000/svg" xmlns:xlink="http://www.w3.org/1999/xlink">
<g id="graph1" class="graph" transform="scale(1 1) rotate(0) translate(4 70)">
<title>gameplay.ai.AI.changeMood</title>
<polygon fill="white" stroke="white" points="-4,5 -4,-70 319,-70 319,5 -4,5"/>
<!-- Node1 -->
<g id="node1" class="node"><title>Node1</title>
<polygon fill="#bfbfbf" stroke="black" points="0,-21 0,-45 140,-45 140,-21 0,-21"/>
<text text-anchor="middle" x="70" y="-32" font-family="Helvetica,sans-Serif" font-size="10.00">gameplay.ai.AI.changeMood</text>
</g>
<!-- Node2 -->
<g id="node3" class="node"><title>Node2</title>
<a xlink:href="$a00001.html#ade34cf6dd9b6f1c6ebceccf040fffeb4" xlink:title="Method called when the player make a new betrayal (does not do what the AI asked) ...">
<polygon fill="white" stroke="black" points="176,-42 176,-66 314,-66 314,-42 176,-42"/>
<text text-anchor="middle" x="245" y="-53" font-family="Helvetica,sans-Serif" font-size="10.00">gameplay.ai.AI.newBetrayal</text>
</a>
</g>
<!-- Node1&#45;&gt;Node2 -->
<g id="edge2" class="edge"><title>Node1&#45;&gt;Node2</title>
<path fill="none" stroke="midnightblue" d="M150.203,-42.6244C158.804,-43.6565 167.499,-44.6999 175.953,-45.7144"/>
<polygon fill="midnightblue" stroke="midnightblue" points="150.517,-39.137 140.171,-41.4205 149.683,-46.0871 150.517,-39.137"/>
</g>
<!-- Node3 -->
<g id="node5" class="node"><title>Node3</title>
<a xlink:href="$a00001.html#ae37c568fcf8ccf9596665b94cb9c4702" xlink:title="Method called when the player do what the AI asked. ">
<polygon fill="white" stroke="black" points="177.5,-0 177.5,-24 312.5,-24 312.5,-0 177.5,-0"/>
<text text-anchor="middle" x="245" y="-11" font-family="Helvetica,sans-Serif" font-size="10.00">gameplay.ai.AI.newSlavery</text>
</a>
</g>
<!-- Node1&#45;&gt;Node3 -->
<g id="edge4" class="edge"><title>Node1&#45;&gt;Node3</title>
<path fill="none" stroke="midnightblue" d="M150.319,-23.3618C159.364,-22.2763 168.512,-21.1785 177.374,-20.1152"/>
<polygon fill="midnightblue" stroke="midnightblue" points="149.683,-19.9129 140.171,-24.5795 150.517,-26.863 149.683,-19.9129"/>
</g>
</g>
</svg>
