<?xml version="1.0" encoding="UTF-8" standalone="no"?>
<!DOCTYPE svg PUBLIC "-//W3C//DTD SVG 1.1//EN"
 "http://www.w3.org/Graphics/SVG/1.1/DTD/svg11.dtd">
<!-- Generated by graphviz version 2.26.3 (20100126.1600)
 -->
<!-- Title: main.Philophobia.main Pages: 1 -->
<svg width="316pt" height="90pt"
 viewBox="0.00 0.00 316.00 90.00" xmlns="http://www.w3.org/2000/svg" xmlns:xlink="http://www.w3.org/1999/xlink">
<g id="graph1" class="graph" transform="scale(1 1) rotate(0) translate(4 86)">
<title>main.Philophobia.main</title>
<polygon fill="white" stroke="white" points="-4,5 -4,-86 313,-86 313,5 -4,5"/>
<!-- Node1 -->
<g id="node1" class="node"><title>Node1</title>
<polygon fill="#bfbfbf" stroke="black" points="0.5,-25 0.5,-49 115.5,-49 115.5,-25 0.5,-25"/>
<text text-anchor="middle" x="58" y="-36" font-family="Helvetica,sans-Serif" font-size="10.00">main.Philophobia.main</text>
</g>
<!-- Node2 -->
<g id="node3" class="node"><title>Node2</title>
<a xlink:href="$a00006.html#a7b9655bcabe2969db66c0c5dab5487b8" xlink:title="Return the verbose level passed as options to the program. ">
<polygon fill="white" stroke="black" points="158.5,-42 158.5,-82 301.5,-82 301.5,-42 158.5,-42"/>
<text text-anchor="start" x="166.5" y="-69" font-family="Helvetica,sans-Serif" font-size="10.00">debug.CliOptions.getVerbose</text>
<text text-anchor="middle" x="230" y="-53" font-family="Helvetica,sans-Serif" font-size="10.00">Level</text>
</a>
</g>
<!-- Node1&#45;&gt;Node2 -->
<g id="edge2" class="edge"><title>Node1&#45;&gt;Node2</title>
<path fill="none" stroke="midnightblue" d="M115.752,-45.3942C126.213,-46.9146 137.301,-48.5263 148.295,-50.1243"/>
<polygon fill="midnightblue" stroke="midnightblue" points="147.945,-53.6101 158.345,-51.585 148.952,-46.6829 147.945,-53.6101"/>
</g>
<!-- Node3 -->
<g id="node5" class="node"><title>Node3</title>
<a xlink:href="$a00006.html#a34dabb4bbc667b0f56bf210749c260bf" xlink:title="Return true if the help has been queried or false if not. ">
<polygon fill="white" stroke="black" points="152,-0 152,-24 308,-24 308,-0 152,-0"/>
<text text-anchor="middle" x="230" y="-11" font-family="Helvetica,sans-Serif" font-size="10.00">debug.CliOptions.isHelpQueried</text>
</a>
</g>
<!-- Node1&#45;&gt;Node3 -->
<g id="edge4" class="edge"><title>Node1&#45;&gt;Node3</title>
<path fill="none" stroke="midnightblue" d="M115.752,-28.6058C124.19,-27.3794 133.036,-26.0936 141.912,-24.8035"/>
<polygon fill="midnightblue" stroke="midnightblue" points="142.533,-28.2501 151.926,-23.348 141.526,-21.3229 142.533,-28.2501"/>
</g>
</g>
</svg>
