<?xml version="1.0" encoding="UTF-8" standalone="no"?>
<!DOCTYPE svg PUBLIC "-//W3C//DTD SVG 1.1//EN"
 "http://www.w3.org/Graphics/SVG/1.1/DTD/svg11.dtd">
<!-- Generated by graphviz version 2.26.3 (20100126.1600)
 -->
<!-- Title: debug.CliOptions.CliOptions Pages: 1 -->
<svg width="340pt" height="90pt"
 viewBox="0.00 0.00 340.00 90.00" xmlns="http://www.w3.org/2000/svg" xmlns:xlink="http://www.w3.org/1999/xlink">
<g id="graph1" class="graph" transform="scale(1 1) rotate(0) translate(4 86)">
<title>debug.CliOptions.CliOptions</title>
<polygon fill="white" stroke="white" points="-4,5 -4,-86 337,-86 337,5 -4,5"/>
<!-- Node1 -->
<g id="node1" class="node"><title>Node1</title>
<polygon fill="#bfbfbf" stroke="black" points="0,-33 0,-57 140,-57 140,-33 0,-33"/>
<text text-anchor="middle" x="70" y="-44" font-family="Helvetica,sans-Serif" font-size="10.00">debug.CliOptions.CliOptions</text>
</g>
<!-- Node2 -->
<g id="node3" class="node"><title>Node2</title>
<a xlink:href="$a00006.html#ab0a2db9986b5ae6ac696e9a5e596eff1" xlink:title="Chech if the help mode has been queried considering the options with on or two dashes. ">
<polygon fill="white" stroke="black" points="183.5,-58 183.5,-82 324.5,-82 324.5,-58 183.5,-58"/>
<text text-anchor="middle" x="254" y="-69" font-family="Helvetica,sans-Serif" font-size="10.00">debug.CliOptions.checkHelp</text>
</a>
</g>
<!-- Node1&#45;&gt;Node2 -->
<g id="edge2" class="edge"><title>Node1&#45;&gt;Node2</title>
<path fill="none" stroke="midnightblue" d="M140.087,-54.5227C150.973,-56.0018 162.294,-57.5399 173.39,-59.0475"/>
<polygon fill="midnightblue" stroke="midnightblue" points="173.118,-62.5426 183.498,-60.4209 174.06,-55.6064 173.118,-62.5426"/>
</g>
<!-- Node3 -->
<g id="node5" class="node"><title>Node3</title>
<a xlink:href="$a00006.html#af9e27c7e2ce04aa2b9cfb42ac35db767" xlink:title="Check the verbose level considering the options with one dash. ">
<polygon fill="white" stroke="black" points="176,-0 176,-40 332,-40 332,-0 176,-0"/>
<text text-anchor="start" x="184" y="-27" font-family="Helvetica,sans-Serif" font-size="10.00">debug.CliOptions.checkVerbose</text>
<text text-anchor="middle" x="254" y="-11" font-family="Helvetica,sans-Serif" font-size="10.00">Level</text>
</a>
</g>
<!-- Node1&#45;&gt;Node3 -->
<g id="edge4" class="edge"><title>Node1&#45;&gt;Node3</title>
<path fill="none" stroke="midnightblue" d="M140.087,-35.4773C148.482,-34.3367 157.135,-33.161 165.744,-31.9913"/>
<polygon fill="midnightblue" stroke="midnightblue" points="166.374,-35.4379 175.812,-30.6233 165.432,-28.5016 166.374,-35.4379"/>
</g>
</g>
</svg>
