<?xml version="1.0" encoding="UTF-8" standalone="no"?>
<!DOCTYPE svg PUBLIC "-//W3C//DTD SVG 1.1//EN"
 "http://www.w3.org/Graphics/SVG/1.1/DTD/svg11.dtd">
<!-- Generated by graphviz version 2.26.3 (20100126.1600)
 -->
<!-- Title: world.scenery.Grass Pages: 1 -->
<svg width="936pt" height="496pt"
 viewBox="0.00 0.00 936.00 496.00" xmlns="http://www.w3.org/2000/svg" xmlns:xlink="http://www.w3.org/1999/xlink">
<g id="graph1" class="graph" transform="scale(1 1) rotate(0) translate(4 492)">
<title>world.scenery.Grass</title>
<polygon fill="white" stroke="white" points="-4,5 -4,-492 933,-492 933,5 -4,5"/>
<!-- Node1 -->
<g id="node1" class="node"><title>Node1</title>
<polygon fill="#bfbfbf" stroke="black" points="407,-1 407,-73 513,-73 513,-1 407,-1"/>
<text text-anchor="middle" x="460" y="-60" font-family="Helvetica,sans-Serif" font-size="10.00">world.scenery.Grass</text>
<polyline fill="none" stroke="black" points="407,-49 513,-49 "/>
<text text-anchor="middle" x="460" y="-36" font-family="Helvetica,sans-Serif" font-size="10.00"> </text>
<polyline fill="none" stroke="black" points="407,-25 513,-25 "/>
<text text-anchor="start" x="415" y="-12" font-family="Helvetica,sans-Serif" font-size="10.00">+ Grass()</text>
</g>
<!-- Node2 -->
<g id="node2" class="node"><title>Node2</title>
<a xlink:href="$a00024.html" xlink:title="Class used to handle any world object. ">
<polygon fill="white" stroke="black" points="-0.5,-113 -0.5,-361 116.5,-361 116.5,-113 -0.5,-113"/>
<text text-anchor="middle" x="58" y="-348" font-family="Helvetica,sans-Serif" font-size="10.00">world.scenery.Scenery</text>
<polyline fill="none" stroke="black" points="-0.5,-337 116.5,-337 "/>
<text text-anchor="start" x="7.5" y="-324" font-family="Helvetica,sans-Serif" font-size="10.00"># height</text>
<text text-anchor="start" x="7.5" y="-308" font-family="Helvetica,sans-Serif" font-size="10.00"># width</text>
<text text-anchor="start" x="7.5" y="-292" font-family="Helvetica,sans-Serif" font-size="10.00"># xShift</text>
<text text-anchor="start" x="7.5" y="-276" font-family="Helvetica,sans-Serif" font-size="10.00"># yShift</text>
<text text-anchor="start" x="7.5" y="-260" font-family="Helvetica,sans-Serif" font-size="10.00"># visible</text>
<text text-anchor="start" x="7.5" y="-244" font-family="Helvetica,sans-Serif" font-size="10.00"># SCENERY_HEIGHT</text>
<text text-anchor="start" x="7.5" y="-228" font-family="Helvetica,sans-Serif" font-size="10.00"># SCENERY_WIDTH</text>
<polyline fill="none" stroke="black" points="-0.5,-217 116.5,-217 "/>
<text text-anchor="start" x="7.5" y="-204" font-family="Helvetica,sans-Serif" font-size="10.00">+ Scenery()</text>
<text text-anchor="start" x="7.5" y="-188" font-family="Helvetica,sans-Serif" font-size="10.00">+ Scenery()</text>
<text text-anchor="start" x="7.5" y="-172" font-family="Helvetica,sans-Serif" font-size="10.00">+ Scenery()</text>
<text text-anchor="start" x="7.5" y="-156" font-family="Helvetica,sans-Serif" font-size="10.00">+ drawScenery()</text>
<text text-anchor="start" x="7.5" y="-140" font-family="Helvetica,sans-Serif" font-size="10.00">+ getSceneryHeight()</text>
<text text-anchor="start" x="7.5" y="-124" font-family="Helvetica,sans-Serif" font-size="10.00">+ getSceneryWidth()</text>
</a>
</g>
<!-- Node2&#45;&gt;Node1 -->
<g id="edge2" class="edge"><title>Node2&#45;&gt;Node1</title>
<path fill="none" stroke="midnightblue" d="M124.176,-112.633C124.45,-112.42 124.724,-112.209 125,-112 168.845,-78.7031 323.881,-54.404 406.784,-43.4573"/>
<polygon fill="none" stroke="midnightblue" points="121.846,-110.019 116.517,-119.176 126.393,-115.341 121.846,-110.019"/>
</g>
<!-- Node3 -->
<g id="node4" class="node"><title>Node3</title>
<polygon fill="white" stroke="#bfbfbf" points="36,-415 36,-487 80,-487 80,-415 36,-415"/>
<text text-anchor="middle" x="58" y="-474" font-family="Helvetica,sans-Serif" font-size="10.00">Image</text>
<polyline fill="none" stroke="#bfbfbf" points="36,-463 80,-463 "/>
<text text-anchor="middle" x="58" y="-450" font-family="Helvetica,sans-Serif" font-size="10.00"> </text>
<polyline fill="none" stroke="#bfbfbf" points="36,-439 80,-439 "/>
<text text-anchor="middle" x="58" y="-426" font-family="Helvetica,sans-Serif" font-size="10.00"> </text>
</g>
<!-- Node3&#45;&gt;Node2 -->
<g id="edge4" class="edge"><title>Node3&#45;&gt;Node2</title>
<path fill="none" stroke="#404040" d="M58,-414.698C58,-402.654 58,-388.447 58,-373.398"/>
<polygon fill="none" stroke="#404040" points="58.0001,-373.175 54,-367.175 58,-361.175 62,-367.175 58.0001,-373.175"/>
<text text-anchor="middle" x="88" y="-387" font-family="Helvetica,sans-Serif" font-size="10.00"> #spriteImage</text>
</g>
<!-- Node4 -->
<g id="node6" class="node"><title>Node4</title>
<a xlink:href="$a00030.html" xlink:title="Interface used to define that a Scenery object have a Temperate Broadleaf style. ">
<polygon fill="white" stroke="black" points="133.5,-193 133.5,-281 300.5,-281 300.5,-193 133.5,-193"/>
<text text-anchor="start" x="141.5" y="-268" font-family="Helvetica,sans-Serif" font-size="10.00">world.scenery.TemperateBroadleaf</text>
<text text-anchor="middle" x="217" y="-252" font-family="Helvetica,sans-Serif" font-size="10.00">Theme</text>
<polyline fill="none" stroke="black" points="133.5,-241 300.5,-241 "/>
<text text-anchor="start" x="141.5" y="-228" font-family="Helvetica,sans-Serif" font-size="10.00">+ TEMPERATE_BROADLEAF</text>
<polyline fill="none" stroke="black" points="133.5,-217 300.5,-217 "/>
<text text-anchor="middle" x="217" y="-204" font-family="Helvetica,sans-Serif" font-size="10.00"> </text>
</a>
</g>
<!-- Node4&#45;&gt;Node1 -->
<g id="edge6" class="edge"><title>Node4&#45;&gt;Node1</title>
<path fill="none" stroke="midnightblue" d="M247.489,-184.512C263.502,-160.217 284.822,-132.309 309,-112 337.913,-87.7136 376.029,-68.8592 406.732,-56.1292"/>
<polygon fill="none" stroke="midnightblue" points="244.534,-182.636 242.051,-192.936 250.415,-186.433 244.534,-182.636"/>
</g>
<!-- Node5 -->
<g id="node8" class="node"><title>Node5</title>
<a xlink:href="$a00028.html" xlink:title="Interface used to define that a Scenery object have a Taiga style. ">
<polygon fill="white" stroke="black" points="317.5,-201 317.5,-273 450.5,-273 450.5,-201 317.5,-201"/>
<text text-anchor="middle" x="384" y="-260" font-family="Helvetica,sans-Serif" font-size="10.00">world.scenery.TaigaTheme</text>
<polyline fill="none" stroke="black" points="317.5,-249 450.5,-249 "/>
<text text-anchor="start" x="325.5" y="-236" font-family="Helvetica,sans-Serif" font-size="10.00">+ TAIGA</text>
<polyline fill="none" stroke="black" points="317.5,-225 450.5,-225 "/>
<text text-anchor="middle" x="384" y="-212" font-family="Helvetica,sans-Serif" font-size="10.00"> </text>
</a>
</g>
<!-- Node5&#45;&gt;Node1 -->
<g id="edge8" class="edge"><title>Node5&#45;&gt;Node1</title>
<path fill="none" stroke="midnightblue" d="M401.454,-191.067C415.046,-155.3 433.652,-106.337 446.211,-73.2864"/>
<polygon fill="none" stroke="midnightblue" points="398.044,-190.19 397.763,-200.782 404.587,-192.677 398.044,-190.19"/>
</g>
<!-- Node6 -->
<g id="node10" class="node"><title>Node6</title>
<a xlink:href="$a00002.html" xlink:title="Interface used to define that a Scenery object have an Alpine Tundra style. ">
<polygon fill="white" stroke="black" points="468,-193 468,-281 604,-281 604,-193 468,-193"/>
<text text-anchor="start" x="476" y="-268" font-family="Helvetica,sans-Serif" font-size="10.00">world.scenery.AlpineTundra</text>
<text text-anchor="middle" x="536" y="-252" font-family="Helvetica,sans-Serif" font-size="10.00">Theme</text>
<polyline fill="none" stroke="black" points="468,-241 604,-241 "/>
<text text-anchor="start" x="476" y="-228" font-family="Helvetica,sans-Serif" font-size="10.00">+ ALPINE_TUNDRA</text>
<polyline fill="none" stroke="black" points="468,-217 604,-217 "/>
<text text-anchor="middle" x="536" y="-204" font-family="Helvetica,sans-Serif" font-size="10.00"> </text>
</a>
</g>
<!-- Node6&#45;&gt;Node1 -->
<g id="edge10" class="edge"><title>Node6&#45;&gt;Node1</title>
<path fill="none" stroke="midnightblue" d="M515.505,-183.065C502.274,-148.247 485.42,-103.896 473.774,-73.2475"/>
<polygon fill="none" stroke="midnightblue" points="512.309,-184.509 519.133,-192.614 518.853,-182.022 512.309,-184.509"/>
</g>
<!-- Node7 -->
<g id="node12" class="node"><title>Node7</title>
<a xlink:href="$a00027.html" xlink:title="Interface used to define that a Scenery object have a Steppe style. ">
<polygon fill="white" stroke="black" points="622,-201 622,-273 762,-273 762,-201 622,-201"/>
<text text-anchor="middle" x="692" y="-260" font-family="Helvetica,sans-Serif" font-size="10.00">world.scenery.SteppeTheme</text>
<polyline fill="none" stroke="black" points="622,-249 762,-249 "/>
<text text-anchor="start" x="630" y="-236" font-family="Helvetica,sans-Serif" font-size="10.00">+ STEPPE</text>
<polyline fill="none" stroke="black" points="622,-225 762,-225 "/>
<text text-anchor="middle" x="692" y="-212" font-family="Helvetica,sans-Serif" font-size="10.00"> </text>
</a>
</g>
<!-- Node7&#45;&gt;Node1 -->
<g id="edge12" class="edge"><title>Node7&#45;&gt;Node1</title>
<path fill="none" stroke="midnightblue" d="M671.383,-191.99C657.73,-166.035 637.78,-134.242 613,-112 584.161,-86.1144 544.773,-67.0819 513.184,-54.667"/>
<polygon fill="none" stroke="midnightblue" points="668.274,-193.597 675.947,-200.902 674.504,-190.406 668.274,-193.597"/>
</g>
<!-- Node8 -->
<g id="node14" class="node"><title>Node8</title>
<a xlink:href="$a00023.html" xlink:title="Interface used to define that a Scenery object have a Savanna style. ">
<polygon fill="white" stroke="black" points="780,-201 780,-273 928,-273 928,-201 780,-201"/>
<text text-anchor="middle" x="854" y="-260" font-family="Helvetica,sans-Serif" font-size="10.00">world.scenery.SavannaTheme</text>
<polyline fill="none" stroke="black" points="780,-249 928,-249 "/>
<text text-anchor="start" x="788" y="-236" font-family="Helvetica,sans-Serif" font-size="10.00">+ SAVANNA</text>
<polyline fill="none" stroke="black" points="780,-225 928,-225 "/>
<text text-anchor="middle" x="854" y="-212" font-family="Helvetica,sans-Serif" font-size="10.00"> </text>
</a>
</g>
<!-- Node8&#45;&gt;Node1 -->
<g id="edge14" class="edge"><title>Node8&#45;&gt;Node1</title>
<path fill="none" stroke="midnightblue" d="M834.397,-191.546C820.484,-164.527 799.255,-131.775 771,-112 729.705,-83.0991 590.638,-57.4794 513.194,-45.0155"/>
<polygon fill="none" stroke="midnightblue" points="831.427,-193.435 839.012,-200.833 837.696,-190.32 831.427,-193.435"/>
</g>
</g>
</svg>
