<?xml version="1.0" encoding="UTF-8" standalone="no"?>
<!DOCTYPE svg PUBLIC "-//W3C//DTD SVG 1.1//EN"
 "http://www.w3.org/Graphics/SVG/1.1/DTD/svg11.dtd">
<!-- Generated by graphviz version 2.26.3 (20100126.1600)
 -->
<!-- Title: world.scenery.Shore Pages: 1 -->
<svg width="422pt" height="384pt"
 viewBox="0.00 0.00 422.00 384.00" xmlns="http://www.w3.org/2000/svg" xmlns:xlink="http://www.w3.org/1999/xlink">
<g id="graph1" class="graph" transform="scale(1 1) rotate(0) translate(4 380)">
<title>world.scenery.Shore</title>
<polygon fill="white" stroke="white" points="-4,5 -4,-380 419,-380 419,5 -4,5"/>
<!-- Node1 -->
<g id="node1" class="node"><title>Node1</title>
<polygon fill="#bfbfbf" stroke="black" points="147.5,-1 147.5,-73 252.5,-73 252.5,-1 147.5,-1"/>
<text text-anchor="middle" x="200" y="-60" font-family="Helvetica,sans-Serif" font-size="10.00">world.scenery.Shore</text>
<polyline fill="none" stroke="black" points="147.5,-49 252.5,-49 "/>
<text text-anchor="middle" x="200" y="-36" font-family="Helvetica,sans-Serif" font-size="10.00"> </text>
<polyline fill="none" stroke="black" points="147.5,-25 252.5,-25 "/>
<text text-anchor="start" x="155.5" y="-12" font-family="Helvetica,sans-Serif" font-size="10.00">+ Shore()</text>
</g>
<!-- Node2 -->
<g id="node2" class="node"><title>Node2</title>
<a xlink:href="$a00024.html" xlink:title="Class used to handle any world object. ">
<polygon fill="white" stroke="black" points="-0.5,-111 -0.5,-375 116.5,-375 116.5,-111 -0.5,-111"/>
<text text-anchor="middle" x="58" y="-362" font-family="Helvetica,sans-Serif" font-size="10.00">world.scenery.Scenery</text>
<polyline fill="none" stroke="black" points="-0.5,-351 116.5,-351 "/>
<text text-anchor="start" x="7.5" y="-338" font-family="Helvetica,sans-Serif" font-size="10.00"># spriteImage</text>
<text text-anchor="start" x="7.5" y="-322" font-family="Helvetica,sans-Serif" font-size="10.00"># height</text>
<text text-anchor="start" x="7.5" y="-306" font-family="Helvetica,sans-Serif" font-size="10.00"># width</text>
<text text-anchor="start" x="7.5" y="-290" font-family="Helvetica,sans-Serif" font-size="10.00"># xShift</text>
<text text-anchor="start" x="7.5" y="-274" font-family="Helvetica,sans-Serif" font-size="10.00"># yShift</text>
<text text-anchor="start" x="7.5" y="-258" font-family="Helvetica,sans-Serif" font-size="10.00"># visible</text>
<text text-anchor="start" x="7.5" y="-242" font-family="Helvetica,sans-Serif" font-size="10.00"># SCENERY_HEIGHT</text>
<text text-anchor="start" x="7.5" y="-226" font-family="Helvetica,sans-Serif" font-size="10.00"># SCENERY_WIDTH</text>
<polyline fill="none" stroke="black" points="-0.5,-215 116.5,-215 "/>
<text text-anchor="start" x="7.5" y="-202" font-family="Helvetica,sans-Serif" font-size="10.00">+ Scenery()</text>
<text text-anchor="start" x="7.5" y="-186" font-family="Helvetica,sans-Serif" font-size="10.00">+ Scenery()</text>
<text text-anchor="start" x="7.5" y="-170" font-family="Helvetica,sans-Serif" font-size="10.00">+ Scenery()</text>
<text text-anchor="start" x="7.5" y="-154" font-family="Helvetica,sans-Serif" font-size="10.00">+ drawScenery()</text>
<text text-anchor="start" x="7.5" y="-138" font-family="Helvetica,sans-Serif" font-size="10.00">+ getSceneryHeight()</text>
<text text-anchor="start" x="7.5" y="-122" font-family="Helvetica,sans-Serif" font-size="10.00">+ getSceneryWidth()</text>
</a>
</g>
<!-- Node2&#45;&gt;Node1 -->
<g id="edge2" class="edge"><title>Node2&#45;&gt;Node1</title>
<path fill="none" stroke="midnightblue" d="M122.366,-113.655C123.238,-112.424 124.116,-111.205 125,-110 134.564,-96.9594 146.543,-84.163 158.101,-73.0171"/>
<polygon fill="none" stroke="midnightblue" points="119.454,-111.713 116.697,-121.942 125.232,-115.664 119.454,-111.713"/>
</g>
<!-- Node3 -->
<g id="node4" class="node"><title>Node3</title>
<a xlink:href="$a00028.html" xlink:title="Interface used to define that a Scenery object have a Taiga style. ">
<polygon fill="white" stroke="black" points="133.5,-207 133.5,-279 266.5,-279 266.5,-207 133.5,-207"/>
<text text-anchor="middle" x="200" y="-266" font-family="Helvetica,sans-Serif" font-size="10.00">world.scenery.TaigaTheme</text>
<polyline fill="none" stroke="black" points="133.5,-255 266.5,-255 "/>
<text text-anchor="start" x="141.5" y="-242" font-family="Helvetica,sans-Serif" font-size="10.00">+ TAIGA</text>
<polyline fill="none" stroke="black" points="133.5,-231 266.5,-231 "/>
<text text-anchor="middle" x="200" y="-218" font-family="Helvetica,sans-Serif" font-size="10.00"> </text>
</a>
</g>
<!-- Node3&#45;&gt;Node1 -->
<g id="edge4" class="edge"><title>Node3&#45;&gt;Node1</title>
<path fill="none" stroke="midnightblue" d="M200,-196.535C200,-159.25 200,-107.644 200,-73.3369"/>
<polygon fill="none" stroke="midnightblue" points="196.5,-196.645 200,-206.646 203.5,-196.646 196.5,-196.645"/>
</g>
<!-- Node4 -->
<g id="node6" class="node"><title>Node4</title>
<a xlink:href="$a00019.html" xlink:title="Interface used to define that a Scenery object has a Polar Desert style. ">
<polygon fill="white" stroke="black" points="283.5,-199 283.5,-287 414.5,-287 414.5,-199 283.5,-199"/>
<text text-anchor="start" x="291.5" y="-274" font-family="Helvetica,sans-Serif" font-size="10.00">world.scenery.PolarDesert</text>
<text text-anchor="middle" x="349" y="-258" font-family="Helvetica,sans-Serif" font-size="10.00">Theme</text>
<polyline fill="none" stroke="black" points="283.5,-247 414.5,-247 "/>
<text text-anchor="start" x="291.5" y="-234" font-family="Helvetica,sans-Serif" font-size="10.00">+ POLAR_DESERT</text>
<polyline fill="none" stroke="black" points="283.5,-223 414.5,-223 "/>
<text text-anchor="middle" x="349" y="-210" font-family="Helvetica,sans-Serif" font-size="10.00"> </text>
</a>
</g>
<!-- Node4&#45;&gt;Node1 -->
<g id="edge6" class="edge"><title>Node4&#45;&gt;Node1</title>
<path fill="none" stroke="midnightblue" d="M323.901,-189.737C310.898,-164.499 293.81,-134.574 275,-110 265.17,-97.1586 253.111,-84.4229 241.559,-73.2714"/>
<polygon fill="none" stroke="midnightblue" points="320.856,-191.471 328.503,-198.804 327.098,-188.303 320.856,-191.471"/>
</g>
</g>
</svg>
