<?xml version="1.0" encoding="UTF-8" standalone="no"?>
<!DOCTYPE svg PUBLIC "-//W3C//DTD SVG 1.1//EN"
 "http://www.w3.org/Graphics/SVG/1.1/DTD/svg11.dtd">
<!-- Generated by graphviz version 2.26.3 (20100126.1600)
 -->
<!-- Title: world.scenery.Tree Pages: 1 -->
<svg width="1536pt" height="576pt"
 viewBox="0.00 0.00 1536.00 576.00" xmlns="http://www.w3.org/2000/svg" xmlns:xlink="http://www.w3.org/1999/xlink">
<g id="graph1" class="graph" transform="scale(1 1) rotate(0) translate(4 572)">
<title>world.scenery.Tree</title>
<polygon fill="white" stroke="white" points="-4,5 -4,-572 1533,-572 1533,5 -4,5"/>
<!-- Node1 -->
<g id="node1" class="node"><title>Node1</title>
<polygon fill="#bfbfbf" stroke="black" points="699,-1 699,-153 797,-153 797,-1 699,-1"/>
<text text-anchor="middle" x="748" y="-140" font-family="Helvetica,sans-Serif" font-size="10.00">world.scenery.Tree</text>
<polyline fill="none" stroke="black" points="699,-129 797,-129 "/>
<text text-anchor="middle" x="748" y="-116" font-family="Helvetica,sans-Serif" font-size="10.00"> </text>
<polyline fill="none" stroke="black" points="699,-105 797,-105 "/>
<text text-anchor="start" x="707" y="-92" font-family="Helvetica,sans-Serif" font-size="10.00">+ Tree()</text>
<text text-anchor="start" x="707" y="-76" font-family="Helvetica,sans-Serif" font-size="10.00">+ triggerAction()</text>
<text text-anchor="start" x="707" y="-60" font-family="Helvetica,sans-Serif" font-size="10.00">+ playerNear()</text>
<text text-anchor="start" x="707" y="-44" font-family="Helvetica,sans-Serif" font-size="10.00">+ playerEnter()</text>
<text text-anchor="start" x="707" y="-28" font-family="Helvetica,sans-Serif" font-size="10.00">+ playerLeave()</text>
<text text-anchor="start" x="707" y="-12" font-family="Helvetica,sans-Serif" font-size="10.00">+ isTraversable()</text>
</g>
<!-- Node2 -->
<g id="node2" class="node"><title>Node2</title>
<a xlink:href="$a00024.html" xlink:title="Class used to handle any world object. ">
<polygon fill="white" stroke="black" points="-0.5,-193 -0.5,-441 116.5,-441 116.5,-193 -0.5,-193"/>
<text text-anchor="middle" x="58" y="-428" font-family="Helvetica,sans-Serif" font-size="10.00">world.scenery.Scenery</text>
<polyline fill="none" stroke="black" points="-0.5,-417 116.5,-417 "/>
<text text-anchor="start" x="7.5" y="-404" font-family="Helvetica,sans-Serif" font-size="10.00"># height</text>
<text text-anchor="start" x="7.5" y="-388" font-family="Helvetica,sans-Serif" font-size="10.00"># width</text>
<text text-anchor="start" x="7.5" y="-372" font-family="Helvetica,sans-Serif" font-size="10.00"># xShift</text>
<text text-anchor="start" x="7.5" y="-356" font-family="Helvetica,sans-Serif" font-size="10.00"># yShift</text>
<text text-anchor="start" x="7.5" y="-340" font-family="Helvetica,sans-Serif" font-size="10.00"># visible</text>
<text text-anchor="start" x="7.5" y="-324" font-family="Helvetica,sans-Serif" font-size="10.00"># SCENERY_HEIGHT</text>
<text text-anchor="start" x="7.5" y="-308" font-family="Helvetica,sans-Serif" font-size="10.00"># SCENERY_WIDTH</text>
<polyline fill="none" stroke="black" points="-0.5,-297 116.5,-297 "/>
<text text-anchor="start" x="7.5" y="-284" font-family="Helvetica,sans-Serif" font-size="10.00">+ Scenery()</text>
<text text-anchor="start" x="7.5" y="-268" font-family="Helvetica,sans-Serif" font-size="10.00">+ Scenery()</text>
<text text-anchor="start" x="7.5" y="-252" font-family="Helvetica,sans-Serif" font-size="10.00">+ Scenery()</text>
<text text-anchor="start" x="7.5" y="-236" font-family="Helvetica,sans-Serif" font-size="10.00">+ drawScenery()</text>
<text text-anchor="start" x="7.5" y="-220" font-family="Helvetica,sans-Serif" font-size="10.00">+ getSceneryHeight()</text>
<text text-anchor="start" x="7.5" y="-204" font-family="Helvetica,sans-Serif" font-size="10.00">+ getSceneryWidth()</text>
</a>
</g>
<!-- Node2&#45;&gt;Node1 -->
<g id="edge2" class="edge"><title>Node2&#45;&gt;Node1</title>
<path fill="none" stroke="midnightblue" d="M124.461,-192.397C124.64,-192.264 124.82,-192.132 125,-192 217.05,-124.793 568.375,-91.0321 698.842,-80.6111"/>
<polygon fill="none" stroke="midnightblue" points="122.193,-189.73 116.681,-198.778 126.633,-195.142 122.193,-189.73"/>
</g>
<!-- Node3 -->
<g id="node4" class="node"><title>Node3</title>
<polygon fill="white" stroke="#bfbfbf" points="36,-495 36,-567 80,-567 80,-495 36,-495"/>
<text text-anchor="middle" x="58" y="-554" font-family="Helvetica,sans-Serif" font-size="10.00">Image</text>
<polyline fill="none" stroke="#bfbfbf" points="36,-543 80,-543 "/>
<text text-anchor="middle" x="58" y="-530" font-family="Helvetica,sans-Serif" font-size="10.00"> </text>
<polyline fill="none" stroke="#bfbfbf" points="36,-519 80,-519 "/>
<text text-anchor="middle" x="58" y="-506" font-family="Helvetica,sans-Serif" font-size="10.00"> </text>
</g>
<!-- Node3&#45;&gt;Node2 -->
<g id="edge4" class="edge"><title>Node3&#45;&gt;Node2</title>
<path fill="none" stroke="#404040" d="M58,-494.698C58,-482.654 58,-468.447 58,-453.398"/>
<polygon fill="none" stroke="#404040" points="58.0001,-453.175 54,-447.175 58,-441.175 62,-447.175 58.0001,-453.175"/>
<text text-anchor="middle" x="88" y="-467" font-family="Helvetica,sans-Serif" font-size="10.00"> #spriteImage</text>
</g>
<!-- Node4 -->
<g id="node6" class="node"><title>Node4</title>
<a xlink:href="$a00014.html" xlink:title="Interface telling that the object interacts with the player. ">
<polygon fill="white" stroke="black" points="133.5,-249 133.5,-385 250.5,-385 250.5,-249 133.5,-249"/>
<text text-anchor="middle" x="192" y="-372" font-family="Helvetica,sans-Serif" font-size="10.00">world.InteractiveObject</text>
<polyline fill="none" stroke="black" points="133.5,-361 250.5,-361 "/>
<text text-anchor="middle" x="192" y="-348" font-family="Helvetica,sans-Serif" font-size="10.00"> </text>
<polyline fill="none" stroke="black" points="133.5,-337 250.5,-337 "/>
<text text-anchor="start" x="141.5" y="-324" font-family="Helvetica,sans-Serif" font-size="10.00">+ triggerAction()</text>
<text text-anchor="start" x="141.5" y="-308" font-family="Helvetica,sans-Serif" font-size="10.00">+ playerNear()</text>
<text text-anchor="start" x="141.5" y="-292" font-family="Helvetica,sans-Serif" font-size="10.00">+ playerEnter()</text>
<text text-anchor="start" x="141.5" y="-276" font-family="Helvetica,sans-Serif" font-size="10.00">+ playerLeave()</text>
<text text-anchor="start" x="141.5" y="-260" font-family="Helvetica,sans-Serif" font-size="10.00">+ isTraversable()</text>
</a>
</g>
<!-- Node4&#45;&gt;Node1 -->
<g id="edge6" class="edge"><title>Node4&#45;&gt;Node1</title>
<path fill="none" stroke="midnightblue" d="M220.525,-239.416C230.303,-221.615 242.952,-204.323 259,-192 328.343,-138.75 589.023,-98.3694 698.793,-83.3633"/>
<polygon fill="none" stroke="midnightblue" points="217.181,-238.261 215.67,-248.747 223.391,-241.491 217.181,-238.261"/>
</g>
<!-- Node5 -->
<g id="node8" class="node"><title>Node5</title>
<a xlink:href="$a00030.html" xlink:title="Interface used to define that a Scenery object have a Temperate Broadleaf style. ">
<polygon fill="white" stroke="black" points="267.5,-273 267.5,-361 434.5,-361 434.5,-273 267.5,-273"/>
<text text-anchor="start" x="275.5" y="-348" font-family="Helvetica,sans-Serif" font-size="10.00">world.scenery.TemperateBroadleaf</text>
<text text-anchor="middle" x="351" y="-332" font-family="Helvetica,sans-Serif" font-size="10.00">Theme</text>
<polyline fill="none" stroke="black" points="267.5,-321 434.5,-321 "/>
<text text-anchor="start" x="275.5" y="-308" font-family="Helvetica,sans-Serif" font-size="10.00">+ TEMPERATE_BROADLEAF</text>
<polyline fill="none" stroke="black" points="267.5,-297 434.5,-297 "/>
<text text-anchor="middle" x="351" y="-284" font-family="Helvetica,sans-Serif" font-size="10.00"> </text>
</a>
</g>
<!-- Node5&#45;&gt;Node1 -->
<g id="edge8" class="edge"><title>Node5&#45;&gt;Node1</title>
<path fill="none" stroke="midnightblue" d="M380.076,-264.26C395.94,-239.511 417.545,-211.288 443,-192 521.706,-132.36 634.827,-100.593 698.876,-86.4115"/>
<polygon fill="none" stroke="midnightblue" points="377.04,-262.514 374.707,-272.849 382.976,-266.225 377.04,-262.514"/>
</g>
<!-- Node6 -->
<g id="node10" class="node"><title>Node6</title>
<a xlink:href="$a00028.html" xlink:title="Interface used to define that a Scenery object have a Taiga style. ">
<polygon fill="white" stroke="black" points="451.5,-281 451.5,-353 584.5,-353 584.5,-281 451.5,-281"/>
<text text-anchor="middle" x="518" y="-340" font-family="Helvetica,sans-Serif" font-size="10.00">world.scenery.TaigaTheme</text>
<polyline fill="none" stroke="black" points="451.5,-329 584.5,-329 "/>
<text text-anchor="start" x="459.5" y="-316" font-family="Helvetica,sans-Serif" font-size="10.00">+ TAIGA</text>
<polyline fill="none" stroke="black" points="451.5,-305 584.5,-305 "/>
<text text-anchor="middle" x="518" y="-292" font-family="Helvetica,sans-Serif" font-size="10.00"> </text>
</a>
</g>
<!-- Node6&#45;&gt;Node1 -->
<g id="edge10" class="edge"><title>Node6&#45;&gt;Node1</title>
<path fill="none" stroke="midnightblue" d="M539.522,-271.856C552.81,-246.72 571.427,-215.796 593,-192 623.833,-157.991 666.056,-127.447 698.647,-106.399"/>
<polygon fill="none" stroke="midnightblue" points="536.364,-270.341 534.871,-280.83 542.579,-273.562 536.364,-270.341"/>
</g>
<!-- Node7 -->
<g id="node12" class="node"><title>Node7</title>
<a xlink:href="$a00002.html" xlink:title="Interface used to define that a Scenery object have an Alpine Tundra style. ">
<polygon fill="white" stroke="black" points="602,-273 602,-361 738,-361 738,-273 602,-273"/>
<text text-anchor="start" x="610" y="-348" font-family="Helvetica,sans-Serif" font-size="10.00">world.scenery.AlpineTundra</text>
<text text-anchor="middle" x="670" y="-332" font-family="Helvetica,sans-Serif" font-size="10.00">Theme</text>
<polyline fill="none" stroke="black" points="602,-321 738,-321 "/>
<text text-anchor="start" x="610" y="-308" font-family="Helvetica,sans-Serif" font-size="10.00">+ ALPINE_TUNDRA</text>
<polyline fill="none" stroke="black" points="602,-297 738,-297 "/>
<text text-anchor="middle" x="670" y="-284" font-family="Helvetica,sans-Serif" font-size="10.00"> </text>
</a>
</g>
<!-- Node7&#45;&gt;Node1 -->
<g id="edge12" class="edge"><title>Node7&#45;&gt;Node1</title>
<path fill="none" stroke="midnightblue" d="M687.471,-263.244C698,-230.847 711.578,-189.069 723.205,-153.293"/>
<polygon fill="none" stroke="midnightblue" points="684.069,-262.388 684.306,-272.98 690.726,-264.552 684.069,-262.388"/>
</g>
<!-- Node8 -->
<g id="node14" class="node"><title>Node8</title>
<a xlink:href="$a00027.html" xlink:title="Interface used to define that a Scenery object have a Steppe style. ">
<polygon fill="white" stroke="black" points="756,-281 756,-353 896,-353 896,-281 756,-281"/>
<text text-anchor="middle" x="826" y="-340" font-family="Helvetica,sans-Serif" font-size="10.00">world.scenery.SteppeTheme</text>
<polyline fill="none" stroke="black" points="756,-329 896,-329 "/>
<text text-anchor="start" x="764" y="-316" font-family="Helvetica,sans-Serif" font-size="10.00">+ STEPPE</text>
<polyline fill="none" stroke="black" points="756,-305 896,-305 "/>
<text text-anchor="middle" x="826" y="-292" font-family="Helvetica,sans-Serif" font-size="10.00"> </text>
</a>
</g>
<!-- Node8&#45;&gt;Node1 -->
<g id="edge14" class="edge"><title>Node8&#45;&gt;Node1</title>
<path fill="none" stroke="midnightblue" d="M811.018,-270.903C800.204,-237.627 785.354,-191.935 772.786,-153.264"/>
<polygon fill="none" stroke="midnightblue" points="807.819,-272.381 814.238,-280.81 814.476,-270.218 807.819,-272.381"/>
</g>
<!-- Node9 -->
<g id="node16" class="node"><title>Node9</title>
<a xlink:href="$a00004.html" xlink:title="Interface used to tell that a Scenery object has a Cave style. ">
<polygon fill="white" stroke="black" points="913.5,-281 913.5,-353 1046.5,-353 1046.5,-281 913.5,-281"/>
<text text-anchor="middle" x="980" y="-340" font-family="Helvetica,sans-Serif" font-size="10.00">world.scenery.CaveTheme</text>
<polyline fill="none" stroke="black" points="913.5,-329 1046.5,-329 "/>
<text text-anchor="start" x="921.5" y="-316" font-family="Helvetica,sans-Serif" font-size="10.00">+ CAVE</text>
<polyline fill="none" stroke="black" points="913.5,-305 1046.5,-305 "/>
<text text-anchor="middle" x="980" y="-292" font-family="Helvetica,sans-Serif" font-size="10.00"> </text>
</a>
</g>
<!-- Node9&#45;&gt;Node1 -->
<g id="edge16" class="edge"><title>Node9&#45;&gt;Node1</title>
<path fill="none" stroke="midnightblue" d="M958.534,-271.805C945.263,-246.653 926.646,-215.73 905,-192 873.578,-157.553 830.41,-126.826 797.291,-105.819"/>
<polygon fill="none" stroke="midnightblue" points="955.476,-273.511 963.177,-280.787 961.694,-270.296 955.476,-273.511"/>
</g>
<!-- Node10 -->
<g id="node18" class="node"><title>Node10</title>
<a xlink:href="$a00019.html" xlink:title="Interface used to define that a Scenery object has a Polar Desert style. ">
<polygon fill="white" stroke="black" points="1063.5,-273 1063.5,-361 1194.5,-361 1194.5,-273 1063.5,-273"/>
<text text-anchor="start" x="1071.5" y="-348" font-family="Helvetica,sans-Serif" font-size="10.00">world.scenery.PolarDesert</text>
<text text-anchor="middle" x="1129" y="-332" font-family="Helvetica,sans-Serif" font-size="10.00">Theme</text>
<polyline fill="none" stroke="black" points="1063.5,-321 1194.5,-321 "/>
<text text-anchor="start" x="1071.5" y="-308" font-family="Helvetica,sans-Serif" font-size="10.00">+ POLAR_DESERT</text>
<polyline fill="none" stroke="black" points="1063.5,-297 1194.5,-297 "/>
<text text-anchor="middle" x="1129" y="-284" font-family="Helvetica,sans-Serif" font-size="10.00"> </text>
</a>
</g>
<!-- Node10&#45;&gt;Node1 -->
<g id="edge18" class="edge"><title>Node10&#45;&gt;Node1</title>
<path fill="none" stroke="midnightblue" d="M1107.4,-263.53C1095.16,-238.919 1077.71,-211.028 1055,-192 978.432,-127.854 862.564,-97.6113 797.265,-84.9341"/>
<polygon fill="none" stroke="midnightblue" points="1104.35,-265.273 1111.83,-272.777 1110.67,-262.247 1104.35,-265.273"/>
</g>
<!-- Node11 -->
<g id="node20" class="node"><title>Node11</title>
<a xlink:href="$a00040.html" xlink:title="Interface used to define that a Scenery object have a Xeric Shrublands style. ">
<polygon fill="white" stroke="black" points="1211.5,-273 1211.5,-361 1362.5,-361 1362.5,-273 1211.5,-273"/>
<text text-anchor="start" x="1219.5" y="-348" font-family="Helvetica,sans-Serif" font-size="10.00">world.scenery.XericShrublands</text>
<text text-anchor="middle" x="1287" y="-332" font-family="Helvetica,sans-Serif" font-size="10.00">Theme</text>
<polyline fill="none" stroke="black" points="1211.5,-321 1362.5,-321 "/>
<text text-anchor="start" x="1219.5" y="-308" font-family="Helvetica,sans-Serif" font-size="10.00">+ XERIC_SHRUBLANDS</text>
<polyline fill="none" stroke="black" points="1211.5,-297 1362.5,-297 "/>
<text text-anchor="middle" x="1287" y="-284" font-family="Helvetica,sans-Serif" font-size="10.00"> </text>
</a>
</g>
<!-- Node11&#45;&gt;Node1 -->
<g id="edge20" class="edge"><title>Node11&#45;&gt;Node1</title>
<path fill="none" stroke="midnightblue" d="M1262.72,-263.806C1248.65,-238.554 1228.61,-210.028 1203,-192 1137.04,-145.571 900.928,-102.168 797.326,-84.8845"/>
<polygon fill="none" stroke="midnightblue" points="1259.81,-265.788 1267.63,-272.935 1265.97,-262.471 1259.81,-265.788"/>
</g>
<!-- Node12 -->
<g id="node22" class="node"><title>Node12</title>
<a xlink:href="$a00023.html" xlink:title="Interface used to define that a Scenery object have a Savanna style. ">
<polygon fill="white" stroke="black" points="1380,-281 1380,-353 1528,-353 1528,-281 1380,-281"/>
<text text-anchor="middle" x="1454" y="-340" font-family="Helvetica,sans-Serif" font-size="10.00">world.scenery.SavannaTheme</text>
<polyline fill="none" stroke="black" points="1380,-329 1528,-329 "/>
<text text-anchor="start" x="1388" y="-316" font-family="Helvetica,sans-Serif" font-size="10.00">+ SAVANNA</text>
<polyline fill="none" stroke="black" points="1380,-305 1528,-305 "/>
<text text-anchor="middle" x="1454" y="-292" font-family="Helvetica,sans-Serif" font-size="10.00"> </text>
</a>
</g>
<!-- Node12&#45;&gt;Node1 -->
<g id="edge22" class="edge"><title>Node12&#45;&gt;Node1</title>
<path fill="none" stroke="midnightblue" d="M1435.22,-271.915C1421.46,-244.515 1400.1,-211.215 1371,-192 1276,-129.274 927.302,-92.7978 797.295,-81.1325"/>
<polygon fill="none" stroke="midnightblue" points="1432.09,-273.476 1439.6,-280.952 1438.39,-270.426 1432.09,-273.476"/>
</g>
</g>
</svg>
