<?xml version="1.0" encoding="UTF-8" standalone="no"?>
<!DOCTYPE svg PUBLIC "-//W3C//DTD SVG 1.1//EN"
 "http://www.w3.org/Graphics/SVG/1.1/DTD/svg11.dtd">
<!-- Generated by graphviz version 2.26.3 (20100126.1600)
 -->
<!-- Title: window.topbar.TopBar Pages: 1 -->
<svg width="222pt" height="462pt"
 viewBox="0.00 0.00 222.00 462.00" xmlns="http://www.w3.org/2000/svg" xmlns:xlink="http://www.w3.org/1999/xlink">
<g id="graph1" class="graph" transform="scale(1 1) rotate(0) translate(4 458)">
<title>window.topbar.TopBar</title>
<polygon fill="white" stroke="white" points="-4,5 -4,-458 219,-458 219,5 -4,5"/>
<!-- Node1 -->
<g id="node1" class="node"><title>Node1</title>
<polygon fill="#bfbfbf" stroke="black" points="3,-1 3,-169 115,-169 115,-1 3,-1"/>
<text text-anchor="middle" x="59" y="-156" font-family="Helvetica,sans-Serif" font-size="10.00">window.topbar.TopBar</text>
<polyline fill="none" stroke="black" points="3,-145 115,-145 "/>
<text text-anchor="start" x="11" y="-132" font-family="Helvetica,sans-Serif" font-size="10.00"># TOPBAR_HEIGHT</text>
<text text-anchor="start" x="11" y="-116" font-family="Helvetica,sans-Serif" font-size="10.00"># TOPBAR_MARGIN</text>
<polyline fill="none" stroke="black" points="3,-105 115,-105 "/>
<text text-anchor="start" x="11" y="-92" font-family="Helvetica,sans-Serif" font-size="10.00">+ TopBar()</text>
<text text-anchor="start" x="11" y="-76" font-family="Helvetica,sans-Serif" font-size="10.00">+ hidePauseButton()</text>
<text text-anchor="start" x="11" y="-60" font-family="Helvetica,sans-Serif" font-size="10.00">+ showPauseButton()</text>
<text text-anchor="start" x="11" y="-44" font-family="Helvetica,sans-Serif" font-size="10.00">+ paintComponent()</text>
<text text-anchor="start" x="11" y="-28" font-family="Helvetica,sans-Serif" font-size="10.00">+ getTopBarHeight()</text>
<text text-anchor="start" x="11" y="-12" font-family="Helvetica,sans-Serif" font-size="10.00">+ getTopBarMargin()</text>
</g>
<!-- Node2 -->
<g id="node2" class="node"><title>Node2</title>
<polygon fill="white" stroke="#bfbfbf" points="-0.5,-247 -0.5,-319 46.5,-319 46.5,-247 -0.5,-247"/>
<text text-anchor="middle" x="23" y="-306" font-family="Helvetica,sans-Serif" font-size="10.00">JPanel</text>
<polyline fill="none" stroke="#bfbfbf" points="-0.5,-295 46.5,-295 "/>
<text text-anchor="middle" x="23" y="-282" font-family="Helvetica,sans-Serif" font-size="10.00"> </text>
<polyline fill="none" stroke="#bfbfbf" points="-0.5,-271 46.5,-271 "/>
<text text-anchor="middle" x="23" y="-258" font-family="Helvetica,sans-Serif" font-size="10.00"> </text>
</g>
<!-- Node2&#45;&gt;Node1 -->
<g id="edge2" class="edge"><title>Node2&#45;&gt;Node1</title>
<path fill="none" stroke="midnightblue" d="M31.3929,-236.839C35.0607,-216.666 39.4812,-192.354 43.6993,-169.154"/>
<polygon fill="none" stroke="midnightblue" points="27.9483,-236.219 29.603,-246.684 34.8354,-237.471 27.9483,-236.219"/>
</g>
<!-- Node3 -->
<g id="node4" class="node"><title>Node3</title>
<a xlink:href="$a00032.html" xlink:title="Class handling the UI buttons. ">
<polygon fill="white" stroke="black" points="64,-239 64,-327 204,-327 204,-239 64,-239"/>
<text text-anchor="middle" x="134" y="-314" font-family="Helvetica,sans-Serif" font-size="10.00">window.topbar.TopBarButton</text>
<polyline fill="none" stroke="black" points="64,-303 204,-303 "/>
<text text-anchor="middle" x="134" y="-290" font-family="Helvetica,sans-Serif" font-size="10.00"> </text>
<polyline fill="none" stroke="black" points="64,-279 204,-279 "/>
<text text-anchor="start" x="72" y="-266" font-family="Helvetica,sans-Serif" font-size="10.00">+ TopBarButton()</text>
<text text-anchor="start" x="72" y="-250" font-family="Helvetica,sans-Serif" font-size="10.00">+ paintComponent()</text>
</a>
</g>
<!-- Node3&#45;&gt;Node1 -->
<g id="edge4" class="edge"><title>Node3&#45;&gt;Node1</title>
<path fill="none" stroke="#404040" d="M117.169,-238.565C110.609,-221.249 102.823,-200.693 95.1151,-180.344"/>
<polygon fill="none" stroke="#404040" points="95.1,-180.304 89.234,-176.11 90.8492,-169.082 96.7153,-173.276 95.1,-180.304"/>
<text text-anchor="middle" x="141" y="-211" font-family="Helvetica,sans-Serif" font-size="10.00"> #pauseButton</text>
<text text-anchor="middle" x="141" y="-195" font-family="Helvetica,sans-Serif" font-size="10.00">#closeButton</text>
</g>
<!-- Node4 -->
<g id="node6" class="node"><title>Node4</title>
<polygon fill="white" stroke="#bfbfbf" points="76,-381 76,-453 126,-453 126,-381 76,-381"/>
<text text-anchor="middle" x="101" y="-440" font-family="Helvetica,sans-Serif" font-size="10.00">JButton</text>
<polyline fill="none" stroke="#bfbfbf" points="76,-429 126,-429 "/>
<text text-anchor="middle" x="101" y="-416" font-family="Helvetica,sans-Serif" font-size="10.00"> </text>
<polyline fill="none" stroke="#bfbfbf" points="76,-405 126,-405 "/>
<text text-anchor="middle" x="101" y="-392" font-family="Helvetica,sans-Serif" font-size="10.00"> </text>
</g>
<!-- Node4&#45;&gt;Node3 -->
<g id="edge6" class="edge"><title>Node4&#45;&gt;Node3</title>
<path fill="none" stroke="midnightblue" d="M112.38,-370.79C115.839,-356.744 119.632,-341.345 123.061,-327.419"/>
<polygon fill="none" stroke="midnightblue" points="108.923,-370.191 109.93,-380.738 115.72,-371.865 108.923,-370.191"/>
</g>
<!-- Node5 -->
<g id="node8" class="node"><title>Node5</title>
<polygon fill="white" stroke="#bfbfbf" points="144,-381 144,-453 188,-453 188,-381 144,-381"/>
<text text-anchor="middle" x="166" y="-440" font-family="Helvetica,sans-Serif" font-size="10.00">Image</text>
<polyline fill="none" stroke="#bfbfbf" points="144,-429 188,-429 "/>
<text text-anchor="middle" x="166" y="-416" font-family="Helvetica,sans-Serif" font-size="10.00"> </text>
<polyline fill="none" stroke="#bfbfbf" points="144,-405 188,-405 "/>
<text text-anchor="middle" x="166" y="-392" font-family="Helvetica,sans-Serif" font-size="10.00"> </text>
</g>
<!-- Node5&#45;&gt;Node3 -->
<g id="edge8" class="edge"><title>Node5&#45;&gt;Node3</title>
<path fill="none" stroke="#404040" d="M157.34,-380.738C154.305,-368.029 150.82,-353.436 147.485,-339.469"/>
<polygon fill="none" stroke="#404040" points="147.395,-339.091 142.111,-334.184 144.608,-327.419 149.892,-332.326 147.395,-339.091"/>
<text text-anchor="middle" x="182.5" y="-353" font-family="Helvetica,sans-Serif" font-size="10.00"> #buttonImage</text>
</g>
</g>
</svg>
