<?xml version="1.0" encoding="UTF-8" standalone="no"?>
<!DOCTYPE svg PUBLIC "-//W3C//DTD SVG 1.1//EN"
 "http://www.w3.org/Graphics/SVG/1.1/DTD/svg11.dtd">
<!-- Generated by graphviz version 2.26.3 (20100126.1600)
 -->
<!-- Title: world.scenery.AlpineTundraTheme Pages: 1 -->
<svg width="726pt" height="288pt"
 viewBox="0.00 0.00 726.00 288.00" xmlns="http://www.w3.org/2000/svg" xmlns:xlink="http://www.w3.org/1999/xlink">
<g id="graph1" class="graph" transform="scale(1 1) rotate(0) translate(4 284)">
<title>world.scenery.AlpineTundraTheme</title>
<polygon fill="white" stroke="white" points="-4,5 -4,-284 723,-284 723,5 -4,5"/>
<!-- Node1 -->
<g id="node1" class="node"><title>Node1</title>
<polygon fill="#bfbfbf" stroke="black" points="299,-191 299,-279 435,-279 435,-191 299,-191"/>
<text text-anchor="start" x="307" y="-266" font-family="Helvetica,sans-Serif" font-size="10.00">world.scenery.AlpineTundra</text>
<text text-anchor="middle" x="367" y="-250" font-family="Helvetica,sans-Serif" font-size="10.00">Theme</text>
<polyline fill="none" stroke="black" points="299,-239 435,-239 "/>
<text text-anchor="start" x="307" y="-226" font-family="Helvetica,sans-Serif" font-size="10.00">+ ALPINE_TUNDRA</text>
<polyline fill="none" stroke="black" points="299,-215 435,-215 "/>
<text text-anchor="middle" x="367" y="-202" font-family="Helvetica,sans-Serif" font-size="10.00"> </text>
</g>
<!-- Node2 -->
<g id="node3" class="node"><title>Node2</title>
<a xlink:href="$a00009.html" xlink:title="Class used to handle a flower object. ">
<polygon fill="white" stroke="black" points="-0.5,-41 -0.5,-113 108.5,-113 108.5,-41 -0.5,-41"/>
<text text-anchor="middle" x="54" y="-100" font-family="Helvetica,sans-Serif" font-size="10.00">world.scenery.Flower</text>
<polyline fill="none" stroke="black" points="-0.5,-89 108.5,-89 "/>
<text text-anchor="middle" x="54" y="-76" font-family="Helvetica,sans-Serif" font-size="10.00"> </text>
<polyline fill="none" stroke="black" points="-0.5,-65 108.5,-65 "/>
<text text-anchor="start" x="7.5" y="-52" font-family="Helvetica,sans-Serif" font-size="10.00">+ Flower()</text>
</a>
</g>
<!-- Node1&#45;&gt;Node2 -->
<g id="edge2" class="edge"><title>Node1&#45;&gt;Node2</title>
<path fill="none" stroke="midnightblue" d="M289.071,-221.716C236.977,-210.09 168.765,-189.353 117,-154 101.31,-143.285 87.4722,-127.561 76.7913,-113.112"/>
<polygon fill="none" stroke="midnightblue" points="288.419,-225.156 298.934,-223.852 289.901,-218.315 288.419,-225.156"/>
</g>
<!-- Node3 -->
<g id="node5" class="node"><title>Node3</title>
<a xlink:href="$a00011.html" xlink:title="Class used to handle a grass object. ">
<polygon fill="white" stroke="black" points="126,-41 126,-113 232,-113 232,-41 126,-41"/>
<text text-anchor="middle" x="179" y="-100" font-family="Helvetica,sans-Serif" font-size="10.00">world.scenery.Grass</text>
<polyline fill="none" stroke="black" points="126,-89 232,-89 "/>
<text text-anchor="middle" x="179" y="-76" font-family="Helvetica,sans-Serif" font-size="10.00"> </text>
<polyline fill="none" stroke="black" points="126,-65 232,-65 "/>
<text text-anchor="start" x="134" y="-52" font-family="Helvetica,sans-Serif" font-size="10.00">+ Grass()</text>
</a>
</g>
<!-- Node1&#45;&gt;Node3 -->
<g id="edge4" class="edge"><title>Node1&#45;&gt;Node3</title>
<path fill="none" stroke="midnightblue" d="M289.947,-191.051C273.064,-179.928 255.824,-167.322 241,-154 227.597,-141.954 214.758,-126.836 204.276,-113.192"/>
<polygon fill="none" stroke="midnightblue" points="288.43,-194.238 298.728,-196.729 292.231,-188.36 288.43,-194.238"/>
</g>
<!-- Node4 -->
<g id="node7" class="node"><title>Node4</title>
<a xlink:href="$a00012.html" xlink:title="Class used to handle a ground object. ">
<polygon fill="white" stroke="black" points="249.5,-41 249.5,-113 360.5,-113 360.5,-41 249.5,-41"/>
<text text-anchor="middle" x="305" y="-100" font-family="Helvetica,sans-Serif" font-size="10.00">world.scenery.Ground</text>
<polyline fill="none" stroke="black" points="249.5,-89 360.5,-89 "/>
<text text-anchor="middle" x="305" y="-76" font-family="Helvetica,sans-Serif" font-size="10.00"> </text>
<polyline fill="none" stroke="black" points="249.5,-65 360.5,-65 "/>
<text text-anchor="start" x="257.5" y="-52" font-family="Helvetica,sans-Serif" font-size="10.00">+ Ground()</text>
</a>
</g>
<!-- Node1&#45;&gt;Node4 -->
<g id="edge6" class="edge"><title>Node1&#45;&gt;Node4</title>
<path fill="none" stroke="midnightblue" d="M346.021,-181.537C337.17,-158.982 327.098,-133.314 319.149,-113.058"/>
<polygon fill="none" stroke="midnightblue" points="342.818,-182.958 349.73,-190.988 349.335,-180.401 342.818,-182.958"/>
</g>
<!-- Node5 -->
<g id="node9" class="node"><title>Node5</title>
<a xlink:href="$a00022.html" xlink:title="Class used to handle a rock object. ">
<polygon fill="white" stroke="black" points="377.5,-1 377.5,-153 480.5,-153 480.5,-1 377.5,-1"/>
<text text-anchor="middle" x="429" y="-140" font-family="Helvetica,sans-Serif" font-size="10.00">world.scenery.Rock</text>
<polyline fill="none" stroke="black" points="377.5,-129 480.5,-129 "/>
<text text-anchor="middle" x="429" y="-116" font-family="Helvetica,sans-Serif" font-size="10.00"> </text>
<polyline fill="none" stroke="black" points="377.5,-105 480.5,-105 "/>
<text text-anchor="start" x="385.5" y="-92" font-family="Helvetica,sans-Serif" font-size="10.00">+ Rock()</text>
<text text-anchor="start" x="385.5" y="-76" font-family="Helvetica,sans-Serif" font-size="10.00">+ triggerAction()</text>
<text text-anchor="start" x="385.5" y="-60" font-family="Helvetica,sans-Serif" font-size="10.00">+ playerNear()</text>
<text text-anchor="start" x="385.5" y="-44" font-family="Helvetica,sans-Serif" font-size="10.00">+ playerEnter()</text>
<text text-anchor="start" x="385.5" y="-28" font-family="Helvetica,sans-Serif" font-size="10.00">+ playerLeave()</text>
<text text-anchor="start" x="385.5" y="-12" font-family="Helvetica,sans-Serif" font-size="10.00">+ isTraversable()</text>
</a>
</g>
<!-- Node1&#45;&gt;Node5 -->
<g id="edge8" class="edge"><title>Node1&#45;&gt;Node5</title>
<path fill="none" stroke="midnightblue" d="M387.938,-181.643C391.536,-172.472 395.338,-162.784 399.117,-153.153"/>
<polygon fill="none" stroke="midnightblue" points="384.665,-180.401 384.27,-190.988 391.182,-182.958 384.665,-180.401"/>
</g>
<!-- Node6 -->
<g id="node11" class="node"><title>Node6</title>
<a xlink:href="$a00026.html" xlink:title="Class used to handle a shrub object. ">
<polygon fill="white" stroke="black" points="497.5,-41 497.5,-113 602.5,-113 602.5,-41 497.5,-41"/>
<text text-anchor="middle" x="550" y="-100" font-family="Helvetica,sans-Serif" font-size="10.00">world.scenery.Shrub</text>
<polyline fill="none" stroke="black" points="497.5,-89 602.5,-89 "/>
<text text-anchor="middle" x="550" y="-76" font-family="Helvetica,sans-Serif" font-size="10.00"> </text>
<polyline fill="none" stroke="black" points="497.5,-65 602.5,-65 "/>
<text text-anchor="start" x="505.5" y="-52" font-family="Helvetica,sans-Serif" font-size="10.00">+ Shrub()</text>
</a>
</g>
<!-- Node1&#45;&gt;Node6 -->
<g id="edge10" class="edge"><title>Node1&#45;&gt;Node6</title>
<path fill="none" stroke="midnightblue" d="M443.692,-189.439C459.371,-178.679 475.262,-166.632 489,-154 502.182,-141.88 514.813,-126.748 525.126,-113.115"/>
<polygon fill="none" stroke="midnightblue" points="441.358,-186.791 435.019,-195.28 445.268,-192.597 441.358,-186.791"/>
</g>
<!-- Node7 -->
<g id="node13" class="node"><title>Node7</title>
<a xlink:href="$a00033.html" xlink:title="Class used to handle a tree object. ">
<polygon fill="white" stroke="black" points="620,-1 620,-153 718,-153 718,-1 620,-1"/>
<text text-anchor="middle" x="669" y="-140" font-family="Helvetica,sans-Serif" font-size="10.00">world.scenery.Tree</text>
<polyline fill="none" stroke="black" points="620,-129 718,-129 "/>
<text text-anchor="middle" x="669" y="-116" font-family="Helvetica,sans-Serif" font-size="10.00"> </text>
<polyline fill="none" stroke="black" points="620,-105 718,-105 "/>
<text text-anchor="start" x="628" y="-92" font-family="Helvetica,sans-Serif" font-size="10.00">+ Tree()</text>
<text text-anchor="start" x="628" y="-76" font-family="Helvetica,sans-Serif" font-size="10.00">+ triggerAction()</text>
<text text-anchor="start" x="628" y="-60" font-family="Helvetica,sans-Serif" font-size="10.00">+ playerNear()</text>
<text text-anchor="start" x="628" y="-44" font-family="Helvetica,sans-Serif" font-size="10.00">+ playerEnter()</text>
<text text-anchor="start" x="628" y="-28" font-family="Helvetica,sans-Serif" font-size="10.00">+ playerLeave()</text>
<text text-anchor="start" x="628" y="-12" font-family="Helvetica,sans-Serif" font-size="10.00">+ isTraversable()</text>
</a>
</g>
<!-- Node1&#45;&gt;Node7 -->
<g id="edge12" class="edge"><title>Node1&#45;&gt;Node7</title>
<path fill="none" stroke="midnightblue" d="M445.148,-221.619C495.976,-210.04 561.72,-189.396 611,-154 613.991,-151.852 616.895,-149.505 619.707,-147.008"/>
<polygon fill="none" stroke="midnightblue" points="444.202,-218.243 435.191,-223.815 445.71,-225.079 444.202,-218.243"/>
</g>
</g>
</svg>
