<?xml version="1.0" encoding="UTF-8" standalone="no"?>
<!DOCTYPE svg PUBLIC "-//W3C//DTD SVG 1.1//EN"
 "http://www.w3.org/Graphics/SVG/1.1/DTD/svg11.dtd">
<!-- Generated by graphviz version 2.26.3 (20100126.1600)
 -->
<!-- Title: world.character.Character.move Pages: 1 -->
<svg width="362pt" height="74pt"
 viewBox="0.00 0.00 362.00 74.00" xmlns="http://www.w3.org/2000/svg" xmlns:xlink="http://www.w3.org/1999/xlink">
<g id="graph1" class="graph" transform="scale(1 1) rotate(0) translate(4 70)">
<title>world.character.Character.move</title>
<polygon fill="white" stroke="white" points="-4,5 -4,-70 359,-70 359,5 -4,5"/>
<!-- Node1 -->
<g id="node1" class="node"><title>Node1</title>
<polygon fill="#bfbfbf" stroke="black" points="0.5,-21 0.5,-45 155.5,-45 155.5,-21 0.5,-21"/>
<text text-anchor="middle" x="78" y="-32" font-family="Helvetica,sans-Serif" font-size="10.00">world.character.Character.move</text>
</g>
<!-- Node2 -->
<g id="node3" class="node"><title>Node2</title>
<a xlink:href="$classworld_1_1character_1_1_character.html#afd88136a2b4b1ece60657bb4481ab955" xlink:title="Slowly horizontally move the character to a certain point regarding his current position. ">
<polygon fill="white" stroke="black" points="192.5,-42 192.5,-66 353.5,-66 353.5,-42 192.5,-42"/>
<text text-anchor="middle" x="273" y="-53" font-family="Helvetica,sans-Serif" font-size="10.00">world.character.Character.moveX</text>
</a>
</g>
<!-- Node1&#45;&gt;Node2 -->
<g id="edge2" class="edge"><title>Node1&#45;&gt;Node2</title>
<path fill="none" stroke="midnightblue" d="M155.629,-41.3601C164.427,-42.3075 173.449,-43.2791 182.394,-44.2424"/>
<polygon fill="midnightblue" stroke="midnightblue" points="182.126,-47.7337 192.444,-45.3247 182.876,-40.774 182.126,-47.7337"/>
</g>
<!-- Node3 -->
<g id="node5" class="node"><title>Node3</title>
<a xlink:href="$classworld_1_1character_1_1_character.html#af0dd57e9b3d6a43fec1292f5333f0208" xlink:title="Slowly vertically move the character to a certain point regarding his current position. ">
<polygon fill="white" stroke="black" points="192.5,-0 192.5,-24 353.5,-24 353.5,-0 192.5,-0"/>
<text text-anchor="middle" x="273" y="-11" font-family="Helvetica,sans-Serif" font-size="10.00">world.character.Character.moveY</text>
</a>
</g>
<!-- Node1&#45;&gt;Node3 -->
<g id="edge4" class="edge"><title>Node1&#45;&gt;Node3</title>
<path fill="none" stroke="midnightblue" d="M155.629,-24.6399C164.427,-23.6925 173.449,-22.7209 182.394,-21.7576"/>
<polygon fill="midnightblue" stroke="midnightblue" points="182.876,-25.226 192.444,-20.6753 182.126,-18.2663 182.876,-25.226"/>
</g>
</g>
</svg>
