<?xml version="1.0" encoding="UTF-8" standalone="no"?>
<!DOCTYPE svg PUBLIC "-//W3C//DTD SVG 1.1//EN"
 "http://www.w3.org/Graphics/SVG/1.1/DTD/svg11.dtd">
<!-- Generated by graphviz version 2.26.3 (20100126.1600)
 -->
<!-- Title: world.character.TalkingCharacter Pages: 1 -->
<svg width="258pt" height="864pt"
 viewBox="0.00 0.00 258.00 864.00" xmlns="http://www.w3.org/2000/svg" xmlns:xlink="http://www.w3.org/1999/xlink">
<g id="graph1" class="graph" transform="scale(1 1) rotate(0) translate(4 860)">
<title>world.character.TalkingCharacter</title>
<polygon fill="white" stroke="white" points="-4,5 -4,-860 255,-860 255,5 -4,5"/>
<!-- Node1 -->
<g id="node1" class="node"><title>Node1</title>
<polygon fill="#bfbfbf" stroke="black" points="78.5,-1 78.5,-105 237.5,-105 237.5,-1 78.5,-1"/>
<text text-anchor="middle" x="158" y="-92" font-family="Helvetica,sans-Serif" font-size="10.00">world.character.TalkingCharacter</text>
<polyline fill="none" stroke="black" points="78.5,-81 237.5,-81 "/>
<text text-anchor="middle" x="158" y="-68" font-family="Helvetica,sans-Serif" font-size="10.00"> </text>
<polyline fill="none" stroke="black" points="78.5,-57 237.5,-57 "/>
<text text-anchor="start" x="86.5" y="-44" font-family="Helvetica,sans-Serif" font-size="10.00">+ TalkingCharacter()</text>
<text text-anchor="start" x="86.5" y="-28" font-family="Helvetica,sans-Serif" font-size="10.00">+ talk()</text>
<text text-anchor="start" x="86.5" y="-12" font-family="Helvetica,sans-Serif" font-size="10.00">+ triggerAction()</text>
</g>
<!-- Node2 -->
<g id="node2" class="node"><title>Node2</title>
<a xlink:href="$classworld_1_1character_1_1_character.html" xlink:title="Class used to handle a character (player or non&#45;player) ">
<polygon fill="white" stroke="black" points="92,-145 92,-441 224,-441 224,-145 92,-145"/>
<text text-anchor="middle" x="158" y="-428" font-family="Helvetica,sans-Serif" font-size="10.00">world.character.Character</text>
<polyline fill="none" stroke="black" points="92,-417 224,-417 "/>
<text text-anchor="start" x="100" y="-404" font-family="Helvetica,sans-Serif" font-size="10.00"># posX</text>
<text text-anchor="start" x="100" y="-388" font-family="Helvetica,sans-Serif" font-size="10.00"># posY</text>
<text text-anchor="start" x="100" y="-372" font-family="Helvetica,sans-Serif" font-size="10.00"># CHARACTER_HEIGHT</text>
<text text-anchor="start" x="100" y="-356" font-family="Helvetica,sans-Serif" font-size="10.00"># CHARACTER_WIDTH</text>
<polyline fill="none" stroke="black" points="92,-345 224,-345 "/>
<text text-anchor="start" x="100" y="-332" font-family="Helvetica,sans-Serif" font-size="10.00">+ Character()</text>
<text text-anchor="start" x="100" y="-316" font-family="Helvetica,sans-Serif" font-size="10.00">+ jumpX()</text>
<text text-anchor="start" x="100" y="-300" font-family="Helvetica,sans-Serif" font-size="10.00">+ jumpY()</text>
<text text-anchor="start" x="100" y="-284" font-family="Helvetica,sans-Serif" font-size="10.00">+ jump()</text>
<text text-anchor="start" x="100" y="-268" font-family="Helvetica,sans-Serif" font-size="10.00">+ moveX()</text>
<text text-anchor="start" x="100" y="-252" font-family="Helvetica,sans-Serif" font-size="10.00">+ moveY()</text>
<text text-anchor="start" x="100" y="-236" font-family="Helvetica,sans-Serif" font-size="10.00">+ move()</text>
<text text-anchor="start" x="100" y="-220" font-family="Helvetica,sans-Serif" font-size="10.00">+ triggerAction()</text>
<text text-anchor="start" x="100" y="-204" font-family="Helvetica,sans-Serif" font-size="10.00">+ playerNear()</text>
<text text-anchor="start" x="100" y="-188" font-family="Helvetica,sans-Serif" font-size="10.00">+ playerEnter()</text>
<text text-anchor="start" x="100" y="-172" font-family="Helvetica,sans-Serif" font-size="10.00">+ playerLeave()</text>
<text text-anchor="start" x="100" y="-156" font-family="Helvetica,sans-Serif" font-size="10.00">+ isTraversable()</text>
</a>
</g>
<!-- Node2&#45;&gt;Node1 -->
<g id="edge2" class="edge"><title>Node2&#45;&gt;Node1</title>
<path fill="none" stroke="midnightblue" d="M158,-134.667C158,-124.263 158,-114.289 158,-105.105"/>
<polygon fill="none" stroke="midnightblue" points="154.5,-134.761 158,-144.761 161.5,-134.761 154.5,-134.761"/>
</g>
<!-- Node3 -->
<g id="node4" class="node"><title>Node3</title>
<a xlink:href="$classworld_1_1scenery_1_1_scenery.html" xlink:title="Class used to handle any world object. ">
<polygon fill="white" stroke="black" points="-0.5,-481 -0.5,-729 116.5,-729 116.5,-481 -0.5,-481"/>
<text text-anchor="middle" x="58" y="-716" font-family="Helvetica,sans-Serif" font-size="10.00">world.scenery.Scenery</text>
<polyline fill="none" stroke="black" points="-0.5,-705 116.5,-705 "/>
<text text-anchor="start" x="7.5" y="-692" font-family="Helvetica,sans-Serif" font-size="10.00"># height</text>
<text text-anchor="start" x="7.5" y="-676" font-family="Helvetica,sans-Serif" font-size="10.00"># width</text>
<text text-anchor="start" x="7.5" y="-660" font-family="Helvetica,sans-Serif" font-size="10.00"># xShift</text>
<text text-anchor="start" x="7.5" y="-644" font-family="Helvetica,sans-Serif" font-size="10.00"># yShift</text>
<text text-anchor="start" x="7.5" y="-628" font-family="Helvetica,sans-Serif" font-size="10.00"># visible</text>
<text text-anchor="start" x="7.5" y="-612" font-family="Helvetica,sans-Serif" font-size="10.00"># SCENERY_HEIGHT</text>
<text text-anchor="start" x="7.5" y="-596" font-family="Helvetica,sans-Serif" font-size="10.00"># SCENERY_WIDTH</text>
<polyline fill="none" stroke="black" points="-0.5,-585 116.5,-585 "/>
<text text-anchor="start" x="7.5" y="-572" font-family="Helvetica,sans-Serif" font-size="10.00">+ Scenery()</text>
<text text-anchor="start" x="7.5" y="-556" font-family="Helvetica,sans-Serif" font-size="10.00">+ Scenery()</text>
<text text-anchor="start" x="7.5" y="-540" font-family="Helvetica,sans-Serif" font-size="10.00">+ Scenery()</text>
<text text-anchor="start" x="7.5" y="-524" font-family="Helvetica,sans-Serif" font-size="10.00">+ drawScenery()</text>
<text text-anchor="start" x="7.5" y="-508" font-family="Helvetica,sans-Serif" font-size="10.00">+ getSceneryHeight()</text>
<text text-anchor="start" x="7.5" y="-492" font-family="Helvetica,sans-Serif" font-size="10.00">+ getSceneryWidth()</text>
</a>
</g>
<!-- Node3&#45;&gt;Node2 -->
<g id="edge4" class="edge"><title>Node3&#45;&gt;Node2</title>
<path fill="none" stroke="midnightblue" d="M100.952,-470.991C104.108,-461.144 107.302,-451.177 110.483,-441.252"/>
<polygon fill="none" stroke="midnightblue" points="97.5292,-470.202 97.81,-480.793 104.195,-472.338 97.5292,-470.202"/>
</g>
<!-- Node4 -->
<g id="node6" class="node"><title>Node4</title>
<polygon fill="white" stroke="#bfbfbf" points="36,-783 36,-855 80,-855 80,-783 36,-783"/>
<text text-anchor="middle" x="58" y="-842" font-family="Helvetica,sans-Serif" font-size="10.00">Image</text>
<polyline fill="none" stroke="#bfbfbf" points="36,-831 80,-831 "/>
<text text-anchor="middle" x="58" y="-818" font-family="Helvetica,sans-Serif" font-size="10.00"> </text>
<polyline fill="none" stroke="#bfbfbf" points="36,-807 80,-807 "/>
<text text-anchor="middle" x="58" y="-794" font-family="Helvetica,sans-Serif" font-size="10.00"> </text>
</g>
<!-- Node4&#45;&gt;Node3 -->
<g id="edge6" class="edge"><title>Node4&#45;&gt;Node3</title>
<path fill="none" stroke="#404040" d="M58,-782.698C58,-770.654 58,-756.447 58,-741.398"/>
<polygon fill="none" stroke="#404040" points="58.0001,-741.175 54,-735.175 58,-729.175 62,-735.175 58.0001,-741.175"/>
<text text-anchor="middle" x="88" y="-755" font-family="Helvetica,sans-Serif" font-size="10.00"> #spriteImage</text>
</g>
<!-- Node5 -->
<g id="node8" class="node"><title>Node5</title>
<a xlink:href="$interfaceworld_1_1_interactive_object.html" xlink:title="{world.InteractiveObject\n||+ triggerAction()\l+ playerNear()\l+ playerEnter()\l+ playerLeave()\l+ isTraversable()\l}">
<polygon fill="white" stroke="black" points="133.5,-537 133.5,-673 250.5,-673 250.5,-537 133.5,-537"/>
<text text-anchor="middle" x="192" y="-660" font-family="Helvetica,sans-Serif" font-size="10.00">world.InteractiveObject</text>
<polyline fill="none" stroke="black" points="133.5,-649 250.5,-649 "/>
<text text-anchor="middle" x="192" y="-636" font-family="Helvetica,sans-Serif" font-size="10.00"> </text>
<polyline fill="none" stroke="black" points="133.5,-625 250.5,-625 "/>
<text text-anchor="start" x="141.5" y="-612" font-family="Helvetica,sans-Serif" font-size="10.00">+ triggerAction()</text>
<text text-anchor="start" x="141.5" y="-596" font-family="Helvetica,sans-Serif" font-size="10.00">+ playerNear()</text>
<text text-anchor="start" x="141.5" y="-580" font-family="Helvetica,sans-Serif" font-size="10.00">+ playerEnter()</text>
<text text-anchor="start" x="141.5" y="-564" font-family="Helvetica,sans-Serif" font-size="10.00">+ playerLeave()</text>
<text text-anchor="start" x="141.5" y="-548" font-family="Helvetica,sans-Serif" font-size="10.00">+ isTraversable()</text>
</a>
</g>
<!-- Node5&#45;&gt;Node2 -->
<g id="edge8" class="edge"><title>Node5&#45;&gt;Node2</title>
<path fill="none" stroke="midnightblue" d="M183.474,-526.762C180.637,-500.726 177.376,-470.806 174.156,-441.258"/>
<polygon fill="none" stroke="midnightblue" points="180.018,-527.354 184.581,-536.916 186.977,-526.595 180.018,-527.354"/>
</g>
</g>
</svg>
