<?xml version="1.0" encoding="UTF-8" standalone="no"?>
<!DOCTYPE svg PUBLIC "-//W3C//DTD SVG 1.1//EN"
 "http://www.w3.org/Graphics/SVG/1.1/DTD/svg11.dtd">
<!-- Generated by graphviz version 2.26.3 (20100126.1600)
 -->
<!-- Title: gameplay.GamePlay Pages: 1 -->
<svg width="866pt" height="1416pt"
 viewBox="0.00 0.00 866.00 1416.00" xmlns="http://www.w3.org/2000/svg" xmlns:xlink="http://www.w3.org/1999/xlink">
<g id="graph1" class="graph" transform="scale(1 1) rotate(0) translate(4 1412)">
<title>gameplay.GamePlay</title>
<polygon fill="white" stroke="white" points="-4,5 -4,-1412 863,-1412 863,5 -4,5"/>
<!-- Node1 -->
<g id="node1" class="node"><title>Node1</title>
<polygon fill="#bfbfbf" stroke="black" points="422.5,-1 422.5,-73 529.5,-73 529.5,-1 422.5,-1"/>
<text text-anchor="middle" x="476" y="-60" font-family="Helvetica,sans-Serif" font-size="10.00">gameplay.GamePlay</text>
<polyline fill="none" stroke="black" points="422.5,-49 529.5,-49 "/>
<text text-anchor="start" x="430.5" y="-36" font-family="Helvetica,sans-Serif" font-size="10.00"># currentWorldName</text>
<polyline fill="none" stroke="black" points="422.5,-25 529.5,-25 "/>
<text text-anchor="start" x="430.5" y="-12" font-family="Helvetica,sans-Serif" font-size="10.00">+ GamePlay()</text>
</g>
<!-- Node2 -->
<g id="node2" class="node"><title>Node2</title>
<a xlink:href="$classwindow_1_1_window.html" xlink:title="{window.Window\n||+ Window()\l+ setLoadingState()\l+ setGameState()\l+ setFailState()\l+ setWinState()\l+ getUserInterface()\l}">
<polygon fill="white" stroke="black" points="243,-127 243,-279 347,-279 347,-127 243,-127"/>
<text text-anchor="middle" x="295" y="-266" font-family="Helvetica,sans-Serif" font-size="10.00">window.Window</text>
<polyline fill="none" stroke="black" points="243,-255 347,-255 "/>
<text text-anchor="middle" x="295" y="-242" font-family="Helvetica,sans-Serif" font-size="10.00"> </text>
<polyline fill="none" stroke="black" points="243,-231 347,-231 "/>
<text text-anchor="start" x="251" y="-218" font-family="Helvetica,sans-Serif" font-size="10.00">+ Window()</text>
<text text-anchor="start" x="251" y="-202" font-family="Helvetica,sans-Serif" font-size="10.00">+ setLoadingState()</text>
<text text-anchor="start" x="251" y="-186" font-family="Helvetica,sans-Serif" font-size="10.00">+ setGameState()</text>
<text text-anchor="start" x="251" y="-170" font-family="Helvetica,sans-Serif" font-size="10.00">+ setFailState()</text>
<text text-anchor="start" x="251" y="-154" font-family="Helvetica,sans-Serif" font-size="10.00">+ setWinState()</text>
<text text-anchor="start" x="251" y="-138" font-family="Helvetica,sans-Serif" font-size="10.00">+ getUserInterface()</text>
</a>
</g>
<!-- Node2&#45;&gt;Node1 -->
<g id="edge2" class="edge"><title>Node2&#45;&gt;Node1</title>
<path fill="none" stroke="#404040" d="M347.353,-154.986C372.738,-131.704 403.025,-103.927 427.834,-81.1746"/>
<polygon fill="none" stroke="#404040" points="427.863,-81.148 429.581,-74.1446 436.707,-73.0371 434.988,-80.0405 427.863,-81.148"/>
<text text-anchor="middle" x="433" y="-99" font-family="Helvetica,sans-Serif" font-size="10.00"> #window</text>
</g>
<!-- Node3 -->
<g id="node4" class="node"><title>Node3</title>
<polygon fill="white" stroke="#bfbfbf" points="270,-381 270,-453 320,-453 320,-381 270,-381"/>
<text text-anchor="middle" x="295" y="-440" font-family="Helvetica,sans-Serif" font-size="10.00">JFrame</text>
<polyline fill="none" stroke="#bfbfbf" points="270,-429 320,-429 "/>
<text text-anchor="middle" x="295" y="-416" font-family="Helvetica,sans-Serif" font-size="10.00"> </text>
<polyline fill="none" stroke="#bfbfbf" points="270,-405 320,-405 "/>
<text text-anchor="middle" x="295" y="-392" font-family="Helvetica,sans-Serif" font-size="10.00"> </text>
</g>
<!-- Node3&#45;&gt;Node2 -->
<g id="edge4" class="edge"><title>Node3&#45;&gt;Node2</title>
<path fill="none" stroke="midnightblue" d="M295,-370.482C295,-343.768 295,-309.564 295,-279.039"/>
<polygon fill="none" stroke="midnightblue" points="291.5,-370.698 295,-380.698 298.5,-370.698 291.5,-370.698"/>
</g>
<!-- Node4 -->
<g id="node6" class="node"><title>Node4</title>
<a xlink:href="$enumwindow_1_1_window_state.html" xlink:title="Enumeration of the possible states of the displayed graphics. ">
<polygon fill="white" stroke="black" points="338,-349 338,-485 448,-485 448,-349 338,-349"/>
<text text-anchor="middle" x="393" y="-472" font-family="Helvetica,sans-Serif" font-size="10.00">window.WindowState</text>
<polyline fill="none" stroke="black" points="338,-461 448,-461 "/>
<text text-anchor="start" x="346" y="-448" font-family="Helvetica,sans-Serif" font-size="10.00">+ FirstLoading</text>
<text text-anchor="start" x="346" y="-432" font-family="Helvetica,sans-Serif" font-size="10.00">+ Game</text>
<text text-anchor="start" x="346" y="-416" font-family="Helvetica,sans-Serif" font-size="10.00">+ LoadingScreen</text>
<text text-anchor="start" x="346" y="-400" font-family="Helvetica,sans-Serif" font-size="10.00">+ Win</text>
<text text-anchor="start" x="346" y="-384" font-family="Helvetica,sans-Serif" font-size="10.00">+ Fail</text>
<polyline fill="none" stroke="black" points="338,-373 448,-373 "/>
<text text-anchor="middle" x="393" y="-360" font-family="Helvetica,sans-Serif" font-size="10.00"> </text>
</a>
</g>
<!-- Node4&#45;&gt;Node2 -->
<g id="edge6" class="edge"><title>Node4&#45;&gt;Node2</title>
<path fill="none" stroke="#404040" d="M361.858,-348.995C353.291,-330.288 343.88,-309.739 334.893,-290.114"/>
<polygon fill="none" stroke="#404040" points="334.804,-289.918 328.669,-286.128 329.807,-279.007 335.942,-282.797 334.804,-289.918"/>
<text text-anchor="middle" x="376.5" y="-305" font-family="Helvetica,sans-Serif" font-size="10.00"> #windowState</text>
</g>
<!-- Node5 -->
<g id="node8" class="node"><title>Node5</title>
<a xlink:href="$classwindow_1_1topbar_1_1_top_bar.html" xlink:title="Class handling the top bar of the program&#39;s main window. ">
<polygon fill="white" stroke="black" points="8,-333 8,-501 120,-501 120,-333 8,-333"/>
<text text-anchor="middle" x="64" y="-488" font-family="Helvetica,sans-Serif" font-size="10.00">window.topbar.TopBar</text>
<polyline fill="none" stroke="black" points="8,-477 120,-477 "/>
<text text-anchor="start" x="16" y="-464" font-family="Helvetica,sans-Serif" font-size="10.00"># TOPBAR_HEIGHT</text>
<text text-anchor="start" x="16" y="-448" font-family="Helvetica,sans-Serif" font-size="10.00"># TOPBAR_MARGIN</text>
<polyline fill="none" stroke="black" points="8,-437 120,-437 "/>
<text text-anchor="start" x="16" y="-424" font-family="Helvetica,sans-Serif" font-size="10.00">+ TopBar()</text>
<text text-anchor="start" x="16" y="-408" font-family="Helvetica,sans-Serif" font-size="10.00">+ hidePauseButton()</text>
<text text-anchor="start" x="16" y="-392" font-family="Helvetica,sans-Serif" font-size="10.00">+ showPauseButton()</text>
<text text-anchor="start" x="16" y="-376" font-family="Helvetica,sans-Serif" font-size="10.00">+ paintComponent()</text>
<text text-anchor="start" x="16" y="-360" font-family="Helvetica,sans-Serif" font-size="10.00">+ getTopBarHeight()</text>
<text text-anchor="start" x="16" y="-344" font-family="Helvetica,sans-Serif" font-size="10.00">+ getTopBarMargin()</text>
</a>
</g>
<!-- Node5&#45;&gt;Node2 -->
<g id="edge8" class="edge"><title>Node5&#45;&gt;Node2</title>
<path fill="none" stroke="#404040" d="M120.041,-341.473C122.997,-338.207 125.99,-335.033 129,-332 160.685,-300.068 200.338,-268.982 232.942,-245.329"/>
<polygon fill="none" stroke="#404040" points="233.072,-245.236 235.611,-238.487 242.818,-238.234 240.279,-244.984 233.072,-245.236"/>
<text text-anchor="middle" x="180" y="-305" font-family="Helvetica,sans-Serif" font-size="10.00"> #topbar</text>
</g>
<!-- Node6 -->
<g id="node10" class="node"><title>Node6</title>
<polygon fill="white" stroke="#bfbfbf" points="159.5,-659 159.5,-731 206.5,-731 206.5,-659 159.5,-659"/>
<text text-anchor="middle" x="183" y="-718" font-family="Helvetica,sans-Serif" font-size="10.00">JPanel</text>
<polyline fill="none" stroke="#bfbfbf" points="159.5,-707 206.5,-707 "/>
<text text-anchor="middle" x="183" y="-694" font-family="Helvetica,sans-Serif" font-size="10.00"> </text>
<polyline fill="none" stroke="#bfbfbf" points="159.5,-683 206.5,-683 "/>
<text text-anchor="middle" x="183" y="-670" font-family="Helvetica,sans-Serif" font-size="10.00"> </text>
</g>
<!-- Node6&#45;&gt;Node5 -->
<g id="edge10" class="edge"><title>Node6&#45;&gt;Node5</title>
<path fill="none" stroke="midnightblue" d="M174.783,-648.625C167.321,-612.45 154.469,-561.542 135,-520 130.668,-510.757 125.534,-501.436 120.037,-492.377"/>
<polygon fill="none" stroke="midnightblue" points="171.442,-649.766 176.837,-658.884 178.306,-648.392 171.442,-649.766"/>
</g>
<!-- Node10 -->
<g id="node18" class="node"><title>Node10</title>
<a xlink:href="$classwindow_1_1ui_1_1_u_i.html" xlink:title="Class used to handle the window&#39;s user interface. ">
<polygon fill="white" stroke="black" points="138,-341 138,-493 252,-493 252,-341 138,-341"/>
<text text-anchor="middle" x="195" y="-480" font-family="Helvetica,sans-Serif" font-size="10.00">window.ui.UI</text>
<polyline fill="none" stroke="black" points="138,-469 252,-469 "/>
<text text-anchor="start" x="146" y="-456" font-family="Helvetica,sans-Serif" font-size="10.00"># windowHeight</text>
<text text-anchor="start" x="146" y="-440" font-family="Helvetica,sans-Serif" font-size="10.00"># windowWidth</text>
<polyline fill="none" stroke="black" points="138,-429 252,-429 "/>
<text text-anchor="start" x="146" y="-416" font-family="Helvetica,sans-Serif" font-size="10.00">+ UI()</text>
<text text-anchor="start" x="146" y="-400" font-family="Helvetica,sans-Serif" font-size="10.00">+ UI()</text>
<text text-anchor="start" x="146" y="-384" font-family="Helvetica,sans-Serif" font-size="10.00">+ setDisplayedWorld()</text>
<text text-anchor="start" x="146" y="-368" font-family="Helvetica,sans-Serif" font-size="10.00">+ paintComponent()</text>
<text text-anchor="start" x="146" y="-352" font-family="Helvetica,sans-Serif" font-size="10.00">&#45; drawWorld()</text>
</a>
</g>
<!-- Node6&#45;&gt;Node10 -->
<g id="edge20" class="edge"><title>Node6&#45;&gt;Node10</title>
<path fill="none" stroke="midnightblue" d="M184.989,-648.918C186.817,-606.566 189.562,-542.982 191.715,-493.096"/>
<polygon fill="none" stroke="midnightblue" points="181.491,-648.8 184.556,-658.941 188.485,-649.102 181.491,-648.8"/>
</g>
<!-- Node7 -->
<g id="node12" class="node"><title>Node7</title>
<a xlink:href="$classwindow_1_1topbar_1_1_top_bar_button.html" xlink:title="Class handling the UI buttons. ">
<polygon fill="white" stroke="black" points="0,-651 0,-739 140,-739 140,-651 0,-651"/>
<text text-anchor="middle" x="70" y="-726" font-family="Helvetica,sans-Serif" font-size="10.00">window.topbar.TopBarButton</text>
<polyline fill="none" stroke="black" points="0,-715 140,-715 "/>
<text text-anchor="middle" x="70" y="-702" font-family="Helvetica,sans-Serif" font-size="10.00"> </text>
<polyline fill="none" stroke="black" points="0,-691 140,-691 "/>
<text text-anchor="start" x="8" y="-678" font-family="Helvetica,sans-Serif" font-size="10.00">+ TopBarButton()</text>
<text text-anchor="start" x="8" y="-662" font-family="Helvetica,sans-Serif" font-size="10.00">+ paintComponent()</text>
</a>
</g>
<!-- Node7&#45;&gt;Node5 -->
<g id="edge12" class="edge"><title>Node7&#45;&gt;Node5</title>
<path fill="none" stroke="#404040" d="M69.0493,-650.95C68.2529,-614.049 67.0874,-560.047 66.0767,-513.222"/>
<polygon fill="none" stroke="#404040" points="66.0757,-513.17 61.9471,-507.257 65.8167,-501.172 69.9453,-507.085 66.0757,-513.17"/>
<text text-anchor="middle" x="99" y="-543" font-family="Helvetica,sans-Serif" font-size="10.00"> #pauseButton</text>
<text text-anchor="middle" x="99" y="-527" font-family="Helvetica,sans-Serif" font-size="10.00">#closeButton</text>
</g>
<!-- Node8 -->
<g id="node14" class="node"><title>Node8</title>
<polygon fill="white" stroke="#bfbfbf" points="151,-1121 151,-1193 201,-1193 201,-1121 151,-1121"/>
<text text-anchor="middle" x="176" y="-1180" font-family="Helvetica,sans-Serif" font-size="10.00">JButton</text>
<polyline fill="none" stroke="#bfbfbf" points="151,-1169 201,-1169 "/>
<text text-anchor="middle" x="176" y="-1156" font-family="Helvetica,sans-Serif" font-size="10.00"> </text>
<polyline fill="none" stroke="#bfbfbf" points="151,-1145 201,-1145 "/>
<text text-anchor="middle" x="176" y="-1132" font-family="Helvetica,sans-Serif" font-size="10.00"> </text>
</g>
<!-- Node8&#45;&gt;Node7 -->
<g id="edge14" class="edge"><title>Node8&#45;&gt;Node7</title>
<path fill="none" stroke="midnightblue" d="M165.428,-1110.92C144.966,-1021.74 100.199,-826.623 80.1097,-739.063"/>
<polygon fill="none" stroke="midnightblue" points="162.035,-1111.78 167.682,-1120.75 168.857,-1110.22 162.035,-1111.78"/>
</g>
<!-- Node9 -->
<g id="node16" class="node"><title>Node9</title>
<polygon fill="white" stroke="#bfbfbf" points="118,-1335 118,-1407 162,-1407 162,-1335 118,-1335"/>
<text text-anchor="middle" x="140" y="-1394" font-family="Helvetica,sans-Serif" font-size="10.00">Image</text>
<polyline fill="none" stroke="#bfbfbf" points="118,-1383 162,-1383 "/>
<text text-anchor="middle" x="140" y="-1370" font-family="Helvetica,sans-Serif" font-size="10.00"> </text>
<polyline fill="none" stroke="#bfbfbf" points="118,-1359 162,-1359 "/>
<text text-anchor="middle" x="140" y="-1346" font-family="Helvetica,sans-Serif" font-size="10.00"> </text>
</g>
<!-- Node9&#45;&gt;Node7 -->
<g id="edge16" class="edge"><title>Node9&#45;&gt;Node7</title>
<path fill="none" stroke="#404040" d="M117.756,-1347.04C103.705,-1330.22 86.7822,-1306.45 79,-1282 19.5403,-1095.15 44.3653,-857.63 60.3754,-751.117"/>
<polygon fill="none" stroke="#404040" points="60.4007,-750.953 57.362,-744.413 62.2299,-739.093 65.2686,-745.633 60.4007,-750.953"/>
<text text-anchor="middle" x="110.5" y="-1156" font-family="Helvetica,sans-Serif" font-size="10.00"> #buttonImage</text>
</g>
<!-- Node12 -->
<g id="node23" class="node"><title>Node12</title>
<a xlink:href="$classworld_1_1scenery_1_1_scenery.html" xlink:title="Class used to handle any world object. ">
<polygon fill="white" stroke="black" points="287.5,-1033 287.5,-1281 404.5,-1281 404.5,-1033 287.5,-1033"/>
<text text-anchor="middle" x="346" y="-1268" font-family="Helvetica,sans-Serif" font-size="10.00">world.scenery.Scenery</text>
<polyline fill="none" stroke="black" points="287.5,-1257 404.5,-1257 "/>
<text text-anchor="start" x="295.5" y="-1244" font-family="Helvetica,sans-Serif" font-size="10.00"># height</text>
<text text-anchor="start" x="295.5" y="-1228" font-family="Helvetica,sans-Serif" font-size="10.00"># width</text>
<text text-anchor="start" x="295.5" y="-1212" font-family="Helvetica,sans-Serif" font-size="10.00"># xShift</text>
<text text-anchor="start" x="295.5" y="-1196" font-family="Helvetica,sans-Serif" font-size="10.00"># yShift</text>
<text text-anchor="start" x="295.5" y="-1180" font-family="Helvetica,sans-Serif" font-size="10.00"># visible</text>
<text text-anchor="start" x="295.5" y="-1164" font-family="Helvetica,sans-Serif" font-size="10.00"># SCENERY_HEIGHT</text>
<text text-anchor="start" x="295.5" y="-1148" font-family="Helvetica,sans-Serif" font-size="10.00"># SCENERY_WIDTH</text>
<polyline fill="none" stroke="black" points="287.5,-1137 404.5,-1137 "/>
<text text-anchor="start" x="295.5" y="-1124" font-family="Helvetica,sans-Serif" font-size="10.00">+ Scenery()</text>
<text text-anchor="start" x="295.5" y="-1108" font-family="Helvetica,sans-Serif" font-size="10.00">+ Scenery()</text>
<text text-anchor="start" x="295.5" y="-1092" font-family="Helvetica,sans-Serif" font-size="10.00">+ Scenery()</text>
<text text-anchor="start" x="295.5" y="-1076" font-family="Helvetica,sans-Serif" font-size="10.00">+ drawScenery()</text>
<text text-anchor="start" x="295.5" y="-1060" font-family="Helvetica,sans-Serif" font-size="10.00">+ getSceneryHeight()</text>
<text text-anchor="start" x="295.5" y="-1044" font-family="Helvetica,sans-Serif" font-size="10.00">+ getSceneryWidth()</text>
</a>
</g>
<!-- Node9&#45;&gt;Node12 -->
<g id="edge26" class="edge"><title>Node9&#45;&gt;Node12</title>
<path fill="none" stroke="#404040" d="M162.046,-1348.1C189.759,-1319.31 238.596,-1268.57 278.988,-1226.61"/>
<polygon fill="none" stroke="#404040" points="279.146,-1226.45 280.425,-1219.35 287.468,-1217.8 286.189,-1224.9 279.146,-1226.45"/>
<text text-anchor="middle" x="236" y="-1307" font-family="Helvetica,sans-Serif" font-size="10.00"> #spriteImage</text>
</g>
<!-- Node10&#45;&gt;Node2 -->
<g id="edge18" class="edge"><title>Node10&#45;&gt;Node2</title>
<path fill="none" stroke="#404040" d="M209.504,-340.871C213.58,-326.282 218.68,-311.391 225,-298 228.271,-291.07 232.081,-284.137 236.202,-277.349"/>
<polygon fill="none" stroke="#404040" points="236.457,-276.948 236.305,-269.738 242.901,-266.825 243.054,-274.034 236.457,-276.948"/>
<text text-anchor="middle" x="258" y="-305" font-family="Helvetica,sans-Serif" font-size="10.00"> #userInterface</text>
</g>
<!-- Node11 -->
<g id="node21" class="node"><title>Node11</title>
<a xlink:href="$classworld_1_1_world.html" xlink:title="World is a class used to handle the game world graphics. ">
<polygon fill="white" stroke="black" points="327,-603 327,-787 421,-787 421,-603 327,-603"/>
<text text-anchor="middle" x="374" y="-774" font-family="Helvetica,sans-Serif" font-size="10.00">world.World</text>
<polyline fill="none" stroke="black" points="327,-763 421,-763 "/>
<text text-anchor="start" x="335" y="-750" font-family="Helvetica,sans-Serif" font-size="10.00"># sizeX</text>
<text text-anchor="start" x="335" y="-734" font-family="Helvetica,sans-Serif" font-size="10.00"># sizeY</text>
<text text-anchor="start" x="335" y="-718" font-family="Helvetica,sans-Serif" font-size="10.00"># type</text>
<polyline fill="none" stroke="black" points="327,-707 421,-707 "/>
<text text-anchor="start" x="335" y="-694" font-family="Helvetica,sans-Serif" font-size="10.00">+ World()</text>
<text text-anchor="start" x="335" y="-678" font-family="Helvetica,sans-Serif" font-size="10.00">+ World()</text>
<text text-anchor="start" x="335" y="-662" font-family="Helvetica,sans-Serif" font-size="10.00">+ getSizeX()</text>
<text text-anchor="start" x="335" y="-646" font-family="Helvetica,sans-Serif" font-size="10.00">+ getSizeY()</text>
<text text-anchor="start" x="335" y="-630" font-family="Helvetica,sans-Serif" font-size="10.00">+ getMap()</text>
<text text-anchor="start" x="335" y="-614" font-family="Helvetica,sans-Serif" font-size="10.00"># generateWorld()</text>
</a>
</g>
<!-- Node11&#45;&gt;Node1 -->
<g id="edge40" class="edge"><title>Node11&#45;&gt;Node1</title>
<path fill="none" stroke="#404040" d="M421.207,-604.055C435.343,-572.564 449.159,-536.5 457,-502 490.845,-353.091 485.072,-170.601 479.732,-85.2799"/>
<polygon fill="none" stroke="#404040" points="479.723,-85.1431 475.337,-79.4186 478.935,-73.169 483.32,-78.8934 479.723,-85.1431"/>
<text text-anchor="middle" x="514" y="-305" font-family="Helvetica,sans-Serif" font-size="10.00"> #currentWorld</text>
</g>
<!-- Node11&#45;&gt;Node10 -->
<g id="edge22" class="edge"><title>Node11&#45;&gt;Node10</title>
<path fill="none" stroke="#404040" d="M326.97,-621.959C303.678,-585.785 275.391,-541.853 250.988,-503.954"/>
<polygon fill="none" stroke="#404040" points="250.712,-503.525 244.101,-500.646 244.216,-493.436 250.827,-496.315 250.712,-503.525"/>
<text text-anchor="middle" x="317" y="-535" font-family="Helvetica,sans-Serif" font-size="10.00"> #displayedWorld</text>
</g>
<!-- Node13 -->
<g id="node26" class="node"><title>Node13</title>
<a xlink:href="$classgameplay_1_1ai_1_1_a_i.html" xlink:title="Class representing the sadistic robot. ">
<polygon fill="white" stroke="black" points="533.5,-341 533.5,-493 636.5,-493 636.5,-341 533.5,-341"/>
<text text-anchor="middle" x="585" y="-480" font-family="Helvetica,sans-Serif" font-size="10.00">gameplay.ai.AI</text>
<polyline fill="none" stroke="black" points="533.5,-469 636.5,-469 "/>
<text text-anchor="start" x="541.5" y="-456" font-family="Helvetica,sans-Serif" font-size="10.00"># betrayalCount</text>
<text text-anchor="start" x="541.5" y="-440" font-family="Helvetica,sans-Serif" font-size="10.00"># slaveryCount</text>
<polyline fill="none" stroke="black" points="533.5,-429 636.5,-429 "/>
<text text-anchor="start" x="541.5" y="-416" font-family="Helvetica,sans-Serif" font-size="10.00">+ AI()</text>
<text text-anchor="start" x="541.5" y="-400" font-family="Helvetica,sans-Serif" font-size="10.00">+ setCurrentWorld()</text>
<text text-anchor="start" x="541.5" y="-384" font-family="Helvetica,sans-Serif" font-size="10.00">+ newBetrayal()</text>
<text text-anchor="start" x="541.5" y="-368" font-family="Helvetica,sans-Serif" font-size="10.00">+ newSlavery()</text>
<text text-anchor="start" x="541.5" y="-352" font-family="Helvetica,sans-Serif" font-size="10.00"># changeMood()</text>
</a>
</g>
<!-- Node11&#45;&gt;Node13 -->
<g id="edge38" class="edge"><title>Node11&#45;&gt;Node13</title>
<path fill="none" stroke="#404040" d="M421.224,-607.077C430.667,-593.723 441.322,-580.815 453,-570 465.545,-558.382 474.618,-563.791 487,-552 498.978,-540.594 496.728,-533.697 506,-520 512.329,-510.65 519.206,-501.016 526.174,-491.566"/>
<polygon fill="none" stroke="#404040" points="526.279,-491.425 526.657,-484.224 533.45,-481.804 533.072,-489.005 526.279,-491.425"/>
<text text-anchor="middle" x="538" y="-535" font-family="Helvetica,sans-Serif" font-size="10.00"> #currentWorld</text>
</g>
<!-- Node12&#45;&gt;Node11 -->
<g id="edge24" class="edge"><title>Node12&#45;&gt;Node11</title>
<path fill="none" stroke="#404040" d="M353.522,-1032.89C357.946,-959.896 363.477,-868.636 367.675,-799.365"/>
<polygon fill="none" stroke="#404040" points="367.69,-799.112 364.06,-792.881 368.416,-787.134 372.046,-793.365 367.69,-799.112"/>
<text text-anchor="middle" x="378" y="-925" font-family="Helvetica,sans-Serif" font-size="10.00"> #map</text>
</g>
<!-- Node13&#45;&gt;Node1 -->
<g id="edge28" class="edge"><title>Node13&#45;&gt;Node1</title>
<path fill="none" stroke="#404040" d="M563.073,-340.558C541.172,-264.205 508.186,-149.206 489.738,-84.8934"/>
<polygon fill="none" stroke="#404040" points="489.668,-84.649 484.168,-79.9845 486.359,-73.1142 491.858,-77.7787 489.668,-84.649"/>
<text text-anchor="middle" x="590" y="-202" font-family="Helvetica,sans-Serif" font-size="10.00"> #artificialIntelligence</text>
</g>
<!-- Node14 -->
<g id="node28" class="node"><title>Node14</title>
<a xlink:href="$classgameplay_1_1ai_1_1phrasing_1_1_phrasing.html" xlink:title="{gameplay.ai.phrasing.Phrasing\n|# angerBetrayalPhrases\l# powerComplexMotivationPhrases\l# actionAsked\l|+ Phrasing()\l}">
<polygon fill="white" stroke="black" points="629.5,-643 629.5,-747 800.5,-747 800.5,-643 629.5,-643"/>
<text text-anchor="middle" x="715" y="-734" font-family="Helvetica,sans-Serif" font-size="10.00">gameplay.ai.phrasing.Phrasing</text>
<polyline fill="none" stroke="black" points="629.5,-723 800.5,-723 "/>
<text text-anchor="start" x="637.5" y="-710" font-family="Helvetica,sans-Serif" font-size="10.00"># angerBetrayalPhrases</text>
<text text-anchor="start" x="637.5" y="-694" font-family="Helvetica,sans-Serif" font-size="10.00"># powerComplexMotivationPhrases</text>
<text text-anchor="start" x="637.5" y="-678" font-family="Helvetica,sans-Serif" font-size="10.00"># actionAsked</text>
<polyline fill="none" stroke="black" points="629.5,-667 800.5,-667 "/>
<text text-anchor="start" x="637.5" y="-654" font-family="Helvetica,sans-Serif" font-size="10.00">+ Phrasing()</text>
</a>
</g>
<!-- Node14&#45;&gt;Node13 -->
<g id="edge30" class="edge"><title>Node14&#45;&gt;Node13</title>
<path fill="none" stroke="#404040" d="M696.43,-642.83C683.325,-607.574 664.66,-560.289 645,-520 642.44,-514.755 639.716,-509.415 636.896,-504.065"/>
<polygon fill="none" stroke="#404040" points="636.679,-503.664 630.313,-500.277 630.991,-493.098 637.357,-496.484 636.679,-503.664"/>
<text text-anchor="middle" x="697.5" y="-535" font-family="Helvetica,sans-Serif" font-size="10.00"> #phrasingSystem</text>
</g>
<!-- Node15 -->
<g id="node30" class="node"><title>Node15</title>
<a xlink:href="$classgameplay_1_1ai_1_1phrasing_1_1_ordered_phrases.html" xlink:title="Class used to contain an ordered list of phrases. ">
<polygon fill="white" stroke="black" points="642,-1097 642,-1217 788,-1217 788,-1097 642,-1097"/>
<text text-anchor="start" x="650" y="-1204" font-family="Helvetica,sans-Serif" font-size="10.00">gameplay.ai.phrasing.Ordered</text>
<text text-anchor="middle" x="715" y="-1188" font-family="Helvetica,sans-Serif" font-size="10.00">Phrases</text>
<polyline fill="none" stroke="black" points="642,-1177 788,-1177 "/>
<text text-anchor="start" x="650" y="-1164" font-family="Helvetica,sans-Serif" font-size="10.00"># phrases</text>
<text text-anchor="start" x="650" y="-1148" font-family="Helvetica,sans-Serif" font-size="10.00"># phrasesOrder</text>
<polyline fill="none" stroke="black" points="642,-1137 788,-1137 "/>
<text text-anchor="start" x="650" y="-1124" font-family="Helvetica,sans-Serif" font-size="10.00">+ OrderedPhrases()</text>
<text text-anchor="start" x="650" y="-1108" font-family="Helvetica,sans-Serif" font-size="10.00"># getPhrasesNumber()</text>
</a>
</g>
<!-- Node15&#45;&gt;Node14 -->
<g id="edge32" class="edge"><title>Node15&#45;&gt;Node14</title>
<path fill="none" stroke="#404040" d="M715,-1096.6C715,-1009.35 715,-848.733 715,-759.334"/>
<polygon fill="none" stroke="#404040" points="715,-759.208 711,-753.208 715,-747.208 719,-753.208 715,-759.208"/>
<text text-anchor="middle" x="786.5" y="-1005" font-family="Helvetica,sans-Serif" font-size="10.00"> #depressionSlaveryPhrases</text>
<text text-anchor="middle" x="786.5" y="-989" font-family="Helvetica,sans-Serif" font-size="10.00">#powerComplexBetrayalPhrases</text>
<text text-anchor="middle" x="786.5" y="-973" font-family="Helvetica,sans-Serif" font-size="10.00">#depressionMotivationPhrases</text>
<text text-anchor="middle" x="786.5" y="-957" font-family="Helvetica,sans-Serif" font-size="10.00">#angerMotivationPhrases</text>
<text text-anchor="middle" x="786.5" y="-941" font-family="Helvetica,sans-Serif" font-size="10.00">#curiositySlaveryPhrases</text>
<text text-anchor="middle" x="786.5" y="-925" font-family="Helvetica,sans-Serif" font-size="10.00">#curiosityBetrayalPhrases</text>
<text text-anchor="middle" x="786.5" y="-909" font-family="Helvetica,sans-Serif" font-size="10.00">#curiosityMotivationPhrases</text>
<text text-anchor="middle" x="786.5" y="-893" font-family="Helvetica,sans-Serif" font-size="10.00">#powerComplexSlaveryPhrases</text>
<text text-anchor="middle" x="786.5" y="-877" font-family="Helvetica,sans-Serif" font-size="10.00">#depressionBetrayalPhrases</text>
<text text-anchor="middle" x="786.5" y="-861" font-family="Helvetica,sans-Serif" font-size="10.00">#angerSlaveryPhrases</text>
<text text-anchor="middle" x="786.5" y="-845" font-family="Helvetica,sans-Serif" font-size="10.00">...</text>
</g>
<!-- Node16 -->
<g id="node32" class="node"><title>Node16</title>
<a xlink:href="$classgameplay_1_1ai_1_1mood_1_1_mood.html" xlink:title="Abstract class representing an AI mood. ">
<polygon fill="white" stroke="black" points="462,-571 462,-819 612,-819 612,-571 462,-571"/>
<text text-anchor="middle" x="537" y="-806" font-family="Helvetica,sans-Serif" font-size="10.00">gameplay.ai.mood.Mood</text>
<polyline fill="none" stroke="black" points="462,-795 612,-795 "/>
<text text-anchor="start" x="470" y="-782" font-family="Helvetica,sans-Serif" font-size="10.00"># betrayalThreshold</text>
<text text-anchor="start" x="470" y="-766" font-family="Helvetica,sans-Serif" font-size="10.00"># slaveryThreshold</text>
<text text-anchor="start" x="470" y="-750" font-family="Helvetica,sans-Serif" font-size="10.00"># moodsBetrayalCount</text>
<text text-anchor="start" x="470" y="-734" font-family="Helvetica,sans-Serif" font-size="10.00"># moodsSlaveryCount</text>
<polyline fill="none" stroke="black" points="462,-723 612,-723 "/>
<text text-anchor="start" x="470" y="-710" font-family="Helvetica,sans-Serif" font-size="10.00">+ Mood()</text>
<text text-anchor="start" x="470" y="-694" font-family="Helvetica,sans-Serif" font-size="10.00">+ getBetrayalThreshold()</text>
<text text-anchor="start" x="470" y="-678" font-family="Helvetica,sans-Serif" font-size="10.00">+ getSlaveryThreshold()</text>
<text text-anchor="start" x="470" y="-662" font-family="Helvetica,sans-Serif" font-size="10.00">+ getMoodsBetrayalCount()</text>
<text text-anchor="start" x="470" y="-646" font-family="Helvetica,sans-Serif" font-size="10.00">+ getMoodsSlaveryThreshold()</text>
<text text-anchor="start" x="470" y="-630" font-family="Helvetica,sans-Serif" font-size="10.00">+ incrementBetrayalCount()</text>
<text text-anchor="start" x="470" y="-614" font-family="Helvetica,sans-Serif" font-size="10.00">+ incrementSlaveryCount()</text>
<text text-anchor="start" x="470" y="-598" font-family="Helvetica,sans-Serif" font-size="10.00">+ getNextMood()</text>
<text text-anchor="start" x="470" y="-582" font-family="Helvetica,sans-Serif" font-size="10.00">+ getPreviousMood()</text>
</a>
</g>
<!-- Node16&#45;&gt;Node13 -->
<g id="edge34" class="edge"><title>Node16&#45;&gt;Node13</title>
<path fill="none" stroke="#404040" d="M570.482,-570.877C571.77,-564.514 572.954,-558.195 574,-552 576.517,-537.089 578.464,-521.15 579.968,-505.641"/>
<polygon fill="none" stroke="#404040" points="580.001,-505.274 576.558,-498.938 581.082,-493.323 584.525,-499.659 580.001,-505.274"/>
<text text-anchor="middle" x="609.5" y="-535" font-family="Helvetica,sans-Serif" font-size="10.00"> #currentMood</text>
</g>
<!-- Node17 -->
<g id="node34" class="node"><title>Node17</title>
<polygon fill="white" stroke="#bfbfbf" points="464,-1113 464,-1201 610,-1201 610,-1113 464,-1113"/>
<text text-anchor="start" x="472" y="-1188" font-family="Helvetica,sans-Serif" font-size="10.00">HashSet&lt; gameplay.ai.mood.</text>
<text text-anchor="middle" x="537" y="-1172" font-family="Helvetica,sans-Serif" font-size="10.00">ProbabilityMood &gt;</text>
<polyline fill="none" stroke="#bfbfbf" points="464,-1161 610,-1161 "/>
<text text-anchor="middle" x="537" y="-1148" font-family="Helvetica,sans-Serif" font-size="10.00"> </text>
<polyline fill="none" stroke="#bfbfbf" points="464,-1137 610,-1137 "/>
<text text-anchor="middle" x="537" y="-1124" font-family="Helvetica,sans-Serif" font-size="10.00"> </text>
</g>
<!-- Node17&#45;&gt;Node16 -->
<g id="edge36" class="edge"><title>Node17&#45;&gt;Node16</title>
<path fill="none" stroke="#404040" d="M537,-1112.7C537,-1048.48 537,-926.768 537,-831.223"/>
<polygon fill="none" stroke="#404040" points="537,-831.114 533,-825.114 537,-819.114 541,-825.114 537,-831.114"/>
<text text-anchor="middle" x="573" y="-933" font-family="Helvetica,sans-Serif" font-size="10.00"> #nextMoods</text>
<text text-anchor="middle" x="573" y="-917" font-family="Helvetica,sans-Serif" font-size="10.00">#previousMoods</text>
</g>
</g>
</svg>
