<?xml version="1.0" encoding="UTF-8" standalone="no"?>
<!DOCTYPE svg PUBLIC "-//W3C//DTD SVG 1.1//EN"
 "http://www.w3.org/Graphics/SVG/1.1/DTD/svg11.dtd">
<!-- Generated by graphviz version 2.26.3 (20100126.1600)
 -->
<!-- Title: window.ui.UI Pages: 1 -->
<svg width="183pt" height="828pt"
 viewBox="0.00 0.00 183.00 828.00" xmlns="http://www.w3.org/2000/svg" xmlns:xlink="http://www.w3.org/1999/xlink">
<g id="graph1" class="graph" transform="scale(1 1) rotate(0) translate(4 824)">
<title>window.ui.UI</title>
<polygon fill="white" stroke="white" points="-4,5 -4,-824 180,-824 180,5 -4,5"/>
<!-- Node1 -->
<g id="node1" class="node"><title>Node1</title>
<polygon fill="#bfbfbf" stroke="black" points="0,-1 0,-153 114,-153 114,-1 0,-1"/>
<text text-anchor="middle" x="57" y="-140" font-family="Helvetica,sans-Serif" font-size="10.00">window.ui.UI</text>
<polyline fill="none" stroke="black" points="0,-129 114,-129 "/>
<text text-anchor="start" x="8" y="-116" font-family="Helvetica,sans-Serif" font-size="10.00"># windowHeight</text>
<text text-anchor="start" x="8" y="-100" font-family="Helvetica,sans-Serif" font-size="10.00"># windowWidth</text>
<polyline fill="none" stroke="black" points="0,-89 114,-89 "/>
<text text-anchor="start" x="8" y="-76" font-family="Helvetica,sans-Serif" font-size="10.00">+ UI()</text>
<text text-anchor="start" x="8" y="-60" font-family="Helvetica,sans-Serif" font-size="10.00">+ UI()</text>
<text text-anchor="start" x="8" y="-44" font-family="Helvetica,sans-Serif" font-size="10.00">+ setDisplayedWorld()</text>
<text text-anchor="start" x="8" y="-28" font-family="Helvetica,sans-Serif" font-size="10.00">+ paintComponent()</text>
<text text-anchor="start" x="8" y="-12" font-family="Helvetica,sans-Serif" font-size="10.00">&#45; drawWorld()</text>
</g>
<!-- Node2 -->
<g id="node2" class="node"><title>Node2</title>
<polygon fill="white" stroke="#bfbfbf" points="3.5,-263 3.5,-335 50.5,-335 50.5,-263 3.5,-263"/>
<text text-anchor="middle" x="27" y="-322" font-family="Helvetica,sans-Serif" font-size="10.00">JPanel</text>
<polyline fill="none" stroke="#bfbfbf" points="3.5,-311 50.5,-311 "/>
<text text-anchor="middle" x="27" y="-298" font-family="Helvetica,sans-Serif" font-size="10.00"> </text>
<polyline fill="none" stroke="#bfbfbf" points="3.5,-287 50.5,-287 "/>
<text text-anchor="middle" x="27" y="-274" font-family="Helvetica,sans-Serif" font-size="10.00"> </text>
</g>
<!-- Node2&#45;&gt;Node1 -->
<g id="edge2" class="edge"><title>Node2&#45;&gt;Node1</title>
<path fill="none" stroke="midnightblue" d="M33.2609,-252.67C37.1473,-223.91 42.2355,-186.257 46.7041,-153.19"/>
<polygon fill="none" stroke="midnightblue" points="29.7576,-252.459 31.8868,-262.838 36.6945,-253.397 29.7576,-252.459"/>
</g>
<!-- Node3 -->
<g id="node4" class="node"><title>Node3</title>
<a xlink:href="$classworld_1_1_world.html" xlink:title="World is a class used to handle the game world graphics. ">
<polygon fill="white" stroke="black" points="68,-207 68,-391 162,-391 162,-207 68,-207"/>
<text text-anchor="middle" x="115" y="-378" font-family="Helvetica,sans-Serif" font-size="10.00">world.World</text>
<polyline fill="none" stroke="black" points="68,-367 162,-367 "/>
<text text-anchor="start" x="76" y="-354" font-family="Helvetica,sans-Serif" font-size="10.00"># sizeX</text>
<text text-anchor="start" x="76" y="-338" font-family="Helvetica,sans-Serif" font-size="10.00"># sizeY</text>
<text text-anchor="start" x="76" y="-322" font-family="Helvetica,sans-Serif" font-size="10.00"># type</text>
<polyline fill="none" stroke="black" points="68,-311 162,-311 "/>
<text text-anchor="start" x="76" y="-298" font-family="Helvetica,sans-Serif" font-size="10.00">+ World()</text>
<text text-anchor="start" x="76" y="-282" font-family="Helvetica,sans-Serif" font-size="10.00">+ World()</text>
<text text-anchor="start" x="76" y="-266" font-family="Helvetica,sans-Serif" font-size="10.00">+ getSizeX()</text>
<text text-anchor="start" x="76" y="-250" font-family="Helvetica,sans-Serif" font-size="10.00">+ getSizeY()</text>
<text text-anchor="start" x="76" y="-234" font-family="Helvetica,sans-Serif" font-size="10.00">+ getMap()</text>
<text text-anchor="start" x="76" y="-218" font-family="Helvetica,sans-Serif" font-size="10.00"># generateWorld()</text>
</a>
</g>
<!-- Node3&#45;&gt;Node1 -->
<g id="edge4" class="edge"><title>Node3&#45;&gt;Node1</title>
<path fill="none" stroke="#404040" d="M90.9067,-206.781C87.2958,-192.96 83.5804,-178.739 79.9933,-165.009"/>
<polygon fill="none" stroke="#404040" points="79.9132,-164.702 74.5264,-159.908 76.8798,-153.092 82.2666,-157.886 79.9132,-164.702"/>
<text text-anchor="middle" x="124" y="-179" font-family="Helvetica,sans-Serif" font-size="10.00"> #displayedWorld</text>
</g>
<!-- Node4 -->
<g id="node6" class="node"><title>Node4</title>
<a xlink:href="$classworld_1_1scenery_1_1_scenery.html" xlink:title="Class used to handle any world object. ">
<polygon fill="white" stroke="black" points="56.5,-445 56.5,-693 173.5,-693 173.5,-445 56.5,-445"/>
<text text-anchor="middle" x="115" y="-680" font-family="Helvetica,sans-Serif" font-size="10.00">world.scenery.Scenery</text>
<polyline fill="none" stroke="black" points="56.5,-669 173.5,-669 "/>
<text text-anchor="start" x="64.5" y="-656" font-family="Helvetica,sans-Serif" font-size="10.00"># height</text>
<text text-anchor="start" x="64.5" y="-640" font-family="Helvetica,sans-Serif" font-size="10.00"># width</text>
<text text-anchor="start" x="64.5" y="-624" font-family="Helvetica,sans-Serif" font-size="10.00"># xShift</text>
<text text-anchor="start" x="64.5" y="-608" font-family="Helvetica,sans-Serif" font-size="10.00"># yShift</text>
<text text-anchor="start" x="64.5" y="-592" font-family="Helvetica,sans-Serif" font-size="10.00"># visible</text>
<text text-anchor="start" x="64.5" y="-576" font-family="Helvetica,sans-Serif" font-size="10.00"># SCENERY_HEIGHT</text>
<text text-anchor="start" x="64.5" y="-560" font-family="Helvetica,sans-Serif" font-size="10.00"># SCENERY_WIDTH</text>
<polyline fill="none" stroke="black" points="56.5,-549 173.5,-549 "/>
<text text-anchor="start" x="64.5" y="-536" font-family="Helvetica,sans-Serif" font-size="10.00">+ Scenery()</text>
<text text-anchor="start" x="64.5" y="-520" font-family="Helvetica,sans-Serif" font-size="10.00">+ Scenery()</text>
<text text-anchor="start" x="64.5" y="-504" font-family="Helvetica,sans-Serif" font-size="10.00">+ Scenery()</text>
<text text-anchor="start" x="64.5" y="-488" font-family="Helvetica,sans-Serif" font-size="10.00">+ drawScenery()</text>
<text text-anchor="start" x="64.5" y="-472" font-family="Helvetica,sans-Serif" font-size="10.00">+ getSceneryHeight()</text>
<text text-anchor="start" x="64.5" y="-456" font-family="Helvetica,sans-Serif" font-size="10.00">+ getSceneryWidth()</text>
</a>
</g>
<!-- Node4&#45;&gt;Node3 -->
<g id="edge6" class="edge"><title>Node4&#45;&gt;Node3</title>
<path fill="none" stroke="#404040" d="M115,-444.669C115,-430.893 115,-416.969 115,-403.474"/>
<polygon fill="none" stroke="#404040" points="115,-403.218 111,-397.218 115,-391.218 119,-397.218 115,-403.218"/>
<text text-anchor="middle" x="129" y="-417" font-family="Helvetica,sans-Serif" font-size="10.00"> #map</text>
</g>
<!-- Node5 -->
<g id="node8" class="node"><title>Node5</title>
<polygon fill="white" stroke="#bfbfbf" points="93,-747 93,-819 137,-819 137,-747 93,-747"/>
<text text-anchor="middle" x="115" y="-806" font-family="Helvetica,sans-Serif" font-size="10.00">Image</text>
<polyline fill="none" stroke="#bfbfbf" points="93,-795 137,-795 "/>
<text text-anchor="middle" x="115" y="-782" font-family="Helvetica,sans-Serif" font-size="10.00"> </text>
<polyline fill="none" stroke="#bfbfbf" points="93,-771 137,-771 "/>
<text text-anchor="middle" x="115" y="-758" font-family="Helvetica,sans-Serif" font-size="10.00"> </text>
</g>
<!-- Node5&#45;&gt;Node4 -->
<g id="edge8" class="edge"><title>Node5&#45;&gt;Node4</title>
<path fill="none" stroke="#404040" d="M115,-746.698C115,-734.654 115,-720.447 115,-705.398"/>
<polygon fill="none" stroke="#404040" points="115,-705.175 111,-699.175 115,-693.175 119,-699.175 115,-705.175"/>
<text text-anchor="middle" x="145" y="-719" font-family="Helvetica,sans-Serif" font-size="10.00"> #spriteImage</text>
</g>
</g>
</svg>
