<?xml version="1.0" encoding="UTF-8" standalone="no"?>
<!DOCTYPE svg PUBLIC "-//W3C//DTD SVG 1.1//EN"
 "http://www.w3.org/Graphics/SVG/1.1/DTD/svg11.dtd">
<!-- Generated by graphviz version 2.26.3 (20100126.1600)
 -->
<!-- Title: world.scenery.Shore Pages: 1 -->
<svg width="422pt" height="496pt"
 viewBox="0.00 0.00 422.00 496.00" xmlns="http://www.w3.org/2000/svg" xmlns:xlink="http://www.w3.org/1999/xlink">
<g id="graph1" class="graph" transform="scale(1 1) rotate(0) translate(4 492)">
<title>world.scenery.Shore</title>
<polygon fill="white" stroke="white" points="-4,5 -4,-492 419,-492 419,5 -4,5"/>
<!-- Node1 -->
<g id="node1" class="node"><title>Node1</title>
<polygon fill="#bfbfbf" stroke="black" points="147.5,-1 147.5,-73 252.5,-73 252.5,-1 147.5,-1"/>
<text text-anchor="middle" x="200" y="-60" font-family="Helvetica,sans-Serif" font-size="10.00">world.scenery.Shore</text>
<polyline fill="none" stroke="black" points="147.5,-49 252.5,-49 "/>
<text text-anchor="middle" x="200" y="-36" font-family="Helvetica,sans-Serif" font-size="10.00"> </text>
<polyline fill="none" stroke="black" points="147.5,-25 252.5,-25 "/>
<text text-anchor="start" x="155.5" y="-12" font-family="Helvetica,sans-Serif" font-size="10.00">+ Shore()</text>
</g>
<!-- Node2 -->
<g id="node2" class="node"><title>Node2</title>
<a xlink:href="$classworld_1_1scenery_1_1_scenery.html" xlink:title="Class used to handle any world object. ">
<polygon fill="white" stroke="black" points="-0.5,-113 -0.5,-361 116.5,-361 116.5,-113 -0.5,-113"/>
<text text-anchor="middle" x="58" y="-348" font-family="Helvetica,sans-Serif" font-size="10.00">world.scenery.Scenery</text>
<polyline fill="none" stroke="black" points="-0.5,-337 116.5,-337 "/>
<text text-anchor="start" x="7.5" y="-324" font-family="Helvetica,sans-Serif" font-size="10.00"># height</text>
<text text-anchor="start" x="7.5" y="-308" font-family="Helvetica,sans-Serif" font-size="10.00"># width</text>
<text text-anchor="start" x="7.5" y="-292" font-family="Helvetica,sans-Serif" font-size="10.00"># xShift</text>
<text text-anchor="start" x="7.5" y="-276" font-family="Helvetica,sans-Serif" font-size="10.00"># yShift</text>
<text text-anchor="start" x="7.5" y="-260" font-family="Helvetica,sans-Serif" font-size="10.00"># visible</text>
<text text-anchor="start" x="7.5" y="-244" font-family="Helvetica,sans-Serif" font-size="10.00"># SCENERY_HEIGHT</text>
<text text-anchor="start" x="7.5" y="-228" font-family="Helvetica,sans-Serif" font-size="10.00"># SCENERY_WIDTH</text>
<polyline fill="none" stroke="black" points="-0.5,-217 116.5,-217 "/>
<text text-anchor="start" x="7.5" y="-204" font-family="Helvetica,sans-Serif" font-size="10.00">+ Scenery()</text>
<text text-anchor="start" x="7.5" y="-188" font-family="Helvetica,sans-Serif" font-size="10.00">+ Scenery()</text>
<text text-anchor="start" x="7.5" y="-172" font-family="Helvetica,sans-Serif" font-size="10.00">+ Scenery()</text>
<text text-anchor="start" x="7.5" y="-156" font-family="Helvetica,sans-Serif" font-size="10.00">+ drawScenery()</text>
<text text-anchor="start" x="7.5" y="-140" font-family="Helvetica,sans-Serif" font-size="10.00">+ getSceneryHeight()</text>
<text text-anchor="start" x="7.5" y="-124" font-family="Helvetica,sans-Serif" font-size="10.00">+ getSceneryWidth()</text>
</a>
</g>
<!-- Node2&#45;&gt;Node1 -->
<g id="edge2" class="edge"><title>Node2&#45;&gt;Node1</title>
<path fill="none" stroke="midnightblue" d="M122.331,-115.653C123.216,-114.423 124.106,-113.205 125,-112 135.1,-98.3986 147.626,-84.887 159.532,-73.1571"/>
<polygon fill="none" stroke="midnightblue" points="119.406,-113.728 116.564,-123.935 125.151,-117.728 119.406,-113.728"/>
</g>
<!-- Node3 -->
<g id="node4" class="node"><title>Node3</title>
<polygon fill="white" stroke="#bfbfbf" points="36,-415 36,-487 80,-487 80,-415 36,-415"/>
<text text-anchor="middle" x="58" y="-474" font-family="Helvetica,sans-Serif" font-size="10.00">Image</text>
<polyline fill="none" stroke="#bfbfbf" points="36,-463 80,-463 "/>
<text text-anchor="middle" x="58" y="-450" font-family="Helvetica,sans-Serif" font-size="10.00"> </text>
<polyline fill="none" stroke="#bfbfbf" points="36,-439 80,-439 "/>
<text text-anchor="middle" x="58" y="-426" font-family="Helvetica,sans-Serif" font-size="10.00"> </text>
</g>
<!-- Node3&#45;&gt;Node2 -->
<g id="edge4" class="edge"><title>Node3&#45;&gt;Node2</title>
<path fill="none" stroke="#404040" d="M58,-414.698C58,-402.654 58,-388.447 58,-373.398"/>
<polygon fill="none" stroke="#404040" points="58.0001,-373.175 54,-367.175 58,-361.175 62,-367.175 58.0001,-373.175"/>
<text text-anchor="middle" x="88" y="-387" font-family="Helvetica,sans-Serif" font-size="10.00"> #spriteImage</text>
</g>
<!-- Node4 -->
<g id="node6" class="node"><title>Node4</title>
<a xlink:href="$interfaceworld_1_1scenery_1_1_taiga_theme.html" xlink:title="Interface used to define that a Scenery object have a Taiga style. ">
<polygon fill="white" stroke="black" points="133.5,-201 133.5,-273 266.5,-273 266.5,-201 133.5,-201"/>
<text text-anchor="middle" x="200" y="-260" font-family="Helvetica,sans-Serif" font-size="10.00">world.scenery.TaigaTheme</text>
<polyline fill="none" stroke="black" points="133.5,-249 266.5,-249 "/>
<text text-anchor="start" x="141.5" y="-236" font-family="Helvetica,sans-Serif" font-size="10.00">+ TAIGA</text>
<polyline fill="none" stroke="black" points="133.5,-225 266.5,-225 "/>
<text text-anchor="middle" x="200" y="-212" font-family="Helvetica,sans-Serif" font-size="10.00"> </text>
</a>
</g>
<!-- Node4&#45;&gt;Node1 -->
<g id="edge6" class="edge"><title>Node4&#45;&gt;Node1</title>
<path fill="none" stroke="midnightblue" d="M200,-190.608C200,-154.882 200,-106.196 200,-73.2864"/>
<polygon fill="none" stroke="midnightblue" points="196.5,-190.781 200,-200.782 203.5,-190.782 196.5,-190.781"/>
</g>
<!-- Node5 -->
<g id="node8" class="node"><title>Node5</title>
<a xlink:href="$interfaceworld_1_1scenery_1_1_polar_desert_theme.html" xlink:title="Interface used to define that a Scenery object has a Polar Desert style. ">
<polygon fill="white" stroke="black" points="283.5,-193 283.5,-281 414.5,-281 414.5,-193 283.5,-193"/>
<text text-anchor="start" x="291.5" y="-268" font-family="Helvetica,sans-Serif" font-size="10.00">world.scenery.PolarDesert</text>
<text text-anchor="middle" x="349" y="-252" font-family="Helvetica,sans-Serif" font-size="10.00">Theme</text>
<polyline fill="none" stroke="black" points="283.5,-241 414.5,-241 "/>
<text text-anchor="start" x="291.5" y="-228" font-family="Helvetica,sans-Serif" font-size="10.00">+ POLAR_DESERT</text>
<polyline fill="none" stroke="black" points="283.5,-217 414.5,-217 "/>
<text text-anchor="middle" x="349" y="-204" font-family="Helvetica,sans-Serif" font-size="10.00"> </text>
</a>
</g>
<!-- Node5&#45;&gt;Node1 -->
<g id="edge8" class="edge"><title>Node5&#45;&gt;Node1</title>
<path fill="none" stroke="midnightblue" d="M321.424,-183.824C308.551,-160.875 292.267,-134.25 275,-112 264.501,-98.4707 251.732,-84.8733 239.728,-73.0428"/>
<polygon fill="none" stroke="midnightblue" points="318.459,-185.695 326.364,-192.749 324.584,-182.305 318.459,-185.695"/>
</g>
</g>
</svg>
