<?xml version="1.0" encoding="UTF-8" standalone="no"?>
<!DOCTYPE svg PUBLIC "-//W3C//DTD SVG 1.1//EN"
 "http://www.w3.org/Graphics/SVG/1.1/DTD/svg11.dtd">
<!-- Generated by graphviz version 2.26.3 (20100126.1600)
 -->
<!-- Title: main.Philophobia Pages: 1 -->
<svg width="897pt" height="1718pt"
 viewBox="0.00 0.00 897.00 1718.00" xmlns="http://www.w3.org/2000/svg" xmlns:xlink="http://www.w3.org/1999/xlink">
<g id="graph1" class="graph" transform="scale(1 1) rotate(0) translate(4 1714)">
<title>main.Philophobia</title>
<polygon fill="white" stroke="white" points="-4,5 -4,-1714 894,-1714 894,5 -4,5"/>
<!-- Node1 -->
<g id="node1" class="node"><title>Node1</title>
<polygon fill="#bfbfbf" stroke="black" points="276,-1 276,-169 418,-169 418,-1 276,-1"/>
<text text-anchor="middle" x="347" y="-156" font-family="Helvetica,sans-Serif" font-size="10.00">main.Philophobia</text>
<polyline fill="none" stroke="black" points="276,-145 418,-145 "/>
<text text-anchor="start" x="284" y="-132" font-family="Helvetica,sans-Serif" font-size="10.00"># IMAGE_FILE_PREFIX</text>
<text text-anchor="start" x="284" y="-116" font-family="Helvetica,sans-Serif" font-size="10.00"># WORLD_FILE_PREFIX</text>
<text text-anchor="start" x="284" y="-100" font-family="Helvetica,sans-Serif" font-size="10.00"># PHRASES_FILE_PREFIX</text>
<polyline fill="none" stroke="black" points="276,-89 418,-89 "/>
<text text-anchor="start" x="284" y="-76" font-family="Helvetica,sans-Serif" font-size="10.00">+ main()</text>
<text text-anchor="start" x="284" y="-60" font-family="Helvetica,sans-Serif" font-size="10.00">+ getVerbose()</text>
<text text-anchor="start" x="284" y="-44" font-family="Helvetica,sans-Serif" font-size="10.00">+ getImageFilePrefix()</text>
<text text-anchor="start" x="284" y="-28" font-family="Helvetica,sans-Serif" font-size="10.00">+ getWorldFilePrefix()</text>
<text text-anchor="start" x="284" y="-12" font-family="Helvetica,sans-Serif" font-size="10.00">+ getPhrasesFilePrefix()</text>
</g>
<!-- Node2 -->
<g id="node2" class="node"><title>Node2</title>
<a xlink:href="$classdebug_1_1_verbose.html" xlink:title="Class used to display and log messages all over this program. ">
<polygon fill="white" stroke="black" points="233.5,-223 233.5,-375 316.5,-375 316.5,-223 233.5,-223"/>
<text text-anchor="middle" x="275" y="-362" font-family="Helvetica,sans-Serif" font-size="10.00">debug.Verbose</text>
<polyline fill="none" stroke="black" points="233.5,-351 316.5,-351 "/>
<text text-anchor="start" x="241.5" y="-338" font-family="Helvetica,sans-Serif" font-size="10.00"># verboseMode</text>
<polyline fill="none" stroke="black" points="233.5,-327 316.5,-327 "/>
<text text-anchor="start" x="241.5" y="-314" font-family="Helvetica,sans-Serif" font-size="10.00">+ Verbose()</text>
<text text-anchor="start" x="241.5" y="-298" font-family="Helvetica,sans-Serif" font-size="10.00">+ critical()</text>
<text text-anchor="start" x="241.5" y="-282" font-family="Helvetica,sans-Serif" font-size="10.00">+ serious()</text>
<text text-anchor="start" x="241.5" y="-266" font-family="Helvetica,sans-Serif" font-size="10.00">+ warning()</text>
<text text-anchor="start" x="241.5" y="-250" font-family="Helvetica,sans-Serif" font-size="10.00">+ information()</text>
<text text-anchor="start" x="241.5" y="-234" font-family="Helvetica,sans-Serif" font-size="10.00">+ calls()</text>
</a>
</g>
<!-- Node2&#45;&gt;Node1 -->
<g id="edge2" class="edge"><title>Node2&#45;&gt;Node1</title>
<path fill="none" stroke="#404040" d="M300.587,-222.949C305.166,-209.34 309.991,-195 314.728,-180.919"/>
<polygon fill="none" stroke="#404040" points="314.853,-180.546 312.976,-173.584 318.68,-169.173 320.558,-176.135 314.853,-180.546"/>
<text text-anchor="middle" x="332.5" y="-195" font-family="Helvetica,sans-Serif" font-size="10.00"> #verbose</text>
</g>
<!-- Node3 -->
<g id="node4" class="node"><title>Node3</title>
<polygon fill="white" stroke="#bfbfbf" points="219,-469 219,-541 265,-541 265,-469 219,-469"/>
<text text-anchor="middle" x="242" y="-528" font-family="Helvetica,sans-Serif" font-size="10.00">Logger</text>
<polyline fill="none" stroke="#bfbfbf" points="219,-517 265,-517 "/>
<text text-anchor="middle" x="242" y="-504" font-family="Helvetica,sans-Serif" font-size="10.00"> </text>
<polyline fill="none" stroke="#bfbfbf" points="219,-493 265,-493 "/>
<text text-anchor="middle" x="242" y="-480" font-family="Helvetica,sans-Serif" font-size="10.00"> </text>
</g>
<!-- Node3&#45;&gt;Node2 -->
<g id="edge4" class="edge"><title>Node3&#45;&gt;Node2</title>
<path fill="none" stroke="#404040" d="M247.824,-468.646C251.45,-446.007 256.283,-415.84 260.867,-387.226"/>
<polygon fill="none" stroke="#404040" points="260.913,-386.934 257.913,-380.377 262.812,-375.085 265.812,-381.642 260.913,-386.934"/>
<text text-anchor="middle" x="271" y="-401" font-family="Helvetica,sans-Serif" font-size="10.00"> ~log</text>
</g>
<!-- Node4 -->
<g id="node6" class="node"><title>Node4</title>
<a xlink:href="$classgameplay_1_1_game_play.html" xlink:title="Class handling the game play of this game. ">
<polygon fill="white" stroke="black" points="350.5,-263 350.5,-335 457.5,-335 457.5,-263 350.5,-263"/>
<text text-anchor="middle" x="404" y="-322" font-family="Helvetica,sans-Serif" font-size="10.00">gameplay.GamePlay</text>
<polyline fill="none" stroke="black" points="350.5,-311 457.5,-311 "/>
<text text-anchor="start" x="358.5" y="-298" font-family="Helvetica,sans-Serif" font-size="10.00"># currentWorldName</text>
<polyline fill="none" stroke="black" points="350.5,-287 457.5,-287 "/>
<text text-anchor="start" x="358.5" y="-274" font-family="Helvetica,sans-Serif" font-size="10.00">+ GamePlay()</text>
</a>
</g>
<!-- Node4&#45;&gt;Node1 -->
<g id="edge6" class="edge"><title>Node4&#45;&gt;Node1</title>
<path fill="none" stroke="#404040" d="M394.331,-262.698C388.329,-240.164 380.31,-210.059 372.581,-181.04"/>
<polygon fill="none" stroke="#404040" points="372.497,-180.725 367.087,-175.957 369.408,-169.13 374.818,-173.898 372.497,-180.725"/>
<text text-anchor="middle" x="404" y="-195" font-family="Helvetica,sans-Serif" font-size="10.00"> #gamePlay</text>
</g>
<!-- Node5 -->
<g id="node8" class="node"><title>Node5</title>
<a xlink:href="$classwindow_1_1_window.html" xlink:title="{window.Window\n||+ Window()\l+ setLoadingState()\l+ setGameState()\l+ setFailState()\l+ setWinState()\l+ getUserInterface()\l}">
<polygon fill="white" stroke="black" points="585,-429 585,-581 689,-581 689,-429 585,-429"/>
<text text-anchor="middle" x="637" y="-568" font-family="Helvetica,sans-Serif" font-size="10.00">window.Window</text>
<polyline fill="none" stroke="black" points="585,-557 689,-557 "/>
<text text-anchor="middle" x="637" y="-544" font-family="Helvetica,sans-Serif" font-size="10.00"> </text>
<polyline fill="none" stroke="black" points="585,-533 689,-533 "/>
<text text-anchor="start" x="593" y="-520" font-family="Helvetica,sans-Serif" font-size="10.00">+ Window()</text>
<text text-anchor="start" x="593" y="-504" font-family="Helvetica,sans-Serif" font-size="10.00">+ setLoadingState()</text>
<text text-anchor="start" x="593" y="-488" font-family="Helvetica,sans-Serif" font-size="10.00">+ setGameState()</text>
<text text-anchor="start" x="593" y="-472" font-family="Helvetica,sans-Serif" font-size="10.00">+ setFailState()</text>
<text text-anchor="start" x="593" y="-456" font-family="Helvetica,sans-Serif" font-size="10.00">+ setWinState()</text>
<text text-anchor="start" x="593" y="-440" font-family="Helvetica,sans-Serif" font-size="10.00">+ getUserInterface()</text>
</a>
</g>
<!-- Node5&#45;&gt;Node4 -->
<g id="edge8" class="edge"><title>Node5&#45;&gt;Node4</title>
<path fill="none" stroke="#404040" d="M584.71,-458.77C545.748,-424.322 492.851,-377.555 454.36,-343.524"/>
<polygon fill="none" stroke="#404040" points="453.891,-343.11 446.747,-342.132 444.901,-335.162 452.046,-336.139 453.891,-343.11"/>
<text text-anchor="middle" x="549" y="-401" font-family="Helvetica,sans-Serif" font-size="10.00"> #window</text>
</g>
<!-- Node6 -->
<g id="node10" class="node"><title>Node6</title>
<polygon fill="white" stroke="#bfbfbf" points="711,-683 711,-755 761,-755 761,-683 711,-683"/>
<text text-anchor="middle" x="736" y="-742" font-family="Helvetica,sans-Serif" font-size="10.00">JFrame</text>
<polyline fill="none" stroke="#bfbfbf" points="711,-731 761,-731 "/>
<text text-anchor="middle" x="736" y="-718" font-family="Helvetica,sans-Serif" font-size="10.00"> </text>
<polyline fill="none" stroke="#bfbfbf" points="711,-707 761,-707 "/>
<text text-anchor="middle" x="736" y="-694" font-family="Helvetica,sans-Serif" font-size="10.00"> </text>
</g>
<!-- Node6&#45;&gt;Node5 -->
<g id="edge10" class="edge"><title>Node6&#45;&gt;Node5</title>
<path fill="none" stroke="midnightblue" d="M718.518,-673.197C713.413,-660.415 707.675,-646.585 702,-634 694.217,-616.74 685.371,-598.44 676.766,-581.215"/>
<polygon fill="none" stroke="midnightblue" points="715.355,-674.716 722.287,-682.729 721.865,-672.142 715.355,-674.716"/>
</g>
<!-- Node7 -->
<g id="node12" class="node"><title>Node7</title>
<a xlink:href="$enumwindow_1_1_window_state.html" xlink:title="Enumeration of the possible states of the displayed graphics. ">
<polygon fill="white" stroke="black" points="779,-651 779,-787 889,-787 889,-651 779,-651"/>
<text text-anchor="middle" x="834" y="-774" font-family="Helvetica,sans-Serif" font-size="10.00">window.WindowState</text>
<polyline fill="none" stroke="black" points="779,-763 889,-763 "/>
<text text-anchor="start" x="787" y="-750" font-family="Helvetica,sans-Serif" font-size="10.00">+ FirstLoading</text>
<text text-anchor="start" x="787" y="-734" font-family="Helvetica,sans-Serif" font-size="10.00">+ Game</text>
<text text-anchor="start" x="787" y="-718" font-family="Helvetica,sans-Serif" font-size="10.00">+ LoadingScreen</text>
<text text-anchor="start" x="787" y="-702" font-family="Helvetica,sans-Serif" font-size="10.00">+ Win</text>
<text text-anchor="start" x="787" y="-686" font-family="Helvetica,sans-Serif" font-size="10.00">+ Fail</text>
<polyline fill="none" stroke="black" points="779,-675 889,-675 "/>
<text text-anchor="middle" x="834" y="-662" font-family="Helvetica,sans-Serif" font-size="10.00"> </text>
</a>
</g>
<!-- Node7&#45;&gt;Node5 -->
<g id="edge12" class="edge"><title>Node7&#45;&gt;Node5</title>
<path fill="none" stroke="#404040" d="M784.278,-650.961C779.566,-645.13 774.767,-639.402 770,-634 747.636,-608.656 721.224,-582.385 697.855,-560.216"/>
<polygon fill="none" stroke="#404040" points="697.796,-560.161 690.686,-558.957 689.062,-551.931 696.172,-553.135 697.796,-560.161"/>
<text text-anchor="middle" x="785.5" y="-607" font-family="Helvetica,sans-Serif" font-size="10.00"> #windowState</text>
</g>
<!-- Node8 -->
<g id="node14" class="node"><title>Node8</title>
<a xlink:href="$classwindow_1_1topbar_1_1_top_bar.html" xlink:title="Class handling the top bar of the program&#39;s main window. ">
<polygon fill="white" stroke="black" points="581,-635 581,-803 693,-803 693,-635 581,-635"/>
<text text-anchor="middle" x="637" y="-790" font-family="Helvetica,sans-Serif" font-size="10.00">window.topbar.TopBar</text>
<polyline fill="none" stroke="black" points="581,-779 693,-779 "/>
<text text-anchor="start" x="589" y="-766" font-family="Helvetica,sans-Serif" font-size="10.00"># TOPBAR_HEIGHT</text>
<text text-anchor="start" x="589" y="-750" font-family="Helvetica,sans-Serif" font-size="10.00"># TOPBAR_MARGIN</text>
<polyline fill="none" stroke="black" points="581,-739 693,-739 "/>
<text text-anchor="start" x="589" y="-726" font-family="Helvetica,sans-Serif" font-size="10.00">+ TopBar()</text>
<text text-anchor="start" x="589" y="-710" font-family="Helvetica,sans-Serif" font-size="10.00">+ hidePauseButton()</text>
<text text-anchor="start" x="589" y="-694" font-family="Helvetica,sans-Serif" font-size="10.00">+ showPauseButton()</text>
<text text-anchor="start" x="589" y="-678" font-family="Helvetica,sans-Serif" font-size="10.00">+ paintComponent()</text>
<text text-anchor="start" x="589" y="-662" font-family="Helvetica,sans-Serif" font-size="10.00">+ getTopBarHeight()</text>
<text text-anchor="start" x="589" y="-646" font-family="Helvetica,sans-Serif" font-size="10.00">+ getTopBarMargin()</text>
</a>
</g>
<!-- Node8&#45;&gt;Node5 -->
<g id="edge14" class="edge"><title>Node8&#45;&gt;Node5</title>
<path fill="none" stroke="#404040" d="M637,-634.729C637,-621.207 637,-607.177 637,-593.558"/>
<polygon fill="none" stroke="#404040" points="637,-593.193 633,-587.193 637,-581.193 641,-587.193 637,-593.193"/>
<text text-anchor="middle" x="655" y="-607" font-family="Helvetica,sans-Serif" font-size="10.00"> #topbar</text>
</g>
<!-- Node9 -->
<g id="node16" class="node"><title>Node9</title>
<polygon fill="white" stroke="#bfbfbf" points="641.5,-961 641.5,-1033 688.5,-1033 688.5,-961 641.5,-961"/>
<text text-anchor="middle" x="665" y="-1020" font-family="Helvetica,sans-Serif" font-size="10.00">JPanel</text>
<polyline fill="none" stroke="#bfbfbf" points="641.5,-1009 688.5,-1009 "/>
<text text-anchor="middle" x="665" y="-996" font-family="Helvetica,sans-Serif" font-size="10.00"> </text>
<polyline fill="none" stroke="#bfbfbf" points="641.5,-985 688.5,-985 "/>
<text text-anchor="middle" x="665" y="-972" font-family="Helvetica,sans-Serif" font-size="10.00"> </text>
</g>
<!-- Node9&#45;&gt;Node8 -->
<g id="edge16" class="edge"><title>Node9&#45;&gt;Node8</title>
<path fill="none" stroke="midnightblue" d="M661.544,-950.751C658.782,-915.444 654.619,-865.607 650,-822 649.345,-815.816 648.63,-809.429 647.884,-803.004"/>
<polygon fill="none" stroke="midnightblue" points="658.057,-951.062 662.32,-960.762 665.036,-950.521 658.057,-951.062"/>
</g>
<!-- Node13 -->
<g id="node24" class="node"><title>Node13</title>
<a xlink:href="$classwindow_1_1ui_1_1_u_i.html" xlink:title="Class used to handle the window&#39;s user interface. ">
<polygon fill="white" stroke="black" points="449,-643 449,-795 563,-795 563,-643 449,-643"/>
<text text-anchor="middle" x="506" y="-782" font-family="Helvetica,sans-Serif" font-size="10.00">window.ui.UI</text>
<polyline fill="none" stroke="black" points="449,-771 563,-771 "/>
<text text-anchor="start" x="457" y="-758" font-family="Helvetica,sans-Serif" font-size="10.00"># windowHeight</text>
<text text-anchor="start" x="457" y="-742" font-family="Helvetica,sans-Serif" font-size="10.00"># windowWidth</text>
<polyline fill="none" stroke="black" points="449,-731 563,-731 "/>
<text text-anchor="start" x="457" y="-718" font-family="Helvetica,sans-Serif" font-size="10.00">+ UI()</text>
<text text-anchor="start" x="457" y="-702" font-family="Helvetica,sans-Serif" font-size="10.00">+ UI()</text>
<text text-anchor="start" x="457" y="-686" font-family="Helvetica,sans-Serif" font-size="10.00">+ setDisplayedWorld()</text>
<text text-anchor="start" x="457" y="-670" font-family="Helvetica,sans-Serif" font-size="10.00">+ paintComponent()</text>
<text text-anchor="start" x="457" y="-654" font-family="Helvetica,sans-Serif" font-size="10.00">&#45; drawWorld()</text>
</a>
</g>
<!-- Node9&#45;&gt;Node13 -->
<g id="edge26" class="edge"><title>Node9&#45;&gt;Node13</title>
<path fill="none" stroke="midnightblue" d="M665.559,-950.876C663.578,-911.97 654.684,-857.154 623,-822 606.907,-804.145 591.494,-818.063 572,-804 568.212,-801.267 564.534,-798.258 560.982,-795.052"/>
<polygon fill="none" stroke="midnightblue" points="662.062,-951.038 665.936,-960.899 669.057,-950.775 662.062,-951.038"/>
</g>
<!-- Node10 -->
<g id="node18" class="node"><title>Node10</title>
<a xlink:href="$classwindow_1_1topbar_1_1_top_bar_button.html" xlink:title="Class handling the UI buttons. ">
<polygon fill="white" stroke="black" points="484,-953 484,-1041 624,-1041 624,-953 484,-953"/>
<text text-anchor="middle" x="554" y="-1028" font-family="Helvetica,sans-Serif" font-size="10.00">window.topbar.TopBarButton</text>
<polyline fill="none" stroke="black" points="484,-1017 624,-1017 "/>
<text text-anchor="middle" x="554" y="-1004" font-family="Helvetica,sans-Serif" font-size="10.00"> </text>
<polyline fill="none" stroke="black" points="484,-993 624,-993 "/>
<text text-anchor="start" x="492" y="-980" font-family="Helvetica,sans-Serif" font-size="10.00">+ TopBarButton()</text>
<text text-anchor="start" x="492" y="-964" font-family="Helvetica,sans-Serif" font-size="10.00">+ paintComponent()</text>
</a>
</g>
<!-- Node10&#45;&gt;Node8 -->
<g id="edge18" class="edge"><title>Node10&#45;&gt;Node8</title>
<path fill="none" stroke="#404040" d="M556.992,-952.885C560.389,-916.906 567.479,-865.16 582,-822 582.854,-819.463 583.765,-816.914 584.727,-814.361"/>
<polygon fill="none" stroke="#404040" points="584.754,-814.294 583.286,-807.233 589.238,-803.163 590.706,-810.223 584.754,-814.294"/>
<text text-anchor="middle" x="614" y="-845" font-family="Helvetica,sans-Serif" font-size="10.00"> #pauseButton</text>
<text text-anchor="middle" x="614" y="-829" font-family="Helvetica,sans-Serif" font-size="10.00">#closeButton</text>
</g>
<!-- Node11 -->
<g id="node20" class="node"><title>Node11</title>
<polygon fill="white" stroke="#bfbfbf" points="594,-1423 594,-1495 644,-1495 644,-1423 594,-1423"/>
<text text-anchor="middle" x="619" y="-1482" font-family="Helvetica,sans-Serif" font-size="10.00">JButton</text>
<polyline fill="none" stroke="#bfbfbf" points="594,-1471 644,-1471 "/>
<text text-anchor="middle" x="619" y="-1458" font-family="Helvetica,sans-Serif" font-size="10.00"> </text>
<polyline fill="none" stroke="#bfbfbf" points="594,-1447 644,-1447 "/>
<text text-anchor="middle" x="619" y="-1434" font-family="Helvetica,sans-Serif" font-size="10.00"> </text>
</g>
<!-- Node11&#45;&gt;Node10 -->
<g id="edge20" class="edge"><title>Node11&#45;&gt;Node10</title>
<path fill="none" stroke="midnightblue" d="M612.479,-1412.65C599.914,-1323.34 572.506,-1128.53 560.199,-1041.06"/>
<polygon fill="none" stroke="midnightblue" points="609.04,-1413.33 613.9,-1422.75 615.972,-1412.36 609.04,-1413.33"/>
</g>
<!-- Node12 -->
<g id="node22" class="node"><title>Node12</title>
<polygon fill="white" stroke="#bfbfbf" points="449,-1637 449,-1709 493,-1709 493,-1637 449,-1637"/>
<text text-anchor="middle" x="471" y="-1696" font-family="Helvetica,sans-Serif" font-size="10.00">Image</text>
<polyline fill="none" stroke="#bfbfbf" points="449,-1685 493,-1685 "/>
<text text-anchor="middle" x="471" y="-1672" font-family="Helvetica,sans-Serif" font-size="10.00"> </text>
<polyline fill="none" stroke="#bfbfbf" points="449,-1661 493,-1661 "/>
<text text-anchor="middle" x="471" y="-1648" font-family="Helvetica,sans-Serif" font-size="10.00"> </text>
</g>
<!-- Node12&#45;&gt;Node10 -->
<g id="edge22" class="edge"><title>Node12&#45;&gt;Node10</title>
<path fill="none" stroke="#404040" d="M491.89,-1636.83C494.698,-1630.7 497.22,-1624.29 499,-1618 533.491,-1496.15 510.903,-1460.15 522,-1334 530.684,-1235.28 541.813,-1120.39 548.397,-1053.47"/>
<polygon fill="none" stroke="#404040" points="548.435,-1053.08 545.042,-1046.72 549.612,-1041.14 553.004,-1047.51 548.435,-1053.08"/>
<text text-anchor="middle" x="553.5" y="-1458" font-family="Helvetica,sans-Serif" font-size="10.00"> #buttonImage</text>
</g>
<!-- Node15 -->
<g id="node29" class="node"><title>Node15</title>
<a xlink:href="$classworld_1_1scenery_1_1_scenery.html" xlink:title="Class used to handle any world object. ">
<polygon fill="white" stroke="black" points="360.5,-1335 360.5,-1583 477.5,-1583 477.5,-1335 360.5,-1335"/>
<text text-anchor="middle" x="419" y="-1570" font-family="Helvetica,sans-Serif" font-size="10.00">world.scenery.Scenery</text>
<polyline fill="none" stroke="black" points="360.5,-1559 477.5,-1559 "/>
<text text-anchor="start" x="368.5" y="-1546" font-family="Helvetica,sans-Serif" font-size="10.00"># height</text>
<text text-anchor="start" x="368.5" y="-1530" font-family="Helvetica,sans-Serif" font-size="10.00"># width</text>
<text text-anchor="start" x="368.5" y="-1514" font-family="Helvetica,sans-Serif" font-size="10.00"># xShift</text>
<text text-anchor="start" x="368.5" y="-1498" font-family="Helvetica,sans-Serif" font-size="10.00"># yShift</text>
<text text-anchor="start" x="368.5" y="-1482" font-family="Helvetica,sans-Serif" font-size="10.00"># visible</text>
<text text-anchor="start" x="368.5" y="-1466" font-family="Helvetica,sans-Serif" font-size="10.00"># SCENERY_HEIGHT</text>
<text text-anchor="start" x="368.5" y="-1450" font-family="Helvetica,sans-Serif" font-size="10.00"># SCENERY_WIDTH</text>
<polyline fill="none" stroke="black" points="360.5,-1439 477.5,-1439 "/>
<text text-anchor="start" x="368.5" y="-1426" font-family="Helvetica,sans-Serif" font-size="10.00">+ Scenery()</text>
<text text-anchor="start" x="368.5" y="-1410" font-family="Helvetica,sans-Serif" font-size="10.00">+ Scenery()</text>
<text text-anchor="start" x="368.5" y="-1394" font-family="Helvetica,sans-Serif" font-size="10.00">+ Scenery()</text>
<text text-anchor="start" x="368.5" y="-1378" font-family="Helvetica,sans-Serif" font-size="10.00">+ drawScenery()</text>
<text text-anchor="start" x="368.5" y="-1362" font-family="Helvetica,sans-Serif" font-size="10.00">+ getSceneryHeight()</text>
<text text-anchor="start" x="368.5" y="-1346" font-family="Helvetica,sans-Serif" font-size="10.00">+ getSceneryWidth()</text>
</a>
</g>
<!-- Node12&#45;&gt;Node15 -->
<g id="edge32" class="edge"><title>Node12&#45;&gt;Node15</title>
<path fill="none" stroke="#404040" d="M448.955,-1639.99C445.092,-1632.97 441.512,-1625.43 439,-1618 436.515,-1610.65 434.333,-1603.01 432.42,-1595.24"/>
<polygon fill="none" stroke="#404040" points="432.379,-1595.06 427.147,-1590.1 429.716,-1583.36 434.947,-1588.32 432.379,-1595.06"/>
<text text-anchor="middle" x="469" y="-1609" font-family="Helvetica,sans-Serif" font-size="10.00"> #spriteImage</text>
</g>
<!-- Node13&#45;&gt;Node5 -->
<g id="edge24" class="edge"><title>Node13&#45;&gt;Node5</title>
<path fill="none" stroke="#404040" d="M542.763,-642.761C550.37,-628.327 558.629,-613.521 567,-600 570.471,-594.393 574.176,-588.695 578.001,-583.016"/>
<polygon fill="none" stroke="#404040" points="578.197,-582.731 578.297,-575.521 584.991,-572.84 584.891,-580.05 578.197,-582.731"/>
<text text-anchor="middle" x="600" y="-607" font-family="Helvetica,sans-Serif" font-size="10.00"> #userInterface</text>
</g>
<!-- Node14 -->
<g id="node27" class="node"><title>Node14</title>
<a xlink:href="$classworld_1_1_world.html" xlink:title="World is a class used to handle the game world graphics. ">
<polygon fill="white" stroke="black" points="372,-905 372,-1089 466,-1089 466,-905 372,-905"/>
<text text-anchor="middle" x="419" y="-1076" font-family="Helvetica,sans-Serif" font-size="10.00">world.World</text>
<polyline fill="none" stroke="black" points="372,-1065 466,-1065 "/>
<text text-anchor="start" x="380" y="-1052" font-family="Helvetica,sans-Serif" font-size="10.00"># sizeX</text>
<text text-anchor="start" x="380" y="-1036" font-family="Helvetica,sans-Serif" font-size="10.00"># sizeY</text>
<text text-anchor="start" x="380" y="-1020" font-family="Helvetica,sans-Serif" font-size="10.00"># type</text>
<polyline fill="none" stroke="black" points="372,-1009 466,-1009 "/>
<text text-anchor="start" x="380" y="-996" font-family="Helvetica,sans-Serif" font-size="10.00">+ World()</text>
<text text-anchor="start" x="380" y="-980" font-family="Helvetica,sans-Serif" font-size="10.00">+ World()</text>
<text text-anchor="start" x="380" y="-964" font-family="Helvetica,sans-Serif" font-size="10.00">+ getSizeX()</text>
<text text-anchor="start" x="380" y="-948" font-family="Helvetica,sans-Serif" font-size="10.00">+ getSizeY()</text>
<text text-anchor="start" x="380" y="-932" font-family="Helvetica,sans-Serif" font-size="10.00">+ getMap()</text>
<text text-anchor="start" x="380" y="-916" font-family="Helvetica,sans-Serif" font-size="10.00"># generateWorld()</text>
</a>
</g>
<!-- Node14&#45;&gt;Node4 -->
<g id="edge46" class="edge"><title>Node14&#45;&gt;Node4</title>
<path fill="none" stroke="#404040" d="M417.118,-904.853C414.805,-792.321 410.729,-596.177 407,-428 406.408,-401.299 405.717,-371.491 405.147,-347.26"/>
<polygon fill="none" stroke="#404040" points="405.144,-347.139 401.004,-341.235 404.861,-335.143 409.002,-341.047 405.144,-347.139"/>
<text text-anchor="middle" x="444" y="-607" font-family="Helvetica,sans-Serif" font-size="10.00"> #currentWorld</text>
</g>
<!-- Node14&#45;&gt;Node13 -->
<g id="edge28" class="edge"><title>Node14&#45;&gt;Node13</title>
<path fill="none" stroke="#404040" d="M447.849,-904.816C457.717,-873.283 468.725,-838.11 478.485,-806.922"/>
<polygon fill="none" stroke="#404040" points="478.576,-806.632 476.55,-799.711 482.16,-795.179 484.185,-802.1 478.576,-806.632"/>
<text text-anchor="middle" x="511" y="-837" font-family="Helvetica,sans-Serif" font-size="10.00"> #displayedWorld</text>
</g>
<!-- Node16 -->
<g id="node32" class="node"><title>Node16</title>
<a xlink:href="$classgameplay_1_1ai_1_1_a_i.html" xlink:title="Class representing the sadistic robot. ">
<polygon fill="white" stroke="black" points="226.5,-643 226.5,-795 329.5,-795 329.5,-643 226.5,-643"/>
<text text-anchor="middle" x="278" y="-782" font-family="Helvetica,sans-Serif" font-size="10.00">gameplay.ai.AI</text>
<polyline fill="none" stroke="black" points="226.5,-771 329.5,-771 "/>
<text text-anchor="start" x="234.5" y="-758" font-family="Helvetica,sans-Serif" font-size="10.00"># betrayalCount</text>
<text text-anchor="start" x="234.5" y="-742" font-family="Helvetica,sans-Serif" font-size="10.00"># slaveryCount</text>
<polyline fill="none" stroke="black" points="226.5,-731 329.5,-731 "/>
<text text-anchor="start" x="234.5" y="-718" font-family="Helvetica,sans-Serif" font-size="10.00">+ AI()</text>
<text text-anchor="start" x="234.5" y="-702" font-family="Helvetica,sans-Serif" font-size="10.00">+ setCurrentWorld()</text>
<text text-anchor="start" x="234.5" y="-686" font-family="Helvetica,sans-Serif" font-size="10.00">+ newBetrayal()</text>
<text text-anchor="start" x="234.5" y="-670" font-family="Helvetica,sans-Serif" font-size="10.00">+ newSlavery()</text>
<text text-anchor="start" x="234.5" y="-654" font-family="Helvetica,sans-Serif" font-size="10.00"># changeMood()</text>
</a>
</g>
<!-- Node14&#45;&gt;Node16 -->
<g id="edge44" class="edge"><title>Node14&#45;&gt;Node16</title>
<path fill="none" stroke="#404040" d="M371.823,-909.562C362.154,-891.273 352.143,-872.06 343,-854 335.22,-838.632 327.116,-822.181 319.376,-806.237"/>
<polygon fill="none" stroke="#404040" points="319.31,-806.101 313.096,-802.442 314.084,-795.299 320.298,-798.958 319.31,-806.101"/>
<text text-anchor="middle" x="375" y="-837" font-family="Helvetica,sans-Serif" font-size="10.00"> #currentWorld</text>
</g>
<!-- Node15&#45;&gt;Node14 -->
<g id="edge30" class="edge"><title>Node15&#45;&gt;Node14</title>
<path fill="none" stroke="#404040" d="M419,-1334.89C419,-1261.9 419,-1170.64 419,-1101.37"/>
<polygon fill="none" stroke="#404040" points="419,-1101.13 415,-1095.13 419,-1089.13 423,-1095.13 419,-1101.13"/>
<text text-anchor="middle" x="433" y="-1227" font-family="Helvetica,sans-Serif" font-size="10.00"> #map</text>
</g>
<!-- Node16&#45;&gt;Node4 -->
<g id="edge34" class="edge"><title>Node16&#45;&gt;Node4</title>
<path fill="none" stroke="#404040" d="M277.904,-642.766C280.117,-582.625 288.4,-497.57 315,-428 326.478,-397.979 346.313,-368.197 364.349,-344.826"/>
<polygon fill="none" stroke="#404040" points="364.499,-344.635 365.08,-337.448 371.939,-335.22 371.358,-342.407 364.499,-344.635"/>
<text text-anchor="middle" x="361" y="-504" font-family="Helvetica,sans-Serif" font-size="10.00"> #artificialIntelligence</text>
</g>
<!-- Node17 -->
<g id="node34" class="node"><title>Node17</title>
<a xlink:href="$classgameplay_1_1ai_1_1phrasing_1_1_phrasing.html" xlink:title="{gameplay.ai.phrasing.Phrasing\n|# angerBetrayalPhrases\l# powerComplexMotivationPhrases\l# actionAsked\l|+ Phrasing()\l}">
<polygon fill="white" stroke="black" points="-0.5,-945 -0.5,-1049 170.5,-1049 170.5,-945 -0.5,-945"/>
<text text-anchor="middle" x="85" y="-1036" font-family="Helvetica,sans-Serif" font-size="10.00">gameplay.ai.phrasing.Phrasing</text>
<polyline fill="none" stroke="black" points="-0.5,-1025 170.5,-1025 "/>
<text text-anchor="start" x="7.5" y="-1012" font-family="Helvetica,sans-Serif" font-size="10.00"># angerBetrayalPhrases</text>
<text text-anchor="start" x="7.5" y="-996" font-family="Helvetica,sans-Serif" font-size="10.00"># powerComplexMotivationPhrases</text>
<text text-anchor="start" x="7.5" y="-980" font-family="Helvetica,sans-Serif" font-size="10.00"># actionAsked</text>
<polyline fill="none" stroke="black" points="-0.5,-969 170.5,-969 "/>
<text text-anchor="start" x="7.5" y="-956" font-family="Helvetica,sans-Serif" font-size="10.00">+ Phrasing()</text>
</a>
</g>
<!-- Node17&#45;&gt;Node16 -->
<g id="edge36" class="edge"><title>Node17&#45;&gt;Node16</title>
<path fill="none" stroke="#404040" d="M105.88,-944.678C121.584,-908.493 145.133,-860.182 173,-822 185.836,-804.413 201.769,-787.115 217.313,-771.864"/>
<polygon fill="none" stroke="#404040" points="217.743,-771.451 219.296,-764.41 226.394,-763.135 224.84,-770.177 217.743,-771.451"/>
<text text-anchor="middle" x="212.5" y="-837" font-family="Helvetica,sans-Serif" font-size="10.00"> #phrasingSystem</text>
</g>
<!-- Node18 -->
<g id="node36" class="node"><title>Node18</title>
<a xlink:href="$classgameplay_1_1ai_1_1phrasing_1_1_ordered_phrases.html" xlink:title="Class used to contain an ordered list of phrases. ">
<polygon fill="white" stroke="black" points="12,-1399 12,-1519 158,-1519 158,-1399 12,-1399"/>
<text text-anchor="start" x="20" y="-1506" font-family="Helvetica,sans-Serif" font-size="10.00">gameplay.ai.phrasing.Ordered</text>
<text text-anchor="middle" x="85" y="-1490" font-family="Helvetica,sans-Serif" font-size="10.00">Phrases</text>
<polyline fill="none" stroke="black" points="12,-1479 158,-1479 "/>
<text text-anchor="start" x="20" y="-1466" font-family="Helvetica,sans-Serif" font-size="10.00"># phrases</text>
<text text-anchor="start" x="20" y="-1450" font-family="Helvetica,sans-Serif" font-size="10.00"># phrasesOrder</text>
<polyline fill="none" stroke="black" points="12,-1439 158,-1439 "/>
<text text-anchor="start" x="20" y="-1426" font-family="Helvetica,sans-Serif" font-size="10.00">+ OrderedPhrases()</text>
<text text-anchor="start" x="20" y="-1410" font-family="Helvetica,sans-Serif" font-size="10.00"># getPhrasesNumber()</text>
</a>
</g>
<!-- Node18&#45;&gt;Node17 -->
<g id="edge38" class="edge"><title>Node18&#45;&gt;Node17</title>
<path fill="none" stroke="#404040" d="M85,-1398.6C85,-1311.35 85,-1150.73 85,-1061.33"/>
<polygon fill="none" stroke="#404040" points="85.0001,-1061.21 81,-1055.21 85,-1049.21 89,-1055.21 85.0001,-1061.21"/>
<text text-anchor="middle" x="156.5" y="-1307" font-family="Helvetica,sans-Serif" font-size="10.00"> #depressionSlaveryPhrases</text>
<text text-anchor="middle" x="156.5" y="-1291" font-family="Helvetica,sans-Serif" font-size="10.00">#powerComplexBetrayalPhrases</text>
<text text-anchor="middle" x="156.5" y="-1275" font-family="Helvetica,sans-Serif" font-size="10.00">#depressionMotivationPhrases</text>
<text text-anchor="middle" x="156.5" y="-1259" font-family="Helvetica,sans-Serif" font-size="10.00">#angerMotivationPhrases</text>
<text text-anchor="middle" x="156.5" y="-1243" font-family="Helvetica,sans-Serif" font-size="10.00">#curiositySlaveryPhrases</text>
<text text-anchor="middle" x="156.5" y="-1227" font-family="Helvetica,sans-Serif" font-size="10.00">#curiosityBetrayalPhrases</text>
<text text-anchor="middle" x="156.5" y="-1211" font-family="Helvetica,sans-Serif" font-size="10.00">#curiosityMotivationPhrases</text>
<text text-anchor="middle" x="156.5" y="-1195" font-family="Helvetica,sans-Serif" font-size="10.00">#powerComplexSlaveryPhrases</text>
<text text-anchor="middle" x="156.5" y="-1179" font-family="Helvetica,sans-Serif" font-size="10.00">#depressionBetrayalPhrases</text>
<text text-anchor="middle" x="156.5" y="-1163" font-family="Helvetica,sans-Serif" font-size="10.00">#angerSlaveryPhrases</text>
<text text-anchor="middle" x="156.5" y="-1147" font-family="Helvetica,sans-Serif" font-size="10.00">...</text>
</g>
<!-- Node19 -->
<g id="node38" class="node"><title>Node19</title>
<a xlink:href="$classgameplay_1_1ai_1_1mood_1_1_mood.html" xlink:title="Abstract class representing an AI mood. ">
<polygon fill="white" stroke="black" points="188,-873 188,-1121 338,-1121 338,-873 188,-873"/>
<text text-anchor="middle" x="263" y="-1108" font-family="Helvetica,sans-Serif" font-size="10.00">gameplay.ai.mood.Mood</text>
<polyline fill="none" stroke="black" points="188,-1097 338,-1097 "/>
<text text-anchor="start" x="196" y="-1084" font-family="Helvetica,sans-Serif" font-size="10.00"># betrayalThreshold</text>
<text text-anchor="start" x="196" y="-1068" font-family="Helvetica,sans-Serif" font-size="10.00"># slaveryThreshold</text>
<text text-anchor="start" x="196" y="-1052" font-family="Helvetica,sans-Serif" font-size="10.00"># moodsBetrayalCount</text>
<text text-anchor="start" x="196" y="-1036" font-family="Helvetica,sans-Serif" font-size="10.00"># moodsSlaveryCount</text>
<polyline fill="none" stroke="black" points="188,-1025 338,-1025 "/>
<text text-anchor="start" x="196" y="-1012" font-family="Helvetica,sans-Serif" font-size="10.00">+ Mood()</text>
<text text-anchor="start" x="196" y="-996" font-family="Helvetica,sans-Serif" font-size="10.00">+ getBetrayalThreshold()</text>
<text text-anchor="start" x="196" y="-980" font-family="Helvetica,sans-Serif" font-size="10.00">+ getSlaveryThreshold()</text>
<text text-anchor="start" x="196" y="-964" font-family="Helvetica,sans-Serif" font-size="10.00">+ getMoodsBetrayalCount()</text>
<text text-anchor="start" x="196" y="-948" font-family="Helvetica,sans-Serif" font-size="10.00">+ getMoodsSlaveryThreshold()</text>
<text text-anchor="start" x="196" y="-932" font-family="Helvetica,sans-Serif" font-size="10.00">+ incrementBetrayalCount()</text>
<text text-anchor="start" x="196" y="-916" font-family="Helvetica,sans-Serif" font-size="10.00">+ incrementSlaveryCount()</text>
<text text-anchor="start" x="196" y="-900" font-family="Helvetica,sans-Serif" font-size="10.00">+ getNextMood()</text>
<text text-anchor="start" x="196" y="-884" font-family="Helvetica,sans-Serif" font-size="10.00">+ getPreviousMood()</text>
</a>
</g>
<!-- Node19&#45;&gt;Node16 -->
<g id="edge40" class="edge"><title>Node19&#45;&gt;Node16</title>
<path fill="none" stroke="#404040" d="M254.61,-872.582C254.666,-855.562 255.352,-838.333 257,-822 257.481,-817.234 258.084,-812.362 258.779,-807.456"/>
<polygon fill="none" stroke="#404040" points="258.836,-807.091 255.805,-800.548 260.68,-795.234 263.71,-801.777 258.836,-807.091"/>
<text text-anchor="middle" x="288.5" y="-837" font-family="Helvetica,sans-Serif" font-size="10.00"> #currentMood</text>
</g>
<!-- Node20 -->
<g id="node40" class="node"><title>Node20</title>
<polygon fill="white" stroke="#bfbfbf" points="190,-1415 190,-1503 336,-1503 336,-1415 190,-1415"/>
<text text-anchor="start" x="198" y="-1490" font-family="Helvetica,sans-Serif" font-size="10.00">HashSet&lt; gameplay.ai.mood.</text>
<text text-anchor="middle" x="263" y="-1474" font-family="Helvetica,sans-Serif" font-size="10.00">ProbabilityMood &gt;</text>
<polyline fill="none" stroke="#bfbfbf" points="190,-1463 336,-1463 "/>
<text text-anchor="middle" x="263" y="-1450" font-family="Helvetica,sans-Serif" font-size="10.00"> </text>
<polyline fill="none" stroke="#bfbfbf" points="190,-1439 336,-1439 "/>
<text text-anchor="middle" x="263" y="-1426" font-family="Helvetica,sans-Serif" font-size="10.00"> </text>
</g>
<!-- Node20&#45;&gt;Node19 -->
<g id="edge42" class="edge"><title>Node20&#45;&gt;Node19</title>
<path fill="none" stroke="#404040" d="M263,-1414.7C263,-1350.48 263,-1228.77 263,-1133.22"/>
<polygon fill="none" stroke="#404040" points="263,-1133.11 259,-1127.11 263,-1121.11 267,-1127.11 263,-1133.11"/>
<text text-anchor="middle" x="299" y="-1235" font-family="Helvetica,sans-Serif" font-size="10.00"> #nextMoods</text>
<text text-anchor="middle" x="299" y="-1219" font-family="Helvetica,sans-Serif" font-size="10.00">#previousMoods</text>
</g>
</g>
</svg>
