<?xml version="1.0" encoding="UTF-8" standalone="no"?>
<!DOCTYPE svg PUBLIC "-//W3C//DTD SVG 1.1//EN"
 "http://www.w3.org/Graphics/SVG/1.1/DTD/svg11.dtd">
<!-- Generated by graphviz version 2.26.3 (20100126.1600)
 -->
<!-- Title: world.scenery.Flower Pages: 1 -->
<svg width="612pt" height="496pt"
 viewBox="0.00 0.00 612.00 496.00" xmlns="http://www.w3.org/2000/svg" xmlns:xlink="http://www.w3.org/1999/xlink">
<g id="graph1" class="graph" transform="scale(1 1) rotate(0) translate(4 492)">
<title>world.scenery.Flower</title>
<polygon fill="white" stroke="white" points="-4,5 -4,-492 609,-492 609,5 -4,5"/>
<!-- Node1 -->
<g id="node1" class="node"><title>Node1</title>
<polygon fill="#bfbfbf" stroke="black" points="245.5,-1 245.5,-73 354.5,-73 354.5,-1 245.5,-1"/>
<text text-anchor="middle" x="300" y="-60" font-family="Helvetica,sans-Serif" font-size="10.00">world.scenery.Flower</text>
<polyline fill="none" stroke="black" points="245.5,-49 354.5,-49 "/>
<text text-anchor="middle" x="300" y="-36" font-family="Helvetica,sans-Serif" font-size="10.00"> </text>
<polyline fill="none" stroke="black" points="245.5,-25 354.5,-25 "/>
<text text-anchor="start" x="253.5" y="-12" font-family="Helvetica,sans-Serif" font-size="10.00">+ Flower()</text>
</g>
<!-- Node2 -->
<g id="node2" class="node"><title>Node2</title>
<a xlink:href="$classworld_1_1scenery_1_1_scenery.html" xlink:title="Class used to handle any world object. ">
<polygon fill="white" stroke="black" points="-0.5,-113 -0.5,-361 116.5,-361 116.5,-113 -0.5,-113"/>
<text text-anchor="middle" x="58" y="-348" font-family="Helvetica,sans-Serif" font-size="10.00">world.scenery.Scenery</text>
<polyline fill="none" stroke="black" points="-0.5,-337 116.5,-337 "/>
<text text-anchor="start" x="7.5" y="-324" font-family="Helvetica,sans-Serif" font-size="10.00"># height</text>
<text text-anchor="start" x="7.5" y="-308" font-family="Helvetica,sans-Serif" font-size="10.00"># width</text>
<text text-anchor="start" x="7.5" y="-292" font-family="Helvetica,sans-Serif" font-size="10.00"># xShift</text>
<text text-anchor="start" x="7.5" y="-276" font-family="Helvetica,sans-Serif" font-size="10.00"># yShift</text>
<text text-anchor="start" x="7.5" y="-260" font-family="Helvetica,sans-Serif" font-size="10.00"># visible</text>
<text text-anchor="start" x="7.5" y="-244" font-family="Helvetica,sans-Serif" font-size="10.00"># SCENERY_HEIGHT</text>
<text text-anchor="start" x="7.5" y="-228" font-family="Helvetica,sans-Serif" font-size="10.00"># SCENERY_WIDTH</text>
<polyline fill="none" stroke="black" points="-0.5,-217 116.5,-217 "/>
<text text-anchor="start" x="7.5" y="-204" font-family="Helvetica,sans-Serif" font-size="10.00">+ Scenery()</text>
<text text-anchor="start" x="7.5" y="-188" font-family="Helvetica,sans-Serif" font-size="10.00">+ Scenery()</text>
<text text-anchor="start" x="7.5" y="-172" font-family="Helvetica,sans-Serif" font-size="10.00">+ Scenery()</text>
<text text-anchor="start" x="7.5" y="-156" font-family="Helvetica,sans-Serif" font-size="10.00">+ drawScenery()</text>
<text text-anchor="start" x="7.5" y="-140" font-family="Helvetica,sans-Serif" font-size="10.00">+ getSceneryHeight()</text>
<text text-anchor="start" x="7.5" y="-124" font-family="Helvetica,sans-Serif" font-size="10.00">+ getSceneryWidth()</text>
</a>
</g>
<!-- Node2&#45;&gt;Node1 -->
<g id="edge2" class="edge"><title>Node2&#45;&gt;Node1</title>
<path fill="none" stroke="midnightblue" d="M123.646,-113.259C124.095,-112.836 124.546,-112.416 125,-112 158.995,-80.8456 207.905,-61.3742 245.381,-50.104"/>
<polygon fill="none" stroke="midnightblue" points="121.114,-110.842 116.59,-120.422 126.101,-115.754 121.114,-110.842"/>
</g>
<!-- Node3 -->
<g id="node4" class="node"><title>Node3</title>
<polygon fill="white" stroke="#bfbfbf" points="36,-415 36,-487 80,-487 80,-415 36,-415"/>
<text text-anchor="middle" x="58" y="-474" font-family="Helvetica,sans-Serif" font-size="10.00">Image</text>
<polyline fill="none" stroke="#bfbfbf" points="36,-463 80,-463 "/>
<text text-anchor="middle" x="58" y="-450" font-family="Helvetica,sans-Serif" font-size="10.00"> </text>
<polyline fill="none" stroke="#bfbfbf" points="36,-439 80,-439 "/>
<text text-anchor="middle" x="58" y="-426" font-family="Helvetica,sans-Serif" font-size="10.00"> </text>
</g>
<!-- Node3&#45;&gt;Node2 -->
<g id="edge4" class="edge"><title>Node3&#45;&gt;Node2</title>
<path fill="none" stroke="#404040" d="M58,-414.698C58,-402.654 58,-388.447 58,-373.398"/>
<polygon fill="none" stroke="#404040" points="58.0001,-373.175 54,-367.175 58,-361.175 62,-367.175 58.0001,-373.175"/>
<text text-anchor="middle" x="88" y="-387" font-family="Helvetica,sans-Serif" font-size="10.00"> #spriteImage</text>
</g>
<!-- Node4 -->
<g id="node6" class="node"><title>Node4</title>
<a xlink:href="$interfaceworld_1_1scenery_1_1_temperate_broadleaf_theme.html" xlink:title="Interface used to define that a Scenery object have a Temperate Broadleaf style. ">
<polygon fill="white" stroke="black" points="133.5,-193 133.5,-281 300.5,-281 300.5,-193 133.5,-193"/>
<text text-anchor="start" x="141.5" y="-268" font-family="Helvetica,sans-Serif" font-size="10.00">world.scenery.TemperateBroadleaf</text>
<text text-anchor="middle" x="217" y="-252" font-family="Helvetica,sans-Serif" font-size="10.00">Theme</text>
<polyline fill="none" stroke="black" points="133.5,-241 300.5,-241 "/>
<text text-anchor="start" x="141.5" y="-228" font-family="Helvetica,sans-Serif" font-size="10.00">+ TEMPERATE_BROADLEAF</text>
<polyline fill="none" stroke="black" points="133.5,-217 300.5,-217 "/>
<text text-anchor="middle" x="217" y="-204" font-family="Helvetica,sans-Serif" font-size="10.00"> </text>
</a>
</g>
<!-- Node4&#45;&gt;Node1 -->
<g id="edge6" class="edge"><title>Node4&#45;&gt;Node1</title>
<path fill="none" stroke="midnightblue" d="M239.383,-183.065C253.832,-148.247 272.238,-103.896 284.957,-73.2475"/>
<polygon fill="none" stroke="midnightblue" points="236.021,-182.036 235.42,-192.614 242.486,-184.719 236.021,-182.036"/>
</g>
<!-- Node5 -->
<g id="node8" class="node"><title>Node5</title>
<a xlink:href="$interfaceworld_1_1scenery_1_1_taiga_theme.html" xlink:title="Interface used to define that a Scenery object have a Taiga style. ">
<polygon fill="white" stroke="black" points="317.5,-201 317.5,-273 450.5,-273 450.5,-201 317.5,-201"/>
<text text-anchor="middle" x="384" y="-260" font-family="Helvetica,sans-Serif" font-size="10.00">world.scenery.TaigaTheme</text>
<polyline fill="none" stroke="black" points="317.5,-249 450.5,-249 "/>
<text text-anchor="start" x="325.5" y="-236" font-family="Helvetica,sans-Serif" font-size="10.00">+ TAIGA</text>
<polyline fill="none" stroke="black" points="317.5,-225 450.5,-225 "/>
<text text-anchor="middle" x="384" y="-212" font-family="Helvetica,sans-Serif" font-size="10.00"> </text>
</a>
</g>
<!-- Node5&#45;&gt;Node1 -->
<g id="edge8" class="edge"><title>Node5&#45;&gt;Node1</title>
<path fill="none" stroke="midnightblue" d="M364.901,-191.525C349.862,-155.719 329.181,-106.478 315.24,-73.2864"/>
<polygon fill="none" stroke="midnightblue" points="361.689,-192.917 368.788,-200.782 368.143,-190.206 361.689,-192.917"/>
</g>
<!-- Node6 -->
<g id="node10" class="node"><title>Node6</title>
<a xlink:href="$interfaceworld_1_1scenery_1_1_alpine_tundra_theme.html" xlink:title="Interface used to define that a Scenery object have an Alpine Tundra style. ">
<polygon fill="white" stroke="black" points="468,-193 468,-281 604,-281 604,-193 468,-193"/>
<text text-anchor="start" x="476" y="-268" font-family="Helvetica,sans-Serif" font-size="10.00">world.scenery.AlpineTundra</text>
<text text-anchor="middle" x="536" y="-252" font-family="Helvetica,sans-Serif" font-size="10.00">Theme</text>
<polyline fill="none" stroke="black" points="468,-241 604,-241 "/>
<text text-anchor="start" x="476" y="-228" font-family="Helvetica,sans-Serif" font-size="10.00">+ ALPINE_TUNDRA</text>
<polyline fill="none" stroke="black" points="468,-217 604,-217 "/>
<text text-anchor="middle" x="536" y="-204" font-family="Helvetica,sans-Serif" font-size="10.00"> </text>
</a>
</g>
<!-- Node6&#45;&gt;Node1 -->
<g id="edge10" class="edge"><title>Node6&#45;&gt;Node1</title>
<path fill="none" stroke="midnightblue" d="M512.076,-183.799C499.099,-159.511 481.152,-131.813 459,-112 428.971,-85.1417 387.636,-66.0408 354.639,-53.8383"/>
<polygon fill="none" stroke="midnightblue" points="509.094,-185.651 516.805,-192.917 515.308,-182.429 509.094,-185.651"/>
</g>
</g>
</svg>
