<?xml version="1.0" encoding="UTF-8" standalone="no"?>
<!DOCTYPE svg PUBLIC "-//W3C//DTD SVG 1.1//EN"
 "http://www.w3.org/Graphics/SVG/1.1/DTD/svg11.dtd">
<!-- Generated by graphviz version 2.26.3 (20100126.1600)
 -->
<!-- Title: gameplay.ai.mood.Mood Pages: 1 -->
<svg width="158pt" height="416pt"
 viewBox="0.00 0.00 158.00 416.00" xmlns="http://www.w3.org/2000/svg" xmlns:xlink="http://www.w3.org/1999/xlink">
<g id="graph1" class="graph" transform="scale(1 1) rotate(0) translate(4 412)">
<title>gameplay.ai.mood.Mood</title>
<polygon fill="white" stroke="white" points="-4,5 -4,-412 155,-412 155,5 -4,5"/>
<!-- Node1 -->
<g id="node1" class="node"><title>Node1</title>
<polygon fill="#bfbfbf" stroke="black" points="0,-1 0,-249 150,-249 150,-1 0,-1"/>
<text text-anchor="middle" x="75" y="-236" font-family="Helvetica,sans-Serif" font-size="10.00">gameplay.ai.mood.Mood</text>
<polyline fill="none" stroke="black" points="0,-225 150,-225 "/>
<text text-anchor="start" x="8" y="-212" font-family="Helvetica,sans-Serif" font-size="10.00"># betrayalThreshold</text>
<text text-anchor="start" x="8" y="-196" font-family="Helvetica,sans-Serif" font-size="10.00"># slaveryThreshold</text>
<text text-anchor="start" x="8" y="-180" font-family="Helvetica,sans-Serif" font-size="10.00"># moodsBetrayalCount</text>
<text text-anchor="start" x="8" y="-164" font-family="Helvetica,sans-Serif" font-size="10.00"># moodsSlaveryCount</text>
<polyline fill="none" stroke="black" points="0,-153 150,-153 "/>
<text text-anchor="start" x="8" y="-140" font-family="Helvetica,sans-Serif" font-size="10.00">+ Mood()</text>
<text text-anchor="start" x="8" y="-124" font-family="Helvetica,sans-Serif" font-size="10.00">+ getBetrayalThreshold()</text>
<text text-anchor="start" x="8" y="-108" font-family="Helvetica,sans-Serif" font-size="10.00">+ getSlaveryThreshold()</text>
<text text-anchor="start" x="8" y="-92" font-family="Helvetica,sans-Serif" font-size="10.00">+ getMoodsBetrayalCount()</text>
<text text-anchor="start" x="8" y="-76" font-family="Helvetica,sans-Serif" font-size="10.00">+ getMoodsSlaveryThreshold()</text>
<text text-anchor="start" x="8" y="-60" font-family="Helvetica,sans-Serif" font-size="10.00">+ incrementBetrayalCount()</text>
<text text-anchor="start" x="8" y="-44" font-family="Helvetica,sans-Serif" font-size="10.00">+ incrementSlaveryCount()</text>
<text text-anchor="start" x="8" y="-28" font-family="Helvetica,sans-Serif" font-size="10.00">+ getNextMood()</text>
<text text-anchor="start" x="8" y="-12" font-family="Helvetica,sans-Serif" font-size="10.00">+ getPreviousMood()</text>
</g>
<!-- Node2 -->
<g id="node2" class="node"><title>Node2</title>
<polygon fill="white" stroke="#bfbfbf" points="2,-319 2,-407 148,-407 148,-319 2,-319"/>
<text text-anchor="start" x="10" y="-394" font-family="Helvetica,sans-Serif" font-size="10.00">HashSet&lt; gameplay.ai.mood.</text>
<text text-anchor="middle" x="75" y="-378" font-family="Helvetica,sans-Serif" font-size="10.00">ProbabilityMood &gt;</text>
<polyline fill="none" stroke="#bfbfbf" points="2,-367 148,-367 "/>
<text text-anchor="middle" x="75" y="-354" font-family="Helvetica,sans-Serif" font-size="10.00"> </text>
<polyline fill="none" stroke="#bfbfbf" points="2,-343 148,-343 "/>
<text text-anchor="middle" x="75" y="-330" font-family="Helvetica,sans-Serif" font-size="10.00"> </text>
</g>
<!-- Node2&#45;&gt;Node1 -->
<g id="edge2" class="edge"><title>Node2&#45;&gt;Node1</title>
<path fill="none" stroke="#404040" d="M75,-318.792C75,-302.104 75,-282.117 75,-261.41"/>
<polygon fill="none" stroke="#404040" points="75.0001,-261.155 71,-255.155 75,-249.155 79,-255.155 75.0001,-261.155"/>
<text text-anchor="middle" x="111" y="-291" font-family="Helvetica,sans-Serif" font-size="10.00"> #nextMoods</text>
<text text-anchor="middle" x="111" y="-275" font-family="Helvetica,sans-Serif" font-size="10.00">#previousMoods</text>
</g>
</g>
</svg>
