<?xml version="1.0" encoding="UTF-8" standalone="no"?>
<!DOCTYPE svg PUBLIC "-//W3C//DTD SVG 1.1//EN"
 "http://www.w3.org/Graphics/SVG/1.1/DTD/svg11.dtd">
<!-- Generated by graphviz version 2.26.3 (20100126.1600)
 -->
<!-- Title: gameplay.ai.phrasing.OrderedPhrases.OrderedPhrases Pages: 1 -->
<svg width="336pt" height="48pt"
 viewBox="0.00 0.00 336.00 48.00" xmlns="http://www.w3.org/2000/svg" xmlns:xlink="http://www.w3.org/1999/xlink">
<g id="graph1" class="graph" transform="scale(1 1) rotate(0) translate(4 44)">
<title>gameplay.ai.phrasing.OrderedPhrases.OrderedPhrases</title>
<polygon fill="white" stroke="white" points="-4,5 -4,-44 333,-44 333,5 -4,5"/>
<!-- Node1 -->
<g id="node1" class="node"><title>Node1</title>
<polygon fill="#bfbfbf" stroke="black" points="0,-0 0,-40 146,-40 146,-0 0,-0"/>
<text text-anchor="start" x="8" y="-27" font-family="Helvetica,sans-Serif" font-size="10.00">gameplay.ai.phrasing.Ordered</text>
<text text-anchor="middle" x="73" y="-11" font-family="Helvetica,sans-Serif" font-size="10.00">Phrases.OrderedPhrases</text>
</g>
<!-- Node2 -->
<g id="node3" class="node"><title>Node2</title>
<a xlink:href="$classgameplay_1_1ai_1_1phrasing_1_1_ordered_phrases.html#a3e549baaecd87057c01a8effafcf0ada" xlink:title="Method counting the number of line in filename. ">
<polygon fill="white" stroke="black" points="182,-0 182,-40 328,-40 328,-0 182,-0"/>
<text text-anchor="start" x="190" y="-27" font-family="Helvetica,sans-Serif" font-size="10.00">gameplay.ai.phrasing.Ordered</text>
<text text-anchor="middle" x="255" y="-11" font-family="Helvetica,sans-Serif" font-size="10.00">Phrases.getPhrasesNumber</text>
</a>
</g>
<!-- Node1&#45;&gt;Node2 -->
<g id="edge2" class="edge"><title>Node1&#45;&gt;Node2</title>
<path fill="none" stroke="midnightblue" d="M146.24,-20C154.596,-20 163.161,-20 171.636,-20"/>
<polygon fill="midnightblue" stroke="midnightblue" points="171.91,-23.5001 181.91,-20 171.91,-16.5001 171.91,-23.5001"/>
</g>
</g>
</svg>
