<?xml version="1.0" encoding="UTF-8" standalone="no"?>
<!DOCTYPE svg PUBLIC "-//W3C//DTD SVG 1.1//EN"
 "http://www.w3.org/Graphics/SVG/1.1/DTD/svg11.dtd">
<!-- Generated by graphviz version 2.26.3 (20100126.1600)
 -->
<!-- Title: world.character.Hero Pages: 1 -->
<svg width="258pt" height="832pt"
 viewBox="0.00 0.00 258.00 832.00" xmlns="http://www.w3.org/2000/svg" xmlns:xlink="http://www.w3.org/1999/xlink">
<g id="graph1" class="graph" transform="scale(1 1) rotate(0) translate(4 828)">
<title>world.character.Hero</title>
<polygon fill="white" stroke="white" points="-4,5 -4,-828 255,-828 255,5 -4,5"/>
<!-- Node1 -->
<g id="node1" class="node"><title>Node1</title>
<polygon fill="#bfbfbf" stroke="black" points="104.5,-1 104.5,-73 211.5,-73 211.5,-1 104.5,-1"/>
<text text-anchor="middle" x="158" y="-60" font-family="Helvetica,sans-Serif" font-size="10.00">world.character.Hero</text>
<polyline fill="none" stroke="black" points="104.5,-49 211.5,-49 "/>
<text text-anchor="middle" x="158" y="-36" font-family="Helvetica,sans-Serif" font-size="10.00"> </text>
<polyline fill="none" stroke="black" points="104.5,-25 211.5,-25 "/>
<text text-anchor="start" x="112.5" y="-12" font-family="Helvetica,sans-Serif" font-size="10.00">+ Hero()</text>
</g>
<!-- Node2 -->
<g id="node2" class="node"><title>Node2</title>
<a xlink:href="$classworld_1_1character_1_1_character.html" xlink:title="Class used to handle a character (player or non&#45;player) ">
<polygon fill="white" stroke="black" points="92,-113 92,-409 224,-409 224,-113 92,-113"/>
<text text-anchor="middle" x="158" y="-396" font-family="Helvetica,sans-Serif" font-size="10.00">world.character.Character</text>
<polyline fill="none" stroke="black" points="92,-385 224,-385 "/>
<text text-anchor="start" x="100" y="-372" font-family="Helvetica,sans-Serif" font-size="10.00"># posX</text>
<text text-anchor="start" x="100" y="-356" font-family="Helvetica,sans-Serif" font-size="10.00"># posY</text>
<text text-anchor="start" x="100" y="-340" font-family="Helvetica,sans-Serif" font-size="10.00"># CHARACTER_HEIGHT</text>
<text text-anchor="start" x="100" y="-324" font-family="Helvetica,sans-Serif" font-size="10.00"># CHARACTER_WIDTH</text>
<polyline fill="none" stroke="black" points="92,-313 224,-313 "/>
<text text-anchor="start" x="100" y="-300" font-family="Helvetica,sans-Serif" font-size="10.00">+ Character()</text>
<text text-anchor="start" x="100" y="-284" font-family="Helvetica,sans-Serif" font-size="10.00">+ jumpX()</text>
<text text-anchor="start" x="100" y="-268" font-family="Helvetica,sans-Serif" font-size="10.00">+ jumpY()</text>
<text text-anchor="start" x="100" y="-252" font-family="Helvetica,sans-Serif" font-size="10.00">+ jump()</text>
<text text-anchor="start" x="100" y="-236" font-family="Helvetica,sans-Serif" font-size="10.00">+ moveX()</text>
<text text-anchor="start" x="100" y="-220" font-family="Helvetica,sans-Serif" font-size="10.00">+ moveY()</text>
<text text-anchor="start" x="100" y="-204" font-family="Helvetica,sans-Serif" font-size="10.00">+ move()</text>
<text text-anchor="start" x="100" y="-188" font-family="Helvetica,sans-Serif" font-size="10.00">+ triggerAction()</text>
<text text-anchor="start" x="100" y="-172" font-family="Helvetica,sans-Serif" font-size="10.00">+ playerNear()</text>
<text text-anchor="start" x="100" y="-156" font-family="Helvetica,sans-Serif" font-size="10.00">+ playerEnter()</text>
<text text-anchor="start" x="100" y="-140" font-family="Helvetica,sans-Serif" font-size="10.00">+ playerLeave()</text>
<text text-anchor="start" x="100" y="-124" font-family="Helvetica,sans-Serif" font-size="10.00">+ isTraversable()</text>
</a>
</g>
<!-- Node2&#45;&gt;Node1 -->
<g id="edge2" class="edge"><title>Node2&#45;&gt;Node1</title>
<path fill="none" stroke="midnightblue" d="M158,-102.817C158,-92.1004 158,-82.0679 158,-73.2228"/>
<polygon fill="none" stroke="midnightblue" points="154.5,-102.836 158,-112.836 161.5,-102.836 154.5,-102.836"/>
</g>
<!-- Node3 -->
<g id="node4" class="node"><title>Node3</title>
<a xlink:href="$classworld_1_1scenery_1_1_scenery.html" xlink:title="Class used to handle any world object. ">
<polygon fill="white" stroke="black" points="-0.5,-449 -0.5,-697 116.5,-697 116.5,-449 -0.5,-449"/>
<text text-anchor="middle" x="58" y="-684" font-family="Helvetica,sans-Serif" font-size="10.00">world.scenery.Scenery</text>
<polyline fill="none" stroke="black" points="-0.5,-673 116.5,-673 "/>
<text text-anchor="start" x="7.5" y="-660" font-family="Helvetica,sans-Serif" font-size="10.00"># height</text>
<text text-anchor="start" x="7.5" y="-644" font-family="Helvetica,sans-Serif" font-size="10.00"># width</text>
<text text-anchor="start" x="7.5" y="-628" font-family="Helvetica,sans-Serif" font-size="10.00"># xShift</text>
<text text-anchor="start" x="7.5" y="-612" font-family="Helvetica,sans-Serif" font-size="10.00"># yShift</text>
<text text-anchor="start" x="7.5" y="-596" font-family="Helvetica,sans-Serif" font-size="10.00"># visible</text>
<text text-anchor="start" x="7.5" y="-580" font-family="Helvetica,sans-Serif" font-size="10.00"># SCENERY_HEIGHT</text>
<text text-anchor="start" x="7.5" y="-564" font-family="Helvetica,sans-Serif" font-size="10.00"># SCENERY_WIDTH</text>
<polyline fill="none" stroke="black" points="-0.5,-553 116.5,-553 "/>
<text text-anchor="start" x="7.5" y="-540" font-family="Helvetica,sans-Serif" font-size="10.00">+ Scenery()</text>
<text text-anchor="start" x="7.5" y="-524" font-family="Helvetica,sans-Serif" font-size="10.00">+ Scenery()</text>
<text text-anchor="start" x="7.5" y="-508" font-family="Helvetica,sans-Serif" font-size="10.00">+ Scenery()</text>
<text text-anchor="start" x="7.5" y="-492" font-family="Helvetica,sans-Serif" font-size="10.00">+ drawScenery()</text>
<text text-anchor="start" x="7.5" y="-476" font-family="Helvetica,sans-Serif" font-size="10.00">+ getSceneryHeight()</text>
<text text-anchor="start" x="7.5" y="-460" font-family="Helvetica,sans-Serif" font-size="10.00">+ getSceneryWidth()</text>
</a>
</g>
<!-- Node3&#45;&gt;Node2 -->
<g id="edge4" class="edge"><title>Node3&#45;&gt;Node2</title>
<path fill="none" stroke="midnightblue" d="M100.952,-438.991C104.108,-429.144 107.302,-419.177 110.483,-409.252"/>
<polygon fill="none" stroke="midnightblue" points="97.5292,-438.202 97.81,-448.793 104.195,-440.338 97.5292,-438.202"/>
</g>
<!-- Node4 -->
<g id="node6" class="node"><title>Node4</title>
<polygon fill="white" stroke="#bfbfbf" points="36,-751 36,-823 80,-823 80,-751 36,-751"/>
<text text-anchor="middle" x="58" y="-810" font-family="Helvetica,sans-Serif" font-size="10.00">Image</text>
<polyline fill="none" stroke="#bfbfbf" points="36,-799 80,-799 "/>
<text text-anchor="middle" x="58" y="-786" font-family="Helvetica,sans-Serif" font-size="10.00"> </text>
<polyline fill="none" stroke="#bfbfbf" points="36,-775 80,-775 "/>
<text text-anchor="middle" x="58" y="-762" font-family="Helvetica,sans-Serif" font-size="10.00"> </text>
</g>
<!-- Node4&#45;&gt;Node3 -->
<g id="edge6" class="edge"><title>Node4&#45;&gt;Node3</title>
<path fill="none" stroke="#404040" d="M58,-750.698C58,-738.654 58,-724.447 58,-709.398"/>
<polygon fill="none" stroke="#404040" points="58.0001,-709.175 54,-703.175 58,-697.175 62,-703.175 58.0001,-709.175"/>
<text text-anchor="middle" x="88" y="-723" font-family="Helvetica,sans-Serif" font-size="10.00"> #spriteImage</text>
</g>
<!-- Node5 -->
<g id="node8" class="node"><title>Node5</title>
<a xlink:href="$interfaceworld_1_1_interactive_object.html" xlink:title="{world.InteractiveObject\n||+ triggerAction()\l+ playerNear()\l+ playerEnter()\l+ playerLeave()\l+ isTraversable()\l}">
<polygon fill="white" stroke="black" points="133.5,-505 133.5,-641 250.5,-641 250.5,-505 133.5,-505"/>
<text text-anchor="middle" x="192" y="-628" font-family="Helvetica,sans-Serif" font-size="10.00">world.InteractiveObject</text>
<polyline fill="none" stroke="black" points="133.5,-617 250.5,-617 "/>
<text text-anchor="middle" x="192" y="-604" font-family="Helvetica,sans-Serif" font-size="10.00"> </text>
<polyline fill="none" stroke="black" points="133.5,-593 250.5,-593 "/>
<text text-anchor="start" x="141.5" y="-580" font-family="Helvetica,sans-Serif" font-size="10.00">+ triggerAction()</text>
<text text-anchor="start" x="141.5" y="-564" font-family="Helvetica,sans-Serif" font-size="10.00">+ playerNear()</text>
<text text-anchor="start" x="141.5" y="-548" font-family="Helvetica,sans-Serif" font-size="10.00">+ playerEnter()</text>
<text text-anchor="start" x="141.5" y="-532" font-family="Helvetica,sans-Serif" font-size="10.00">+ playerLeave()</text>
<text text-anchor="start" x="141.5" y="-516" font-family="Helvetica,sans-Serif" font-size="10.00">+ isTraversable()</text>
</a>
</g>
<!-- Node5&#45;&gt;Node2 -->
<g id="edge8" class="edge"><title>Node5&#45;&gt;Node2</title>
<path fill="none" stroke="midnightblue" d="M183.474,-494.762C180.637,-468.726 177.376,-438.806 174.156,-409.258"/>
<polygon fill="none" stroke="midnightblue" points="180.018,-495.354 184.581,-504.916 186.977,-494.595 180.018,-495.354"/>
</g>
</g>
</svg>
