<?xml version="1.0" encoding="UTF-8" standalone="no"?>
<!DOCTYPE svg PUBLIC "-//W3C//DTD SVG 1.1//EN"
 "http://www.w3.org/Graphics/SVG/1.1/DTD/svg11.dtd">
<!-- Generated by graphviz version 2.26.3 (20100126.1600)
 -->
<!-- Title: window.topbar.TopBar Pages: 1 -->
<svg width="120pt" height="320pt"
 viewBox="0.00 0.00 120.00 320.00" xmlns="http://www.w3.org/2000/svg" xmlns:xlink="http://www.w3.org/1999/xlink">
<g id="graph1" class="graph" transform="scale(1 1) rotate(0) translate(4 316)">
<title>window.topbar.TopBar</title>
<polygon fill="white" stroke="white" points="-4,5 -4,-316 117,-316 117,5 -4,5"/>
<!-- Node1 -->
<g id="node1" class="node"><title>Node1</title>
<polygon fill="#bfbfbf" stroke="black" points="0,-1 0,-201 112,-201 112,-1 0,-1"/>
<text text-anchor="middle" x="56" y="-188" font-family="Helvetica,sans-Serif" font-size="10.00">window.topbar.TopBar</text>
<polyline fill="none" stroke="black" points="0,-177 112,-177 "/>
<text text-anchor="start" x="8" y="-164" font-family="Helvetica,sans-Serif" font-size="10.00"># closeButton</text>
<text text-anchor="start" x="8" y="-148" font-family="Helvetica,sans-Serif" font-size="10.00"># pauseButton</text>
<text text-anchor="start" x="8" y="-132" font-family="Helvetica,sans-Serif" font-size="10.00"># TOPBAR_HEIGHT</text>
<text text-anchor="start" x="8" y="-116" font-family="Helvetica,sans-Serif" font-size="10.00"># TOPBAR_MARGIN</text>
<polyline fill="none" stroke="black" points="0,-105 112,-105 "/>
<text text-anchor="start" x="8" y="-92" font-family="Helvetica,sans-Serif" font-size="10.00">+ TopBar()</text>
<text text-anchor="start" x="8" y="-76" font-family="Helvetica,sans-Serif" font-size="10.00">+ hidePauseButton()</text>
<text text-anchor="start" x="8" y="-60" font-family="Helvetica,sans-Serif" font-size="10.00">+ showPauseButton()</text>
<text text-anchor="start" x="8" y="-44" font-family="Helvetica,sans-Serif" font-size="10.00">+ paintComponent()</text>
<text text-anchor="start" x="8" y="-28" font-family="Helvetica,sans-Serif" font-size="10.00">+ getTopBarHeight()</text>
<text text-anchor="start" x="8" y="-12" font-family="Helvetica,sans-Serif" font-size="10.00">+ getTopBarMargin()</text>
</g>
<!-- Node2 -->
<g id="node2" class="node"><title>Node2</title>
<polygon fill="white" stroke="#bfbfbf" points="32.5,-239 32.5,-311 79.5,-311 79.5,-239 32.5,-239"/>
<text text-anchor="middle" x="56" y="-298" font-family="Helvetica,sans-Serif" font-size="10.00">JPanel</text>
<polyline fill="none" stroke="#bfbfbf" points="32.5,-287 79.5,-287 "/>
<text text-anchor="middle" x="56" y="-274" font-family="Helvetica,sans-Serif" font-size="10.00"> </text>
<polyline fill="none" stroke="#bfbfbf" points="32.5,-263 79.5,-263 "/>
<text text-anchor="middle" x="56" y="-250" font-family="Helvetica,sans-Serif" font-size="10.00"> </text>
</g>
<!-- Node2&#45;&gt;Node1 -->
<g id="edge2" class="edge"><title>Node2&#45;&gt;Node1</title>
<path fill="none" stroke="midnightblue" d="M56,-228.785C56,-220.146 56,-210.813 56,-201.262"/>
<polygon fill="none" stroke="midnightblue" points="52.5001,-228.947 56,-238.947 59.5001,-228.947 52.5001,-228.947"/>
</g>
</g>
</svg>
