<?xml version="1.0" encoding="UTF-8" standalone="no"?>
<!DOCTYPE svg PUBLIC "-//W3C//DTD SVG 1.1//EN"
 "http://www.w3.org/Graphics/SVG/1.1/DTD/svg11.dtd">
<!-- Generated by graphviz version 2.26.3 (20100126.1600)
 -->
<!-- Title: gameplay.ai.phrasing.Phrasing Pages: 1 -->
<svg width="236pt" height="448pt"
 viewBox="0.00 0.00 236.00 448.00" xmlns="http://www.w3.org/2000/svg" xmlns:xlink="http://www.w3.org/1999/xlink">
<g id="graph1" class="graph" transform="scale(1 1) rotate(0) translate(4 444)">
<title>gameplay.ai.phrasing.Phrasing</title>
<polygon fill="white" stroke="white" points="-4,5 -4,-444 233,-444 233,5 -4,5"/>
<!-- Node1 -->
<g id="node1" class="node"><title>Node1</title>
<polygon fill="#bfbfbf" stroke="black" points="-0.5,-1 -0.5,-105 170.5,-105 170.5,-1 -0.5,-1"/>
<text text-anchor="middle" x="85" y="-92" font-family="Helvetica,sans-Serif" font-size="10.00">gameplay.ai.phrasing.Phrasing</text>
<polyline fill="none" stroke="black" points="-0.5,-81 170.5,-81 "/>
<text text-anchor="start" x="7.5" y="-68" font-family="Helvetica,sans-Serif" font-size="10.00"># angerBetrayalPhrases</text>
<text text-anchor="start" x="7.5" y="-52" font-family="Helvetica,sans-Serif" font-size="10.00"># powerComplexMotivationPhrases</text>
<text text-anchor="start" x="7.5" y="-36" font-family="Helvetica,sans-Serif" font-size="10.00"># actionAsked</text>
<polyline fill="none" stroke="black" points="-0.5,-25 170.5,-25 "/>
<text text-anchor="start" x="7.5" y="-12" font-family="Helvetica,sans-Serif" font-size="10.00">+ Phrasing()</text>
</g>
<!-- Node2 -->
<g id="node2" class="node"><title>Node2</title>
<a xlink:href="$classgameplay_1_1ai_1_1phrasing_1_1_ordered_phrases.html" xlink:title="Class used to contain an ordered list of phrases. ">
<polygon fill="white" stroke="black" points="12,-319 12,-439 158,-439 158,-319 12,-319"/>
<text text-anchor="start" x="20" y="-426" font-family="Helvetica,sans-Serif" font-size="10.00">gameplay.ai.phrasing.Ordered</text>
<text text-anchor="middle" x="85" y="-410" font-family="Helvetica,sans-Serif" font-size="10.00">Phrases</text>
<polyline fill="none" stroke="black" points="12,-399 158,-399 "/>
<text text-anchor="start" x="20" y="-386" font-family="Helvetica,sans-Serif" font-size="10.00"># phrases</text>
<text text-anchor="start" x="20" y="-370" font-family="Helvetica,sans-Serif" font-size="10.00"># phrasesOrder</text>
<polyline fill="none" stroke="black" points="12,-359 158,-359 "/>
<text text-anchor="start" x="20" y="-346" font-family="Helvetica,sans-Serif" font-size="10.00">+ OrderedPhrases()</text>
<text text-anchor="start" x="20" y="-330" font-family="Helvetica,sans-Serif" font-size="10.00"># getPhrasesNumber()</text>
</a>
</g>
<!-- Node2&#45;&gt;Node1 -->
<g id="edge2" class="edge"><title>Node2&#45;&gt;Node1</title>
<path fill="none" stroke="#404040" d="M85,-318.827C85,-261.545 85,-175.628 85,-117.085"/>
<polygon fill="none" stroke="#404040" points="85.0001,-117.028 81,-111.029 85,-105.028 89,-111.028 85.0001,-117.028"/>
<text text-anchor="middle" x="156.5" y="-291" font-family="Helvetica,sans-Serif" font-size="10.00"> #depressionSlaveryPhrases</text>
<text text-anchor="middle" x="156.5" y="-275" font-family="Helvetica,sans-Serif" font-size="10.00">#powerComplexBetrayalPhrases</text>
<text text-anchor="middle" x="156.5" y="-259" font-family="Helvetica,sans-Serif" font-size="10.00">#depressionMotivationPhrases</text>
<text text-anchor="middle" x="156.5" y="-243" font-family="Helvetica,sans-Serif" font-size="10.00">#angerMotivationPhrases</text>
<text text-anchor="middle" x="156.5" y="-227" font-family="Helvetica,sans-Serif" font-size="10.00">#curiositySlaveryPhrases</text>
<text text-anchor="middle" x="156.5" y="-211" font-family="Helvetica,sans-Serif" font-size="10.00">#curiosityBetrayalPhrases</text>
<text text-anchor="middle" x="156.5" y="-195" font-family="Helvetica,sans-Serif" font-size="10.00">#curiosityMotivationPhrases</text>
<text text-anchor="middle" x="156.5" y="-179" font-family="Helvetica,sans-Serif" font-size="10.00">#powerComplexSlaveryPhrases</text>
<text text-anchor="middle" x="156.5" y="-163" font-family="Helvetica,sans-Serif" font-size="10.00">#depressionBetrayalPhrases</text>
<text text-anchor="middle" x="156.5" y="-147" font-family="Helvetica,sans-Serif" font-size="10.00">#angerSlaveryPhrases</text>
<text text-anchor="middle" x="156.5" y="-131" font-family="Helvetica,sans-Serif" font-size="10.00">...</text>
</g>
</g>
</svg>
