<?xml version="1.0" encoding="UTF-8" standalone="no"?>
<!DOCTYPE svg PUBLIC "-//W3C//DTD SVG 1.1//EN"
 "http://www.w3.org/Graphics/SVG/1.1/DTD/svg11.dtd">
<!-- Generated by graphviz version 2.26.3 (20100126.1600)
 -->
<!-- Title: world.scenery.Water Pages: 1 -->
<svg width="556pt" height="576pt"
 viewBox="0.00 0.00 556.00 576.00" xmlns="http://www.w3.org/2000/svg" xmlns:xlink="http://www.w3.org/1999/xlink">
<g id="graph1" class="graph" transform="scale(1 1) rotate(0) translate(4 572)">
<title>world.scenery.Water</title>
<polygon fill="white" stroke="white" points="-4,5 -4,-572 553,-572 553,5 -4,5"/>
<!-- Node1 -->
<g id="node1" class="node"><title>Node1</title>
<polygon fill="#bfbfbf" stroke="black" points="210.5,-1 210.5,-153 315.5,-153 315.5,-1 210.5,-1"/>
<text text-anchor="middle" x="263" y="-140" font-family="Helvetica,sans-Serif" font-size="10.00">world.scenery.Water</text>
<polyline fill="none" stroke="black" points="210.5,-129 315.5,-129 "/>
<text text-anchor="middle" x="263" y="-116" font-family="Helvetica,sans-Serif" font-size="10.00"> </text>
<polyline fill="none" stroke="black" points="210.5,-105 315.5,-105 "/>
<text text-anchor="start" x="218.5" y="-92" font-family="Helvetica,sans-Serif" font-size="10.00">+ Water()</text>
<text text-anchor="start" x="218.5" y="-76" font-family="Helvetica,sans-Serif" font-size="10.00">+ triggerAction()</text>
<text text-anchor="start" x="218.5" y="-60" font-family="Helvetica,sans-Serif" font-size="10.00">+ playerNear()</text>
<text text-anchor="start" x="218.5" y="-44" font-family="Helvetica,sans-Serif" font-size="10.00">+ playerEnter()</text>
<text text-anchor="start" x="218.5" y="-28" font-family="Helvetica,sans-Serif" font-size="10.00">+ playerLeave()</text>
<text text-anchor="start" x="218.5" y="-12" font-family="Helvetica,sans-Serif" font-size="10.00">+ isTraversable()</text>
</g>
<!-- Node2 -->
<g id="node2" class="node"><title>Node2</title>
<a xlink:href="$classworld_1_1scenery_1_1_scenery.html" xlink:title="Class used to handle any world object. ">
<polygon fill="white" stroke="black" points="-0.5,-193 -0.5,-441 116.5,-441 116.5,-193 -0.5,-193"/>
<text text-anchor="middle" x="58" y="-428" font-family="Helvetica,sans-Serif" font-size="10.00">world.scenery.Scenery</text>
<polyline fill="none" stroke="black" points="-0.5,-417 116.5,-417 "/>
<text text-anchor="start" x="7.5" y="-404" font-family="Helvetica,sans-Serif" font-size="10.00"># height</text>
<text text-anchor="start" x="7.5" y="-388" font-family="Helvetica,sans-Serif" font-size="10.00"># width</text>
<text text-anchor="start" x="7.5" y="-372" font-family="Helvetica,sans-Serif" font-size="10.00"># xShift</text>
<text text-anchor="start" x="7.5" y="-356" font-family="Helvetica,sans-Serif" font-size="10.00"># yShift</text>
<text text-anchor="start" x="7.5" y="-340" font-family="Helvetica,sans-Serif" font-size="10.00"># visible</text>
<text text-anchor="start" x="7.5" y="-324" font-family="Helvetica,sans-Serif" font-size="10.00"># SCENERY_HEIGHT</text>
<text text-anchor="start" x="7.5" y="-308" font-family="Helvetica,sans-Serif" font-size="10.00"># SCENERY_WIDTH</text>
<polyline fill="none" stroke="black" points="-0.5,-297 116.5,-297 "/>
<text text-anchor="start" x="7.5" y="-284" font-family="Helvetica,sans-Serif" font-size="10.00">+ Scenery()</text>
<text text-anchor="start" x="7.5" y="-268" font-family="Helvetica,sans-Serif" font-size="10.00">+ Scenery()</text>
<text text-anchor="start" x="7.5" y="-252" font-family="Helvetica,sans-Serif" font-size="10.00">+ Scenery()</text>
<text text-anchor="start" x="7.5" y="-236" font-family="Helvetica,sans-Serif" font-size="10.00">+ drawScenery()</text>
<text text-anchor="start" x="7.5" y="-220" font-family="Helvetica,sans-Serif" font-size="10.00">+ getSceneryHeight()</text>
<text text-anchor="start" x="7.5" y="-204" font-family="Helvetica,sans-Serif" font-size="10.00">+ getSceneryWidth()</text>
</a>
</g>
<!-- Node2&#45;&gt;Node1 -->
<g id="edge2" class="edge"><title>Node2&#45;&gt;Node1</title>
<path fill="none" stroke="midnightblue" d="M122.854,-194.674C123.565,-193.774 124.28,-192.883 125,-192 149.438,-162.029 182.579,-134.111 210.258,-113.289"/>
<polygon fill="none" stroke="midnightblue" points="119.812,-192.893 116.568,-202.98 125.394,-197.117 119.812,-192.893"/>
</g>
<!-- Node3 -->
<g id="node4" class="node"><title>Node3</title>
<polygon fill="white" stroke="#bfbfbf" points="36,-495 36,-567 80,-567 80,-495 36,-495"/>
<text text-anchor="middle" x="58" y="-554" font-family="Helvetica,sans-Serif" font-size="10.00">Image</text>
<polyline fill="none" stroke="#bfbfbf" points="36,-543 80,-543 "/>
<text text-anchor="middle" x="58" y="-530" font-family="Helvetica,sans-Serif" font-size="10.00"> </text>
<polyline fill="none" stroke="#bfbfbf" points="36,-519 80,-519 "/>
<text text-anchor="middle" x="58" y="-506" font-family="Helvetica,sans-Serif" font-size="10.00"> </text>
</g>
<!-- Node3&#45;&gt;Node2 -->
<g id="edge4" class="edge"><title>Node3&#45;&gt;Node2</title>
<path fill="none" stroke="#404040" d="M58,-494.698C58,-482.654 58,-468.447 58,-453.398"/>
<polygon fill="none" stroke="#404040" points="58.0001,-453.175 54,-447.175 58,-441.175 62,-447.175 58.0001,-453.175"/>
<text text-anchor="middle" x="88" y="-467" font-family="Helvetica,sans-Serif" font-size="10.00"> #spriteImage</text>
</g>
<!-- Node4 -->
<g id="node6" class="node"><title>Node4</title>
<a xlink:href="$interfaceworld_1_1_interactive_object.html" xlink:title="Interface telling that the object interacts with the player. ">
<polygon fill="white" stroke="black" points="133.5,-249 133.5,-385 250.5,-385 250.5,-249 133.5,-249"/>
<text text-anchor="middle" x="192" y="-372" font-family="Helvetica,sans-Serif" font-size="10.00">world.InteractiveObject</text>
<polyline fill="none" stroke="black" points="133.5,-361 250.5,-361 "/>
<text text-anchor="middle" x="192" y="-348" font-family="Helvetica,sans-Serif" font-size="10.00"> </text>
<polyline fill="none" stroke="black" points="133.5,-337 250.5,-337 "/>
<text text-anchor="start" x="141.5" y="-324" font-family="Helvetica,sans-Serif" font-size="10.00">+ triggerAction()</text>
<text text-anchor="start" x="141.5" y="-308" font-family="Helvetica,sans-Serif" font-size="10.00">+ playerNear()</text>
<text text-anchor="start" x="141.5" y="-292" font-family="Helvetica,sans-Serif" font-size="10.00">+ playerEnter()</text>
<text text-anchor="start" x="141.5" y="-276" font-family="Helvetica,sans-Serif" font-size="10.00">+ playerLeave()</text>
<text text-anchor="start" x="141.5" y="-260" font-family="Helvetica,sans-Serif" font-size="10.00">+ isTraversable()</text>
</a>
</g>
<!-- Node4&#45;&gt;Node1 -->
<g id="edge6" class="edge"><title>Node4&#45;&gt;Node1</title>
<path fill="none" stroke="midnightblue" d="M214.994,-239.275C223.145,-211.722 232.305,-180.759 240.421,-153.324"/>
<polygon fill="none" stroke="midnightblue" points="211.636,-238.286 212.156,-248.868 218.349,-240.271 211.636,-238.286"/>
</g>
<!-- Node5 -->
<g id="node8" class="node"><title>Node5</title>
<a xlink:href="$interfaceworld_1_1scenery_1_1_taiga_theme.html" xlink:title="Interface used to define that a Scenery object have a Taiga style. ">
<polygon fill="white" stroke="black" points="267.5,-281 267.5,-353 400.5,-353 400.5,-281 267.5,-281"/>
<text text-anchor="middle" x="334" y="-340" font-family="Helvetica,sans-Serif" font-size="10.00">world.scenery.TaigaTheme</text>
<polyline fill="none" stroke="black" points="267.5,-329 400.5,-329 "/>
<text text-anchor="start" x="275.5" y="-316" font-family="Helvetica,sans-Serif" font-size="10.00">+ TAIGA</text>
<polyline fill="none" stroke="black" points="267.5,-305 400.5,-305 "/>
<text text-anchor="middle" x="334" y="-292" font-family="Helvetica,sans-Serif" font-size="10.00"> </text>
</a>
</g>
<!-- Node5&#45;&gt;Node1 -->
<g id="edge8" class="edge"><title>Node5&#45;&gt;Node1</title>
<path fill="none" stroke="midnightblue" d="M320.363,-270.903C310.519,-237.627 297.002,-191.935 285.561,-153.264"/>
<polygon fill="none" stroke="midnightblue" points="317.101,-272.213 323.294,-280.81 323.813,-270.228 317.101,-272.213"/>
</g>
<!-- Node6 -->
<g id="node10" class="node"><title>Node6</title>
<a xlink:href="$interfaceworld_1_1scenery_1_1_polar_desert_theme.html" xlink:title="Interface used to define that a Scenery object has a Polar Desert style. ">
<polygon fill="white" stroke="black" points="417.5,-273 417.5,-361 548.5,-361 548.5,-273 417.5,-273"/>
<text text-anchor="start" x="425.5" y="-348" font-family="Helvetica,sans-Serif" font-size="10.00">world.scenery.PolarDesert</text>
<text text-anchor="middle" x="483" y="-332" font-family="Helvetica,sans-Serif" font-size="10.00">Theme</text>
<polyline fill="none" stroke="black" points="417.5,-321 548.5,-321 "/>
<text text-anchor="start" x="425.5" y="-308" font-family="Helvetica,sans-Serif" font-size="10.00">+ POLAR_DESERT</text>
<polyline fill="none" stroke="black" points="417.5,-297 548.5,-297 "/>
<text text-anchor="middle" x="483" y="-284" font-family="Helvetica,sans-Serif" font-size="10.00"> </text>
</a>
</g>
<!-- Node6&#45;&gt;Node1 -->
<g id="edge10" class="edge"><title>Node6&#45;&gt;Node1</title>
<path fill="none" stroke="midnightblue" d="M457.097,-263.636C444.389,-240.31 427.771,-213.442 409,-192 381.796,-160.925 345.296,-132.175 315.597,-111.194"/>
<polygon fill="none" stroke="midnightblue" points="454.148,-265.544 461.947,-272.716 460.323,-262.247 454.148,-265.544"/>
</g>
</g>
</svg>
