<?xml version="1.0" encoding="UTF-8" standalone="no"?>
<!DOCTYPE svg PUBLIC "-//W3C//DTD SVG 1.1//EN"
 "http://www.w3.org/Graphics/SVG/1.1/DTD/svg11.dtd">
<!-- Generated by graphviz version 2.26.3 (20100126.1600)
 -->
<!-- Title: world.scenery.TaigaTheme Pages: 1 -->
<svg width="970pt" height="272pt"
 viewBox="0.00 0.00 970.00 272.00" xmlns="http://www.w3.org/2000/svg" xmlns:xlink="http://www.w3.org/1999/xlink">
<g id="graph1" class="graph" transform="scale(1 1) rotate(0) translate(4 268)">
<title>world.scenery.TaigaTheme</title>
<polygon fill="white" stroke="white" points="-4,5 -4,-268 967,-268 967,5 -4,5"/>
<!-- Node1 -->
<g id="node1" class="node"><title>Node1</title>
<polygon fill="#bfbfbf" stroke="black" points="422.5,-191 422.5,-263 555.5,-263 555.5,-191 422.5,-191"/>
<text text-anchor="middle" x="489" y="-250" font-family="Helvetica,sans-Serif" font-size="10.00">world.scenery.TaigaTheme</text>
<polyline fill="none" stroke="black" points="422.5,-239 555.5,-239 "/>
<text text-anchor="start" x="430.5" y="-226" font-family="Helvetica,sans-Serif" font-size="10.00">+ TAIGA</text>
<polyline fill="none" stroke="black" points="422.5,-215 555.5,-215 "/>
<text text-anchor="middle" x="489" y="-202" font-family="Helvetica,sans-Serif" font-size="10.00"> </text>
</g>
<!-- Node2 -->
<g id="node3" class="node"><title>Node2</title>
<a xlink:href="$classworld_1_1scenery_1_1_flower.html" xlink:title="Class used to handle a flower object. ">
<polygon fill="white" stroke="black" points="-0.5,-41 -0.5,-113 108.5,-113 108.5,-41 -0.5,-41"/>
<text text-anchor="middle" x="54" y="-100" font-family="Helvetica,sans-Serif" font-size="10.00">world.scenery.Flower</text>
<polyline fill="none" stroke="black" points="-0.5,-89 108.5,-89 "/>
<text text-anchor="middle" x="54" y="-76" font-family="Helvetica,sans-Serif" font-size="10.00"> </text>
<polyline fill="none" stroke="black" points="-0.5,-65 108.5,-65 "/>
<text text-anchor="start" x="7.5" y="-52" font-family="Helvetica,sans-Serif" font-size="10.00">+ Flower()</text>
</a>
</g>
<!-- Node1&#45;&gt;Node2 -->
<g id="edge2" class="edge"><title>Node1&#45;&gt;Node2</title>
<path fill="none" stroke="midnightblue" d="M412.365,-218.166C318.468,-206.285 165.832,-183.233 117,-154 100.402,-144.064 86.2685,-128.083 75.6202,-113.249"/>
<polygon fill="none" stroke="midnightblue" points="412.03,-221.651 422.387,-219.42 412.899,-214.705 412.03,-221.651"/>
</g>
<!-- Node3 -->
<g id="node5" class="node"><title>Node3</title>
<a xlink:href="$classworld_1_1scenery_1_1_grass.html" xlink:title="Class used to handle a grass object. ">
<polygon fill="white" stroke="black" points="126,-41 126,-113 232,-113 232,-41 126,-41"/>
<text text-anchor="middle" x="179" y="-100" font-family="Helvetica,sans-Serif" font-size="10.00">world.scenery.Grass</text>
<polyline fill="none" stroke="black" points="126,-89 232,-89 "/>
<text text-anchor="middle" x="179" y="-76" font-family="Helvetica,sans-Serif" font-size="10.00"> </text>
<polyline fill="none" stroke="black" points="126,-65 232,-65 "/>
<text text-anchor="start" x="134" y="-52" font-family="Helvetica,sans-Serif" font-size="10.00">+ Grass()</text>
</a>
</g>
<!-- Node1&#45;&gt;Node3 -->
<g id="edge4" class="edge"><title>Node1&#45;&gt;Node3</title>
<path fill="none" stroke="midnightblue" d="M412.104,-216.679C360.34,-206.91 292.411,-188.391 241,-154 225.308,-143.503 211.654,-127.81 201.184,-113.325"/>
<polygon fill="none" stroke="midnightblue" points="411.767,-220.175 422.231,-218.519 413.018,-213.288 411.767,-220.175"/>
</g>
<!-- Node4 -->
<g id="node7" class="node"><title>Node4</title>
<a xlink:href="$classworld_1_1scenery_1_1_ground.html" xlink:title="Class used to handle a ground object. ">
<polygon fill="white" stroke="black" points="249.5,-41 249.5,-113 360.5,-113 360.5,-41 249.5,-41"/>
<text text-anchor="middle" x="305" y="-100" font-family="Helvetica,sans-Serif" font-size="10.00">world.scenery.Ground</text>
<polyline fill="none" stroke="black" points="249.5,-89 360.5,-89 "/>
<text text-anchor="middle" x="305" y="-76" font-family="Helvetica,sans-Serif" font-size="10.00"> </text>
<polyline fill="none" stroke="black" points="249.5,-65 360.5,-65 "/>
<text text-anchor="start" x="257.5" y="-52" font-family="Helvetica,sans-Serif" font-size="10.00">+ Ground()</text>
</a>
</g>
<!-- Node1&#45;&gt;Node4 -->
<g id="edge6" class="edge"><title>Node1&#45;&gt;Node4</title>
<path fill="none" stroke="midnightblue" d="M413.891,-186.58C398.379,-176.811 382.63,-165.761 369,-154 355.181,-142.076 341.932,-126.98 331.109,-113.32"/>
<polygon fill="none" stroke="midnightblue" points="412.121,-189.6 422.47,-191.872 415.796,-183.643 412.121,-189.6"/>
</g>
<!-- Node5 -->
<g id="node9" class="node"><title>Node5</title>
<a xlink:href="$classworld_1_1scenery_1_1_rock.html" xlink:title="Class used to handle a rock object. ">
<polygon fill="white" stroke="black" points="377.5,-1 377.5,-153 480.5,-153 480.5,-1 377.5,-1"/>
<text text-anchor="middle" x="429" y="-140" font-family="Helvetica,sans-Serif" font-size="10.00">world.scenery.Rock</text>
<polyline fill="none" stroke="black" points="377.5,-129 480.5,-129 "/>
<text text-anchor="middle" x="429" y="-116" font-family="Helvetica,sans-Serif" font-size="10.00"> </text>
<polyline fill="none" stroke="black" points="377.5,-105 480.5,-105 "/>
<text text-anchor="start" x="385.5" y="-92" font-family="Helvetica,sans-Serif" font-size="10.00">+ Rock()</text>
<text text-anchor="start" x="385.5" y="-76" font-family="Helvetica,sans-Serif" font-size="10.00">+ triggerAction()</text>
<text text-anchor="start" x="385.5" y="-60" font-family="Helvetica,sans-Serif" font-size="10.00">+ playerNear()</text>
<text text-anchor="start" x="385.5" y="-44" font-family="Helvetica,sans-Serif" font-size="10.00">+ playerEnter()</text>
<text text-anchor="start" x="385.5" y="-28" font-family="Helvetica,sans-Serif" font-size="10.00">+ playerLeave()</text>
<text text-anchor="start" x="385.5" y="-12" font-family="Helvetica,sans-Serif" font-size="10.00">+ isTraversable()</text>
</a>
</g>
<!-- Node1&#45;&gt;Node5 -->
<g id="edge8" class="edge"><title>Node1&#45;&gt;Node5</title>
<path fill="none" stroke="midnightblue" d="M470.7,-181.249C467.113,-172.282 463.261,-162.653 459.401,-153.002"/>
<polygon fill="none" stroke="midnightblue" points="467.512,-182.704 474.476,-190.689 474.011,-180.105 467.512,-182.704"/>
</g>
<!-- Node6 -->
<g id="node11" class="node"><title>Node6</title>
<a xlink:href="$classworld_1_1scenery_1_1_shore.html" xlink:title="Class used to handle a shore object. ">
<polygon fill="white" stroke="black" points="497.5,-41 497.5,-113 602.5,-113 602.5,-41 497.5,-41"/>
<text text-anchor="middle" x="550" y="-100" font-family="Helvetica,sans-Serif" font-size="10.00">world.scenery.Shore</text>
<polyline fill="none" stroke="black" points="497.5,-89 602.5,-89 "/>
<text text-anchor="middle" x="550" y="-76" font-family="Helvetica,sans-Serif" font-size="10.00"> </text>
<polyline fill="none" stroke="black" points="497.5,-65 602.5,-65 "/>
<text text-anchor="start" x="505.5" y="-52" font-family="Helvetica,sans-Serif" font-size="10.00">+ Shore()</text>
</a>
</g>
<!-- Node1&#45;&gt;Node6 -->
<g id="edge10" class="edge"><title>Node1&#45;&gt;Node6</title>
<path fill="none" stroke="midnightblue" d="M507.591,-181.285C516.47,-159.452 526.946,-133.691 535.264,-113.236"/>
<polygon fill="none" stroke="midnightblue" points="504.291,-180.107 503.766,-190.689 510.776,-182.744 504.291,-180.107"/>
</g>
<!-- Node7 -->
<g id="node13" class="node"><title>Node7</title>
<a xlink:href="$classworld_1_1scenery_1_1_shrub.html" xlink:title="Class used to handle a shrub object. ">
<polygon fill="white" stroke="black" points="619.5,-41 619.5,-113 724.5,-113 724.5,-41 619.5,-41"/>
<text text-anchor="middle" x="672" y="-100" font-family="Helvetica,sans-Serif" font-size="10.00">world.scenery.Shrub</text>
<polyline fill="none" stroke="black" points="619.5,-89 724.5,-89 "/>
<text text-anchor="middle" x="672" y="-76" font-family="Helvetica,sans-Serif" font-size="10.00"> </text>
<polyline fill="none" stroke="black" points="619.5,-65 724.5,-65 "/>
<text text-anchor="start" x="627.5" y="-52" font-family="Helvetica,sans-Serif" font-size="10.00">+ Shrub()</text>
</a>
</g>
<!-- Node1&#45;&gt;Node7 -->
<g id="edge12" class="edge"><title>Node1&#45;&gt;Node7</title>
<path fill="none" stroke="midnightblue" d="M564.52,-187.636C580.626,-177.682 596.987,-166.291 611,-154 624.591,-142.079 637.385,-126.829 647.712,-113.05"/>
<polygon fill="none" stroke="midnightblue" points="562.366,-184.848 555.616,-193.014 565.985,-190.84 562.366,-184.848"/>
</g>
<!-- Node8 -->
<g id="node15" class="node"><title>Node8</title>
<a xlink:href="$classworld_1_1scenery_1_1_tree.html" xlink:title="Class used to handle a tree object. ">
<polygon fill="white" stroke="black" points="742,-1 742,-153 840,-153 840,-1 742,-1"/>
<text text-anchor="middle" x="791" y="-140" font-family="Helvetica,sans-Serif" font-size="10.00">world.scenery.Tree</text>
<polyline fill="none" stroke="black" points="742,-129 840,-129 "/>
<text text-anchor="middle" x="791" y="-116" font-family="Helvetica,sans-Serif" font-size="10.00"> </text>
<polyline fill="none" stroke="black" points="742,-105 840,-105 "/>
<text text-anchor="start" x="750" y="-92" font-family="Helvetica,sans-Serif" font-size="10.00">+ Tree()</text>
<text text-anchor="start" x="750" y="-76" font-family="Helvetica,sans-Serif" font-size="10.00">+ triggerAction()</text>
<text text-anchor="start" x="750" y="-60" font-family="Helvetica,sans-Serif" font-size="10.00">+ playerNear()</text>
<text text-anchor="start" x="750" y="-44" font-family="Helvetica,sans-Serif" font-size="10.00">+ playerEnter()</text>
<text text-anchor="start" x="750" y="-28" font-family="Helvetica,sans-Serif" font-size="10.00">+ playerLeave()</text>
<text text-anchor="start" x="750" y="-12" font-family="Helvetica,sans-Serif" font-size="10.00">+ isTraversable()</text>
</a>
</g>
<!-- Node1&#45;&gt;Node8 -->
<g id="edge14" class="edge"><title>Node1&#45;&gt;Node8</title>
<path fill="none" stroke="midnightblue" d="M565.539,-216.846C616.561,-207.167 683.153,-188.688 733,-154 736.022,-151.897 738.953,-149.587 741.787,-147.12"/>
<polygon fill="none" stroke="midnightblue" points="564.762,-213.43 555.552,-218.666 566.017,-220.316 564.762,-213.43"/>
</g>
<!-- Node9 -->
<g id="node17" class="node"><title>Node9</title>
<a xlink:href="$classworld_1_1scenery_1_1_water.html" xlink:title="Class used to handle a water object. ">
<polygon fill="white" stroke="black" points="857.5,-1 857.5,-153 962.5,-153 962.5,-1 857.5,-1"/>
<text text-anchor="middle" x="910" y="-140" font-family="Helvetica,sans-Serif" font-size="10.00">world.scenery.Water</text>
<polyline fill="none" stroke="black" points="857.5,-129 962.5,-129 "/>
<text text-anchor="middle" x="910" y="-116" font-family="Helvetica,sans-Serif" font-size="10.00"> </text>
<polyline fill="none" stroke="black" points="857.5,-105 962.5,-105 "/>
<text text-anchor="start" x="865.5" y="-92" font-family="Helvetica,sans-Serif" font-size="10.00">+ Water()</text>
<text text-anchor="start" x="865.5" y="-76" font-family="Helvetica,sans-Serif" font-size="10.00">+ triggerAction()</text>
<text text-anchor="start" x="865.5" y="-60" font-family="Helvetica,sans-Serif" font-size="10.00">+ playerNear()</text>
<text text-anchor="start" x="865.5" y="-44" font-family="Helvetica,sans-Serif" font-size="10.00">+ playerEnter()</text>
<text text-anchor="start" x="865.5" y="-28" font-family="Helvetica,sans-Serif" font-size="10.00">+ playerLeave()</text>
<text text-anchor="start" x="865.5" y="-12" font-family="Helvetica,sans-Serif" font-size="10.00">+ isTraversable()</text>
</a>
</g>
<!-- Node1&#45;&gt;Node9 -->
<g id="edge16" class="edge"><title>Node1&#45;&gt;Node9</title>
<path fill="none" stroke="midnightblue" d="M565.816,-217.703C656.959,-205.599 802.44,-182.575 849,-154 851.907,-152.216 854.732,-150.241 857.471,-148.115"/>
<polygon fill="none" stroke="midnightblue" points="565.262,-214.245 555.803,-219.018 566.174,-221.186 565.262,-214.245"/>
</g>
</g>
</svg>
