<?xml version="1.0" encoding="UTF-8" standalone="no"?>
<!DOCTYPE svg PUBLIC "-//W3C//DTD SVG 1.1//EN"
 "http://www.w3.org/Graphics/SVG/1.1/DTD/svg11.dtd">
<!-- Generated by graphviz version 2.26.3 (20100126.1600)
 -->
<!-- Title: world.scenery.XericShrublandsTheme Pages: 1 -->
<svg width="356pt" height="288pt"
 viewBox="0.00 0.00 356.00 288.00" xmlns="http://www.w3.org/2000/svg" xmlns:xlink="http://www.w3.org/1999/xlink">
<g id="graph1" class="graph" transform="scale(1 1) rotate(0) translate(4 284)">
<title>world.scenery.XericShrublandsTheme</title>
<polygon fill="white" stroke="white" points="-4,5 -4,-284 353,-284 353,5 -4,5"/>
<!-- Node1 -->
<g id="node1" class="node"><title>Node1</title>
<polygon fill="#bfbfbf" stroke="black" points="104.5,-191 104.5,-279 255.5,-279 255.5,-191 104.5,-191"/>
<text text-anchor="start" x="112.5" y="-266" font-family="Helvetica,sans-Serif" font-size="10.00">world.scenery.XericShrublands</text>
<text text-anchor="middle" x="180" y="-250" font-family="Helvetica,sans-Serif" font-size="10.00">Theme</text>
<polyline fill="none" stroke="black" points="104.5,-239 255.5,-239 "/>
<text text-anchor="start" x="112.5" y="-226" font-family="Helvetica,sans-Serif" font-size="10.00">+ XERIC_SHRUBLANDS</text>
<polyline fill="none" stroke="black" points="104.5,-215 255.5,-215 "/>
<text text-anchor="middle" x="180" y="-202" font-family="Helvetica,sans-Serif" font-size="10.00"> </text>
</g>
<!-- Node2 -->
<g id="node3" class="node"><title>Node2</title>
<a xlink:href="$classworld_1_1scenery_1_1_ground.html" xlink:title="Class used to handle a ground object. ">
<polygon fill="white" stroke="black" points="-0.5,-41 -0.5,-113 110.5,-113 110.5,-41 -0.5,-41"/>
<text text-anchor="middle" x="55" y="-100" font-family="Helvetica,sans-Serif" font-size="10.00">world.scenery.Ground</text>
<polyline fill="none" stroke="black" points="-0.5,-89 110.5,-89 "/>
<text text-anchor="middle" x="55" y="-76" font-family="Helvetica,sans-Serif" font-size="10.00"> </text>
<polyline fill="none" stroke="black" points="-0.5,-65 110.5,-65 "/>
<text text-anchor="start" x="7.5" y="-52" font-family="Helvetica,sans-Serif" font-size="10.00">+ Ground()</text>
</a>
</g>
<!-- Node1&#45;&gt;Node2 -->
<g id="edge2" class="edge"><title>Node1&#45;&gt;Node2</title>
<path fill="none" stroke="midnightblue" d="M138.895,-183.043C120.768,-160.13 99.9103,-133.767 83.527,-113.058"/>
<polygon fill="none" stroke="midnightblue" points="136.231,-185.317 145.181,-190.988 141.721,-180.974 136.231,-185.317"/>
</g>
<!-- Node3 -->
<g id="node5" class="node"><title>Node3</title>
<a xlink:href="$classworld_1_1scenery_1_1_shrub.html" xlink:title="Class used to handle a shrub object. ">
<polygon fill="white" stroke="black" points="127.5,-41 127.5,-113 232.5,-113 232.5,-41 127.5,-41"/>
<text text-anchor="middle" x="180" y="-100" font-family="Helvetica,sans-Serif" font-size="10.00">world.scenery.Shrub</text>
<polyline fill="none" stroke="black" points="127.5,-89 232.5,-89 "/>
<text text-anchor="middle" x="180" y="-76" font-family="Helvetica,sans-Serif" font-size="10.00"> </text>
<polyline fill="none" stroke="black" points="127.5,-65 232.5,-65 "/>
<text text-anchor="start" x="135.5" y="-52" font-family="Helvetica,sans-Serif" font-size="10.00">+ Shrub()</text>
</a>
</g>
<!-- Node1&#45;&gt;Node3 -->
<g id="edge4" class="edge"><title>Node1&#45;&gt;Node3</title>
<path fill="none" stroke="midnightblue" d="M180,-180.932C180,-158.524 180,-133.134 180,-113.058"/>
<polygon fill="none" stroke="midnightblue" points="176.5,-180.988 180,-190.988 183.5,-180.988 176.5,-180.988"/>
</g>
<!-- Node4 -->
<g id="node7" class="node"><title>Node4</title>
<a xlink:href="$classworld_1_1scenery_1_1_tree.html" xlink:title="Class used to handle a tree object. ">
<polygon fill="white" stroke="black" points="250,-1 250,-153 348,-153 348,-1 250,-1"/>
<text text-anchor="middle" x="299" y="-140" font-family="Helvetica,sans-Serif" font-size="10.00">world.scenery.Tree</text>
<polyline fill="none" stroke="black" points="250,-129 348,-129 "/>
<text text-anchor="middle" x="299" y="-116" font-family="Helvetica,sans-Serif" font-size="10.00"> </text>
<polyline fill="none" stroke="black" points="250,-105 348,-105 "/>
<text text-anchor="start" x="258" y="-92" font-family="Helvetica,sans-Serif" font-size="10.00">+ Tree()</text>
<text text-anchor="start" x="258" y="-76" font-family="Helvetica,sans-Serif" font-size="10.00">+ triggerAction()</text>
<text text-anchor="start" x="258" y="-60" font-family="Helvetica,sans-Serif" font-size="10.00">+ playerNear()</text>
<text text-anchor="start" x="258" y="-44" font-family="Helvetica,sans-Serif" font-size="10.00">+ playerEnter()</text>
<text text-anchor="start" x="258" y="-28" font-family="Helvetica,sans-Serif" font-size="10.00">+ playerLeave()</text>
<text text-anchor="start" x="258" y="-12" font-family="Helvetica,sans-Serif" font-size="10.00">+ isTraversable()</text>
</a>
</g>
<!-- Node1&#45;&gt;Node4 -->
<g id="edge6" class="edge"><title>Node1&#45;&gt;Node4</title>
<path fill="none" stroke="midnightblue" d="M219.407,-182.678C229.13,-169.769 239.663,-155.784 249.786,-142.343"/>
<polygon fill="none" stroke="midnightblue" points="216.369,-180.895 213.148,-190.988 221.96,-185.106 216.369,-180.895"/>
</g>
</g>
</svg>
