<?xml version="1.0" encoding="UTF-8" standalone="no"?>
<!DOCTYPE svg PUBLIC "-//W3C//DTD SVG 1.1//EN"
 "http://www.w3.org/Graphics/SVG/1.1/DTD/svg11.dtd">
<!-- Generated by graphviz version 2.26.3 (20100126.1600)
 -->
<!-- Title: world.InteractiveObject Pages: 1 -->
<svg width="560pt" height="622pt"
 viewBox="0.00 0.00 560.00 622.00" xmlns="http://www.w3.org/2000/svg" xmlns:xlink="http://www.w3.org/1999/xlink">
<g id="graph1" class="graph" transform="scale(1 1) rotate(0) translate(4 618)">
<title>world.InteractiveObject</title>
<polygon fill="white" stroke="white" points="-4,5 -4,-618 557,-618 557,5 -4,5"/>
<!-- Node1 -->
<g id="node1" class="node"><title>Node1</title>
<polygon fill="#bfbfbf" stroke="black" points="263.5,-477 263.5,-613 380.5,-613 380.5,-477 263.5,-477"/>
<text text-anchor="middle" x="322" y="-600" font-family="Helvetica,sans-Serif" font-size="10.00">world.InteractiveObject</text>
<polyline fill="none" stroke="black" points="263.5,-589 380.5,-589 "/>
<text text-anchor="middle" x="322" y="-576" font-family="Helvetica,sans-Serif" font-size="10.00"> </text>
<polyline fill="none" stroke="black" points="263.5,-565 380.5,-565 "/>
<text text-anchor="start" x="271.5" y="-552" font-family="Helvetica,sans-Serif" font-size="10.00">+ triggerAction()</text>
<text text-anchor="start" x="271.5" y="-536" font-family="Helvetica,sans-Serif" font-size="10.00">+ playerNear()</text>
<text text-anchor="start" x="271.5" y="-520" font-family="Helvetica,sans-Serif" font-size="10.00">+ playerEnter()</text>
<text text-anchor="start" x="271.5" y="-504" font-family="Helvetica,sans-Serif" font-size="10.00">+ playerLeave()</text>
<text text-anchor="start" x="271.5" y="-488" font-family="Helvetica,sans-Serif" font-size="10.00">+ isTraversable()</text>
</g>
<!-- Node2 -->
<g id="node3" class="node"><title>Node2</title>
<a xlink:href="$classworld_1_1character_1_1_character.html" xlink:title="Class used to handle a character (player or non&#45;player) ">
<polygon fill="white" stroke="black" points="62,-143 62,-439 194,-439 194,-143 62,-143"/>
<text text-anchor="middle" x="128" y="-426" font-family="Helvetica,sans-Serif" font-size="10.00">world.character.Character</text>
<polyline fill="none" stroke="black" points="62,-415 194,-415 "/>
<text text-anchor="start" x="70" y="-402" font-family="Helvetica,sans-Serif" font-size="10.00"># posX</text>
<text text-anchor="start" x="70" y="-386" font-family="Helvetica,sans-Serif" font-size="10.00"># posY</text>
<text text-anchor="start" x="70" y="-370" font-family="Helvetica,sans-Serif" font-size="10.00"># CHARACTER_HEIGHT</text>
<text text-anchor="start" x="70" y="-354" font-family="Helvetica,sans-Serif" font-size="10.00"># CHARACTER_WIDTH</text>
<polyline fill="none" stroke="black" points="62,-343 194,-343 "/>
<text text-anchor="start" x="70" y="-330" font-family="Helvetica,sans-Serif" font-size="10.00">+ Character()</text>
<text text-anchor="start" x="70" y="-314" font-family="Helvetica,sans-Serif" font-size="10.00">+ jumpX()</text>
<text text-anchor="start" x="70" y="-298" font-family="Helvetica,sans-Serif" font-size="10.00">+ jumpY()</text>
<text text-anchor="start" x="70" y="-282" font-family="Helvetica,sans-Serif" font-size="10.00">+ jump()</text>
<text text-anchor="start" x="70" y="-266" font-family="Helvetica,sans-Serif" font-size="10.00">+ moveX()</text>
<text text-anchor="start" x="70" y="-250" font-family="Helvetica,sans-Serif" font-size="10.00">+ moveY()</text>
<text text-anchor="start" x="70" y="-234" font-family="Helvetica,sans-Serif" font-size="10.00">+ move()</text>
<text text-anchor="start" x="70" y="-218" font-family="Helvetica,sans-Serif" font-size="10.00">+ triggerAction()</text>
<text text-anchor="start" x="70" y="-202" font-family="Helvetica,sans-Serif" font-size="10.00">+ playerNear()</text>
<text text-anchor="start" x="70" y="-186" font-family="Helvetica,sans-Serif" font-size="10.00">+ playerEnter()</text>
<text text-anchor="start" x="70" y="-170" font-family="Helvetica,sans-Serif" font-size="10.00">+ playerLeave()</text>
<text text-anchor="start" x="70" y="-154" font-family="Helvetica,sans-Serif" font-size="10.00">+ isTraversable()</text>
</a>
</g>
<!-- Node1&#45;&gt;Node2 -->
<g id="edge2" class="edge"><title>Node1&#45;&gt;Node2</title>
<path fill="none" stroke="midnightblue" d="M255.424,-494.17C237.031,-478.127 218.02,-459.47 203,-440 199.993,-436.102 197.054,-432.064 194.189,-427.923"/>
<polygon fill="none" stroke="midnightblue" points="253.385,-497.032 263.256,-500.881 257.94,-491.717 253.385,-497.032"/>
</g>
<!-- Node5 -->
<g id="node9" class="node"><title>Node5</title>
<a xlink:href="$classworld_1_1scenery_1_1_rock.html" xlink:title="Class used to handle a rock object. ">
<polygon fill="white" stroke="black" points="211.5,-215 211.5,-367 314.5,-367 314.5,-215 211.5,-215"/>
<text text-anchor="middle" x="263" y="-354" font-family="Helvetica,sans-Serif" font-size="10.00">world.scenery.Rock</text>
<polyline fill="none" stroke="black" points="211.5,-343 314.5,-343 "/>
<text text-anchor="middle" x="263" y="-330" font-family="Helvetica,sans-Serif" font-size="10.00"> </text>
<polyline fill="none" stroke="black" points="211.5,-319 314.5,-319 "/>
<text text-anchor="start" x="219.5" y="-306" font-family="Helvetica,sans-Serif" font-size="10.00">+ Rock()</text>
<text text-anchor="start" x="219.5" y="-290" font-family="Helvetica,sans-Serif" font-size="10.00">+ triggerAction()</text>
<text text-anchor="start" x="219.5" y="-274" font-family="Helvetica,sans-Serif" font-size="10.00">+ playerNear()</text>
<text text-anchor="start" x="219.5" y="-258" font-family="Helvetica,sans-Serif" font-size="10.00">+ playerEnter()</text>
<text text-anchor="start" x="219.5" y="-242" font-family="Helvetica,sans-Serif" font-size="10.00">+ playerLeave()</text>
<text text-anchor="start" x="219.5" y="-226" font-family="Helvetica,sans-Serif" font-size="10.00">+ isTraversable()</text>
</a>
</g>
<!-- Node1&#45;&gt;Node5 -->
<g id="edge8" class="edge"><title>Node1&#45;&gt;Node5</title>
<path fill="none" stroke="midnightblue" d="M303.844,-466.838C296.494,-435.194 288.035,-398.777 280.728,-367.321"/>
<polygon fill="none" stroke="midnightblue" points="300.517,-467.984 306.189,-476.933 307.336,-466.4 300.517,-467.984"/>
</g>
<!-- Node6 -->
<g id="node11" class="node"><title>Node6</title>
<a xlink:href="$classworld_1_1scenery_1_1_tree.html" xlink:title="Class used to handle a tree object. ">
<polygon fill="white" stroke="black" points="332,-215 332,-367 430,-367 430,-215 332,-215"/>
<text text-anchor="middle" x="381" y="-354" font-family="Helvetica,sans-Serif" font-size="10.00">world.scenery.Tree</text>
<polyline fill="none" stroke="black" points="332,-343 430,-343 "/>
<text text-anchor="middle" x="381" y="-330" font-family="Helvetica,sans-Serif" font-size="10.00"> </text>
<polyline fill="none" stroke="black" points="332,-319 430,-319 "/>
<text text-anchor="start" x="340" y="-306" font-family="Helvetica,sans-Serif" font-size="10.00">+ Tree()</text>
<text text-anchor="start" x="340" y="-290" font-family="Helvetica,sans-Serif" font-size="10.00">+ triggerAction()</text>
<text text-anchor="start" x="340" y="-274" font-family="Helvetica,sans-Serif" font-size="10.00">+ playerNear()</text>
<text text-anchor="start" x="340" y="-258" font-family="Helvetica,sans-Serif" font-size="10.00">+ playerEnter()</text>
<text text-anchor="start" x="340" y="-242" font-family="Helvetica,sans-Serif" font-size="10.00">+ playerLeave()</text>
<text text-anchor="start" x="340" y="-226" font-family="Helvetica,sans-Serif" font-size="10.00">+ isTraversable()</text>
</a>
</g>
<!-- Node1&#45;&gt;Node6 -->
<g id="edge10" class="edge"><title>Node1&#45;&gt;Node6</title>
<path fill="none" stroke="midnightblue" d="M340.156,-466.838C347.506,-435.194 355.965,-398.777 363.272,-367.321"/>
<polygon fill="none" stroke="midnightblue" points="336.664,-466.4 337.811,-476.933 343.483,-467.984 336.664,-466.4"/>
</g>
<!-- Node7 -->
<g id="node13" class="node"><title>Node7</title>
<a xlink:href="$classworld_1_1scenery_1_1_water.html" xlink:title="Class used to handle a water object. ">
<polygon fill="white" stroke="black" points="447.5,-215 447.5,-367 552.5,-367 552.5,-215 447.5,-215"/>
<text text-anchor="middle" x="500" y="-354" font-family="Helvetica,sans-Serif" font-size="10.00">world.scenery.Water</text>
<polyline fill="none" stroke="black" points="447.5,-343 552.5,-343 "/>
<text text-anchor="middle" x="500" y="-330" font-family="Helvetica,sans-Serif" font-size="10.00"> </text>
<polyline fill="none" stroke="black" points="447.5,-319 552.5,-319 "/>
<text text-anchor="start" x="455.5" y="-306" font-family="Helvetica,sans-Serif" font-size="10.00">+ Water()</text>
<text text-anchor="start" x="455.5" y="-290" font-family="Helvetica,sans-Serif" font-size="10.00">+ triggerAction()</text>
<text text-anchor="start" x="455.5" y="-274" font-family="Helvetica,sans-Serif" font-size="10.00">+ playerNear()</text>
<text text-anchor="start" x="455.5" y="-258" font-family="Helvetica,sans-Serif" font-size="10.00">+ playerEnter()</text>
<text text-anchor="start" x="455.5" y="-242" font-family="Helvetica,sans-Serif" font-size="10.00">+ playerLeave()</text>
<text text-anchor="start" x="455.5" y="-226" font-family="Helvetica,sans-Serif" font-size="10.00">+ isTraversable()</text>
</a>
</g>
<!-- Node1&#45;&gt;Node7 -->
<g id="edge12" class="edge"><title>Node1&#45;&gt;Node7</title>
<path fill="none" stroke="midnightblue" d="M388.39,-494.73C406.497,-478.699 424.966,-459.91 439,-440 454.46,-418.067 466.903,-391.631 476.418,-367.153"/>
<polygon fill="none" stroke="midnightblue" points="385.93,-492.231 380.667,-501.427 390.515,-497.52 385.93,-492.231"/>
</g>
<!-- Node3 -->
<g id="node5" class="node"><title>Node3</title>
<a xlink:href="$classworld_1_1character_1_1_hero.html" xlink:title="{world.character.Hero\n||+ Hero()\l}">
<polygon fill="white" stroke="black" points="-0.5,-17 -0.5,-89 106.5,-89 106.5,-17 -0.5,-17"/>
<text text-anchor="middle" x="53" y="-76" font-family="Helvetica,sans-Serif" font-size="10.00">world.character.Hero</text>
<polyline fill="none" stroke="black" points="-0.5,-65 106.5,-65 "/>
<text text-anchor="middle" x="53" y="-52" font-family="Helvetica,sans-Serif" font-size="10.00"> </text>
<polyline fill="none" stroke="black" points="-0.5,-41 106.5,-41 "/>
<text text-anchor="start" x="7.5" y="-28" font-family="Helvetica,sans-Serif" font-size="10.00">+ Hero()</text>
</a>
</g>
<!-- Node2&#45;&gt;Node3 -->
<g id="edge4" class="edge"><title>Node2&#45;&gt;Node3</title>
<path fill="none" stroke="midnightblue" d="M78.3079,-133.31C73.1947,-117.084 68.4209,-101.936 64.4279,-89.2644"/>
<polygon fill="none" stroke="midnightblue" points="75.0105,-134.492 81.3543,-142.978 81.6868,-132.388 75.0105,-134.492"/>
</g>
<!-- Node4 -->
<g id="node7" class="node"><title>Node4</title>
<a xlink:href="$classworld_1_1character_1_1_talking_character.html" xlink:title="Class handling a talking character. ">
<polygon fill="white" stroke="black" points="123.5,-1 123.5,-105 282.5,-105 282.5,-1 123.5,-1"/>
<text text-anchor="middle" x="203" y="-92" font-family="Helvetica,sans-Serif" font-size="10.00">world.character.TalkingCharacter</text>
<polyline fill="none" stroke="black" points="123.5,-81 282.5,-81 "/>
<text text-anchor="middle" x="203" y="-68" font-family="Helvetica,sans-Serif" font-size="10.00"> </text>
<polyline fill="none" stroke="black" points="123.5,-57 282.5,-57 "/>
<text text-anchor="start" x="131.5" y="-44" font-family="Helvetica,sans-Serif" font-size="10.00">+ TalkingCharacter()</text>
<text text-anchor="start" x="131.5" y="-28" font-family="Helvetica,sans-Serif" font-size="10.00">+ talk()</text>
<text text-anchor="start" x="131.5" y="-12" font-family="Helvetica,sans-Serif" font-size="10.00">+ triggerAction()</text>
</a>
</g>
<!-- Node2&#45;&gt;Node4 -->
<g id="edge6" class="edge"><title>Node2&#45;&gt;Node4</title>
<path fill="none" stroke="midnightblue" d="M177.687,-133.328C180.821,-123.381 183.828,-113.838 186.606,-105.023"/>
<polygon fill="none" stroke="midnightblue" points="174.313,-132.388 174.646,-142.978 180.99,-134.492 174.313,-132.388"/>
</g>
</g>
</svg>
