<?xml version="1.0" encoding="UTF-8" standalone="no"?>
<!DOCTYPE svg PUBLIC "-//W3C//DTD SVG 1.1//EN"
 "http://www.w3.org/Graphics/SVG/1.1/DTD/svg11.dtd">
<!-- Generated by graphviz version 2.26.3 (20100126.1600)
 -->
<!-- Title: main.Philophobia.getImageFilePrefix Pages: 1 -->
<svg width="324pt" height="410pt"
 viewBox="0.00 0.00 324.00 410.00" xmlns="http://www.w3.org/2000/svg" xmlns:xlink="http://www.w3.org/1999/xlink">
<g id="graph1" class="graph" transform="scale(1 1) rotate(0) translate(4 406)">
<title>main.Philophobia.getImageFilePrefix</title>
<polygon fill="white" stroke="white" points="-4,5 -4,-406 321,-406 321,5 -4,5"/>
<!-- Node1 -->
<g id="node1" class="node"><title>Node1</title>
<polygon fill="#bfbfbf" stroke="black" points="0,-181 0,-221 134,-221 134,-181 0,-181"/>
<text text-anchor="start" x="8" y="-208" font-family="Helvetica,sans-Serif" font-size="10.00">main.Philophobia.getImage</text>
<text text-anchor="middle" x="67" y="-192" font-family="Helvetica,sans-Serif" font-size="10.00">FilePrefix</text>
</g>
<!-- Node2 -->
<g id="node3" class="node"><title>Node2</title>
<a xlink:href="a00009.html#a663bcd2da248c656eb2a06f4d0b89e8e" target="_top" xlink:title="Flower class constructor. ">
<polygon fill="white" stroke="black" points="173,-378 173,-402 313,-402 313,-378 173,-378"/>
<text text-anchor="middle" x="243" y="-389" font-family="Helvetica,sans-Serif" font-size="10.00">world.scenery.Flower.Flower</text>
</a>
</g>
<!-- Node1&#45;&gt;Node2 -->
<g id="edge2" class="edge"><title>Node1&#45;&gt;Node2</title>
<path fill="none" stroke="midnightblue" d="M77.3633,-230.602C92.0837,-268.329 122.639,-332.962 170,-369 174.618,-372.514 179.805,-375.44 185.229,-377.877"/>
<polygon fill="midnightblue" stroke="midnightblue" points="80.6078,-229.287 73.7956,-221.172 74.0607,-231.764 80.6078,-229.287"/>
</g>
<!-- Node3 -->
<g id="node5" class="node"><title>Node3</title>
<a xlink:href="a00011.html#a52258f5446c14ce5c70b7100591ec352" target="_top" xlink:title="Grass class constructor. ">
<polygon fill="white" stroke="black" points="175.5,-336 175.5,-360 310.5,-360 310.5,-336 175.5,-336"/>
<text text-anchor="middle" x="243" y="-347" font-family="Helvetica,sans-Serif" font-size="10.00">world.scenery.Grass.Grass</text>
</a>
</g>
<!-- Node1&#45;&gt;Node3 -->
<g id="edge4" class="edge"><title>Node1&#45;&gt;Node3</title>
<path fill="none" stroke="midnightblue" d="M83.4614,-230.039C101.22,-258.789 132.111,-302.024 170,-327 175.395,-330.556 181.4,-333.521 187.582,-335.989"/>
<polygon fill="midnightblue" stroke="midnightblue" points="86.3258,-228.011 78.1647,-221.255 80.3313,-231.626 86.3258,-228.011"/>
</g>
<!-- Node4 -->
<g id="node7" class="node"><title>Node4</title>
<a xlink:href="a00012.html#a8fd1a2b95d8136913879fe89d3a7263a" target="_top" xlink:title="Ground class constructor. ">
<polygon fill="white" stroke="black" points="170,-294 170,-318 316,-318 316,-294 170,-294"/>
<text text-anchor="middle" x="243" y="-305" font-family="Helvetica,sans-Serif" font-size="10.00">world.scenery.Ground.Ground</text>
</a>
</g>
<!-- Node1&#45;&gt;Node4 -->
<g id="edge6" class="edge"><title>Node1&#45;&gt;Node4</title>
<path fill="none" stroke="midnightblue" d="M93.8657,-228.089C113.464,-246.478 141.483,-270.077 170,-285 176.66,-288.485 183.973,-291.46 191.319,-293.978"/>
<polygon fill="midnightblue" stroke="midnightblue" points="96.1725,-225.452 86.5249,-221.073 91.3362,-230.512 96.1725,-225.452"/>
</g>
<!-- Node5 -->
<g id="node9" class="node"><title>Node5</title>
<a xlink:href="a00013.html#aa2013a38abaa16be012e161dc50283f4" target="_top" xlink:title="Hero class constructor. ">
<polygon fill="white" stroke="black" points="177.5,-252 177.5,-276 308.5,-276 308.5,-252 177.5,-252"/>
<text text-anchor="middle" x="243" y="-263" font-family="Helvetica,sans-Serif" font-size="10.00">world.character.Hero.Hero</text>
</a>
</g>
<!-- Node1&#45;&gt;Node5 -->
<g id="edge8" class="edge"><title>Node1&#45;&gt;Node5</title>
<path fill="none" stroke="midnightblue" d="M122.555,-224.923C137.809,-231.143 154.436,-237.606 170,-243 179.096,-246.153 188.94,-249.215 198.367,-251.982"/>
<polygon fill="midnightblue" stroke="midnightblue" points="123.836,-221.666 113.257,-221.094 121.17,-228.138 123.836,-221.666"/>
</g>
<!-- Node6 -->
<g id="node11" class="node"><title>Node6</title>
<a xlink:href="a00022.html#aa6c5ea6a70562733bb684b70e9dcdf1d" target="_top" xlink:title="Rock class constructor. ">
<polygon fill="white" stroke="black" points="178.5,-210 178.5,-234 307.5,-234 307.5,-210 178.5,-210"/>
<text text-anchor="middle" x="243" y="-221" font-family="Helvetica,sans-Serif" font-size="10.00">world.scenery.Rock.Rock</text>
</a>
</g>
<!-- Node1&#45;&gt;Node6 -->
<g id="edge10" class="edge"><title>Node1&#45;&gt;Node6</title>
<path fill="none" stroke="midnightblue" d="M144.049,-210.193C155.536,-211.564 167.276,-212.965 178.469,-214.3"/>
<polygon fill="midnightblue" stroke="midnightblue" points="144.384,-206.709 134.04,-208.999 143.555,-213.659 144.384,-206.709"/>
</g>
<!-- Node7 -->
<g id="node13" class="node"><title>Node7</title>
<a xlink:href="a00025.html#a91873a583f2f5801995937359f8174c2" target="_top" xlink:title="Shore class constructor. ">
<polygon fill="white" stroke="black" points="176,-168 176,-192 310,-192 310,-168 176,-168"/>
<text text-anchor="middle" x="243" y="-179" font-family="Helvetica,sans-Serif" font-size="10.00">world.scenery.Shore.Shore</text>
</a>
</g>
<!-- Node1&#45;&gt;Node7 -->
<g id="edge12" class="edge"><title>Node1&#45;&gt;Node7</title>
<path fill="none" stroke="midnightblue" d="M144.098,-191.801C154.678,-190.538 165.472,-189.25 175.855,-188.012"/>
<polygon fill="midnightblue" stroke="midnightblue" points="143.555,-188.341 134.04,-193.001 144.384,-195.291 143.555,-188.341"/>
</g>
<!-- Node8 -->
<g id="node15" class="node"><title>Node8</title>
<a xlink:href="a00026.html#a53967853634ecaaf9bd40f0472a158fd" target="_top" xlink:title="Shrub class constructor. ">
<polygon fill="white" stroke="black" points="176,-126 176,-150 310,-150 310,-126 176,-126"/>
<text text-anchor="middle" x="243" y="-137" font-family="Helvetica,sans-Serif" font-size="10.00">world.scenery.Shrub.Shrub</text>
</a>
</g>
<!-- Node1&#45;&gt;Node8 -->
<g id="edge14" class="edge"><title>Node1&#45;&gt;Node8</title>
<path fill="none" stroke="midnightblue" d="M122.555,-177.077C137.809,-170.857 154.436,-164.394 170,-159 179.096,-155.847 188.94,-152.785 198.367,-150.018"/>
<polygon fill="midnightblue" stroke="midnightblue" points="121.17,-173.862 113.257,-180.906 123.836,-180.334 121.17,-173.862"/>
</g>
<!-- Node9 -->
<g id="node17" class="node"><title>Node9</title>
<a xlink:href="a00031.html#ae999683bfcfd73faf457c8b2bd3a2bed" target="_top" xlink:title="Constructor of the TopBar class. ">
<polygon fill="white" stroke="black" points="170.5,-84 170.5,-108 315.5,-108 315.5,-84 170.5,-84"/>
<text text-anchor="middle" x="243" y="-95" font-family="Helvetica,sans-Serif" font-size="10.00">window.topbar.TopBar.TopBar</text>
</a>
</g>
<!-- Node1&#45;&gt;Node9 -->
<g id="edge16" class="edge"><title>Node1&#45;&gt;Node9</title>
<path fill="none" stroke="midnightblue" d="M93.8657,-173.911C113.464,-155.522 141.483,-131.923 170,-117 176.66,-113.515 183.973,-110.54 191.319,-108.022"/>
<polygon fill="midnightblue" stroke="midnightblue" points="91.3362,-171.488 86.5249,-180.927 96.1725,-176.548 91.3362,-171.488"/>
</g>
<!-- Node10 -->
<g id="node19" class="node"><title>Node10</title>
<a xlink:href="a00033.html#a06acd38739c0360bbb1a30e59024d2ba" target="_top" xlink:title="Tree class constructor. ">
<polygon fill="white" stroke="black" points="183,-42 183,-66 303,-66 303,-42 183,-42"/>
<text text-anchor="middle" x="243" y="-53" font-family="Helvetica,sans-Serif" font-size="10.00">world.scenery.Tree.Tree</text>
</a>
</g>
<!-- Node1&#45;&gt;Node10 -->
<g id="edge18" class="edge"><title>Node1&#45;&gt;Node10</title>
<path fill="none" stroke="midnightblue" d="M83.4614,-171.961C101.22,-143.211 132.111,-99.9759 170,-75 175.395,-71.4436 181.4,-68.4792 187.582,-66.0106"/>
<polygon fill="midnightblue" stroke="midnightblue" points="80.3313,-170.374 78.1647,-180.745 86.3258,-173.989 80.3313,-170.374"/>
</g>
<!-- Node11 -->
<g id="node21" class="node"><title>Node11</title>
<a xlink:href="a00036.html#aa7503a3cb8d529a880597b1f355fa7cb" target="_top" xlink:title="Water class constructor. ">
<polygon fill="white" stroke="black" points="176.5,-0 176.5,-24 309.5,-24 309.5,-0 176.5,-0"/>
<text text-anchor="middle" x="243" y="-11" font-family="Helvetica,sans-Serif" font-size="10.00">world.scenery.Water.Water</text>
</a>
</g>
<!-- Node1&#45;&gt;Node11 -->
<g id="edge20" class="edge"><title>Node1&#45;&gt;Node11</title>
<path fill="none" stroke="midnightblue" d="M77.3633,-171.398C92.0837,-133.671 122.639,-69.0383 170,-33 174.618,-29.4863 179.805,-26.56 185.229,-24.1231"/>
<polygon fill="midnightblue" stroke="midnightblue" points="74.0607,-170.236 73.7956,-180.828 80.6078,-172.713 74.0607,-170.236"/>
</g>
</g>
</svg>
