<?xml version="1.0" encoding="UTF-8" standalone="no"?>
<!DOCTYPE svg PUBLIC "-//W3C//DTD SVG 1.1//EN"
 "http://www.w3.org/Graphics/SVG/1.1/DTD/svg11.dtd">
<!-- Generated by graphviz version 2.26.3 (20100126.1600)
 -->
<!-- Title: gameplay.ai.AI.newSlavery Pages: 1 -->
<svg width="348pt" height="148pt"
 viewBox="0.00 0.00 348.00 148.00" xmlns="http://www.w3.org/2000/svg" xmlns:xlink="http://www.w3.org/1999/xlink">
<g id="graph1" class="graph" transform="scale(1 1) rotate(0) translate(4 144)">
<title>gameplay.ai.AI.newSlavery</title>
<polygon fill="white" stroke="white" points="-4,5 -4,-144 345,-144 345,5 -4,5"/>
<!-- Node1 -->
<g id="node1" class="node"><title>Node1</title>
<polygon fill="#bfbfbf" stroke="black" points="0.5,-66 0.5,-90 135.5,-90 135.5,-66 0.5,-66"/>
<text text-anchor="middle" x="68" y="-77" font-family="Helvetica,sans-Serif" font-size="10.00">gameplay.ai.AI.newSlavery</text>
</g>
<!-- Node2 -->
<g id="node3" class="node"><title>Node2</title>
<a xlink:href="a00001.html#adbb46250627224cb4cd42ad99eaf42ba" target="_top" xlink:title="Change the current mood field from a Class object. ">
<polygon fill="white" stroke="black" points="186,-116 186,-140 326,-140 326,-116 186,-116"/>
<text text-anchor="middle" x="256" y="-127" font-family="Helvetica,sans-Serif" font-size="10.00">gameplay.ai.AI.changeMood</text>
</a>
</g>
<!-- Node1&#45;&gt;Node2 -->
<g id="edge2" class="edge"><title>Node1&#45;&gt;Node2</title>
<path fill="none" stroke="midnightblue" d="M110.182,-90.0403C129.06,-95.3571 151.613,-101.61 172,-107 180.043,-109.126 188.534,-111.315 196.904,-113.439"/>
<polygon fill="midnightblue" stroke="midnightblue" points="196.087,-116.843 206.64,-115.896 197.8,-110.055 196.087,-116.843"/>
</g>
<!-- Node3 -->
<g id="node5" class="node"><title>Node3</title>
<a xlink:href="a00015.html#aceaadc827da68781c215cf280a8062f8" target="_top" xlink:title="When the slavery threshold is exceeded, this function is called and return a new mood given their pro...">
<polygon fill="white" stroke="black" points="186.5,-58 186.5,-98 325.5,-98 325.5,-58 186.5,-58"/>
<text text-anchor="start" x="194.5" y="-85" font-family="Helvetica,sans-Serif" font-size="10.00">gameplay.ai.mood.Mood.get</text>
<text text-anchor="middle" x="256" y="-69" font-family="Helvetica,sans-Serif" font-size="10.00">PreviousMood</text>
</a>
</g>
<!-- Node1&#45;&gt;Node3 -->
<g id="edge4" class="edge"><title>Node1&#45;&gt;Node3</title>
<path fill="none" stroke="midnightblue" d="M135.607,-78C148.777,-78 162.699,-78 176.22,-78"/>
<polygon fill="midnightblue" stroke="midnightblue" points="176.462,-81.5001 186.462,-78 176.462,-74.5001 176.462,-81.5001"/>
</g>
<!-- Node4 -->
<g id="node7" class="node"><title>Node4</title>
<a xlink:href="a00015.html#ac416312a82ad5afce4090858b47b0c96" target="_top" xlink:title="Increment and return the slavery count field. ">
<polygon fill="white" stroke="black" points="172,-0 172,-40 340,-40 340,-0 172,-0"/>
<text text-anchor="start" x="180" y="-27" font-family="Helvetica,sans-Serif" font-size="10.00">gameplay.ai.mood.Mood.increment</text>
<text text-anchor="middle" x="256" y="-11" font-family="Helvetica,sans-Serif" font-size="10.00">SlaveryCount</text>
</a>
</g>
<!-- Node1&#45;&gt;Node4 -->
<g id="edge6" class="edge"><title>Node1&#45;&gt;Node4</title>
<path fill="none" stroke="midnightblue" d="M106.954,-65.9824C128.412,-59.3624 155.778,-50.9195 181.19,-43.0796"/>
<polygon fill="midnightblue" stroke="midnightblue" points="182.294,-46.402 190.818,-40.1095 180.23,-39.7131 182.294,-46.402"/>
</g>
</g>
</svg>
