<?xml version="1.0" encoding="UTF-8" standalone="no"?>
<!DOCTYPE svg PUBLIC "-//W3C//DTD SVG 1.1//EN"
 "http://www.w3.org/Graphics/SVG/1.1/DTD/svg11.dtd">
<!-- Generated by graphviz version 2.26.3 (20100126.1600)
 -->
<!-- Title: gameplay.ai.mood.PowerComplex Pages: 1 -->
<svg width="172pt" height="400pt"
 viewBox="0.00 0.00 172.00 400.00" xmlns="http://www.w3.org/2000/svg" xmlns:xlink="http://www.w3.org/1999/xlink">
<g id="graph1" class="graph" transform="scale(1 1) rotate(0) translate(4 396)">
<title>gameplay.ai.mood.PowerComplex</title>
<polygon fill="white" stroke="white" points="-4,5 -4,-396 169,-396 169,5 -4,5"/>
<!-- Node1 -->
<g id="node1" class="node"><title>Node1</title>
<polygon fill="#bfbfbf" stroke="black" points="-0.5,-1 -0.5,-73 164.5,-73 164.5,-1 -0.5,-1"/>
<text text-anchor="middle" x="82" y="-60" font-family="Helvetica,sans-Serif" font-size="10.00">gameplay.ai.mood.PowerComplex</text>
<polyline fill="none" stroke="black" points="-0.5,-49 164.5,-49 "/>
<text text-anchor="middle" x="82" y="-36" font-family="Helvetica,sans-Serif" font-size="10.00"> </text>
<polyline fill="none" stroke="black" points="-0.5,-25 164.5,-25 "/>
<text text-anchor="start" x="7.5" y="-12" font-family="Helvetica,sans-Serif" font-size="10.00">+ PowerComplex()</text>
</g>
<!-- Node2 -->
<g id="node2" class="node"><title>Node2</title>
<a xlink:href="a00015.html" target="_top" xlink:title="Abstract class representing an AI mood. ">
<polygon fill="white" stroke="black" points="7,-111 7,-391 157,-391 157,-111 7,-111"/>
<text text-anchor="middle" x="82" y="-378" font-family="Helvetica,sans-Serif" font-size="10.00">gameplay.ai.mood.Mood</text>
<polyline fill="none" stroke="black" points="7,-367 157,-367 "/>
<text text-anchor="start" x="15" y="-354" font-family="Helvetica,sans-Serif" font-size="10.00"># betrayalThreshold</text>
<text text-anchor="start" x="15" y="-338" font-family="Helvetica,sans-Serif" font-size="10.00"># slaveryThreshold</text>
<text text-anchor="start" x="15" y="-322" font-family="Helvetica,sans-Serif" font-size="10.00"># moodsBetrayalCount</text>
<text text-anchor="start" x="15" y="-306" font-family="Helvetica,sans-Serif" font-size="10.00"># moodsSlaveryCount</text>
<text text-anchor="start" x="15" y="-290" font-family="Helvetica,sans-Serif" font-size="10.00"># nextMoods</text>
<text text-anchor="start" x="15" y="-274" font-family="Helvetica,sans-Serif" font-size="10.00"># previousMoods</text>
<polyline fill="none" stroke="black" points="7,-263 157,-263 "/>
<text text-anchor="start" x="15" y="-250" font-family="Helvetica,sans-Serif" font-size="10.00">+ Mood()</text>
<text text-anchor="start" x="15" y="-234" font-family="Helvetica,sans-Serif" font-size="10.00">+ getBetrayalThreshold()</text>
<text text-anchor="start" x="15" y="-218" font-family="Helvetica,sans-Serif" font-size="10.00">+ getSlaveryThreshold()</text>
<text text-anchor="start" x="15" y="-202" font-family="Helvetica,sans-Serif" font-size="10.00">+ getMoodsBetrayalCount()</text>
<text text-anchor="start" x="15" y="-186" font-family="Helvetica,sans-Serif" font-size="10.00">+ getMoodsSlaveryThreshold()</text>
<text text-anchor="start" x="15" y="-170" font-family="Helvetica,sans-Serif" font-size="10.00">+ incrementBetrayalCount()</text>
<text text-anchor="start" x="15" y="-154" font-family="Helvetica,sans-Serif" font-size="10.00">+ incrementSlaveryCount()</text>
<text text-anchor="start" x="15" y="-138" font-family="Helvetica,sans-Serif" font-size="10.00">+ getNextMood()</text>
<text text-anchor="start" x="15" y="-122" font-family="Helvetica,sans-Serif" font-size="10.00">+ getPreviousMood()</text>
</a>
</g>
<!-- Node2&#45;&gt;Node1 -->
<g id="edge2" class="edge"><title>Node2&#45;&gt;Node1</title>
<path fill="none" stroke="midnightblue" d="M82,-100.799C82,-90.835 82,-81.472 82,-73.148"/>
<polygon fill="none" stroke="midnightblue" points="78.5001,-100.946 82,-110.946 85.5001,-100.946 78.5001,-100.946"/>
</g>
</g>
</svg>
