<?xml version="1.0" encoding="UTF-8" standalone="no"?>
<!DOCTYPE svg PUBLIC "-//W3C//DTD SVG 1.1//EN"
 "http://www.w3.org/Graphics/SVG/1.1/DTD/svg11.dtd">
<!-- Generated by graphviz version 2.26.3 (20100126.1600)
 -->
<!-- Title: gameplay.ai.mood.Curiosity Pages: 1 -->
<svg width="158pt" height="528pt"
 viewBox="0.00 0.00 158.00 528.00" xmlns="http://www.w3.org/2000/svg" xmlns:xlink="http://www.w3.org/1999/xlink">
<g id="graph1" class="graph" transform="scale(1 1) rotate(0) translate(4 524)">
<title>gameplay.ai.mood.Curiosity</title>
<polygon fill="white" stroke="white" points="-4,5 -4,-524 155,-524 155,5 -4,5"/>
<!-- Node1 -->
<g id="node1" class="node"><title>Node1</title>
<polygon fill="#bfbfbf" stroke="black" points="6.5,-1 6.5,-73 143.5,-73 143.5,-1 6.5,-1"/>
<text text-anchor="middle" x="75" y="-60" font-family="Helvetica,sans-Serif" font-size="10.00">gameplay.ai.mood.Curiosity</text>
<polyline fill="none" stroke="black" points="6.5,-49 143.5,-49 "/>
<text text-anchor="middle" x="75" y="-36" font-family="Helvetica,sans-Serif" font-size="10.00"> </text>
<polyline fill="none" stroke="black" points="6.5,-25 143.5,-25 "/>
<text text-anchor="start" x="14.5" y="-12" font-family="Helvetica,sans-Serif" font-size="10.00">+ Curiosity()</text>
</g>
<!-- Node2 -->
<g id="node2" class="node"><title>Node2</title>
<a xlink:href="a00015.html" target="_top" xlink:title="Abstract class representing an AI mood. ">
<polygon fill="white" stroke="black" points="0,-113 0,-361 150,-361 150,-113 0,-113"/>
<text text-anchor="middle" x="75" y="-348" font-family="Helvetica,sans-Serif" font-size="10.00">gameplay.ai.mood.Mood</text>
<polyline fill="none" stroke="black" points="0,-337 150,-337 "/>
<text text-anchor="start" x="8" y="-324" font-family="Helvetica,sans-Serif" font-size="10.00"># betrayalThreshold</text>
<text text-anchor="start" x="8" y="-308" font-family="Helvetica,sans-Serif" font-size="10.00"># slaveryThreshold</text>
<text text-anchor="start" x="8" y="-292" font-family="Helvetica,sans-Serif" font-size="10.00"># moodsBetrayalCount</text>
<text text-anchor="start" x="8" y="-276" font-family="Helvetica,sans-Serif" font-size="10.00"># moodsSlaveryCount</text>
<polyline fill="none" stroke="black" points="0,-265 150,-265 "/>
<text text-anchor="start" x="8" y="-252" font-family="Helvetica,sans-Serif" font-size="10.00">+ Mood()</text>
<text text-anchor="start" x="8" y="-236" font-family="Helvetica,sans-Serif" font-size="10.00">+ getBetrayalThreshold()</text>
<text text-anchor="start" x="8" y="-220" font-family="Helvetica,sans-Serif" font-size="10.00">+ getSlaveryThreshold()</text>
<text text-anchor="start" x="8" y="-204" font-family="Helvetica,sans-Serif" font-size="10.00">+ getMoodsBetrayalCount()</text>
<text text-anchor="start" x="8" y="-188" font-family="Helvetica,sans-Serif" font-size="10.00">+ getMoodsSlaveryThreshold()</text>
<text text-anchor="start" x="8" y="-172" font-family="Helvetica,sans-Serif" font-size="10.00">+ incrementBetrayalCount()</text>
<text text-anchor="start" x="8" y="-156" font-family="Helvetica,sans-Serif" font-size="10.00">+ incrementSlaveryCount()</text>
<text text-anchor="start" x="8" y="-140" font-family="Helvetica,sans-Serif" font-size="10.00">+ getNextMood()</text>
<text text-anchor="start" x="8" y="-124" font-family="Helvetica,sans-Serif" font-size="10.00">+ getPreviousMood()</text>
</a>
</g>
<!-- Node2&#45;&gt;Node1 -->
<g id="edge2" class="edge"><title>Node2&#45;&gt;Node1</title>
<path fill="none" stroke="midnightblue" d="M75,-102.619C75,-92.0653 75,-82.0938 75,-73.2601"/>
<polygon fill="none" stroke="midnightblue" points="71.5001,-102.897 75,-112.897 78.5001,-102.897 71.5001,-102.897"/>
</g>
<!-- Node3 -->
<g id="node4" class="node"><title>Node3</title>
<polygon fill="white" stroke="#bfbfbf" points="2,-431 2,-519 148,-519 148,-431 2,-431"/>
<text text-anchor="start" x="10" y="-506" font-family="Helvetica,sans-Serif" font-size="10.00">HashSet&lt; gameplay.ai.mood.</text>
<text text-anchor="middle" x="75" y="-490" font-family="Helvetica,sans-Serif" font-size="10.00">ProbabilityMood &gt;</text>
<polyline fill="none" stroke="#bfbfbf" points="2,-479 148,-479 "/>
<text text-anchor="middle" x="75" y="-466" font-family="Helvetica,sans-Serif" font-size="10.00"> </text>
<polyline fill="none" stroke="#bfbfbf" points="2,-455 148,-455 "/>
<text text-anchor="middle" x="75" y="-442" font-family="Helvetica,sans-Serif" font-size="10.00"> </text>
</g>
<!-- Node3&#45;&gt;Node2 -->
<g id="edge4" class="edge"><title>Node3&#45;&gt;Node2</title>
<path fill="none" stroke="#404040" d="M75,-430.792C75,-414.104 75,-394.117 75,-373.41"/>
<polygon fill="none" stroke="#404040" points="75.0001,-373.155 71,-367.155 75,-361.155 79,-367.155 75.0001,-373.155"/>
<text text-anchor="middle" x="111" y="-403" font-family="Helvetica,sans-Serif" font-size="10.00"> #nextMoods</text>
<text text-anchor="middle" x="111" y="-387" font-family="Helvetica,sans-Serif" font-size="10.00">#previousMoods</text>
</g>
</g>
</svg>
