<?xml version="1.0" encoding="UTF-8" standalone="no"?>
<!DOCTYPE svg PUBLIC "-//W3C//DTD SVG 1.1//EN"
 "http://www.w3.org/Graphics/SVG/1.1/DTD/svg11.dtd">
<!-- Generated by graphviz version 2.26.3 (20100126.1600)
 -->
<!-- Title: world.World Pages: 1 -->
<svg width="126pt" height="622pt"
 viewBox="0.00 0.00 126.00 622.00" xmlns="http://www.w3.org/2000/svg" xmlns:xlink="http://www.w3.org/1999/xlink">
<g id="graph1" class="graph" transform="scale(1 1) rotate(0) translate(4 618)">
<title>world.World</title>
<polygon fill="white" stroke="white" points="-4,5 -4,-618 123,-618 123,5 -4,5"/>
<!-- Node1 -->
<g id="node1" class="node"><title>Node1</title>
<polygon fill="#bfbfbf" stroke="black" points="11,-1 11,-185 105,-185 105,-1 11,-1"/>
<text text-anchor="middle" x="58" y="-172" font-family="Helvetica,sans-Serif" font-size="10.00">world.World</text>
<polyline fill="none" stroke="black" points="11,-161 105,-161 "/>
<text text-anchor="start" x="19" y="-148" font-family="Helvetica,sans-Serif" font-size="10.00"># sizeX</text>
<text text-anchor="start" x="19" y="-132" font-family="Helvetica,sans-Serif" font-size="10.00"># sizeY</text>
<text text-anchor="start" x="19" y="-116" font-family="Helvetica,sans-Serif" font-size="10.00"># type</text>
<polyline fill="none" stroke="black" points="11,-105 105,-105 "/>
<text text-anchor="start" x="19" y="-92" font-family="Helvetica,sans-Serif" font-size="10.00">+ World()</text>
<text text-anchor="start" x="19" y="-76" font-family="Helvetica,sans-Serif" font-size="10.00">+ World()</text>
<text text-anchor="start" x="19" y="-60" font-family="Helvetica,sans-Serif" font-size="10.00">+ getSizeX()</text>
<text text-anchor="start" x="19" y="-44" font-family="Helvetica,sans-Serif" font-size="10.00">+ getSizeY()</text>
<text text-anchor="start" x="19" y="-28" font-family="Helvetica,sans-Serif" font-size="10.00">+ getMap()</text>
<text text-anchor="start" x="19" y="-12" font-family="Helvetica,sans-Serif" font-size="10.00"># generateWorld()</text>
</g>
<!-- Node2 -->
<g id="node2" class="node"><title>Node2</title>
<a xlink:href="a00024.html" target="_top" xlink:title="Class used to handle any world object. ">
<polygon fill="white" stroke="black" points="-0.5,-239 -0.5,-487 116.5,-487 116.5,-239 -0.5,-239"/>
<text text-anchor="middle" x="58" y="-474" font-family="Helvetica,sans-Serif" font-size="10.00">world.scenery.Scenery</text>
<polyline fill="none" stroke="black" points="-0.5,-463 116.5,-463 "/>
<text text-anchor="start" x="7.5" y="-450" font-family="Helvetica,sans-Serif" font-size="10.00"># height</text>
<text text-anchor="start" x="7.5" y="-434" font-family="Helvetica,sans-Serif" font-size="10.00"># width</text>
<text text-anchor="start" x="7.5" y="-418" font-family="Helvetica,sans-Serif" font-size="10.00"># xShift</text>
<text text-anchor="start" x="7.5" y="-402" font-family="Helvetica,sans-Serif" font-size="10.00"># yShift</text>
<text text-anchor="start" x="7.5" y="-386" font-family="Helvetica,sans-Serif" font-size="10.00"># visible</text>
<text text-anchor="start" x="7.5" y="-370" font-family="Helvetica,sans-Serif" font-size="10.00"># SCENERY_HEIGHT</text>
<text text-anchor="start" x="7.5" y="-354" font-family="Helvetica,sans-Serif" font-size="10.00"># SCENERY_WIDTH</text>
<polyline fill="none" stroke="black" points="-0.5,-343 116.5,-343 "/>
<text text-anchor="start" x="7.5" y="-330" font-family="Helvetica,sans-Serif" font-size="10.00">+ Scenery()</text>
<text text-anchor="start" x="7.5" y="-314" font-family="Helvetica,sans-Serif" font-size="10.00">+ Scenery()</text>
<text text-anchor="start" x="7.5" y="-298" font-family="Helvetica,sans-Serif" font-size="10.00">+ Scenery()</text>
<text text-anchor="start" x="7.5" y="-282" font-family="Helvetica,sans-Serif" font-size="10.00">+ drawScenery()</text>
<text text-anchor="start" x="7.5" y="-266" font-family="Helvetica,sans-Serif" font-size="10.00">+ getSceneryHeight()</text>
<text text-anchor="start" x="7.5" y="-250" font-family="Helvetica,sans-Serif" font-size="10.00">+ getSceneryWidth()</text>
</a>
</g>
<!-- Node2&#45;&gt;Node1 -->
<g id="edge2" class="edge"><title>Node2&#45;&gt;Node1</title>
<path fill="none" stroke="#404040" d="M58,-238.669C58,-224.893 58,-210.969 58,-197.474"/>
<polygon fill="none" stroke="#404040" points="58.0001,-197.218 54,-191.218 58,-185.218 62,-191.218 58.0001,-197.218"/>
<text text-anchor="middle" x="72" y="-211" font-family="Helvetica,sans-Serif" font-size="10.00"> #map</text>
</g>
<!-- Node3 -->
<g id="node4" class="node"><title>Node3</title>
<polygon fill="white" stroke="#bfbfbf" points="36,-541 36,-613 80,-613 80,-541 36,-541"/>
<text text-anchor="middle" x="58" y="-600" font-family="Helvetica,sans-Serif" font-size="10.00">Image</text>
<polyline fill="none" stroke="#bfbfbf" points="36,-589 80,-589 "/>
<text text-anchor="middle" x="58" y="-576" font-family="Helvetica,sans-Serif" font-size="10.00"> </text>
<polyline fill="none" stroke="#bfbfbf" points="36,-565 80,-565 "/>
<text text-anchor="middle" x="58" y="-552" font-family="Helvetica,sans-Serif" font-size="10.00"> </text>
</g>
<!-- Node3&#45;&gt;Node2 -->
<g id="edge4" class="edge"><title>Node3&#45;&gt;Node2</title>
<path fill="none" stroke="#404040" d="M58,-540.698C58,-528.654 58,-514.447 58,-499.398"/>
<polygon fill="none" stroke="#404040" points="58.0001,-499.175 54,-493.175 58,-487.175 62,-493.175 58.0001,-499.175"/>
<text text-anchor="middle" x="88" y="-513" font-family="Helvetica,sans-Serif" font-size="10.00"> #spriteImage</text>
</g>
</g>
</svg>
