<?xml version="1.0" encoding="UTF-8" standalone="no"?>
<!DOCTYPE svg PUBLIC "-//W3C//DTD SVG 1.1//EN"
 "http://www.w3.org/Graphics/SVG/1.1/DTD/svg11.dtd">
<!-- Generated by graphviz version 2.26.3 (20100126.1600)
 -->
<!-- Title: world.scenery.Tree Pages: 1 -->
<svg width="1536pt" height="464pt"
 viewBox="0.00 0.00 1536.00 464.00" xmlns="http://www.w3.org/2000/svg" xmlns:xlink="http://www.w3.org/1999/xlink">
<g id="graph1" class="graph" transform="scale(1 1) rotate(0) translate(4 460)">
<title>world.scenery.Tree</title>
<polygon fill="white" stroke="white" points="-4,5 -4,-460 1533,-460 1533,5 -4,5"/>
<!-- Node1 -->
<g id="node1" class="node"><title>Node1</title>
<polygon fill="#bfbfbf" stroke="black" points="699,-1 699,-153 797,-153 797,-1 699,-1"/>
<text text-anchor="middle" x="748" y="-140" font-family="Helvetica,sans-Serif" font-size="10.00">world.scenery.Tree</text>
<polyline fill="none" stroke="black" points="699,-129 797,-129 "/>
<text text-anchor="middle" x="748" y="-116" font-family="Helvetica,sans-Serif" font-size="10.00"> </text>
<polyline fill="none" stroke="black" points="699,-105 797,-105 "/>
<text text-anchor="start" x="707" y="-92" font-family="Helvetica,sans-Serif" font-size="10.00">+ Tree()</text>
<text text-anchor="start" x="707" y="-76" font-family="Helvetica,sans-Serif" font-size="10.00">+ triggerAction()</text>
<text text-anchor="start" x="707" y="-60" font-family="Helvetica,sans-Serif" font-size="10.00">+ playerNear()</text>
<text text-anchor="start" x="707" y="-44" font-family="Helvetica,sans-Serif" font-size="10.00">+ playerEnter()</text>
<text text-anchor="start" x="707" y="-28" font-family="Helvetica,sans-Serif" font-size="10.00">+ playerLeave()</text>
<text text-anchor="start" x="707" y="-12" font-family="Helvetica,sans-Serif" font-size="10.00">+ isTraversable()</text>
</g>
<!-- Node2 -->
<g id="node2" class="node"><title>Node2</title>
<a xlink:href="a00024.html" target="_top" xlink:title="Class used to handle any world object. ">
<polygon fill="white" stroke="black" points="-0.5,-191 -0.5,-455 116.5,-455 116.5,-191 -0.5,-191"/>
<text text-anchor="middle" x="58" y="-442" font-family="Helvetica,sans-Serif" font-size="10.00">world.scenery.Scenery</text>
<polyline fill="none" stroke="black" points="-0.5,-431 116.5,-431 "/>
<text text-anchor="start" x="7.5" y="-418" font-family="Helvetica,sans-Serif" font-size="10.00"># spriteImage</text>
<text text-anchor="start" x="7.5" y="-402" font-family="Helvetica,sans-Serif" font-size="10.00"># height</text>
<text text-anchor="start" x="7.5" y="-386" font-family="Helvetica,sans-Serif" font-size="10.00"># width</text>
<text text-anchor="start" x="7.5" y="-370" font-family="Helvetica,sans-Serif" font-size="10.00"># xShift</text>
<text text-anchor="start" x="7.5" y="-354" font-family="Helvetica,sans-Serif" font-size="10.00"># yShift</text>
<text text-anchor="start" x="7.5" y="-338" font-family="Helvetica,sans-Serif" font-size="10.00"># visible</text>
<text text-anchor="start" x="7.5" y="-322" font-family="Helvetica,sans-Serif" font-size="10.00"># SCENERY_HEIGHT</text>
<text text-anchor="start" x="7.5" y="-306" font-family="Helvetica,sans-Serif" font-size="10.00"># SCENERY_WIDTH</text>
<polyline fill="none" stroke="black" points="-0.5,-295 116.5,-295 "/>
<text text-anchor="start" x="7.5" y="-282" font-family="Helvetica,sans-Serif" font-size="10.00">+ Scenery()</text>
<text text-anchor="start" x="7.5" y="-266" font-family="Helvetica,sans-Serif" font-size="10.00">+ Scenery()</text>
<text text-anchor="start" x="7.5" y="-250" font-family="Helvetica,sans-Serif" font-size="10.00">+ Scenery()</text>
<text text-anchor="start" x="7.5" y="-234" font-family="Helvetica,sans-Serif" font-size="10.00">+ drawScenery()</text>
<text text-anchor="start" x="7.5" y="-218" font-family="Helvetica,sans-Serif" font-size="10.00">+ getSceneryHeight()</text>
<text text-anchor="start" x="7.5" y="-202" font-family="Helvetica,sans-Serif" font-size="10.00">+ getSceneryWidth()</text>
</a>
</g>
<!-- Node2&#45;&gt;Node1 -->
<g id="edge2" class="edge"><title>Node2&#45;&gt;Node1</title>
<path fill="none" stroke="midnightblue" d="M124.458,-190.408C124.638,-190.271 124.819,-190.135 125,-190 216.244,-121.811 568.068,-89.9688 698.755,-80.3143"/>
<polygon fill="none" stroke="midnightblue" points="122.06,-187.851 116.648,-196.959 126.559,-193.214 122.06,-187.851"/>
</g>
<!-- Node3 -->
<g id="node4" class="node"><title>Node3</title>
<a xlink:href="a00014.html" target="_top" xlink:title="Interface telling that the object interacts with the player. ">
<polygon fill="white" stroke="black" points="133.5,-255 133.5,-391 250.5,-391 250.5,-255 133.5,-255"/>
<text text-anchor="middle" x="192" y="-378" font-family="Helvetica,sans-Serif" font-size="10.00">world.InteractiveObject</text>
<polyline fill="none" stroke="black" points="133.5,-367 250.5,-367 "/>
<text text-anchor="middle" x="192" y="-354" font-family="Helvetica,sans-Serif" font-size="10.00"> </text>
<polyline fill="none" stroke="black" points="133.5,-343 250.5,-343 "/>
<text text-anchor="start" x="141.5" y="-330" font-family="Helvetica,sans-Serif" font-size="10.00">+ triggerAction()</text>
<text text-anchor="start" x="141.5" y="-314" font-family="Helvetica,sans-Serif" font-size="10.00">+ playerNear()</text>
<text text-anchor="start" x="141.5" y="-298" font-family="Helvetica,sans-Serif" font-size="10.00">+ playerEnter()</text>
<text text-anchor="start" x="141.5" y="-282" font-family="Helvetica,sans-Serif" font-size="10.00">+ playerLeave()</text>
<text text-anchor="start" x="141.5" y="-266" font-family="Helvetica,sans-Serif" font-size="10.00">+ isTraversable()</text>
</a>
</g>
<!-- Node3&#45;&gt;Node1 -->
<g id="edge4" class="edge"><title>Node3&#45;&gt;Node1</title>
<path fill="none" stroke="midnightblue" d="M216.987,-245.691C227.068,-224.947 240.754,-204.326 259,-190 327.704,-136.057 588.746,-97.2955 698.703,-83.0243"/>
<polygon fill="none" stroke="midnightblue" points="213.755,-244.341 212.745,-254.888 220.111,-247.273 213.755,-244.341"/>
</g>
<!-- Node4 -->
<g id="node6" class="node"><title>Node4</title>
<a xlink:href="a00030.html" target="_top" xlink:title="Interface used to define that a Scenery object have a Temperate Broadleaf style. ">
<polygon fill="white" stroke="black" points="267.5,-279 267.5,-367 434.5,-367 434.5,-279 267.5,-279"/>
<text text-anchor="start" x="275.5" y="-354" font-family="Helvetica,sans-Serif" font-size="10.00">world.scenery.TemperateBroadleaf</text>
<text text-anchor="middle" x="351" y="-338" font-family="Helvetica,sans-Serif" font-size="10.00">Theme</text>
<polyline fill="none" stroke="black" points="267.5,-327 434.5,-327 "/>
<text text-anchor="start" x="275.5" y="-314" font-family="Helvetica,sans-Serif" font-size="10.00">+ TEMPERATE_BROADLEAF</text>
<polyline fill="none" stroke="black" points="267.5,-303 434.5,-303 "/>
<text text-anchor="middle" x="351" y="-290" font-family="Helvetica,sans-Serif" font-size="10.00"> </text>
</a>
</g>
<!-- Node4&#45;&gt;Node1 -->
<g id="edge6" class="edge"><title>Node4&#45;&gt;Node1</title>
<path fill="none" stroke="midnightblue" d="M377.574,-269.812C393.389,-242.754 415.704,-211.194 443,-190 520.942,-129.48 634.595,-98.9301 698.886,-85.634"/>
<polygon fill="none" stroke="midnightblue" points="374.366,-268.372 372.462,-278.794 380.45,-271.834 374.366,-268.372"/>
</g>
<!-- Node5 -->
<g id="node8" class="node"><title>Node5</title>
<a xlink:href="a00028.html" target="_top" xlink:title="Interface used to define that a Scenery object have a Taiga style. ">
<polygon fill="white" stroke="black" points="451.5,-287 451.5,-359 584.5,-359 584.5,-287 451.5,-287"/>
<text text-anchor="middle" x="518" y="-346" font-family="Helvetica,sans-Serif" font-size="10.00">world.scenery.TaigaTheme</text>
<polyline fill="none" stroke="black" points="451.5,-335 584.5,-335 "/>
<text text-anchor="start" x="459.5" y="-322" font-family="Helvetica,sans-Serif" font-size="10.00">+ TAIGA</text>
<polyline fill="none" stroke="black" points="451.5,-311 584.5,-311 "/>
<text text-anchor="middle" x="518" y="-298" font-family="Helvetica,sans-Serif" font-size="10.00"> </text>
</a>
</g>
<!-- Node5&#45;&gt;Node1 -->
<g id="edge8" class="edge"><title>Node5&#45;&gt;Node1</title>
<path fill="none" stroke="midnightblue" d="M537.656,-277.424C550.803,-250.187 569.907,-215.953 593,-190 623.439,-155.792 665.895,-125.732 698.678,-105.232"/>
<polygon fill="none" stroke="midnightblue" points="534.362,-276.204 533.257,-286.741 540.692,-279.192 534.362,-276.204"/>
</g>
<!-- Node6 -->
<g id="node10" class="node"><title>Node6</title>
<a xlink:href="a00002.html" target="_top" xlink:title="Interface used to define that a Scenery object have an Alpine Tundra style. ">
<polygon fill="white" stroke="black" points="602,-279 602,-367 738,-367 738,-279 602,-279"/>
<text text-anchor="start" x="610" y="-354" font-family="Helvetica,sans-Serif" font-size="10.00">world.scenery.AlpineTundra</text>
<text text-anchor="middle" x="670" y="-338" font-family="Helvetica,sans-Serif" font-size="10.00">Theme</text>
<polyline fill="none" stroke="black" points="602,-327 738,-327 "/>
<text text-anchor="start" x="610" y="-314" font-family="Helvetica,sans-Serif" font-size="10.00">+ ALPINE_TUNDRA</text>
<polyline fill="none" stroke="black" points="602,-303 738,-303 "/>
<text text-anchor="middle" x="670" y="-290" font-family="Helvetica,sans-Serif" font-size="10.00"> </text>
</a>
</g>
<!-- Node6&#45;&gt;Node1 -->
<g id="edge10" class="edge"><title>Node6&#45;&gt;Node1</title>
<path fill="none" stroke="midnightblue" d="M687.121,-269.004C697.882,-235.064 711.93,-190.761 723.819,-153.264"/>
<polygon fill="none" stroke="midnightblue" points="683.721,-268.146 684.035,-278.736 690.394,-270.262 683.721,-268.146"/>
</g>
<!-- Node7 -->
<g id="node12" class="node"><title>Node7</title>
<a xlink:href="a00027.html" target="_top" xlink:title="Interface used to define that a Scenery object have a Steppe style. ">
<polygon fill="white" stroke="black" points="756,-287 756,-359 896,-359 896,-287 756,-287"/>
<text text-anchor="middle" x="826" y="-346" font-family="Helvetica,sans-Serif" font-size="10.00">world.scenery.SteppeTheme</text>
<polyline fill="none" stroke="black" points="756,-335 896,-335 "/>
<text text-anchor="start" x="764" y="-322" font-family="Helvetica,sans-Serif" font-size="10.00">+ STEPPE</text>
<polyline fill="none" stroke="black" points="756,-311 896,-311 "/>
<text text-anchor="middle" x="826" y="-298" font-family="Helvetica,sans-Serif" font-size="10.00"> </text>
</a>
</g>
<!-- Node7&#45;&gt;Node1 -->
<g id="edge12" class="edge"><title>Node7&#45;&gt;Node1</title>
<path fill="none" stroke="midnightblue" d="M811.439,-277.078C800.398,-242.255 784.979,-193.625 772.107,-153.029"/>
<polygon fill="none" stroke="midnightblue" points="808.216,-278.492 814.575,-286.966 814.888,-276.376 808.216,-278.492"/>
</g>
<!-- Node8 -->
<g id="node14" class="node"><title>Node8</title>
<a xlink:href="a00004.html" target="_top" xlink:title="Interface used to tell that a Scenery object has a Cave style. ">
<polygon fill="white" stroke="black" points="913.5,-287 913.5,-359 1046.5,-359 1046.5,-287 913.5,-287"/>
<text text-anchor="middle" x="980" y="-346" font-family="Helvetica,sans-Serif" font-size="10.00">world.scenery.CaveTheme</text>
<polyline fill="none" stroke="black" points="913.5,-335 1046.5,-335 "/>
<text text-anchor="start" x="921.5" y="-322" font-family="Helvetica,sans-Serif" font-size="10.00">+ CAVE</text>
<polyline fill="none" stroke="black" points="913.5,-311 1046.5,-311 "/>
<text text-anchor="middle" x="980" y="-298" font-family="Helvetica,sans-Serif" font-size="10.00"> </text>
</a>
</g>
<!-- Node8&#45;&gt;Node1 -->
<g id="edge14" class="edge"><title>Node8&#45;&gt;Node1</title>
<path fill="none" stroke="midnightblue" d="M960.534,-277.652C947.404,-250.352 928.251,-215.97 905,-190 873.975,-155.346 830.567,-125.114 797.255,-104.662"/>
<polygon fill="none" stroke="midnightblue" points="957.502,-279.428 964.925,-286.988 963.836,-276.449 957.502,-279.428"/>
</g>
<!-- Node9 -->
<g id="node16" class="node"><title>Node9</title>
<a xlink:href="a00019.html" target="_top" xlink:title="Interface used to define that a Scenery object has a Polar Desert style. ">
<polygon fill="white" stroke="black" points="1063.5,-279 1063.5,-367 1194.5,-367 1194.5,-279 1063.5,-279"/>
<text text-anchor="start" x="1071.5" y="-354" font-family="Helvetica,sans-Serif" font-size="10.00">world.scenery.PolarDesert</text>
<text text-anchor="middle" x="1129" y="-338" font-family="Helvetica,sans-Serif" font-size="10.00">Theme</text>
<polyline fill="none" stroke="black" points="1063.5,-327 1194.5,-327 "/>
<text text-anchor="start" x="1071.5" y="-314" font-family="Helvetica,sans-Serif" font-size="10.00">+ POLAR_DESERT</text>
<polyline fill="none" stroke="black" points="1063.5,-303 1194.5,-303 "/>
<text text-anchor="middle" x="1129" y="-290" font-family="Helvetica,sans-Serif" font-size="10.00"> </text>
</a>
</g>
<!-- Node9&#45;&gt;Node1 -->
<g id="edge16" class="edge"><title>Node9&#45;&gt;Node1</title>
<path fill="none" stroke="midnightblue" d="M1109.7,-269.421C1097.61,-242.431 1079.6,-211.056 1055,-190 979.165,-125.097 862.761,-96.0506 797.234,-84.2174"/>
<polygon fill="none" stroke="midnightblue" points="1106.55,-270.965 1113.72,-278.761 1112.98,-268.192 1106.55,-270.965"/>
</g>
<!-- Node10 -->
<g id="node18" class="node"><title>Node10</title>
<a xlink:href="a00040.html" target="_top" xlink:title="Interface used to define that a Scenery object have a Xeric Shrublands style. ">
<polygon fill="white" stroke="black" points="1211.5,-279 1211.5,-367 1362.5,-367 1362.5,-279 1211.5,-279"/>
<text text-anchor="start" x="1219.5" y="-354" font-family="Helvetica,sans-Serif" font-size="10.00">world.scenery.XericShrublands</text>
<text text-anchor="middle" x="1287" y="-338" font-family="Helvetica,sans-Serif" font-size="10.00">Theme</text>
<polyline fill="none" stroke="black" points="1211.5,-327 1362.5,-327 "/>
<text text-anchor="start" x="1219.5" y="-314" font-family="Helvetica,sans-Serif" font-size="10.00">+ XERIC_SHRUBLANDS</text>
<polyline fill="none" stroke="black" points="1211.5,-303 1362.5,-303 "/>
<text text-anchor="middle" x="1287" y="-290" font-family="Helvetica,sans-Serif" font-size="10.00"> </text>
</a>
</g>
<!-- Node10&#45;&gt;Node1 -->
<g id="edge18" class="edge"><title>Node10&#45;&gt;Node1</title>
<path fill="none" stroke="midnightblue" d="M1265.23,-269.785C1251.31,-242.104 1230.65,-209.968 1203,-190 1137.59,-142.764 900.619,-100.921 797.031,-84.4456"/>
<polygon fill="none" stroke="midnightblue" points="1262.17,-271.509 1269.69,-278.978 1268.47,-268.453 1262.17,-271.509"/>
</g>
<!-- Node11 -->
<g id="node20" class="node"><title>Node11</title>
<a xlink:href="a00023.html" target="_top" xlink:title="Interface used to define that a Scenery object have a Savanna style. ">
<polygon fill="white" stroke="black" points="1380,-287 1380,-359 1528,-359 1528,-287 1380,-287"/>
<text text-anchor="middle" x="1454" y="-346" font-family="Helvetica,sans-Serif" font-size="10.00">world.scenery.SavannaTheme</text>
<polyline fill="none" stroke="black" points="1380,-335 1528,-335 "/>
<text text-anchor="start" x="1388" y="-322" font-family="Helvetica,sans-Serif" font-size="10.00">+ SAVANNA</text>
<polyline fill="none" stroke="black" points="1380,-311 1528,-311 "/>
<text text-anchor="middle" x="1454" y="-298" font-family="Helvetica,sans-Serif" font-size="10.00"> </text>
</a>
</g>
<!-- Node11&#45;&gt;Node1 -->
<g id="edge20" class="edge"><title>Node11&#45;&gt;Node1</title>
<path fill="none" stroke="midnightblue" d="M1437.05,-277.466C1423.65,-247.879 1401.99,-211.029 1371,-190 1276.85,-126.121 927.627,-91.6644 797.388,-80.8141"/>
<polygon fill="none" stroke="midnightblue" points="1433.91,-279.018 1441.11,-286.787 1440.33,-276.222 1433.91,-279.018"/>
</g>
</g>
</svg>
