<?xml version="1.0" encoding="UTF-8" standalone="no"?>
<!DOCTYPE svg PUBLIC "-//W3C//DTD SVG 1.1//EN"
 "http://www.w3.org/Graphics/SVG/1.1/DTD/svg11.dtd">
<!-- Generated by graphviz version 2.26.3 (20100126.1600)
 -->
<!-- Title: world.scenery.CaveTheme Pages: 1 -->
<svg width="476pt" height="272pt"
 viewBox="0.00 0.00 476.00 272.00" xmlns="http://www.w3.org/2000/svg" xmlns:xlink="http://www.w3.org/1999/xlink">
<g id="graph1" class="graph" transform="scale(1 1) rotate(0) translate(4 268)">
<title>world.scenery.CaveTheme</title>
<polygon fill="white" stroke="white" points="-4,5 -4,-268 473,-268 473,5 -4,5"/>
<!-- Node1 -->
<g id="node1" class="node"><title>Node1</title>
<polygon fill="#bfbfbf" stroke="black" points="172.5,-191 172.5,-263 305.5,-263 305.5,-191 172.5,-191"/>
<text text-anchor="middle" x="239" y="-250" font-family="Helvetica,sans-Serif" font-size="10.00">world.scenery.CaveTheme</text>
<polyline fill="none" stroke="black" points="172.5,-239 305.5,-239 "/>
<text text-anchor="start" x="180.5" y="-226" font-family="Helvetica,sans-Serif" font-size="10.00">+ CAVE</text>
<polyline fill="none" stroke="black" points="172.5,-215 305.5,-215 "/>
<text text-anchor="middle" x="239" y="-202" font-family="Helvetica,sans-Serif" font-size="10.00"> </text>
</g>
<!-- Node2 -->
<g id="node3" class="node"><title>Node2</title>
<a xlink:href="a00012.html" target="_top" xlink:title="Class used to handle a ground object. ">
<polygon fill="white" stroke="black" points="-0.5,-41 -0.5,-113 110.5,-113 110.5,-41 -0.5,-41"/>
<text text-anchor="middle" x="55" y="-100" font-family="Helvetica,sans-Serif" font-size="10.00">world.scenery.Ground</text>
<polyline fill="none" stroke="black" points="-0.5,-89 110.5,-89 "/>
<text text-anchor="middle" x="55" y="-76" font-family="Helvetica,sans-Serif" font-size="10.00"> </text>
<polyline fill="none" stroke="black" points="-0.5,-65 110.5,-65 "/>
<text text-anchor="start" x="7.5" y="-52" font-family="Helvetica,sans-Serif" font-size="10.00">+ Ground()</text>
</a>
</g>
<!-- Node1&#45;&gt;Node2 -->
<g id="edge2" class="edge"><title>Node1&#45;&gt;Node2</title>
<path fill="none" stroke="midnightblue" d="M163.891,-186.58C148.379,-176.811 132.63,-165.761 119,-154 105.181,-142.076 91.9318,-126.98 81.1091,-113.32"/>
<polygon fill="none" stroke="midnightblue" points="162.121,-189.6 172.47,-191.872 165.796,-183.643 162.121,-189.6"/>
</g>
<!-- Node3 -->
<g id="node5" class="node"><title>Node3</title>
<a xlink:href="a00022.html" target="_top" xlink:title="Class used to handle a rock object. ">
<polygon fill="white" stroke="black" points="127.5,-1 127.5,-153 230.5,-153 230.5,-1 127.5,-1"/>
<text text-anchor="middle" x="179" y="-140" font-family="Helvetica,sans-Serif" font-size="10.00">world.scenery.Rock</text>
<polyline fill="none" stroke="black" points="127.5,-129 230.5,-129 "/>
<text text-anchor="middle" x="179" y="-116" font-family="Helvetica,sans-Serif" font-size="10.00"> </text>
<polyline fill="none" stroke="black" points="127.5,-105 230.5,-105 "/>
<text text-anchor="start" x="135.5" y="-92" font-family="Helvetica,sans-Serif" font-size="10.00">+ Rock()</text>
<text text-anchor="start" x="135.5" y="-76" font-family="Helvetica,sans-Serif" font-size="10.00">+ triggerAction()</text>
<text text-anchor="start" x="135.5" y="-60" font-family="Helvetica,sans-Serif" font-size="10.00">+ playerNear()</text>
<text text-anchor="start" x="135.5" y="-44" font-family="Helvetica,sans-Serif" font-size="10.00">+ playerEnter()</text>
<text text-anchor="start" x="135.5" y="-28" font-family="Helvetica,sans-Serif" font-size="10.00">+ playerLeave()</text>
<text text-anchor="start" x="135.5" y="-12" font-family="Helvetica,sans-Serif" font-size="10.00">+ isTraversable()</text>
</a>
</g>
<!-- Node1&#45;&gt;Node3 -->
<g id="edge4" class="edge"><title>Node1&#45;&gt;Node3</title>
<path fill="none" stroke="midnightblue" d="M220.7,-181.249C217.113,-172.282 213.261,-162.653 209.401,-153.002"/>
<polygon fill="none" stroke="midnightblue" points="217.512,-182.704 224.476,-190.689 224.011,-180.105 217.512,-182.704"/>
</g>
<!-- Node4 -->
<g id="node7" class="node"><title>Node4</title>
<a xlink:href="a00026.html" target="_top" xlink:title="Class used to handle a shrub object. ">
<polygon fill="white" stroke="black" points="247.5,-41 247.5,-113 352.5,-113 352.5,-41 247.5,-41"/>
<text text-anchor="middle" x="300" y="-100" font-family="Helvetica,sans-Serif" font-size="10.00">world.scenery.Shrub</text>
<polyline fill="none" stroke="black" points="247.5,-89 352.5,-89 "/>
<text text-anchor="middle" x="300" y="-76" font-family="Helvetica,sans-Serif" font-size="10.00"> </text>
<polyline fill="none" stroke="black" points="247.5,-65 352.5,-65 "/>
<text text-anchor="start" x="255.5" y="-52" font-family="Helvetica,sans-Serif" font-size="10.00">+ Shrub()</text>
</a>
</g>
<!-- Node1&#45;&gt;Node4 -->
<g id="edge6" class="edge"><title>Node1&#45;&gt;Node4</title>
<path fill="none" stroke="midnightblue" d="M257.591,-181.285C266.47,-159.452 276.946,-133.691 285.264,-113.236"/>
<polygon fill="none" stroke="midnightblue" points="254.291,-180.107 253.766,-190.689 260.776,-182.744 254.291,-180.107"/>
</g>
<!-- Node5 -->
<g id="node9" class="node"><title>Node5</title>
<a xlink:href="a00033.html" target="_top" xlink:title="Class used to handle a tree object. ">
<polygon fill="white" stroke="black" points="370,-1 370,-153 468,-153 468,-1 370,-1"/>
<text text-anchor="middle" x="419" y="-140" font-family="Helvetica,sans-Serif" font-size="10.00">world.scenery.Tree</text>
<polyline fill="none" stroke="black" points="370,-129 468,-129 "/>
<text text-anchor="middle" x="419" y="-116" font-family="Helvetica,sans-Serif" font-size="10.00"> </text>
<polyline fill="none" stroke="black" points="370,-105 468,-105 "/>
<text text-anchor="start" x="378" y="-92" font-family="Helvetica,sans-Serif" font-size="10.00">+ Tree()</text>
<text text-anchor="start" x="378" y="-76" font-family="Helvetica,sans-Serif" font-size="10.00">+ triggerAction()</text>
<text text-anchor="start" x="378" y="-60" font-family="Helvetica,sans-Serif" font-size="10.00">+ playerNear()</text>
<text text-anchor="start" x="378" y="-44" font-family="Helvetica,sans-Serif" font-size="10.00">+ playerEnter()</text>
<text text-anchor="start" x="378" y="-28" font-family="Helvetica,sans-Serif" font-size="10.00">+ playerLeave()</text>
<text text-anchor="start" x="378" y="-12" font-family="Helvetica,sans-Serif" font-size="10.00">+ isTraversable()</text>
</a>
</g>
<!-- Node1&#45;&gt;Node5 -->
<g id="edge8" class="edge"><title>Node1&#45;&gt;Node5</title>
<path fill="none" stroke="midnightblue" d="M314.476,-188.056C330.656,-178.05 347.061,-166.53 361,-154 363.987,-151.315 366.924,-148.456 369.794,-145.481"/>
<polygon fill="none" stroke="midnightblue" points="312.28,-185.293 305.527,-193.457 315.897,-191.287 312.28,-185.293"/>
</g>
</g>
</svg>
