<?xml version="1.0" encoding="UTF-8" standalone="no"?>
<!DOCTYPE svg PUBLIC "-//W3C//DTD SVG 1.1//EN"
 "http://www.w3.org/Graphics/SVG/1.1/DTD/svg11.dtd">
<!-- Generated by graphviz version 2.26.3 (20100126.1600)
 -->
<!-- Title: world.character.TalkingCharacter Pages: 1 -->
<!--zoomable 750 -->
<svg id="main" version="1.1" xmlns="http://www.w3.org/2000/svg" xmlns:xlink="http://www.w3.org/1999/xlink" xml:space="preserve" onload="init(evt)">
<style type="text/css"><![CDATA[
.edge:hover path { stroke: red; }
.edge:hover polygon { stroke: red; fill: red; }
]]></style>
<script type="text/javascript"><![CDATA[
var edges = document.getElementsByTagName('g');
if (edges && edges.length) {
  for (var i=0;i<edges.length;i++) {
    if (edges[i].id.substr(0,4)=='edge') {
      edges[i].setAttribute('class','edge');
    }
  }
}
]]></script>
        <defs>
                <circle id="rim" cx="0" cy="0" r="7"/>
                <circle id="rim2" cx="0" cy="0" r="3.5"/>
                <g id="zoomPlus">
                        <use xlink:href="#rim" fill="#404040">
                                <set attributeName="fill" to="#808080" begin="zoomplus.mouseover" end="zoomplus.mouseout"/>
                        </use>
                        <path d="M-4,0h8M0,-4v8" fill="none" stroke="white" stroke-width="1.5" pointer-events="none"/>
                </g>
                <g id="zoomMin">
                        <use xlink:href="#rim" fill="#404040">
                                <set attributeName="fill" to="#808080" begin="zoomminus.mouseover" end="zoomminus.mouseout"/>
                        </use>
                        <path d="M-4,0h8" fill="none" stroke="white" stroke-width="1.5" pointer-events="none"/>
                </g>
                <g id="dirArrow">
                        <path fill="none" stroke="white" stroke-width="1.5" d="M0,-3.0v7 M-2.5,-0.5L0,-3.0L2.5,-0.5"/>
                </g>
               <g id="resetDef">
                       <use xlink:href="#rim2" fill="#404040">
                               <set attributeName="fill" to="#808080" begin="reset.mouseover" end="reset.mouseout"/>
                       </use>
               </g>
        </defs>

<script type="text/javascript">
var viewWidth = 258;
var viewHeight = 750;
var sectionId = 'dynsection-0';
</script>
<script xlink:href="svgpan.js"/>
<svg id="graph" class="graph">
<g id="viewport">
<title>world.character.TalkingCharacter</title>
<polygon fill="white" stroke="white" points="-4,5 -4,-746 255,-746 255,5 -4,5"/>
<!-- Node1 -->
<g id="node1" class="node"><title>Node1</title>
<polygon fill="#bfbfbf" stroke="black" points="45.5,-1 45.5,-105 204.5,-105 204.5,-1 45.5,-1"/>
<text text-anchor="middle" x="125" y="-92" font-family="Helvetica,sans-Serif" font-size="10.00">world.character.TalkingCharacter</text>
<polyline fill="none" stroke="black" points="45.5,-81 204.5,-81 "/>
<text text-anchor="middle" x="125" y="-68" font-family="Helvetica,sans-Serif" font-size="10.00"> </text>
<polyline fill="none" stroke="black" points="45.5,-57 204.5,-57 "/>
<text text-anchor="start" x="53.5" y="-44" font-family="Helvetica,sans-Serif" font-size="10.00">+ TalkingCharacter()</text>
<text text-anchor="start" x="53.5" y="-28" font-family="Helvetica,sans-Serif" font-size="10.00">+ talk()</text>
<text text-anchor="start" x="53.5" y="-12" font-family="Helvetica,sans-Serif" font-size="10.00">+ triggerAction()</text>
</g>
<!-- Node2 -->
<g id="node2" class="node"><title>Node2</title>
<a xlink:href="classworld_1_1character_1_1_character.html" target="_top" xlink:title="Class used to handle a character (player or non&#45;player) ">
<polygon fill="white" stroke="black" points="59,-143 59,-439 191,-439 191,-143 59,-143"/>
<text text-anchor="middle" x="125" y="-426" font-family="Helvetica,sans-Serif" font-size="10.00">world.character.Character</text>
<polyline fill="none" stroke="black" points="59,-415 191,-415 "/>
<text text-anchor="start" x="67" y="-402" font-family="Helvetica,sans-Serif" font-size="10.00"># posX</text>
<text text-anchor="start" x="67" y="-386" font-family="Helvetica,sans-Serif" font-size="10.00"># posY</text>
<text text-anchor="start" x="67" y="-370" font-family="Helvetica,sans-Serif" font-size="10.00"># CHARACTER_HEIGHT</text>
<text text-anchor="start" x="67" y="-354" font-family="Helvetica,sans-Serif" font-size="10.00"># CHARACTER_WIDTH</text>
<polyline fill="none" stroke="black" points="59,-343 191,-343 "/>
<text text-anchor="start" x="67" y="-330" font-family="Helvetica,sans-Serif" font-size="10.00">+ Character()</text>
<text text-anchor="start" x="67" y="-314" font-family="Helvetica,sans-Serif" font-size="10.00">+ jumpX()</text>
<text text-anchor="start" x="67" y="-298" font-family="Helvetica,sans-Serif" font-size="10.00">+ jumpY()</text>
<text text-anchor="start" x="67" y="-282" font-family="Helvetica,sans-Serif" font-size="10.00">+ jump()</text>
<text text-anchor="start" x="67" y="-266" font-family="Helvetica,sans-Serif" font-size="10.00">+ moveX()</text>
<text text-anchor="start" x="67" y="-250" font-family="Helvetica,sans-Serif" font-size="10.00">+ moveY()</text>
<text text-anchor="start" x="67" y="-234" font-family="Helvetica,sans-Serif" font-size="10.00">+ move()</text>
<text text-anchor="start" x="67" y="-218" font-family="Helvetica,sans-Serif" font-size="10.00">+ triggerAction()</text>
<text text-anchor="start" x="67" y="-202" font-family="Helvetica,sans-Serif" font-size="10.00">+ playerNear()</text>
<text text-anchor="start" x="67" y="-186" font-family="Helvetica,sans-Serif" font-size="10.00">+ playerEnter()</text>
<text text-anchor="start" x="67" y="-170" font-family="Helvetica,sans-Serif" font-size="10.00">+ playerLeave()</text>
<text text-anchor="start" x="67" y="-154" font-family="Helvetica,sans-Serif" font-size="10.00">+ isTraversable()</text>
</a>
</g>
<!-- Node2&#45;&gt;Node1 -->
<g id="edge2" class="edge"><title>Node2&#45;&gt;Node1</title>
<path fill="none" stroke="midnightblue" d="M125,-132.713C125,-122.988 125,-113.657 125,-105.023"/>
<polygon fill="none" stroke="midnightblue" points="121.5,-132.978 125,-142.978 128.5,-132.978 121.5,-132.978"/>
</g>
<!-- Node3 -->
<g id="node4" class="node"><title>Node3</title>
<a xlink:href="classworld_1_1scenery_1_1_scenery.html" target="_top" xlink:title="Class used to handle any world object. ">
<polygon fill="white" stroke="black" points="-0.5,-477 -0.5,-741 116.5,-741 116.5,-477 -0.5,-477"/>
<text text-anchor="middle" x="58" y="-728" font-family="Helvetica,sans-Serif" font-size="10.00">world.scenery.Scenery</text>
<polyline fill="none" stroke="black" points="-0.5,-717 116.5,-717 "/>
<text text-anchor="start" x="7.5" y="-704" font-family="Helvetica,sans-Serif" font-size="10.00"># spriteImage</text>
<text text-anchor="start" x="7.5" y="-688" font-family="Helvetica,sans-Serif" font-size="10.00"># height</text>
<text text-anchor="start" x="7.5" y="-672" font-family="Helvetica,sans-Serif" font-size="10.00"># width</text>
<text text-anchor="start" x="7.5" y="-656" font-family="Helvetica,sans-Serif" font-size="10.00"># xShift</text>
<text text-anchor="start" x="7.5" y="-640" font-family="Helvetica,sans-Serif" font-size="10.00"># yShift</text>
<text text-anchor="start" x="7.5" y="-624" font-family="Helvetica,sans-Serif" font-size="10.00"># visible</text>
<text text-anchor="start" x="7.5" y="-608" font-family="Helvetica,sans-Serif" font-size="10.00"># SCENERY_HEIGHT</text>
<text text-anchor="start" x="7.5" y="-592" font-family="Helvetica,sans-Serif" font-size="10.00"># SCENERY_WIDTH</text>
<polyline fill="none" stroke="black" points="-0.5,-581 116.5,-581 "/>
<text text-anchor="start" x="7.5" y="-568" font-family="Helvetica,sans-Serif" font-size="10.00">+ Scenery()</text>
<text text-anchor="start" x="7.5" y="-552" font-family="Helvetica,sans-Serif" font-size="10.00">+ Scenery()</text>
<text text-anchor="start" x="7.5" y="-536" font-family="Helvetica,sans-Serif" font-size="10.00">+ Scenery()</text>
<text text-anchor="start" x="7.5" y="-520" font-family="Helvetica,sans-Serif" font-size="10.00">+ drawScenery()</text>
<text text-anchor="start" x="7.5" y="-504" font-family="Helvetica,sans-Serif" font-size="10.00">+ getSceneryHeight()</text>
<text text-anchor="start" x="7.5" y="-488" font-family="Helvetica,sans-Serif" font-size="10.00">+ getSceneryWidth()</text>
</a>
</g>
<!-- Node3&#45;&gt;Node2 -->
<g id="edge4" class="edge"><title>Node3&#45;&gt;Node2</title>
<path fill="none" stroke="midnightblue" d="M87.9323,-466.933C89.8749,-457.713 91.8337,-448.416 93.7822,-439.168"/>
<polygon fill="none" stroke="midnightblue" points="84.4689,-466.395 85.832,-476.902 91.3185,-467.838 84.4689,-466.395"/>
</g>
<!-- Node4 -->
<g id="node6" class="node"><title>Node4</title>
<a xlink:href="interfaceworld_1_1_interactive_object.html" target="_top" xlink:title="{world.InteractiveObject\n||+ triggerAction()\l+ playerNear()\l+ playerEnter()\l+ playerLeave()\l+ isTraversable()\l}">
<polygon fill="white" stroke="black" points="133.5,-541 133.5,-677 250.5,-677 250.5,-541 133.5,-541"/>
<text text-anchor="middle" x="192" y="-664" font-family="Helvetica,sans-Serif" font-size="10.00">world.InteractiveObject</text>
<polyline fill="none" stroke="black" points="133.5,-653 250.5,-653 "/>
<text text-anchor="middle" x="192" y="-640" font-family="Helvetica,sans-Serif" font-size="10.00"> </text>
<polyline fill="none" stroke="black" points="133.5,-629 250.5,-629 "/>
<text text-anchor="start" x="141.5" y="-616" font-family="Helvetica,sans-Serif" font-size="10.00">+ triggerAction()</text>
<text text-anchor="start" x="141.5" y="-600" font-family="Helvetica,sans-Serif" font-size="10.00">+ playerNear()</text>
<text text-anchor="start" x="141.5" y="-584" font-family="Helvetica,sans-Serif" font-size="10.00">+ playerEnter()</text>
<text text-anchor="start" x="141.5" y="-568" font-family="Helvetica,sans-Serif" font-size="10.00">+ playerLeave()</text>
<text text-anchor="start" x="141.5" y="-552" font-family="Helvetica,sans-Serif" font-size="10.00">+ isTraversable()</text>
</a>
</g>
<!-- Node4&#45;&gt;Node2 -->
<g id="edge6" class="edge"><title>Node4&#45;&gt;Node2</title>
<path fill="none" stroke="midnightblue" d="M175.517,-530.769C169.671,-503.021 162.883,-470.804 156.216,-439.162"/>
<polygon fill="none" stroke="midnightblue" points="172.14,-531.717 177.627,-540.781 178.99,-530.274 172.14,-531.717"/>
</g>
</g>
</svg>
        <g id="navigator" transform="translate(0 0)" fill="#404254">
                <rect fill="#f2f5e9" fill-opacity="0.5" stroke="#606060" stroke-width=".5" x="0" y="0" width="60" height="60"/>
                <use id="zoomplus" xlink:href="#zoomPlus" x="17" y="9" onmousedown="handleZoom(evt,'in')"/>
                <use id="zoomminus" xlink:href="#zoomMin" x="42" y="9" onmousedown="handleZoom(evt,'out')"/>
                <use id="reset" xlink:href="#resetDef" x="30" y="36" onmousedown="handleReset()"/>
                <g id="arrowUp" xlink:href="#dirArrow" transform="translate(30 24)" onmousedown="handlePan(0,-1)">
                  <use xlink:href="#rim" fill="#404040">
                        <set attributeName="fill" to="#808080" begin="arrowUp.mouseover" end="arrowUp.mouseout"/>
                  </use>
                  <path fill="none" stroke="white" stroke-width="1.5" d="M0,-3.0v7 M-2.5,-0.5L0,-3.0L2.5,-0.5"/>
                </g>
                <g id="arrowRight" xlink:href="#dirArrow" transform="rotate(90) translate(36 -43)" onmousedown="handlePan(1,0)">
                  <use xlink:href="#rim" fill="#404040">
                        <set attributeName="fill" to="#808080" begin="arrowRight.mouseover" end="arrowRight.mouseout"/>
                  </use>
                  <path fill="none" stroke="white" stroke-width="1.5" d="M0,-3.0v7 M-2.5,-0.5L0,-3.0L2.5,-0.5"/>
                </g>
                <g id="arrowDown" xlink:href="#dirArrow" transform="rotate(180) translate(-30 -48)" onmousedown="handlePan(0,1)">
                  <use xlink:href="#rim" fill="#404040">
                        <set attributeName="fill" to="#808080" begin="arrowDown.mouseover" end="arrowDown.mouseout"/>
                  </use>
                  <path fill="none" stroke="white" stroke-width="1.5" d="M0,-3.0v7 M-2.5,-0.5L0,-3.0L2.5,-0.5"/>
                </g>
                <g id="arrowLeft" xlink:href="#dirArrow" transform="rotate(270) translate(-36 17)" onmousedown="handlePan(-1,0)">
                  <use xlink:href="#rim" fill="#404040">
                        <set attributeName="fill" to="#808080" begin="arrowLeft.mouseover" end="arrowLeft.mouseout"/>
                  </use>
                  <path fill="none" stroke="white" stroke-width="1.5" d="M0,-3.0v7 M-2.5,-0.5L0,-3.0L2.5,-0.5"/>
                </g>
        </g>
        <svg viewBox="0 0 15 15" width="100%" height="30px" preserveAspectRatio="xMaxYMin meet">
         <g id="arrow_out" transform="scale(0.3 0.3)">
          <a xlink:href="classworld_1_1character_1_1_talking_character__inherit__graph_org.svg" target="_base">
           <rect id="button" ry="5" rx="5" y="6" x="6" height="38" width="38"
                fill="#f2f5e9" fill-opacity="0.5" stroke="#606060" stroke-width="1.0"/>
           <path id="arrow"
             d="M 11.500037,31.436501 C 11.940474,20.09759 22.043105,11.32322 32.158766,21.979434 L 37.068811,17.246167 C 37.068811,17.246167 37.088388,32 37.088388,32 L 22.160133,31.978069 C 22.160133,31.978069 26.997745,27.140456 26.997745,27.140456 C 18.528582,18.264221 13.291696,25.230495 11.500037,31.436501 z"
             style="fill:#404040;"/>
          </a>
         </g>
        </svg>
</svg>
