<?xml version="1.0" encoding="UTF-8" standalone="no"?>
<!DOCTYPE svg PUBLIC "-//W3C//DTD SVG 1.1//EN"
 "http://www.w3.org/Graphics/SVG/1.1/DTD/svg11.dtd">
<!-- Generated by graphviz version 2.26.3 (20100126.1600)
 -->
<!-- Title: window.Window Pages: 1 -->
<!--zoomable 1066 -->
<svg id="main" version="1.1" xmlns="http://www.w3.org/2000/svg" xmlns:xlink="http://www.w3.org/1999/xlink" xml:space="preserve" onload="init(evt)">
<style type="text/css"><![CDATA[
.edge:hover path { stroke: red; }
.edge:hover polygon { stroke: red; fill: red; }
]]></style>
<script type="text/javascript"><![CDATA[
var edges = document.getElementsByTagName('g');
if (edges && edges.length) {
  for (var i=0;i<edges.length;i++) {
    if (edges[i].id.substr(0,4)=='edge') {
      edges[i].setAttribute('class','edge');
    }
  }
}
]]></script>
        <defs>
                <circle id="rim" cx="0" cy="0" r="7"/>
                <circle id="rim2" cx="0" cy="0" r="3.5"/>
                <g id="zoomPlus">
                        <use xlink:href="#rim" fill="#404040">
                                <set attributeName="fill" to="#808080" begin="zoomplus.mouseover" end="zoomplus.mouseout"/>
                        </use>
                        <path d="M-4,0h8M0,-4v8" fill="none" stroke="white" stroke-width="1.5" pointer-events="none"/>
                </g>
                <g id="zoomMin">
                        <use xlink:href="#rim" fill="#404040">
                                <set attributeName="fill" to="#808080" begin="zoomminus.mouseover" end="zoomminus.mouseout"/>
                        </use>
                        <path d="M-4,0h8" fill="none" stroke="white" stroke-width="1.5" pointer-events="none"/>
                </g>
                <g id="dirArrow">
                        <path fill="none" stroke="white" stroke-width="1.5" d="M0,-3.0v7 M-2.5,-0.5L0,-3.0L2.5,-0.5"/>
                </g>
               <g id="resetDef">
                       <use xlink:href="#rim2" fill="#404040">
                               <set attributeName="fill" to="#808080" begin="reset.mouseover" end="reset.mouseout"/>
                       </use>
               </g>
        </defs>

<script type="text/javascript">
var viewWidth = 495;
var viewHeight = 1066;
var sectionId = 'dynsection-1';
</script>
<script xlink:href="svgpan.js"/>
<svg id="graph" class="graph">
<g id="viewport">
<title>window.Window</title>
<polygon fill="white" stroke="white" points="-4,5 -4,-1062 492,-1062 492,5 -4,5"/>
<!-- Node1 -->
<g id="node1" class="node"><title>Node1</title>
<polygon fill="#bfbfbf" stroke="black" points="125,-1 125,-153 229,-153 229,-1 125,-1"/>
<text text-anchor="middle" x="177" y="-140" font-family="Helvetica,sans-Serif" font-size="10.00">window.Window</text>
<polyline fill="none" stroke="black" points="125,-129 229,-129 "/>
<text text-anchor="middle" x="177" y="-116" font-family="Helvetica,sans-Serif" font-size="10.00"> </text>
<polyline fill="none" stroke="black" points="125,-105 229,-105 "/>
<text text-anchor="start" x="133" y="-92" font-family="Helvetica,sans-Serif" font-size="10.00">+ Window()</text>
<text text-anchor="start" x="133" y="-76" font-family="Helvetica,sans-Serif" font-size="10.00">+ setLoadingState()</text>
<text text-anchor="start" x="133" y="-60" font-family="Helvetica,sans-Serif" font-size="10.00">+ setGameState()</text>
<text text-anchor="start" x="133" y="-44" font-family="Helvetica,sans-Serif" font-size="10.00">+ setFailState()</text>
<text text-anchor="start" x="133" y="-28" font-family="Helvetica,sans-Serif" font-size="10.00">+ setWinState()</text>
<text text-anchor="start" x="133" y="-12" font-family="Helvetica,sans-Serif" font-size="10.00">+ getUserInterface()</text>
</g>
<!-- Node2 -->
<g id="node2" class="node"><title>Node2</title>
<polygon fill="white" stroke="#bfbfbf" points="0,-255 0,-327 50,-327 50,-255 0,-255"/>
<text text-anchor="middle" x="25" y="-314" font-family="Helvetica,sans-Serif" font-size="10.00">JFrame</text>
<polyline fill="none" stroke="#bfbfbf" points="0,-303 50,-303 "/>
<text text-anchor="middle" x="25" y="-290" font-family="Helvetica,sans-Serif" font-size="10.00"> </text>
<polyline fill="none" stroke="#bfbfbf" points="0,-279 50,-279 "/>
<text text-anchor="middle" x="25" y="-266" font-family="Helvetica,sans-Serif" font-size="10.00"> </text>
</g>
<!-- Node2&#45;&gt;Node1 -->
<g id="edge2" class="edge"><title>Node2&#45;&gt;Node1</title>
<path fill="none" stroke="midnightblue" d="M39.7311,-245.466C44.9148,-232.255 51.3827,-218.131 59,-206 77.2389,-176.954 102.367,-148.415 124.749,-125.596"/>
<polygon fill="none" stroke="midnightblue" points="36.4338,-244.291 36.1854,-254.883 42.9848,-246.757 36.4338,-244.291"/>
</g>
<!-- Node3 -->
<g id="node4" class="node"><title>Node3</title>
<a xlink:href="enumwindow_1_1_window_state.html" target="_top" xlink:title="Enumeration of the possible states of the displayed graphics. ">
<polygon fill="white" stroke="black" points="68,-223 68,-359 178,-359 178,-223 68,-223"/>
<text text-anchor="middle" x="123" y="-346" font-family="Helvetica,sans-Serif" font-size="10.00">window.WindowState</text>
<polyline fill="none" stroke="black" points="68,-335 178,-335 "/>
<text text-anchor="start" x="76" y="-322" font-family="Helvetica,sans-Serif" font-size="10.00">+ FirstLoading</text>
<text text-anchor="start" x="76" y="-306" font-family="Helvetica,sans-Serif" font-size="10.00">+ Game</text>
<text text-anchor="start" x="76" y="-290" font-family="Helvetica,sans-Serif" font-size="10.00">+ LoadingScreen</text>
<text text-anchor="start" x="76" y="-274" font-family="Helvetica,sans-Serif" font-size="10.00">+ Win</text>
<text text-anchor="start" x="76" y="-258" font-family="Helvetica,sans-Serif" font-size="10.00">+ Fail</text>
<polyline fill="none" stroke="black" points="68,-247 178,-247 "/>
<text text-anchor="middle" x="123" y="-234" font-family="Helvetica,sans-Serif" font-size="10.00"> </text>
</a>
</g>
<!-- Node3&#45;&gt;Node1 -->
<g id="edge4" class="edge"><title>Node3&#45;&gt;Node1</title>
<path fill="none" stroke="#404040" d="M133.082,-222.944C136.094,-206.176 139.748,-188.344 144,-172 144.627,-169.591 145.286,-167.155 145.972,-164.704"/>
<polygon fill="none" stroke="#404040" points="145.982,-164.669 143.833,-157.786 149.36,-153.154 151.509,-160.038 145.982,-164.669"/>
<text text-anchor="middle" x="176.5" y="-179" font-family="Helvetica,sans-Serif" font-size="10.00"> #windowState</text>
</g>
<!-- Node4 -->
<g id="node6" class="node"><title>Node4</title>
<a xlink:href="classwindow_1_1topbar_1_1_top_bar.html" target="_top" xlink:title="Class handling the top bar of the program&#39;s main window. ">
<polygon fill="white" stroke="black" points="196,-207 196,-375 308,-375 308,-207 196,-207"/>
<text text-anchor="middle" x="252" y="-362" font-family="Helvetica,sans-Serif" font-size="10.00">window.topbar.TopBar</text>
<polyline fill="none" stroke="black" points="196,-351 308,-351 "/>
<text text-anchor="start" x="204" y="-338" font-family="Helvetica,sans-Serif" font-size="10.00"># TOPBAR_HEIGHT</text>
<text text-anchor="start" x="204" y="-322" font-family="Helvetica,sans-Serif" font-size="10.00"># TOPBAR_MARGIN</text>
<polyline fill="none" stroke="black" points="196,-311 308,-311 "/>
<text text-anchor="start" x="204" y="-298" font-family="Helvetica,sans-Serif" font-size="10.00">+ TopBar()</text>
<text text-anchor="start" x="204" y="-282" font-family="Helvetica,sans-Serif" font-size="10.00">+ hidePauseButton()</text>
<text text-anchor="start" x="204" y="-266" font-family="Helvetica,sans-Serif" font-size="10.00">+ showPauseButton()</text>
<text text-anchor="start" x="204" y="-250" font-family="Helvetica,sans-Serif" font-size="10.00">+ paintComponent()</text>
<text text-anchor="start" x="204" y="-234" font-family="Helvetica,sans-Serif" font-size="10.00">+ getTopBarHeight()</text>
<text text-anchor="start" x="204" y="-218" font-family="Helvetica,sans-Serif" font-size="10.00">+ getTopBarMargin()</text>
</a>
</g>
<!-- Node4&#45;&gt;Node1 -->
<g id="edge6" class="edge"><title>Node4&#45;&gt;Node1</title>
<path fill="none" stroke="#404040" d="M222.466,-206.729C217.63,-192.931 212.609,-178.604 207.745,-164.725"/>
<polygon fill="none" stroke="#404040" points="207.672,-164.518 201.913,-160.178 203.703,-153.193 209.462,-157.532 207.672,-164.518"/>
<text text-anchor="middle" x="232" y="-179" font-family="Helvetica,sans-Serif" font-size="10.00"> #topbar</text>
</g>
<!-- Node5 -->
<g id="node8" class="node"><title>Node5</title>
<polygon fill="white" stroke="#bfbfbf" points="317.5,-501 317.5,-573 364.5,-573 364.5,-501 317.5,-501"/>
<text text-anchor="middle" x="341" y="-560" font-family="Helvetica,sans-Serif" font-size="10.00">JPanel</text>
<polyline fill="none" stroke="#bfbfbf" points="317.5,-549 364.5,-549 "/>
<text text-anchor="middle" x="341" y="-536" font-family="Helvetica,sans-Serif" font-size="10.00"> </text>
<polyline fill="none" stroke="#bfbfbf" points="317.5,-525 364.5,-525 "/>
<text text-anchor="middle" x="341" y="-512" font-family="Helvetica,sans-Serif" font-size="10.00"> </text>
</g>
<!-- Node5&#45;&gt;Node4 -->
<g id="edge8" class="edge"><title>Node5&#45;&gt;Node4</title>
<path fill="none" stroke="midnightblue" d="M329.754,-490.919C322.361,-462.6 311.878,-425.781 300,-394 297.686,-387.809 295.156,-381.475 292.506,-375.141"/>
<polygon fill="none" stroke="midnightblue" points="326.452,-492.131 332.335,-500.942 333.231,-490.385 326.452,-492.131"/>
</g>
<!-- Node9 -->
<g id="node16" class="node"><title>Node9</title>
<a xlink:href="classwindow_1_1ui_1_1_u_i.html" target="_top" xlink:title="Class used to handle the window&#39;s user interface. ">
<polygon fill="white" stroke="black" points="326,-215 326,-367 440,-367 440,-215 326,-215"/>
<text text-anchor="middle" x="383" y="-354" font-family="Helvetica,sans-Serif" font-size="10.00">window.ui.UI</text>
<polyline fill="none" stroke="black" points="326,-343 440,-343 "/>
<text text-anchor="start" x="334" y="-330" font-family="Helvetica,sans-Serif" font-size="10.00"># windowHeight</text>
<text text-anchor="start" x="334" y="-314" font-family="Helvetica,sans-Serif" font-size="10.00"># windowWidth</text>
<polyline fill="none" stroke="black" points="326,-303 440,-303 "/>
<text text-anchor="start" x="334" y="-290" font-family="Helvetica,sans-Serif" font-size="10.00">+ UI()</text>
<text text-anchor="start" x="334" y="-274" font-family="Helvetica,sans-Serif" font-size="10.00">+ UI()</text>
<text text-anchor="start" x="334" y="-258" font-family="Helvetica,sans-Serif" font-size="10.00">+ setDisplayedWorld()</text>
<text text-anchor="start" x="334" y="-242" font-family="Helvetica,sans-Serif" font-size="10.00">+ paintComponent()</text>
<text text-anchor="start" x="334" y="-226" font-family="Helvetica,sans-Serif" font-size="10.00">&#45; drawWorld()</text>
</a>
</g>
<!-- Node5&#45;&gt;Node9 -->
<g id="edge18" class="edge"><title>Node5&#45;&gt;Node9</title>
<path fill="none" stroke="midnightblue" d="M348.84,-491.078C354.786,-456.255 363.088,-407.625 370.019,-367.029"/>
<polygon fill="none" stroke="midnightblue" points="345.385,-490.52 347.152,-500.966 352.285,-491.698 345.385,-490.52"/>
</g>
<!-- Node6 -->
<g id="node10" class="node"><title>Node6</title>
<a xlink:href="classwindow_1_1topbar_1_1_top_bar_button.html" target="_top" xlink:title="Class handling the UI buttons. ">
<polygon fill="white" stroke="black" points="160,-493 160,-581 300,-581 300,-493 160,-493"/>
<text text-anchor="middle" x="230" y="-568" font-family="Helvetica,sans-Serif" font-size="10.00">window.topbar.TopBarButton</text>
<polyline fill="none" stroke="black" points="160,-557 300,-557 "/>
<text text-anchor="middle" x="230" y="-544" font-family="Helvetica,sans-Serif" font-size="10.00"> </text>
<polyline fill="none" stroke="black" points="160,-533 300,-533 "/>
<text text-anchor="start" x="168" y="-520" font-family="Helvetica,sans-Serif" font-size="10.00">+ TopBarButton()</text>
<text text-anchor="start" x="168" y="-504" font-family="Helvetica,sans-Serif" font-size="10.00">+ paintComponent()</text>
</a>
</g>
<!-- Node6&#45;&gt;Node4 -->
<g id="edge10" class="edge"><title>Node6&#45;&gt;Node4</title>
<path fill="none" stroke="#404040" d="M230.577,-492.783C231.261,-464.483 232.754,-427.013 236,-394 236.216,-391.799 236.449,-389.574 236.695,-387.332"/>
<polygon fill="none" stroke="#404040" points="236.718,-387.134 233.452,-380.705 238.13,-375.218 241.396,-381.647 236.718,-387.134"/>
<text text-anchor="middle" x="268" y="-417" font-family="Helvetica,sans-Serif" font-size="10.00"> #pauseButton</text>
<text text-anchor="middle" x="268" y="-401" font-family="Helvetica,sans-Serif" font-size="10.00">#closeButton</text>
</g>
<!-- Node7 -->
<g id="node12" class="node"><title>Node7</title>
<polygon fill="white" stroke="#bfbfbf" points="303,-771 303,-843 353,-843 353,-771 303,-771"/>
<text text-anchor="middle" x="328" y="-830" font-family="Helvetica,sans-Serif" font-size="10.00">JButton</text>
<polyline fill="none" stroke="#bfbfbf" points="303,-819 353,-819 "/>
<text text-anchor="middle" x="328" y="-806" font-family="Helvetica,sans-Serif" font-size="10.00"> </text>
<polyline fill="none" stroke="#bfbfbf" points="303,-795 353,-795 "/>
<text text-anchor="middle" x="328" y="-782" font-family="Helvetica,sans-Serif" font-size="10.00"> </text>
</g>
<!-- Node7&#45;&gt;Node6 -->
<g id="edge12" class="edge"><title>Node7&#45;&gt;Node6</title>
<path fill="none" stroke="midnightblue" d="M314.684,-761.089C307.537,-737.324 298.303,-707.932 289,-682 276.703,-647.721 261.114,-609.6 249.049,-581.05"/>
<polygon fill="none" stroke="midnightblue" points="311.399,-762.322 317.613,-770.903 318.107,-760.32 311.399,-762.322"/>
</g>
<!-- Node8 -->
<g id="node14" class="node"><title>Node8</title>
<polygon fill="white" stroke="#bfbfbf" points="260,-985 260,-1057 304,-1057 304,-985 260,-985"/>
<text text-anchor="middle" x="282" y="-1044" font-family="Helvetica,sans-Serif" font-size="10.00">Image</text>
<polyline fill="none" stroke="#bfbfbf" points="260,-1033 304,-1033 "/>
<text text-anchor="middle" x="282" y="-1020" font-family="Helvetica,sans-Serif" font-size="10.00"> </text>
<polyline fill="none" stroke="#bfbfbf" points="260,-1009 304,-1009 "/>
<text text-anchor="middle" x="282" y="-996" font-family="Helvetica,sans-Serif" font-size="10.00"> </text>
</g>
<!-- Node8&#45;&gt;Node6 -->
<g id="edge14" class="edge"><title>Node8&#45;&gt;Node6</title>
<path fill="none" stroke="#404040" d="M259.858,-991.429C248.852,-974.88 236.708,-953.332 231,-932 199.685,-814.966 211.115,-671.349 221.206,-593.574"/>
<polygon fill="none" stroke="#404040" points="221.269,-593.106 218.106,-586.626 222.872,-581.213 226.035,-587.694 221.269,-593.106"/>
<text text-anchor="middle" x="262.5" y="-806" font-family="Helvetica,sans-Serif" font-size="10.00"> #buttonImage</text>
</g>
<!-- Node11 -->
<g id="node21" class="node"><title>Node11</title>
<a xlink:href="classworld_1_1scenery_1_1_scenery.html" target="_top" xlink:title="Class used to handle any world object. ">
<polygon fill="white" stroke="black" points="370.5,-683 370.5,-931 487.5,-931 487.5,-683 370.5,-683"/>
<text text-anchor="middle" x="429" y="-918" font-family="Helvetica,sans-Serif" font-size="10.00">world.scenery.Scenery</text>
<polyline fill="none" stroke="black" points="370.5,-907 487.5,-907 "/>
<text text-anchor="start" x="378.5" y="-894" font-family="Helvetica,sans-Serif" font-size="10.00"># height</text>
<text text-anchor="start" x="378.5" y="-878" font-family="Helvetica,sans-Serif" font-size="10.00"># width</text>
<text text-anchor="start" x="378.5" y="-862" font-family="Helvetica,sans-Serif" font-size="10.00"># xShift</text>
<text text-anchor="start" x="378.5" y="-846" font-family="Helvetica,sans-Serif" font-size="10.00"># yShift</text>
<text text-anchor="start" x="378.5" y="-830" font-family="Helvetica,sans-Serif" font-size="10.00"># visible</text>
<text text-anchor="start" x="378.5" y="-814" font-family="Helvetica,sans-Serif" font-size="10.00"># SCENERY_HEIGHT</text>
<text text-anchor="start" x="378.5" y="-798" font-family="Helvetica,sans-Serif" font-size="10.00"># SCENERY_WIDTH</text>
<polyline fill="none" stroke="black" points="370.5,-787 487.5,-787 "/>
<text text-anchor="start" x="378.5" y="-774" font-family="Helvetica,sans-Serif" font-size="10.00">+ Scenery()</text>
<text text-anchor="start" x="378.5" y="-758" font-family="Helvetica,sans-Serif" font-size="10.00">+ Scenery()</text>
<text text-anchor="start" x="378.5" y="-742" font-family="Helvetica,sans-Serif" font-size="10.00">+ Scenery()</text>
<text text-anchor="start" x="378.5" y="-726" font-family="Helvetica,sans-Serif" font-size="10.00">+ drawScenery()</text>
<text text-anchor="start" x="378.5" y="-710" font-family="Helvetica,sans-Serif" font-size="10.00">+ getSceneryHeight()</text>
<text text-anchor="start" x="378.5" y="-694" font-family="Helvetica,sans-Serif" font-size="10.00">+ getSceneryWidth()</text>
</a>
</g>
<!-- Node8&#45;&gt;Node11 -->
<g id="edge24" class="edge"><title>Node8&#45;&gt;Node11</title>
<path fill="none" stroke="#404040" d="M304.315,-999.219C321.324,-981.934 344.69,-956.656 362,-932 362.531,-931.244 363.06,-930.484 363.588,-929.719"/>
<polygon fill="none" stroke="#404040" points="363.712,-929.534 363.718,-922.323 370.377,-919.555 370.371,-926.766 363.712,-929.534"/>
<text text-anchor="middle" x="378" y="-957" font-family="Helvetica,sans-Serif" font-size="10.00"> #spriteImage</text>
</g>
<!-- Node9&#45;&gt;Node1 -->
<g id="edge16" class="edge"><title>Node9&#45;&gt;Node1</title>
<path fill="none" stroke="#404040" d="M325.729,-215.798C322.826,-212.445 319.908,-209.164 317,-206 292.6,-179.451 263.569,-152.101 238.287,-129.455"/>
<polygon fill="none" stroke="#404040" points="238.124,-129.31 230.982,-128.311 229.158,-121.335 236.299,-122.334 238.124,-129.31"/>
<text text-anchor="middle" x="332" y="-179" font-family="Helvetica,sans-Serif" font-size="10.00"> #userInterface</text>
</g>
<!-- Node10 -->
<g id="node19" class="node"><title>Node10</title>
<a xlink:href="classworld_1_1_world.html" target="_top" xlink:title="World is a class used to handle the game world graphics. ">
<polygon fill="white" stroke="black" points="382,-445 382,-629 476,-629 476,-445 382,-445"/>
<text text-anchor="middle" x="429" y="-616" font-family="Helvetica,sans-Serif" font-size="10.00">world.World</text>
<polyline fill="none" stroke="black" points="382,-605 476,-605 "/>
<text text-anchor="start" x="390" y="-592" font-family="Helvetica,sans-Serif" font-size="10.00"># sizeX</text>
<text text-anchor="start" x="390" y="-576" font-family="Helvetica,sans-Serif" font-size="10.00"># sizeY</text>
<text text-anchor="start" x="390" y="-560" font-family="Helvetica,sans-Serif" font-size="10.00"># type</text>
<polyline fill="none" stroke="black" points="382,-549 476,-549 "/>
<text text-anchor="start" x="390" y="-536" font-family="Helvetica,sans-Serif" font-size="10.00">+ World()</text>
<text text-anchor="start" x="390" y="-520" font-family="Helvetica,sans-Serif" font-size="10.00">+ World()</text>
<text text-anchor="start" x="390" y="-504" font-family="Helvetica,sans-Serif" font-size="10.00">+ getSizeX()</text>
<text text-anchor="start" x="390" y="-488" font-family="Helvetica,sans-Serif" font-size="10.00">+ getSizeY()</text>
<text text-anchor="start" x="390" y="-472" font-family="Helvetica,sans-Serif" font-size="10.00">+ getMap()</text>
<text text-anchor="start" x="390" y="-456" font-family="Helvetica,sans-Serif" font-size="10.00"># generateWorld()</text>
</a>
</g>
<!-- Node10&#45;&gt;Node9 -->
<g id="edge20" class="edge"><title>Node10&#45;&gt;Node9</title>
<path fill="none" stroke="#404040" d="M411.74,-444.699C407.737,-423.287 403.485,-400.55 399.514,-379.315"/>
<polygon fill="none" stroke="#404040" points="399.482,-379.145 394.448,-373.983 397.277,-367.35 402.311,-372.512 399.482,-379.145"/>
<text text-anchor="middle" x="445" y="-409" font-family="Helvetica,sans-Serif" font-size="10.00"> #displayedWorld</text>
</g>
<!-- Node11&#45;&gt;Node10 -->
<g id="edge22" class="edge"><title>Node11&#45;&gt;Node10</title>
<path fill="none" stroke="#404040" d="M429,-682.669C429,-668.893 429,-654.969 429,-641.474"/>
<polygon fill="none" stroke="#404040" points="429,-641.218 425,-635.218 429,-629.218 433,-635.218 429,-641.218"/>
<text text-anchor="middle" x="443" y="-655" font-family="Helvetica,sans-Serif" font-size="10.00"> #map</text>
</g>
</g>
</svg>
        <g id="navigator" transform="translate(0 0)" fill="#404254">
                <rect fill="#f2f5e9" fill-opacity="0.5" stroke="#606060" stroke-width=".5" x="0" y="0" width="60" height="60"/>
                <use id="zoomplus" xlink:href="#zoomPlus" x="17" y="9" onmousedown="handleZoom(evt,'in')"/>
                <use id="zoomminus" xlink:href="#zoomMin" x="42" y="9" onmousedown="handleZoom(evt,'out')"/>
                <use id="reset" xlink:href="#resetDef" x="30" y="36" onmousedown="handleReset()"/>
                <g id="arrowUp" xlink:href="#dirArrow" transform="translate(30 24)" onmousedown="handlePan(0,-1)">
                  <use xlink:href="#rim" fill="#404040">
                        <set attributeName="fill" to="#808080" begin="arrowUp.mouseover" end="arrowUp.mouseout"/>
                  </use>
                  <path fill="none" stroke="white" stroke-width="1.5" d="M0,-3.0v7 M-2.5,-0.5L0,-3.0L2.5,-0.5"/>
                </g>
                <g id="arrowRight" xlink:href="#dirArrow" transform="rotate(90) translate(36 -43)" onmousedown="handlePan(1,0)">
                  <use xlink:href="#rim" fill="#404040">
                        <set attributeName="fill" to="#808080" begin="arrowRight.mouseover" end="arrowRight.mouseout"/>
                  </use>
                  <path fill="none" stroke="white" stroke-width="1.5" d="M0,-3.0v7 M-2.5,-0.5L0,-3.0L2.5,-0.5"/>
                </g>
                <g id="arrowDown" xlink:href="#dirArrow" transform="rotate(180) translate(-30 -48)" onmousedown="handlePan(0,1)">
                  <use xlink:href="#rim" fill="#404040">
                        <set attributeName="fill" to="#808080" begin="arrowDown.mouseover" end="arrowDown.mouseout"/>
                  </use>
                  <path fill="none" stroke="white" stroke-width="1.5" d="M0,-3.0v7 M-2.5,-0.5L0,-3.0L2.5,-0.5"/>
                </g>
                <g id="arrowLeft" xlink:href="#dirArrow" transform="rotate(270) translate(-36 17)" onmousedown="handlePan(-1,0)">
                  <use xlink:href="#rim" fill="#404040">
                        <set attributeName="fill" to="#808080" begin="arrowLeft.mouseover" end="arrowLeft.mouseout"/>
                  </use>
                  <path fill="none" stroke="white" stroke-width="1.5" d="M0,-3.0v7 M-2.5,-0.5L0,-3.0L2.5,-0.5"/>
                </g>
        </g>
        <svg viewBox="0 0 15 15" width="100%" height="30px" preserveAspectRatio="xMaxYMin meet">
         <g id="arrow_out" transform="scale(0.3 0.3)">
          <a xlink:href="classwindow_1_1_window__coll__graph_org.svg" target="_base">
           <rect id="button" ry="5" rx="5" y="6" x="6" height="38" width="38"
                fill="#f2f5e9" fill-opacity="0.5" stroke="#606060" stroke-width="1.0"/>
           <path id="arrow"
             d="M 11.500037,31.436501 C 11.940474,20.09759 22.043105,11.32322 32.158766,21.979434 L 37.068811,17.246167 C 37.068811,17.246167 37.088388,32 37.088388,32 L 22.160133,31.978069 C 22.160133,31.978069 26.997745,27.140456 26.997745,27.140456 C 18.528582,18.264221 13.291696,25.230495 11.500037,31.436501 z"
             style="fill:#404040;"/>
          </a>
         </g>
        </svg>
</svg>
