<?xml version="1.0" encoding="UTF-8" standalone="no"?>
<!DOCTYPE svg PUBLIC "-//W3C//DTD SVG 1.1//EN"
 "http://www.w3.org/Graphics/SVG/1.1/DTD/svg11.dtd">
<!-- Generated by graphviz version 2.26.3 (20100126.1600)
 -->
<!-- Title: gameplay.ai.mood.Curiosity Pages: 1 -->
<!--zoomable 528 -->
<svg id="main" version="1.1" xmlns="http://www.w3.org/2000/svg" xmlns:xlink="http://www.w3.org/1999/xlink" xml:space="preserve" onload="init(evt)">
<style type="text/css"><![CDATA[
.edge:hover path { stroke: red; }
.edge:hover polygon { stroke: red; fill: red; }
]]></style>
<script type="text/javascript"><![CDATA[
var edges = document.getElementsByTagName('g');
if (edges && edges.length) {
  for (var i=0;i<edges.length;i++) {
    if (edges[i].id.substr(0,4)=='edge') {
      edges[i].setAttribute('class','edge');
    }
  }
}
]]></script>
        <defs>
                <circle id="rim" cx="0" cy="0" r="7"/>
                <circle id="rim2" cx="0" cy="0" r="3.5"/>
                <g id="zoomPlus">
                        <use xlink:href="#rim" fill="#404040">
                                <set attributeName="fill" to="#808080" begin="zoomplus.mouseover" end="zoomplus.mouseout"/>
                        </use>
                        <path d="M-4,0h8M0,-4v8" fill="none" stroke="white" stroke-width="1.5" pointer-events="none"/>
                </g>
                <g id="zoomMin">
                        <use xlink:href="#rim" fill="#404040">
                                <set attributeName="fill" to="#808080" begin="zoomminus.mouseover" end="zoomminus.mouseout"/>
                        </use>
                        <path d="M-4,0h8" fill="none" stroke="white" stroke-width="1.5" pointer-events="none"/>
                </g>
                <g id="dirArrow">
                        <path fill="none" stroke="white" stroke-width="1.5" d="M0,-3.0v7 M-2.5,-0.5L0,-3.0L2.5,-0.5"/>
                </g>
               <g id="resetDef">
                       <use xlink:href="#rim2" fill="#404040">
                               <set attributeName="fill" to="#808080" begin="reset.mouseover" end="reset.mouseout"/>
                       </use>
               </g>
        </defs>

<script type="text/javascript">
var viewWidth = 158;
var viewHeight = 528;
var sectionId = 'dynsection-1';
</script>
<script xlink:href="svgpan.js"/>
<svg id="graph" class="graph">
<g id="viewport">
<title>gameplay.ai.mood.Curiosity</title>
<polygon fill="white" stroke="white" points="-4,5 -4,-524 155,-524 155,5 -4,5"/>
<!-- Node1 -->
<g id="node1" class="node"><title>Node1</title>
<polygon fill="#bfbfbf" stroke="black" points="6.5,-1 6.5,-73 143.5,-73 143.5,-1 6.5,-1"/>
<text text-anchor="middle" x="75" y="-60" font-family="Helvetica,sans-Serif" font-size="10.00">gameplay.ai.mood.Curiosity</text>
<polyline fill="none" stroke="black" points="6.5,-49 143.5,-49 "/>
<text text-anchor="middle" x="75" y="-36" font-family="Helvetica,sans-Serif" font-size="10.00"> </text>
<polyline fill="none" stroke="black" points="6.5,-25 143.5,-25 "/>
<text text-anchor="start" x="14.5" y="-12" font-family="Helvetica,sans-Serif" font-size="10.00">+ Curiosity()</text>
</g>
<!-- Node2 -->
<g id="node2" class="node"><title>Node2</title>
<a xlink:href="classgameplay_1_1ai_1_1mood_1_1_mood.html" target="_top" xlink:title="Abstract class representing an AI mood. ">
<polygon fill="white" stroke="black" points="0,-113 0,-361 150,-361 150,-113 0,-113"/>
<text text-anchor="middle" x="75" y="-348" font-family="Helvetica,sans-Serif" font-size="10.00">gameplay.ai.mood.Mood</text>
<polyline fill="none" stroke="black" points="0,-337 150,-337 "/>
<text text-anchor="start" x="8" y="-324" font-family="Helvetica,sans-Serif" font-size="10.00"># betrayalThreshold</text>
<text text-anchor="start" x="8" y="-308" font-family="Helvetica,sans-Serif" font-size="10.00"># slaveryThreshold</text>
<text text-anchor="start" x="8" y="-292" font-family="Helvetica,sans-Serif" font-size="10.00"># moodsBetrayalCount</text>
<text text-anchor="start" x="8" y="-276" font-family="Helvetica,sans-Serif" font-size="10.00"># moodsSlaveryCount</text>
<polyline fill="none" stroke="black" points="0,-265 150,-265 "/>
<text text-anchor="start" x="8" y="-252" font-family="Helvetica,sans-Serif" font-size="10.00">+ Mood()</text>
<text text-anchor="start" x="8" y="-236" font-family="Helvetica,sans-Serif" font-size="10.00">+ getBetrayalThreshold()</text>
<text text-anchor="start" x="8" y="-220" font-family="Helvetica,sans-Serif" font-size="10.00">+ getSlaveryThreshold()</text>
<text text-anchor="start" x="8" y="-204" font-family="Helvetica,sans-Serif" font-size="10.00">+ getMoodsBetrayalCount()</text>
<text text-anchor="start" x="8" y="-188" font-family="Helvetica,sans-Serif" font-size="10.00">+ getMoodsSlaveryThreshold()</text>
<text text-anchor="start" x="8" y="-172" font-family="Helvetica,sans-Serif" font-size="10.00">+ incrementBetrayalCount()</text>
<text text-anchor="start" x="8" y="-156" font-family="Helvetica,sans-Serif" font-size="10.00">+ incrementSlaveryCount()</text>
<text text-anchor="start" x="8" y="-140" font-family="Helvetica,sans-Serif" font-size="10.00">+ getNextMood()</text>
<text text-anchor="start" x="8" y="-124" font-family="Helvetica,sans-Serif" font-size="10.00">+ getPreviousMood()</text>
</a>
</g>
<!-- Node2&#45;&gt;Node1 -->
<g id="edge2" class="edge"><title>Node2&#45;&gt;Node1</title>
<path fill="none" stroke="midnightblue" d="M75,-102.619C75,-92.0653 75,-82.0938 75,-73.2601"/>
<polygon fill="none" stroke="midnightblue" points="71.5001,-102.897 75,-112.897 78.5001,-102.897 71.5001,-102.897"/>
</g>
<!-- Node3 -->
<g id="node4" class="node"><title>Node3</title>
<polygon fill="white" stroke="#bfbfbf" points="2,-431 2,-519 148,-519 148,-431 2,-431"/>
<text text-anchor="start" x="10" y="-506" font-family="Helvetica,sans-Serif" font-size="10.00">HashSet&lt; gameplay.ai.mood.</text>
<text text-anchor="middle" x="75" y="-490" font-family="Helvetica,sans-Serif" font-size="10.00">ProbabilityMood &gt;</text>
<polyline fill="none" stroke="#bfbfbf" points="2,-479 148,-479 "/>
<text text-anchor="middle" x="75" y="-466" font-family="Helvetica,sans-Serif" font-size="10.00"> </text>
<polyline fill="none" stroke="#bfbfbf" points="2,-455 148,-455 "/>
<text text-anchor="middle" x="75" y="-442" font-family="Helvetica,sans-Serif" font-size="10.00"> </text>
</g>
<!-- Node3&#45;&gt;Node2 -->
<g id="edge4" class="edge"><title>Node3&#45;&gt;Node2</title>
<path fill="none" stroke="#404040" d="M75,-430.792C75,-414.104 75,-394.117 75,-373.41"/>
<polygon fill="none" stroke="#404040" points="75.0001,-373.155 71,-367.155 75,-361.155 79,-367.155 75.0001,-373.155"/>
<text text-anchor="middle" x="111" y="-403" font-family="Helvetica,sans-Serif" font-size="10.00"> #nextMoods</text>
<text text-anchor="middle" x="111" y="-387" font-family="Helvetica,sans-Serif" font-size="10.00">#previousMoods</text>
</g>
</g>
</svg>
        <g id="navigator" transform="translate(0 0)" fill="#404254">
                <rect fill="#f2f5e9" fill-opacity="0.5" stroke="#606060" stroke-width=".5" x="0" y="0" width="60" height="60"/>
                <use id="zoomplus" xlink:href="#zoomPlus" x="17" y="9" onmousedown="handleZoom(evt,'in')"/>
                <use id="zoomminus" xlink:href="#zoomMin" x="42" y="9" onmousedown="handleZoom(evt,'out')"/>
                <use id="reset" xlink:href="#resetDef" x="30" y="36" onmousedown="handleReset()"/>
                <g id="arrowUp" xlink:href="#dirArrow" transform="translate(30 24)" onmousedown="handlePan(0,-1)">
                  <use xlink:href="#rim" fill="#404040">
                        <set attributeName="fill" to="#808080" begin="arrowUp.mouseover" end="arrowUp.mouseout"/>
                  </use>
                  <path fill="none" stroke="white" stroke-width="1.5" d="M0,-3.0v7 M-2.5,-0.5L0,-3.0L2.5,-0.5"/>
                </g>
                <g id="arrowRight" xlink:href="#dirArrow" transform="rotate(90) translate(36 -43)" onmousedown="handlePan(1,0)">
                  <use xlink:href="#rim" fill="#404040">
                        <set attributeName="fill" to="#808080" begin="arrowRight.mouseover" end="arrowRight.mouseout"/>
                  </use>
                  <path fill="none" stroke="white" stroke-width="1.5" d="M0,-3.0v7 M-2.5,-0.5L0,-3.0L2.5,-0.5"/>
                </g>
                <g id="arrowDown" xlink:href="#dirArrow" transform="rotate(180) translate(-30 -48)" onmousedown="handlePan(0,1)">
                  <use xlink:href="#rim" fill="#404040">
                        <set attributeName="fill" to="#808080" begin="arrowDown.mouseover" end="arrowDown.mouseout"/>
                  </use>
                  <path fill="none" stroke="white" stroke-width="1.5" d="M0,-3.0v7 M-2.5,-0.5L0,-3.0L2.5,-0.5"/>
                </g>
                <g id="arrowLeft" xlink:href="#dirArrow" transform="rotate(270) translate(-36 17)" onmousedown="handlePan(-1,0)">
                  <use xlink:href="#rim" fill="#404040">
                        <set attributeName="fill" to="#808080" begin="arrowLeft.mouseover" end="arrowLeft.mouseout"/>
                  </use>
                  <path fill="none" stroke="white" stroke-width="1.5" d="M0,-3.0v7 M-2.5,-0.5L0,-3.0L2.5,-0.5"/>
                </g>
        </g>
        <svg viewBox="0 0 15 15" width="100%" height="30px" preserveAspectRatio="xMaxYMin meet">
         <g id="arrow_out" transform="scale(0.3 0.3)">
          <a xlink:href="classgameplay_1_1ai_1_1mood_1_1_curiosity__coll__graph_org.svg" target="_base">
           <rect id="button" ry="5" rx="5" y="6" x="6" height="38" width="38"
                fill="#f2f5e9" fill-opacity="0.5" stroke="#606060" stroke-width="1.0"/>
           <path id="arrow"
             d="M 11.500037,31.436501 C 11.940474,20.09759 22.043105,11.32322 32.158766,21.979434 L 37.068811,17.246167 C 37.068811,17.246167 37.088388,32 37.088388,32 L 22.160133,31.978069 C 22.160133,31.978069 26.997745,27.140456 26.997745,27.140456 C 18.528582,18.264221 13.291696,25.230495 11.500037,31.436501 z"
             style="fill:#404040;"/>
          </a>
         </g>
        </svg>
</svg>
