<?xml version="1.0" encoding="UTF-8" standalone="no"?>
<!DOCTYPE svg PUBLIC "-//W3C//DTD SVG 1.1//EN"
 "http://www.w3.org/Graphics/SVG/1.1/DTD/svg11.dtd">
<!-- Generated by graphviz version 2.26.3 (20100126.1600)
 -->
<!-- Title: gameplay.ai.mood.Mood Pages: 1 -->
<!--zoomable 400 -->
<svg id="main" version="1.1" xmlns="http://www.w3.org/2000/svg" xmlns:xlink="http://www.w3.org/1999/xlink" xml:space="preserve" onload="init(evt)">
<style type="text/css"><![CDATA[
.edge:hover path { stroke: red; }
.edge:hover polygon { stroke: red; fill: red; }
]]></style>
<script type="text/javascript"><![CDATA[
var edges = document.getElementsByTagName('g');
if (edges && edges.length) {
  for (var i=0;i<edges.length;i++) {
    if (edges[i].id.substr(0,4)=='edge') {
      edges[i].setAttribute('class','edge');
    }
  }
}
]]></script>
        <defs>
                <circle id="rim" cx="0" cy="0" r="7"/>
                <circle id="rim2" cx="0" cy="0" r="3.5"/>
                <g id="zoomPlus">
                        <use xlink:href="#rim" fill="#404040">
                                <set attributeName="fill" to="#808080" begin="zoomplus.mouseover" end="zoomplus.mouseout"/>
                        </use>
                        <path d="M-4,0h8M0,-4v8" fill="none" stroke="white" stroke-width="1.5" pointer-events="none"/>
                </g>
                <g id="zoomMin">
                        <use xlink:href="#rim" fill="#404040">
                                <set attributeName="fill" to="#808080" begin="zoomminus.mouseover" end="zoomminus.mouseout"/>
                        </use>
                        <path d="M-4,0h8" fill="none" stroke="white" stroke-width="1.5" pointer-events="none"/>
                </g>
                <g id="dirArrow">
                        <path fill="none" stroke="white" stroke-width="1.5" d="M0,-3.0v7 M-2.5,-0.5L0,-3.0L2.5,-0.5"/>
                </g>
               <g id="resetDef">
                       <use xlink:href="#rim2" fill="#404040">
                               <set attributeName="fill" to="#808080" begin="reset.mouseover" end="reset.mouseout"/>
                       </use>
               </g>
        </defs>

<script type="text/javascript">
var viewWidth = 634;
var viewHeight = 400;
var sectionId = 'dynsection-0';
</script>
<script xlink:href="svgpan.js"/>
<svg id="graph" class="graph">
<g id="viewport">
<title>gameplay.ai.mood.Mood</title>
<polygon fill="white" stroke="white" points="-4,5 -4,-396 631,-396 631,5 -4,5"/>
<!-- Node1 -->
<g id="node1" class="node"><title>Node1</title>
<polygon fill="#bfbfbf" stroke="black" points="215,-111 215,-391 365,-391 365,-111 215,-111"/>
<text text-anchor="middle" x="290" y="-378" font-family="Helvetica,sans-Serif" font-size="10.00">gameplay.ai.mood.Mood</text>
<polyline fill="none" stroke="black" points="215,-367 365,-367 "/>
<text text-anchor="start" x="223" y="-354" font-family="Helvetica,sans-Serif" font-size="10.00"># betrayalThreshold</text>
<text text-anchor="start" x="223" y="-338" font-family="Helvetica,sans-Serif" font-size="10.00"># slaveryThreshold</text>
<text text-anchor="start" x="223" y="-322" font-family="Helvetica,sans-Serif" font-size="10.00"># moodsBetrayalCount</text>
<text text-anchor="start" x="223" y="-306" font-family="Helvetica,sans-Serif" font-size="10.00"># moodsSlaveryCount</text>
<text text-anchor="start" x="223" y="-290" font-family="Helvetica,sans-Serif" font-size="10.00"># nextMoods</text>
<text text-anchor="start" x="223" y="-274" font-family="Helvetica,sans-Serif" font-size="10.00"># previousMoods</text>
<polyline fill="none" stroke="black" points="215,-263 365,-263 "/>
<text text-anchor="start" x="223" y="-250" font-family="Helvetica,sans-Serif" font-size="10.00">+ Mood()</text>
<text text-anchor="start" x="223" y="-234" font-family="Helvetica,sans-Serif" font-size="10.00">+ getBetrayalThreshold()</text>
<text text-anchor="start" x="223" y="-218" font-family="Helvetica,sans-Serif" font-size="10.00">+ getSlaveryThreshold()</text>
<text text-anchor="start" x="223" y="-202" font-family="Helvetica,sans-Serif" font-size="10.00">+ getMoodsBetrayalCount()</text>
<text text-anchor="start" x="223" y="-186" font-family="Helvetica,sans-Serif" font-size="10.00">+ getMoodsSlaveryThreshold()</text>
<text text-anchor="start" x="223" y="-170" font-family="Helvetica,sans-Serif" font-size="10.00">+ incrementBetrayalCount()</text>
<text text-anchor="start" x="223" y="-154" font-family="Helvetica,sans-Serif" font-size="10.00">+ incrementSlaveryCount()</text>
<text text-anchor="start" x="223" y="-138" font-family="Helvetica,sans-Serif" font-size="10.00">+ getNextMood()</text>
<text text-anchor="start" x="223" y="-122" font-family="Helvetica,sans-Serif" font-size="10.00">+ getPreviousMood()</text>
</g>
<!-- Node2 -->
<g id="node3" class="node"><title>Node2</title>
<a xlink:href="classgameplay_1_1ai_1_1mood_1_1_anger.html" target="_top" xlink:title="{gameplay.ai.mood.Anger\n||+ Anger()\l}">
<polygon fill="white" stroke="black" points="0,-1 0,-73 124,-73 124,-1 0,-1"/>
<text text-anchor="middle" x="62" y="-60" font-family="Helvetica,sans-Serif" font-size="10.00">gameplay.ai.mood.Anger</text>
<polyline fill="none" stroke="black" points="0,-49 124,-49 "/>
<text text-anchor="middle" x="62" y="-36" font-family="Helvetica,sans-Serif" font-size="10.00"> </text>
<polyline fill="none" stroke="black" points="0,-25 124,-25 "/>
<text text-anchor="start" x="8" y="-12" font-family="Helvetica,sans-Serif" font-size="10.00">+ Anger()</text>
</a>
</g>
<!-- Node1&#45;&gt;Node2 -->
<g id="edge2" class="edge"><title>Node1&#45;&gt;Node2</title>
<path fill="none" stroke="midnightblue" d="M207.008,-173.104C170.55,-138.884 129.512,-100.366 100.422,-73.063"/>
<polygon fill="none" stroke="midnightblue" points="205.026,-176.044 214.712,-180.335 209.816,-170.94 205.026,-176.044"/>
</g>
<!-- Node3 -->
<g id="node5" class="node"><title>Node3</title>
<a xlink:href="classgameplay_1_1ai_1_1mood_1_1_curiosity.html" target="_top" xlink:title="{gameplay.ai.mood.Curiosity\n||+ Curiosity()\l}">
<polygon fill="white" stroke="black" points="141.5,-1 141.5,-73 278.5,-73 278.5,-1 141.5,-1"/>
<text text-anchor="middle" x="210" y="-60" font-family="Helvetica,sans-Serif" font-size="10.00">gameplay.ai.mood.Curiosity</text>
<polyline fill="none" stroke="black" points="141.5,-49 278.5,-49 "/>
<text text-anchor="middle" x="210" y="-36" font-family="Helvetica,sans-Serif" font-size="10.00"> </text>
<polyline fill="none" stroke="black" points="141.5,-25 278.5,-25 "/>
<text text-anchor="start" x="149.5" y="-12" font-family="Helvetica,sans-Serif" font-size="10.00">+ Curiosity()</text>
</a>
</g>
<!-- Node1&#45;&gt;Node3 -->
<g id="edge4" class="edge"><title>Node1&#45;&gt;Node3</title>
<path fill="none" stroke="midnightblue" d="M234.083,-101.422C230.271,-91.2256 226.69,-81.6454 223.513,-73.148"/>
<polygon fill="none" stroke="midnightblue" points="230.863,-102.805 237.643,-110.946 237.42,-100.354 230.863,-102.805"/>
</g>
<!-- Node4 -->
<g id="node7" class="node"><title>Node4</title>
<a xlink:href="classgameplay_1_1ai_1_1mood_1_1_depression.html" target="_top" xlink:title="{gameplay.ai.mood.Depression\n||+ Depression()\l}">
<polygon fill="white" stroke="black" points="296,-1 296,-73 444,-73 444,-1 296,-1"/>
<text text-anchor="middle" x="370" y="-60" font-family="Helvetica,sans-Serif" font-size="10.00">gameplay.ai.mood.Depression</text>
<polyline fill="none" stroke="black" points="296,-49 444,-49 "/>
<text text-anchor="middle" x="370" y="-36" font-family="Helvetica,sans-Serif" font-size="10.00"> </text>
<polyline fill="none" stroke="black" points="296,-25 444,-25 "/>
<text text-anchor="start" x="304" y="-12" font-family="Helvetica,sans-Serif" font-size="10.00">+ Depression()</text>
</a>
</g>
<!-- Node1&#45;&gt;Node4 -->
<g id="edge6" class="edge"><title>Node1&#45;&gt;Node4</title>
<path fill="none" stroke="midnightblue" d="M345.917,-101.422C349.729,-91.2256 353.31,-81.6454 356.487,-73.148"/>
<polygon fill="none" stroke="midnightblue" points="342.58,-100.354 342.357,-110.946 349.137,-102.805 342.58,-100.354"/>
</g>
<!-- Node5 -->
<g id="node9" class="node"><title>Node5</title>
<a xlink:href="classgameplay_1_1ai_1_1mood_1_1_power_complex.html" target="_top" xlink:title="{gameplay.ai.mood.PowerComplex\n||+ PowerComplex()\l}">
<polygon fill="white" stroke="black" points="461.5,-1 461.5,-73 626.5,-73 626.5,-1 461.5,-1"/>
<text text-anchor="middle" x="544" y="-60" font-family="Helvetica,sans-Serif" font-size="10.00">gameplay.ai.mood.PowerComplex</text>
<polyline fill="none" stroke="black" points="461.5,-49 626.5,-49 "/>
<text text-anchor="middle" x="544" y="-36" font-family="Helvetica,sans-Serif" font-size="10.00"> </text>
<polyline fill="none" stroke="black" points="461.5,-25 626.5,-25 "/>
<text text-anchor="start" x="469.5" y="-12" font-family="Helvetica,sans-Serif" font-size="10.00">+ PowerComplex()</text>
</a>
</g>
<!-- Node1&#45;&gt;Node5 -->
<g id="edge8" class="edge"><title>Node1&#45;&gt;Node5</title>
<path fill="none" stroke="midnightblue" d="M373.068,-181.014C415.828,-144.987 466.166,-102.577 501.093,-73.1504"/>
<polygon fill="none" stroke="midnightblue" points="370.57,-178.542 365.177,-187.662 375.08,-183.895 370.57,-178.542"/>
</g>
</g>
</svg>
        <g id="navigator" transform="translate(0 0)" fill="#404254">
                <rect fill="#f2f5e9" fill-opacity="0.5" stroke="#606060" stroke-width=".5" x="0" y="0" width="60" height="60"/>
                <use id="zoomplus" xlink:href="#zoomPlus" x="17" y="9" onmousedown="handleZoom(evt,'in')"/>
                <use id="zoomminus" xlink:href="#zoomMin" x="42" y="9" onmousedown="handleZoom(evt,'out')"/>
                <use id="reset" xlink:href="#resetDef" x="30" y="36" onmousedown="handleReset()"/>
                <g id="arrowUp" xlink:href="#dirArrow" transform="translate(30 24)" onmousedown="handlePan(0,-1)">
                  <use xlink:href="#rim" fill="#404040">
                        <set attributeName="fill" to="#808080" begin="arrowUp.mouseover" end="arrowUp.mouseout"/>
                  </use>
                  <path fill="none" stroke="white" stroke-width="1.5" d="M0,-3.0v7 M-2.5,-0.5L0,-3.0L2.5,-0.5"/>
                </g>
                <g id="arrowRight" xlink:href="#dirArrow" transform="rotate(90) translate(36 -43)" onmousedown="handlePan(1,0)">
                  <use xlink:href="#rim" fill="#404040">
                        <set attributeName="fill" to="#808080" begin="arrowRight.mouseover" end="arrowRight.mouseout"/>
                  </use>
                  <path fill="none" stroke="white" stroke-width="1.5" d="M0,-3.0v7 M-2.5,-0.5L0,-3.0L2.5,-0.5"/>
                </g>
                <g id="arrowDown" xlink:href="#dirArrow" transform="rotate(180) translate(-30 -48)" onmousedown="handlePan(0,1)">
                  <use xlink:href="#rim" fill="#404040">
                        <set attributeName="fill" to="#808080" begin="arrowDown.mouseover" end="arrowDown.mouseout"/>
                  </use>
                  <path fill="none" stroke="white" stroke-width="1.5" d="M0,-3.0v7 M-2.5,-0.5L0,-3.0L2.5,-0.5"/>
                </g>
                <g id="arrowLeft" xlink:href="#dirArrow" transform="rotate(270) translate(-36 17)" onmousedown="handlePan(-1,0)">
                  <use xlink:href="#rim" fill="#404040">
                        <set attributeName="fill" to="#808080" begin="arrowLeft.mouseover" end="arrowLeft.mouseout"/>
                  </use>
                  <path fill="none" stroke="white" stroke-width="1.5" d="M0,-3.0v7 M-2.5,-0.5L0,-3.0L2.5,-0.5"/>
                </g>
        </g>
        <svg viewBox="0 0 15 15" width="100%" height="30px" preserveAspectRatio="xMaxYMin meet">
         <g id="arrow_out" transform="scale(0.3 0.3)">
          <a xlink:href="classgameplay_1_1ai_1_1mood_1_1_mood__inherit__graph_org.svg" target="_base">
           <rect id="button" ry="5" rx="5" y="6" x="6" height="38" width="38"
                fill="#f2f5e9" fill-opacity="0.5" stroke="#606060" stroke-width="1.0"/>
           <path id="arrow"
             d="M 11.500037,31.436501 C 11.940474,20.09759 22.043105,11.32322 32.158766,21.979434 L 37.068811,17.246167 C 37.068811,17.246167 37.088388,32 37.088388,32 L 22.160133,31.978069 C 22.160133,31.978069 26.997745,27.140456 26.997745,27.140456 C 18.528582,18.264221 13.291696,25.230495 11.500037,31.436501 z"
             style="fill:#404040;"/>
          </a>
         </g>
        </svg>
</svg>
