<?xml version="1.0" encoding="UTF-8" standalone="no"?>
<!DOCTYPE svg PUBLIC "-//W3C//DTD SVG 1.1//EN"
 "http://www.w3.org/Graphics/SVG/1.1/DTD/svg11.dtd">
<!-- Generated by graphviz version 2.26.3 (20100126.1600)
 -->
<!-- Title: world.scenery.Scenery.getSceneryHeight Pages: 1 -->
<svg width="482pt" height="48pt"
 viewBox="0.00 0.00 482.00 48.00" xmlns="http://www.w3.org/2000/svg" xmlns:xlink="http://www.w3.org/1999/xlink">
<g id="graph1" class="graph" transform="scale(1 1) rotate(0) translate(4 44)">
<title>world.scenery.Scenery.getSceneryHeight</title>
<polygon fill="white" stroke="white" points="-4,5 -4,-44 479,-44 479,5 -4,5"/>
<!-- Node1 -->
<g id="node1" class="node"><title>Node1</title>
<polygon fill="#bfbfbf" stroke="black" points="0.5,-0 0.5,-40 131.5,-40 131.5,-0 0.5,-0"/>
<text text-anchor="start" x="8.5" y="-27" font-family="Helvetica,sans-Serif" font-size="10.00">world.scenery.Scenery.get</text>
<text text-anchor="middle" x="66" y="-11" font-family="Helvetica,sans-Serif" font-size="10.00">SceneryHeight</text>
</g>
<!-- Node2 -->
<g id="node3" class="node"><title>Node2</title>
<a xlink:href="classwindow_1_1ui_1_1_u_i.html#ab8622a1cf2ea812537f90a9508bbe394" target="_top" xlink:title="Function called to draw the world. ">
<polygon fill="white" stroke="black" points="168,-8 168,-32 290,-32 290,-8 168,-8"/>
<text text-anchor="middle" x="229" y="-19" font-family="Helvetica,sans-Serif" font-size="10.00">window.ui.UI.drawWorld</text>
</a>
</g>
<!-- Node1&#45;&gt;Node2 -->
<g id="edge2" class="edge"><title>Node1&#45;&gt;Node2</title>
<path fill="none" stroke="midnightblue" d="M141.979,-20C150.68,-20 159.464,-20 167.934,-20"/>
<polygon fill="midnightblue" stroke="midnightblue" points="141.829,-16.5001 131.828,-20 141.828,-23.5001 141.829,-16.5001"/>
</g>
<!-- Node3 -->
<g id="node5" class="node"><title>Node3</title>
<a xlink:href="classwindow_1_1ui_1_1_u_i.html#a8cc928807d8b0aec6e3a5b9556748989" target="_top" xlink:title="Function called when the program ask to paint the graphics. ">
<polygon fill="white" stroke="black" points="326.5,-8 326.5,-32 473.5,-32 473.5,-8 326.5,-8"/>
<text text-anchor="middle" x="400" y="-19" font-family="Helvetica,sans-Serif" font-size="10.00">window.ui.UI.paintComponent</text>
</a>
</g>
<!-- Node2&#45;&gt;Node3 -->
<g id="edge4" class="edge"><title>Node2&#45;&gt;Node3</title>
<path fill="none" stroke="midnightblue" d="M300.532,-20C309.057,-20 317.773,-20 326.327,-20"/>
<polygon fill="midnightblue" stroke="midnightblue" points="300.252,-16.5001 290.252,-20 300.252,-23.5001 300.252,-16.5001"/>
</g>
</g>
</svg>
