<?xml version="1.0" encoding="UTF-8" standalone="no"?>
<!DOCTYPE svg PUBLIC "-//W3C//DTD SVG 1.1//EN"
 "http://www.w3.org/Graphics/SVG/1.1/DTD/svg11.dtd">
<!-- Generated by graphviz version 2.26.3 (20100126.1600)
 -->
<!-- Title: world.scenery.Flower Pages: 1 -->
<svg width="612pt" height="384pt"
 viewBox="0.00 0.00 612.00 384.00" xmlns="http://www.w3.org/2000/svg" xmlns:xlink="http://www.w3.org/1999/xlink">
<g id="graph1" class="graph" transform="scale(1 1) rotate(0) translate(4 380)">
<title>world.scenery.Flower</title>
<polygon fill="white" stroke="white" points="-4,5 -4,-380 609,-380 609,5 -4,5"/>
<!-- Node1 -->
<g id="node1" class="node"><title>Node1</title>
<polygon fill="#bfbfbf" stroke="black" points="245.5,-1 245.5,-73 354.5,-73 354.5,-1 245.5,-1"/>
<text text-anchor="middle" x="300" y="-60" font-family="Helvetica,sans-Serif" font-size="10.00">world.scenery.Flower</text>
<polyline fill="none" stroke="black" points="245.5,-49 354.5,-49 "/>
<text text-anchor="middle" x="300" y="-36" font-family="Helvetica,sans-Serif" font-size="10.00"> </text>
<polyline fill="none" stroke="black" points="245.5,-25 354.5,-25 "/>
<text text-anchor="start" x="253.5" y="-12" font-family="Helvetica,sans-Serif" font-size="10.00">+ Flower()</text>
</g>
<!-- Node2 -->
<g id="node2" class="node"><title>Node2</title>
<a xlink:href="classworld_1_1scenery_1_1_scenery.html" target="_top" xlink:title="Class used to handle any world object. ">
<polygon fill="white" stroke="black" points="-0.5,-111 -0.5,-375 116.5,-375 116.5,-111 -0.5,-111"/>
<text text-anchor="middle" x="58" y="-362" font-family="Helvetica,sans-Serif" font-size="10.00">world.scenery.Scenery</text>
<polyline fill="none" stroke="black" points="-0.5,-351 116.5,-351 "/>
<text text-anchor="start" x="7.5" y="-338" font-family="Helvetica,sans-Serif" font-size="10.00"># spriteImage</text>
<text text-anchor="start" x="7.5" y="-322" font-family="Helvetica,sans-Serif" font-size="10.00"># height</text>
<text text-anchor="start" x="7.5" y="-306" font-family="Helvetica,sans-Serif" font-size="10.00"># width</text>
<text text-anchor="start" x="7.5" y="-290" font-family="Helvetica,sans-Serif" font-size="10.00"># xShift</text>
<text text-anchor="start" x="7.5" y="-274" font-family="Helvetica,sans-Serif" font-size="10.00"># yShift</text>
<text text-anchor="start" x="7.5" y="-258" font-family="Helvetica,sans-Serif" font-size="10.00"># visible</text>
<text text-anchor="start" x="7.5" y="-242" font-family="Helvetica,sans-Serif" font-size="10.00"># SCENERY_HEIGHT</text>
<text text-anchor="start" x="7.5" y="-226" font-family="Helvetica,sans-Serif" font-size="10.00"># SCENERY_WIDTH</text>
<polyline fill="none" stroke="black" points="-0.5,-215 116.5,-215 "/>
<text text-anchor="start" x="7.5" y="-202" font-family="Helvetica,sans-Serif" font-size="10.00">+ Scenery()</text>
<text text-anchor="start" x="7.5" y="-186" font-family="Helvetica,sans-Serif" font-size="10.00">+ Scenery()</text>
<text text-anchor="start" x="7.5" y="-170" font-family="Helvetica,sans-Serif" font-size="10.00">+ Scenery()</text>
<text text-anchor="start" x="7.5" y="-154" font-family="Helvetica,sans-Serif" font-size="10.00">+ drawScenery()</text>
<text text-anchor="start" x="7.5" y="-138" font-family="Helvetica,sans-Serif" font-size="10.00">+ getSceneryHeight()</text>
<text text-anchor="start" x="7.5" y="-122" font-family="Helvetica,sans-Serif" font-size="10.00">+ getSceneryWidth()</text>
</a>
</g>
<!-- Node2&#45;&gt;Node1 -->
<g id="edge2" class="edge"><title>Node2&#45;&gt;Node1</title>
<path fill="none" stroke="midnightblue" d="M123.633,-111.291C124.086,-110.857 124.542,-110.427 125,-110 158.611,-78.7085 207.556,-59.8432 245.143,-49.1533"/>
<polygon fill="none" stroke="midnightblue" points="120.966,-109.014 116.527,-118.634 125.996,-113.882 120.966,-109.014"/>
</g>
<!-- Node3 -->
<g id="node4" class="node"><title>Node3</title>
<a xlink:href="interfaceworld_1_1scenery_1_1_temperate_broadleaf_theme.html" target="_top" xlink:title="Interface used to define that a Scenery object have a Temperate Broadleaf style. ">
<polygon fill="white" stroke="black" points="133.5,-199 133.5,-287 300.5,-287 300.5,-199 133.5,-199"/>
<text text-anchor="start" x="141.5" y="-274" font-family="Helvetica,sans-Serif" font-size="10.00">world.scenery.TemperateBroadleaf</text>
<text text-anchor="middle" x="217" y="-258" font-family="Helvetica,sans-Serif" font-size="10.00">Theme</text>
<polyline fill="none" stroke="black" points="133.5,-247 300.5,-247 "/>
<text text-anchor="start" x="141.5" y="-234" font-family="Helvetica,sans-Serif" font-size="10.00">+ TEMPERATE_BROADLEAF</text>
<polyline fill="none" stroke="black" points="133.5,-223 300.5,-223 "/>
<text text-anchor="middle" x="217" y="-210" font-family="Helvetica,sans-Serif" font-size="10.00"> </text>
</a>
</g>
<!-- Node3&#45;&gt;Node1 -->
<g id="edge4" class="edge"><title>Node3&#45;&gt;Node1</title>
<path fill="none" stroke="midnightblue" d="M238.641,-189.288C253.366,-152.742 272.456,-105.363 285.404,-73.2261"/>
<polygon fill="none" stroke="midnightblue" points="235.296,-188.224 234.806,-198.808 241.789,-190.84 235.296,-188.224"/>
</g>
<!-- Node4 -->
<g id="node6" class="node"><title>Node4</title>
<a xlink:href="interfaceworld_1_1scenery_1_1_taiga_theme.html" target="_top" xlink:title="Interface used to define that a Scenery object have a Taiga style. ">
<polygon fill="white" stroke="black" points="317.5,-207 317.5,-279 450.5,-279 450.5,-207 317.5,-207"/>
<text text-anchor="middle" x="384" y="-266" font-family="Helvetica,sans-Serif" font-size="10.00">world.scenery.TaigaTheme</text>
<polyline fill="none" stroke="black" points="317.5,-255 450.5,-255 "/>
<text text-anchor="start" x="325.5" y="-242" font-family="Helvetica,sans-Serif" font-size="10.00">+ TAIGA</text>
<polyline fill="none" stroke="black" points="317.5,-231 450.5,-231 "/>
<text text-anchor="middle" x="384" y="-218" font-family="Helvetica,sans-Serif" font-size="10.00"> </text>
</a>
</g>
<!-- Node4&#45;&gt;Node1 -->
<g id="edge6" class="edge"><title>Node4&#45;&gt;Node1</title>
<path fill="none" stroke="midnightblue" d="M365.248,-197.012C350.029,-159.691 328.866,-107.791 314.817,-73.3369"/>
<polygon fill="none" stroke="midnightblue" points="362.159,-198.707 369.176,-206.646 368.641,-196.064 362.159,-198.707"/>
</g>
<!-- Node5 -->
<g id="node8" class="node"><title>Node5</title>
<a xlink:href="interfaceworld_1_1scenery_1_1_alpine_tundra_theme.html" target="_top" xlink:title="Interface used to define that a Scenery object have an Alpine Tundra style. ">
<polygon fill="white" stroke="black" points="468,-199 468,-287 604,-287 604,-199 468,-199"/>
<text text-anchor="start" x="476" y="-274" font-family="Helvetica,sans-Serif" font-size="10.00">world.scenery.AlpineTundra</text>
<text text-anchor="middle" x="536" y="-258" font-family="Helvetica,sans-Serif" font-size="10.00">Theme</text>
<polyline fill="none" stroke="black" points="468,-247 604,-247 "/>
<text text-anchor="start" x="476" y="-234" font-family="Helvetica,sans-Serif" font-size="10.00">+ ALPINE_TUNDRA</text>
<polyline fill="none" stroke="black" points="468,-223 604,-223 "/>
<text text-anchor="middle" x="536" y="-210" font-family="Helvetica,sans-Serif" font-size="10.00"> </text>
</a>
</g>
<!-- Node5&#45;&gt;Node1 -->
<g id="edge8" class="edge"><title>Node5&#45;&gt;Node1</title>
<path fill="none" stroke="midnightblue" d="M514.476,-189.607C501.588,-162.962 483.009,-131.844 459,-110 429.231,-82.9158 387.683,-64.3122 354.525,-52.666"/>
<polygon fill="none" stroke="midnightblue" points="511.383,-191.254 518.797,-198.823 517.721,-188.283 511.383,-191.254"/>
</g>
</g>
</svg>
