<?xml version="1.0" encoding="UTF-8" standalone="no"?>
<!DOCTYPE svg PUBLIC "-//W3C//DTD SVG 1.1//EN"
 "http://www.w3.org/Graphics/SVG/1.1/DTD/svg11.dtd">
<!-- Generated by graphviz version 2.26.3 (20100126.1600)
 -->
<!-- Title: debug.CliOptions Pages: 1 -->
<svg width="158pt" height="304pt"
 viewBox="0.00 0.00 158.00 304.00" xmlns="http://www.w3.org/2000/svg" xmlns:xlink="http://www.w3.org/1999/xlink">
<g id="graph1" class="graph" transform="scale(1 1) rotate(0) translate(4 300)">
<title>debug.CliOptions</title>
<polygon fill="white" stroke="white" points="-4,5 -4,-300 155,-300 155,5 -4,5"/>
<!-- Node1 -->
<g id="node1" class="node"><title>Node1</title>
<polygon fill="#bfbfbf" stroke="black" points="0,-1 0,-169 116,-169 116,-1 0,-1"/>
<text text-anchor="middle" x="58" y="-156" font-family="Helvetica,sans-Serif" font-size="10.00">debug.CliOptions</text>
<polyline fill="none" stroke="black" points="0,-145 116,-145 "/>
<text text-anchor="start" x="8" y="-132" font-family="Helvetica,sans-Serif" font-size="10.00"># verboseLevel</text>
<text text-anchor="start" x="8" y="-116" font-family="Helvetica,sans-Serif" font-size="10.00"># helpQueried</text>
<text text-anchor="start" x="8" y="-100" font-family="Helvetica,sans-Serif" font-size="10.00"># oneDashOptions</text>
<polyline fill="none" stroke="black" points="0,-89 116,-89 "/>
<text text-anchor="start" x="8" y="-76" font-family="Helvetica,sans-Serif" font-size="10.00">+ CliOptions()</text>
<text text-anchor="start" x="8" y="-60" font-family="Helvetica,sans-Serif" font-size="10.00">+ getVerboseLevel()</text>
<text text-anchor="start" x="8" y="-44" font-family="Helvetica,sans-Serif" font-size="10.00">+ isHelpQueried()</text>
<text text-anchor="start" x="8" y="-28" font-family="Helvetica,sans-Serif" font-size="10.00"># checkVerboseLevel()</text>
<text text-anchor="start" x="8" y="-12" font-family="Helvetica,sans-Serif" font-size="10.00"># checkHelp()</text>
</g>
<!-- Node2 -->
<g id="node2" class="node"><title>Node2</title>
<polygon fill="white" stroke="#bfbfbf" points="20,-223 20,-295 96,-295 96,-223 20,-223"/>
<text text-anchor="middle" x="58" y="-282" font-family="Helvetica,sans-Serif" font-size="10.00">List&lt; String &gt;</text>
<polyline fill="none" stroke="#bfbfbf" points="20,-271 96,-271 "/>
<text text-anchor="middle" x="58" y="-258" font-family="Helvetica,sans-Serif" font-size="10.00"> </text>
<polyline fill="none" stroke="#bfbfbf" points="20,-247 96,-247 "/>
<text text-anchor="middle" x="58" y="-234" font-family="Helvetica,sans-Serif" font-size="10.00"> </text>
</g>
<!-- Node2&#45;&gt;Node1 -->
<g id="edge2" class="edge"><title>Node2&#45;&gt;Node1</title>
<path fill="none" stroke="#404040" d="M58,-222.947C58,-210.66 58,-196.279 58,-181.529"/>
<polygon fill="none" stroke="#404040" points="58.0001,-181.089 54,-175.089 58,-169.089 62,-175.089 58.0001,-181.089"/>
<text text-anchor="middle" x="104" y="-195" font-family="Helvetica,sans-Serif" font-size="10.00"> #twoDashesOptions</text>
</g>
</g>
</svg>
