<?xml version="1.0" encoding="UTF-8" standalone="no"?>
<!DOCTYPE svg PUBLIC "-//W3C//DTD SVG 1.1//EN"
 "http://www.w3.org/Graphics/SVG/1.1/DTD/svg11.dtd">
<!-- Generated by graphviz version 2.26.3 (20100126.1600)
 -->
<!-- Title: window.topbar.TopBarButton Pages: 1 -->
<svg width="148pt" height="208pt"
 viewBox="0.00 0.00 148.00 208.00" xmlns="http://www.w3.org/2000/svg" xmlns:xlink="http://www.w3.org/1999/xlink">
<g id="graph1" class="graph" transform="scale(1 1) rotate(0) translate(4 204)">
<title>window.topbar.TopBarButton</title>
<polygon fill="white" stroke="white" points="-4,5 -4,-204 145,-204 145,5 -4,5"/>
<!-- Node1 -->
<g id="node1" class="node"><title>Node1</title>
<polygon fill="#bfbfbf" stroke="black" points="0,-1 0,-89 140,-89 140,-1 0,-1"/>
<text text-anchor="middle" x="70" y="-76" font-family="Helvetica,sans-Serif" font-size="10.00">window.topbar.TopBarButton</text>
<polyline fill="none" stroke="black" points="0,-65 140,-65 "/>
<text text-anchor="start" x="8" y="-52" font-family="Helvetica,sans-Serif" font-size="10.00"># buttonImage</text>
<polyline fill="none" stroke="black" points="0,-41 140,-41 "/>
<text text-anchor="start" x="8" y="-28" font-family="Helvetica,sans-Serif" font-size="10.00">+ TopBarButton()</text>
<text text-anchor="start" x="8" y="-12" font-family="Helvetica,sans-Serif" font-size="10.00">+ paintComponent()</text>
</g>
<!-- Node2 -->
<g id="node2" class="node"><title>Node2</title>
<polygon fill="white" stroke="#bfbfbf" points="45,-127 45,-199 95,-199 95,-127 45,-127"/>
<text text-anchor="middle" x="70" y="-186" font-family="Helvetica,sans-Serif" font-size="10.00">JButton</text>
<polyline fill="none" stroke="#bfbfbf" points="45,-175 95,-175 "/>
<text text-anchor="middle" x="70" y="-162" font-family="Helvetica,sans-Serif" font-size="10.00"> </text>
<polyline fill="none" stroke="#bfbfbf" points="45,-151 95,-151 "/>
<text text-anchor="middle" x="70" y="-138" font-family="Helvetica,sans-Serif" font-size="10.00"> </text>
</g>
<!-- Node2&#45;&gt;Node1 -->
<g id="edge2" class="edge"><title>Node2&#45;&gt;Node1</title>
<path fill="none" stroke="midnightblue" d="M70,-116.887C70,-107.762 70,-98.2058 70,-89.1486"/>
<polygon fill="none" stroke="midnightblue" points="66.5001,-116.955 70,-126.955 73.5001,-116.955 66.5001,-116.955"/>
</g>
</g>
</svg>
