<?xml version="1.0" encoding="UTF-8" standalone="no"?>
<!DOCTYPE svg PUBLIC "-//W3C//DTD SVG 1.1//EN"
 "http://www.w3.org/Graphics/SVG/1.1/DTD/svg11.dtd">
<!-- Generated by graphviz version 2.26.3 (20100126.1600)
 -->
<!-- Title: world.scenery.Ground Pages: 1 -->
<!--zoomable 496 -->
<svg id="main" version="1.1" xmlns="http://www.w3.org/2000/svg" xmlns:xlink="http://www.w3.org/1999/xlink" xml:space="preserve" onload="init(evt)">
<style type="text/css"><![CDATA[
.edge:hover path { stroke: red; }
.edge:hover polygon { stroke: red; fill: red; }
]]></style>
<script type="text/javascript"><![CDATA[
var edges = document.getElementsByTagName('g');
if (edges && edges.length) {
  for (var i=0;i<edges.length;i++) {
    if (edges[i].id.substr(0,4)=='edge') {
      edges[i].setAttribute('class','edge');
    }
  }
}
]]></script>
        <defs>
                <circle id="rim" cx="0" cy="0" r="7"/>
                <circle id="rim2" cx="0" cy="0" r="3.5"/>
                <g id="zoomPlus">
                        <use xlink:href="#rim" fill="#404040">
                                <set attributeName="fill" to="#808080" begin="zoomplus.mouseover" end="zoomplus.mouseout"/>
                        </use>
                        <path d="M-4,0h8M0,-4v8" fill="none" stroke="white" stroke-width="1.5" pointer-events="none"/>
                </g>
                <g id="zoomMin">
                        <use xlink:href="#rim" fill="#404040">
                                <set attributeName="fill" to="#808080" begin="zoomminus.mouseover" end="zoomminus.mouseout"/>
                        </use>
                        <path d="M-4,0h8" fill="none" stroke="white" stroke-width="1.5" pointer-events="none"/>
                </g>
                <g id="dirArrow">
                        <path fill="none" stroke="white" stroke-width="1.5" d="M0,-3.0v7 M-2.5,-0.5L0,-3.0L2.5,-0.5"/>
                </g>
               <g id="resetDef">
                       <use xlink:href="#rim2" fill="#404040">
                               <set attributeName="fill" to="#808080" begin="reset.mouseover" end="reset.mouseout"/>
                       </use>
               </g>
        </defs>

<script type="text/javascript">
var viewWidth = 1402;
var viewHeight = 496;
var sectionId = 'dynsection-1';
</script>
<script xlink:href="svgpan.js"/>
<svg id="graph" class="graph">
<g id="viewport">
<title>world.scenery.Ground</title>
<polygon fill="white" stroke="white" points="-4,5 -4,-492 1399,-492 1399,5 -4,5"/>
<!-- Node1 -->
<g id="node1" class="node"><title>Node1</title>
<polygon fill="#bfbfbf" stroke="black" points="636.5,-1 636.5,-73 747.5,-73 747.5,-1 636.5,-1"/>
<text text-anchor="middle" x="692" y="-60" font-family="Helvetica,sans-Serif" font-size="10.00">world.scenery.Ground</text>
<polyline fill="none" stroke="black" points="636.5,-49 747.5,-49 "/>
<text text-anchor="middle" x="692" y="-36" font-family="Helvetica,sans-Serif" font-size="10.00"> </text>
<polyline fill="none" stroke="black" points="636.5,-25 747.5,-25 "/>
<text text-anchor="start" x="644.5" y="-12" font-family="Helvetica,sans-Serif" font-size="10.00">+ Ground()</text>
</g>
<!-- Node2 -->
<g id="node2" class="node"><title>Node2</title>
<a xlink:href="classworld_1_1scenery_1_1_scenery.html" target="_top" xlink:title="Class used to handle any world object. ">
<polygon fill="white" stroke="black" points="-0.5,-113 -0.5,-361 116.5,-361 116.5,-113 -0.5,-113"/>
<text text-anchor="middle" x="58" y="-348" font-family="Helvetica,sans-Serif" font-size="10.00">world.scenery.Scenery</text>
<polyline fill="none" stroke="black" points="-0.5,-337 116.5,-337 "/>
<text text-anchor="start" x="7.5" y="-324" font-family="Helvetica,sans-Serif" font-size="10.00"># height</text>
<text text-anchor="start" x="7.5" y="-308" font-family="Helvetica,sans-Serif" font-size="10.00"># width</text>
<text text-anchor="start" x="7.5" y="-292" font-family="Helvetica,sans-Serif" font-size="10.00"># xShift</text>
<text text-anchor="start" x="7.5" y="-276" font-family="Helvetica,sans-Serif" font-size="10.00"># yShift</text>
<text text-anchor="start" x="7.5" y="-260" font-family="Helvetica,sans-Serif" font-size="10.00"># visible</text>
<text text-anchor="start" x="7.5" y="-244" font-family="Helvetica,sans-Serif" font-size="10.00"># SCENERY_HEIGHT</text>
<text text-anchor="start" x="7.5" y="-228" font-family="Helvetica,sans-Serif" font-size="10.00"># SCENERY_WIDTH</text>
<polyline fill="none" stroke="black" points="-0.5,-217 116.5,-217 "/>
<text text-anchor="start" x="7.5" y="-204" font-family="Helvetica,sans-Serif" font-size="10.00">+ Scenery()</text>
<text text-anchor="start" x="7.5" y="-188" font-family="Helvetica,sans-Serif" font-size="10.00">+ Scenery()</text>
<text text-anchor="start" x="7.5" y="-172" font-family="Helvetica,sans-Serif" font-size="10.00">+ Scenery()</text>
<text text-anchor="start" x="7.5" y="-156" font-family="Helvetica,sans-Serif" font-size="10.00">+ drawScenery()</text>
<text text-anchor="start" x="7.5" y="-140" font-family="Helvetica,sans-Serif" font-size="10.00">+ getSceneryHeight()</text>
<text text-anchor="start" x="7.5" y="-124" font-family="Helvetica,sans-Serif" font-size="10.00">+ getSceneryWidth()</text>
</a>
</g>
<!-- Node2&#45;&gt;Node1 -->
<g id="edge2" class="edge"><title>Node2&#45;&gt;Node1</title>
<path fill="none" stroke="midnightblue" d="M124.451,-112.383C124.633,-112.255 124.816,-112.127 125,-112 207.071,-55.2311 509.803,-41.3718 636.096,-38.037"/>
<polygon fill="none" stroke="midnightblue" points="122.254,-109.658 116.54,-118.58 126.571,-115.168 122.254,-109.658"/>
</g>
<!-- Node3 -->
<g id="node4" class="node"><title>Node3</title>
<polygon fill="white" stroke="#bfbfbf" points="36,-415 36,-487 80,-487 80,-415 36,-415"/>
<text text-anchor="middle" x="58" y="-474" font-family="Helvetica,sans-Serif" font-size="10.00">Image</text>
<polyline fill="none" stroke="#bfbfbf" points="36,-463 80,-463 "/>
<text text-anchor="middle" x="58" y="-450" font-family="Helvetica,sans-Serif" font-size="10.00"> </text>
<polyline fill="none" stroke="#bfbfbf" points="36,-439 80,-439 "/>
<text text-anchor="middle" x="58" y="-426" font-family="Helvetica,sans-Serif" font-size="10.00"> </text>
</g>
<!-- Node3&#45;&gt;Node2 -->
<g id="edge4" class="edge"><title>Node3&#45;&gt;Node2</title>
<path fill="none" stroke="#404040" d="M58,-414.698C58,-402.654 58,-388.447 58,-373.398"/>
<polygon fill="none" stroke="#404040" points="58.0001,-373.175 54,-367.175 58,-361.175 62,-367.175 58.0001,-373.175"/>
<text text-anchor="middle" x="88" y="-387" font-family="Helvetica,sans-Serif" font-size="10.00"> #spriteImage</text>
</g>
<!-- Node4 -->
<g id="node6" class="node"><title>Node4</title>
<a xlink:href="interfaceworld_1_1scenery_1_1_temperate_broadleaf_theme.html" target="_top" xlink:title="Interface used to define that a Scenery object have a Temperate Broadleaf style. ">
<polygon fill="white" stroke="black" points="133.5,-193 133.5,-281 300.5,-281 300.5,-193 133.5,-193"/>
<text text-anchor="start" x="141.5" y="-268" font-family="Helvetica,sans-Serif" font-size="10.00">world.scenery.TemperateBroadleaf</text>
<text text-anchor="middle" x="217" y="-252" font-family="Helvetica,sans-Serif" font-size="10.00">Theme</text>
<polyline fill="none" stroke="black" points="133.5,-241 300.5,-241 "/>
<text text-anchor="start" x="141.5" y="-228" font-family="Helvetica,sans-Serif" font-size="10.00">+ TEMPERATE_BROADLEAF</text>
<polyline fill="none" stroke="black" points="133.5,-217 300.5,-217 "/>
<text text-anchor="middle" x="217" y="-204" font-family="Helvetica,sans-Serif" font-size="10.00"> </text>
</a>
</g>
<!-- Node4&#45;&gt;Node1 -->
<g id="edge6" class="edge"><title>Node4&#45;&gt;Node1</title>
<path fill="none" stroke="midnightblue" d="M243.713,-184.071C259.325,-158.432 281.413,-129.483 309,-112 362.726,-77.9527 543.652,-53.5054 636.304,-42.8899"/>
<polygon fill="none" stroke="midnightblue" points="240.526,-182.585 238.463,-192.977 246.556,-186.14 240.526,-182.585"/>
</g>
<!-- Node5 -->
<g id="node8" class="node"><title>Node5</title>
<a xlink:href="interfaceworld_1_1scenery_1_1_taiga_theme.html" target="_top" xlink:title="Interface used to define that a Scenery object have a Taiga style. ">
<polygon fill="white" stroke="black" points="317.5,-201 317.5,-273 450.5,-273 450.5,-201 317.5,-201"/>
<text text-anchor="middle" x="384" y="-260" font-family="Helvetica,sans-Serif" font-size="10.00">world.scenery.TaigaTheme</text>
<polyline fill="none" stroke="black" points="317.5,-249 450.5,-249 "/>
<text text-anchor="start" x="325.5" y="-236" font-family="Helvetica,sans-Serif" font-size="10.00">+ TAIGA</text>
<polyline fill="none" stroke="black" points="317.5,-225 450.5,-225 "/>
<text text-anchor="middle" x="384" y="-212" font-family="Helvetica,sans-Serif" font-size="10.00"> </text>
</a>
</g>
<!-- Node5&#45;&gt;Node1 -->
<g id="edge8" class="edge"><title>Node5&#45;&gt;Node1</title>
<path fill="none" stroke="midnightblue" d="M401.468,-191.741C413.857,-165.104 432.934,-132.689 459,-112 510.758,-70.9187 585.606,-52.0726 636.397,-43.6069"/>
<polygon fill="none" stroke="midnightblue" points="398.262,-190.336 397.364,-200.893 404.649,-193.2 398.262,-190.336"/>
</g>
<!-- Node6 -->
<g id="node10" class="node"><title>Node6</title>
<a xlink:href="interfaceworld_1_1scenery_1_1_alpine_tundra_theme.html" target="_top" xlink:title="Interface used to define that a Scenery object have an Alpine Tundra style. ">
<polygon fill="white" stroke="black" points="468,-193 468,-281 604,-281 604,-193 468,-193"/>
<text text-anchor="start" x="476" y="-268" font-family="Helvetica,sans-Serif" font-size="10.00">world.scenery.AlpineTundra</text>
<text text-anchor="middle" x="536" y="-252" font-family="Helvetica,sans-Serif" font-size="10.00">Theme</text>
<polyline fill="none" stroke="black" points="468,-241 604,-241 "/>
<text text-anchor="start" x="476" y="-228" font-family="Helvetica,sans-Serif" font-size="10.00">+ ALPINE_TUNDRA</text>
<polyline fill="none" stroke="black" points="468,-217 604,-217 "/>
<text text-anchor="middle" x="536" y="-204" font-family="Helvetica,sans-Serif" font-size="10.00"> </text>
</a>
</g>
<!-- Node6&#45;&gt;Node1 -->
<g id="edge10" class="edge"><title>Node6&#45;&gt;Node1</title>
<path fill="none" stroke="midnightblue" d="M564.564,-183.955C577.989,-160.919 594.993,-134.189 613,-112 623.964,-98.4902 637.25,-85.0043 649.774,-73.2699"/>
<polygon fill="none" stroke="midnightblue" points="561.363,-182.501 559.413,-192.914 567.431,-185.99 561.363,-182.501"/>
</g>
<!-- Node7 -->
<g id="node12" class="node"><title>Node7</title>
<a xlink:href="interfaceworld_1_1scenery_1_1_steppe_theme.html" target="_top" xlink:title="Interface used to define that a Scenery object have a Steppe style. ">
<polygon fill="white" stroke="black" points="622,-201 622,-273 762,-273 762,-201 622,-201"/>
<text text-anchor="middle" x="692" y="-260" font-family="Helvetica,sans-Serif" font-size="10.00">world.scenery.SteppeTheme</text>
<polyline fill="none" stroke="black" points="622,-249 762,-249 "/>
<text text-anchor="start" x="630" y="-236" font-family="Helvetica,sans-Serif" font-size="10.00">+ STEPPE</text>
<polyline fill="none" stroke="black" points="622,-225 762,-225 "/>
<text text-anchor="middle" x="692" y="-212" font-family="Helvetica,sans-Serif" font-size="10.00"> </text>
</a>
</g>
<!-- Node7&#45;&gt;Node1 -->
<g id="edge12" class="edge"><title>Node7&#45;&gt;Node1</title>
<path fill="none" stroke="midnightblue" d="M692,-190.608C692,-154.882 692,-106.196 692,-73.2864"/>
<polygon fill="none" stroke="midnightblue" points="688.5,-190.781 692,-200.782 695.5,-190.782 688.5,-190.781"/>
</g>
<!-- Node8 -->
<g id="node14" class="node"><title>Node8</title>
<a xlink:href="interfaceworld_1_1scenery_1_1_cave_theme.html" target="_top" xlink:title="Interface used to tell that a Scenery object has a Cave style. ">
<polygon fill="white" stroke="black" points="779.5,-201 779.5,-273 912.5,-273 912.5,-201 779.5,-201"/>
<text text-anchor="middle" x="846" y="-260" font-family="Helvetica,sans-Serif" font-size="10.00">world.scenery.CaveTheme</text>
<polyline fill="none" stroke="black" points="779.5,-249 912.5,-249 "/>
<text text-anchor="start" x="787.5" y="-236" font-family="Helvetica,sans-Serif" font-size="10.00">+ CAVE</text>
<polyline fill="none" stroke="black" points="779.5,-225 912.5,-225 "/>
<text text-anchor="middle" x="846" y="-212" font-family="Helvetica,sans-Serif" font-size="10.00"> </text>
</a>
</g>
<!-- Node8&#45;&gt;Node1 -->
<g id="edge14" class="edge"><title>Node8&#45;&gt;Node1</title>
<path fill="none" stroke="midnightblue" d="M822.917,-192.032C809.306,-167.342 790.882,-136.794 771,-112 760.115,-98.4264 746.851,-84.9226 734.324,-73.1913"/>
<polygon fill="none" stroke="midnightblue" points="819.856,-193.729 827.708,-200.842 826.005,-190.385 819.856,-193.729"/>
</g>
<!-- Node9 -->
<g id="node16" class="node"><title>Node9</title>
<a xlink:href="interfaceworld_1_1scenery_1_1_polar_desert_theme.html" target="_top" xlink:title="Interface used to define that a Scenery object has a Polar Desert style. ">
<polygon fill="white" stroke="black" points="929.5,-193 929.5,-281 1060.5,-281 1060.5,-193 929.5,-193"/>
<text text-anchor="start" x="937.5" y="-268" font-family="Helvetica,sans-Serif" font-size="10.00">world.scenery.PolarDesert</text>
<text text-anchor="middle" x="995" y="-252" font-family="Helvetica,sans-Serif" font-size="10.00">Theme</text>
<polyline fill="none" stroke="black" points="929.5,-241 1060.5,-241 "/>
<text text-anchor="start" x="937.5" y="-228" font-family="Helvetica,sans-Serif" font-size="10.00">+ POLAR_DESERT</text>
<polyline fill="none" stroke="black" points="929.5,-217 1060.5,-217 "/>
<text text-anchor="middle" x="995" y="-204" font-family="Helvetica,sans-Serif" font-size="10.00"> </text>
</a>
</g>
<!-- Node9&#45;&gt;Node1 -->
<g id="edge16" class="edge"><title>Node9&#45;&gt;Node1</title>
<path fill="none" stroke="midnightblue" d="M973.883,-183.388C961.722,-158.61 944.194,-130.618 921,-112 870.595,-71.5397 797.622,-52.5989 747.68,-43.9398"/>
<polygon fill="none" stroke="midnightblue" points="970.846,-185.154 978.282,-192.701 977.176,-182.164 970.846,-185.154"/>
</g>
<!-- Node10 -->
<g id="node18" class="node"><title>Node10</title>
<a xlink:href="interfaceworld_1_1scenery_1_1_xeric_shrublands_theme.html" target="_top" xlink:title="Interface used to define that a Scenery object have a Xeric Shrublands style. ">
<polygon fill="white" stroke="black" points="1077.5,-193 1077.5,-281 1228.5,-281 1228.5,-193 1077.5,-193"/>
<text text-anchor="start" x="1085.5" y="-268" font-family="Helvetica,sans-Serif" font-size="10.00">world.scenery.XericShrublands</text>
<text text-anchor="middle" x="1153" y="-252" font-family="Helvetica,sans-Serif" font-size="10.00">Theme</text>
<polyline fill="none" stroke="black" points="1077.5,-241 1228.5,-241 "/>
<text text-anchor="start" x="1085.5" y="-228" font-family="Helvetica,sans-Serif" font-size="10.00">+ XERIC_SHRUBLANDS</text>
<polyline fill="none" stroke="black" points="1077.5,-217 1228.5,-217 "/>
<text text-anchor="middle" x="1153" y="-204" font-family="Helvetica,sans-Serif" font-size="10.00"> </text>
</a>
</g>
<!-- Node10&#45;&gt;Node1 -->
<g id="edge18" class="edge"><title>Node10&#45;&gt;Node1</title>
<path fill="none" stroke="midnightblue" d="M1129.44,-183.862C1115.45,-158.313 1095.28,-129.508 1069,-112 1017,-77.356 839.373,-53.2665 747.716,-42.8263"/>
<polygon fill="none" stroke="midnightblue" points="1126.36,-185.531 1134.13,-192.739 1132.55,-182.262 1126.36,-185.531"/>
</g>
<!-- Node11 -->
<g id="node20" class="node"><title>Node11</title>
<a xlink:href="interfaceworld_1_1scenery_1_1_savanna_theme.html" target="_top" xlink:title="Interface used to define that a Scenery object have a Savanna style. ">
<polygon fill="white" stroke="black" points="1246,-201 1246,-273 1394,-273 1394,-201 1246,-201"/>
<text text-anchor="middle" x="1320" y="-260" font-family="Helvetica,sans-Serif" font-size="10.00">world.scenery.SavannaTheme</text>
<polyline fill="none" stroke="black" points="1246,-249 1394,-249 "/>
<text text-anchor="start" x="1254" y="-236" font-family="Helvetica,sans-Serif" font-size="10.00">+ SAVANNA</text>
<polyline fill="none" stroke="black" points="1246,-225 1394,-225 "/>
<text text-anchor="middle" x="1320" y="-212" font-family="Helvetica,sans-Serif" font-size="10.00"> </text>
</a>
</g>
<!-- Node11&#45;&gt;Node1 -->
<g id="edge20" class="edge"><title>Node11&#45;&gt;Node1</title>
<path fill="none" stroke="midnightblue" d="M1301.65,-191.734C1288.02,-164.099 1266.63,-130.606 1237,-112 1156.22,-61.2735 869.688,-44.0461 747.674,-38.9245"/>
<polygon fill="none" stroke="midnightblue" points="1298.53,-193.319 1305.98,-200.852 1304.86,-190.317 1298.53,-193.319"/>
</g>
</g>
</svg>
        <g id="navigator" transform="translate(0 0)" fill="#404254">
                <rect fill="#f2f5e9" fill-opacity="0.5" stroke="#606060" stroke-width=".5" x="0" y="0" width="60" height="60"/>
                <use id="zoomplus" xlink:href="#zoomPlus" x="17" y="9" onmousedown="handleZoom(evt,'in')"/>
                <use id="zoomminus" xlink:href="#zoomMin" x="42" y="9" onmousedown="handleZoom(evt,'out')"/>
                <use id="reset" xlink:href="#resetDef" x="30" y="36" onmousedown="handleReset()"/>
                <g id="arrowUp" xlink:href="#dirArrow" transform="translate(30 24)" onmousedown="handlePan(0,-1)">
                  <use xlink:href="#rim" fill="#404040">
                        <set attributeName="fill" to="#808080" begin="arrowUp.mouseover" end="arrowUp.mouseout"/>
                  </use>
                  <path fill="none" stroke="white" stroke-width="1.5" d="M0,-3.0v7 M-2.5,-0.5L0,-3.0L2.5,-0.5"/>
                </g>
                <g id="arrowRight" xlink:href="#dirArrow" transform="rotate(90) translate(36 -43)" onmousedown="handlePan(1,0)">
                  <use xlink:href="#rim" fill="#404040">
                        <set attributeName="fill" to="#808080" begin="arrowRight.mouseover" end="arrowRight.mouseout"/>
                  </use>
                  <path fill="none" stroke="white" stroke-width="1.5" d="M0,-3.0v7 M-2.5,-0.5L0,-3.0L2.5,-0.5"/>
                </g>
                <g id="arrowDown" xlink:href="#dirArrow" transform="rotate(180) translate(-30 -48)" onmousedown="handlePan(0,1)">
                  <use xlink:href="#rim" fill="#404040">
                        <set attributeName="fill" to="#808080" begin="arrowDown.mouseover" end="arrowDown.mouseout"/>
                  </use>
                  <path fill="none" stroke="white" stroke-width="1.5" d="M0,-3.0v7 M-2.5,-0.5L0,-3.0L2.5,-0.5"/>
                </g>
                <g id="arrowLeft" xlink:href="#dirArrow" transform="rotate(270) translate(-36 17)" onmousedown="handlePan(-1,0)">
                  <use xlink:href="#rim" fill="#404040">
                        <set attributeName="fill" to="#808080" begin="arrowLeft.mouseover" end="arrowLeft.mouseout"/>
                  </use>
                  <path fill="none" stroke="white" stroke-width="1.5" d="M0,-3.0v7 M-2.5,-0.5L0,-3.0L2.5,-0.5"/>
                </g>
        </g>
        <svg viewBox="0 0 15 15" width="100%" height="30px" preserveAspectRatio="xMaxYMin meet">
         <g id="arrow_out" transform="scale(0.3 0.3)">
          <a xlink:href="classworld_1_1scenery_1_1_ground__coll__graph_org.svg" target="_base">
           <rect id="button" ry="5" rx="5" y="6" x="6" height="38" width="38"
                fill="#f2f5e9" fill-opacity="0.5" stroke="#606060" stroke-width="1.0"/>
           <path id="arrow"
             d="M 11.500037,31.436501 C 11.940474,20.09759 22.043105,11.32322 32.158766,21.979434 L 37.068811,17.246167 C 37.068811,17.246167 37.088388,32 37.088388,32 L 22.160133,31.978069 C 22.160133,31.978069 26.997745,27.140456 26.997745,27.140456 C 18.528582,18.264221 13.291696,25.230495 11.500037,31.436501 z"
             style="fill:#404040;"/>
          </a>
         </g>
        </svg>
</svg>
