<?xml version="1.0" encoding="UTF-8" standalone="no"?>
<!DOCTYPE svg PUBLIC "-//W3C//DTD SVG 1.1//EN"
 "http://www.w3.org/Graphics/SVG/1.1/DTD/svg11.dtd">
<!-- Generated by graphviz version 2.26.3 (20100126.1600)
 -->
<!-- Title: window.ui.UI.paintComponent Pages: 1 -->
<svg width="482pt" height="48pt"
 viewBox="0.00 0.00 482.00 48.00" xmlns="http://www.w3.org/2000/svg" xmlns:xlink="http://www.w3.org/1999/xlink">
<g id="graph1" class="graph" transform="scale(1 1) rotate(0) translate(4 44)">
<title>window.ui.UI.paintComponent</title>
<polygon fill="white" stroke="white" points="-4,5 -4,-44 479,-44 479,5 -4,5"/>
<!-- Node1 -->
<g id="node1" class="node"><title>Node1</title>
<polygon fill="#bfbfbf" stroke="black" points="0.5,-8 0.5,-32 147.5,-32 147.5,-8 0.5,-8"/>
<text text-anchor="middle" x="74" y="-19" font-family="Helvetica,sans-Serif" font-size="10.00">window.ui.UI.paintComponent</text>
</g>
<!-- Node2 -->
<g id="node3" class="node"><title>Node2</title>
<a xlink:href="classwindow_1_1ui_1_1_u_i.html#ab8622a1cf2ea812537f90a9508bbe394" target="_top" xlink:title="Function called to draw the world. ">
<polygon fill="white" stroke="black" points="184,-8 184,-32 306,-32 306,-8 184,-8"/>
<text text-anchor="middle" x="245" y="-19" font-family="Helvetica,sans-Serif" font-size="10.00">window.ui.UI.drawWorld</text>
</a>
</g>
<!-- Node1&#45;&gt;Node2 -->
<g id="edge2" class="edge"><title>Node1&#45;&gt;Node2</title>
<path fill="none" stroke="midnightblue" d="M147.512,-20C156.23,-20 165.118,-20 173.803,-20"/>
<polygon fill="midnightblue" stroke="midnightblue" points="173.884,-23.5001 183.884,-20 173.884,-16.5001 173.884,-23.5001"/>
</g>
<!-- Node3 -->
<g id="node5" class="node"><title>Node3</title>
<a xlink:href="classworld_1_1scenery_1_1_scenery.html#ad49a4c8ba7e7c464b49b30efea953a66" target="_top" xlink:title="Getter for the SCENERY_HEIGHT static field. ">
<polygon fill="white" stroke="black" points="342.5,-0 342.5,-40 473.5,-40 473.5,-0 342.5,-0"/>
<text text-anchor="start" x="350.5" y="-27" font-family="Helvetica,sans-Serif" font-size="10.00">world.scenery.Scenery.get</text>
<text text-anchor="middle" x="408" y="-11" font-family="Helvetica,sans-Serif" font-size="10.00">SceneryHeight</text>
</a>
</g>
<!-- Node2&#45;&gt;Node3 -->
<g id="edge4" class="edge"><title>Node2&#45;&gt;Node3</title>
<path fill="none" stroke="midnightblue" d="M306.159,-20C314.665,-20 323.486,-20 332.219,-20"/>
<polygon fill="midnightblue" stroke="midnightblue" points="332.407,-23.5001 342.407,-20 332.407,-16.5001 332.407,-23.5001"/>
</g>
</g>
</svg>
