<?xml version="1.0" encoding="UTF-8" standalone="no"?>
<!DOCTYPE svg PUBLIC "-//W3C//DTD SVG 1.1//EN"
 "http://www.w3.org/Graphics/SVG/1.1/DTD/svg11.dtd">
<!-- Generated by graphviz version 2.26.3 (20100126.1600)
 -->
<!-- Title: gameplay.ai.AI Pages: 1 -->
<!--zoomable 1052 -->
<svg id="main" version="1.1" xmlns="http://www.w3.org/2000/svg" xmlns:xlink="http://www.w3.org/1999/xlink" xml:space="preserve" onload="init(evt)">
<style type="text/css"><![CDATA[
.edge:hover path { stroke: red; }
.edge:hover polygon { stroke: red; fill: red; }
]]></style>
<script type="text/javascript"><![CDATA[
var edges = document.getElementsByTagName('g');
if (edges && edges.length) {
  for (var i=0;i<edges.length;i++) {
    if (edges[i].id.substr(0,4)=='edge') {
      edges[i].setAttribute('class','edge');
    }
  }
}
]]></script>
        <defs>
                <circle id="rim" cx="0" cy="0" r="7"/>
                <circle id="rim2" cx="0" cy="0" r="3.5"/>
                <g id="zoomPlus">
                        <use xlink:href="#rim" fill="#404040">
                                <set attributeName="fill" to="#808080" begin="zoomplus.mouseover" end="zoomplus.mouseout"/>
                        </use>
                        <path d="M-4,0h8M0,-4v8" fill="none" stroke="white" stroke-width="1.5" pointer-events="none"/>
                </g>
                <g id="zoomMin">
                        <use xlink:href="#rim" fill="#404040">
                                <set attributeName="fill" to="#808080" begin="zoomminus.mouseover" end="zoomminus.mouseout"/>
                        </use>
                        <path d="M-4,0h8" fill="none" stroke="white" stroke-width="1.5" pointer-events="none"/>
                </g>
                <g id="dirArrow">
                        <path fill="none" stroke="white" stroke-width="1.5" d="M0,-3.0v7 M-2.5,-0.5L0,-3.0L2.5,-0.5"/>
                </g>
               <g id="resetDef">
                       <use xlink:href="#rim2" fill="#404040">
                               <set attributeName="fill" to="#808080" begin="reset.mouseover" end="reset.mouseout"/>
                       </use>
               </g>
        </defs>

<script type="text/javascript">
var viewWidth = 478;
var viewHeight = 1052;
var sectionId = 'dynsection-0';
</script>
<script xlink:href="svgpan.js"/>
<svg id="graph" class="graph">
<g id="viewport">
<title>gameplay.ai.AI</title>
<polygon fill="white" stroke="white" points="-4,5 -4,-1048 475,-1048 475,5 -4,5"/>
<!-- Node1 -->
<g id="node1" class="node"><title>Node1</title>
<polygon fill="#bfbfbf" stroke="black" points="211.5,-1 211.5,-153 314.5,-153 314.5,-1 211.5,-1"/>
<text text-anchor="middle" x="263" y="-140" font-family="Helvetica,sans-Serif" font-size="10.00">gameplay.ai.AI</text>
<polyline fill="none" stroke="black" points="211.5,-129 314.5,-129 "/>
<text text-anchor="start" x="219.5" y="-116" font-family="Helvetica,sans-Serif" font-size="10.00"># betrayalCount</text>
<text text-anchor="start" x="219.5" y="-100" font-family="Helvetica,sans-Serif" font-size="10.00"># slaveryCount</text>
<polyline fill="none" stroke="black" points="211.5,-89 314.5,-89 "/>
<text text-anchor="start" x="219.5" y="-76" font-family="Helvetica,sans-Serif" font-size="10.00">+ AI()</text>
<text text-anchor="start" x="219.5" y="-60" font-family="Helvetica,sans-Serif" font-size="10.00">+ setCurrentWorld()</text>
<text text-anchor="start" x="219.5" y="-44" font-family="Helvetica,sans-Serif" font-size="10.00">+ newBetrayal()</text>
<text text-anchor="start" x="219.5" y="-28" font-family="Helvetica,sans-Serif" font-size="10.00">+ newSlavery()</text>
<text text-anchor="start" x="219.5" y="-12" font-family="Helvetica,sans-Serif" font-size="10.00"># changeMood()</text>
</g>
<!-- Node2 -->
<g id="node2" class="node"><title>Node2</title>
<a xlink:href="classgameplay_1_1ai_1_1phrasing_1_1_phrasing.html" target="_top" xlink:title="{gameplay.ai.phrasing.Phrasing\n|# angerBetrayalPhrases\l# powerComplexMotivationPhrases\l# actionAsked\l|+ Phrasing()\l}">
<polygon fill="white" stroke="black" points="-0.5,-279 -0.5,-383 170.5,-383 170.5,-279 -0.5,-279"/>
<text text-anchor="middle" x="85" y="-370" font-family="Helvetica,sans-Serif" font-size="10.00">gameplay.ai.phrasing.Phrasing</text>
<polyline fill="none" stroke="black" points="-0.5,-359 170.5,-359 "/>
<text text-anchor="start" x="7.5" y="-346" font-family="Helvetica,sans-Serif" font-size="10.00"># angerBetrayalPhrases</text>
<text text-anchor="start" x="7.5" y="-330" font-family="Helvetica,sans-Serif" font-size="10.00"># powerComplexMotivationPhrases</text>
<text text-anchor="start" x="7.5" y="-314" font-family="Helvetica,sans-Serif" font-size="10.00"># actionAsked</text>
<polyline fill="none" stroke="black" points="-0.5,-303 170.5,-303 "/>
<text text-anchor="start" x="7.5" y="-290" font-family="Helvetica,sans-Serif" font-size="10.00">+ Phrasing()</text>
</a>
</g>
<!-- Node2&#45;&gt;Node1 -->
<g id="edge2" class="edge"><title>Node2&#45;&gt;Node1</title>
<path fill="none" stroke="#404040" d="M113.12,-278.67C130.944,-246.916 155.24,-206.079 180,-172 187.268,-161.997 195.367,-151.785 203.577,-141.944"/>
<polygon fill="none" stroke="#404040" points="203.702,-141.796 204.529,-134.633 211.459,-132.641 210.632,-139.804 203.702,-141.796"/>
<text text-anchor="middle" x="219.5" y="-179" font-family="Helvetica,sans-Serif" font-size="10.00"> #phrasingSystem</text>
</g>
<!-- Node3 -->
<g id="node4" class="node"><title>Node3</title>
<a xlink:href="classgameplay_1_1ai_1_1phrasing_1_1_ordered_phrases.html" target="_top" xlink:title="Class used to contain an ordered list of phrases. ">
<polygon fill="white" stroke="black" points="12,-733 12,-853 158,-853 158,-733 12,-733"/>
<text text-anchor="start" x="20" y="-840" font-family="Helvetica,sans-Serif" font-size="10.00">gameplay.ai.phrasing.Ordered</text>
<text text-anchor="middle" x="85" y="-824" font-family="Helvetica,sans-Serif" font-size="10.00">Phrases</text>
<polyline fill="none" stroke="black" points="12,-813 158,-813 "/>
<text text-anchor="start" x="20" y="-800" font-family="Helvetica,sans-Serif" font-size="10.00"># phrases</text>
<text text-anchor="start" x="20" y="-784" font-family="Helvetica,sans-Serif" font-size="10.00"># phrasesOrder</text>
<polyline fill="none" stroke="black" points="12,-773 158,-773 "/>
<text text-anchor="start" x="20" y="-760" font-family="Helvetica,sans-Serif" font-size="10.00">+ OrderedPhrases()</text>
<text text-anchor="start" x="20" y="-744" font-family="Helvetica,sans-Serif" font-size="10.00"># getPhrasesNumber()</text>
</a>
</g>
<!-- Node3&#45;&gt;Node2 -->
<g id="edge4" class="edge"><title>Node3&#45;&gt;Node2</title>
<path fill="none" stroke="#404040" d="M85,-732.602C85,-645.351 85,-484.733 85,-395.334"/>
<polygon fill="none" stroke="#404040" points="85.0001,-395.208 81,-389.208 85,-383.208 89,-389.208 85.0001,-395.208"/>
<text text-anchor="middle" x="156.5" y="-641" font-family="Helvetica,sans-Serif" font-size="10.00"> #depressionSlaveryPhrases</text>
<text text-anchor="middle" x="156.5" y="-625" font-family="Helvetica,sans-Serif" font-size="10.00">#powerComplexBetrayalPhrases</text>
<text text-anchor="middle" x="156.5" y="-609" font-family="Helvetica,sans-Serif" font-size="10.00">#depressionMotivationPhrases</text>
<text text-anchor="middle" x="156.5" y="-593" font-family="Helvetica,sans-Serif" font-size="10.00">#angerMotivationPhrases</text>
<text text-anchor="middle" x="156.5" y="-577" font-family="Helvetica,sans-Serif" font-size="10.00">#curiositySlaveryPhrases</text>
<text text-anchor="middle" x="156.5" y="-561" font-family="Helvetica,sans-Serif" font-size="10.00">#curiosityBetrayalPhrases</text>
<text text-anchor="middle" x="156.5" y="-545" font-family="Helvetica,sans-Serif" font-size="10.00">#curiosityMotivationPhrases</text>
<text text-anchor="middle" x="156.5" y="-529" font-family="Helvetica,sans-Serif" font-size="10.00">#powerComplexSlaveryPhrases</text>
<text text-anchor="middle" x="156.5" y="-513" font-family="Helvetica,sans-Serif" font-size="10.00">#depressionBetrayalPhrases</text>
<text text-anchor="middle" x="156.5" y="-497" font-family="Helvetica,sans-Serif" font-size="10.00">#angerSlaveryPhrases</text>
<text text-anchor="middle" x="156.5" y="-481" font-family="Helvetica,sans-Serif" font-size="10.00">...</text>
</g>
<!-- Node4 -->
<g id="node6" class="node"><title>Node4</title>
<a xlink:href="classgameplay_1_1ai_1_1mood_1_1_mood.html" target="_top" xlink:title="Abstract class representing an AI mood. ">
<polygon fill="white" stroke="black" points="188,-207 188,-455 338,-455 338,-207 188,-207"/>
<text text-anchor="middle" x="263" y="-442" font-family="Helvetica,sans-Serif" font-size="10.00">gameplay.ai.mood.Mood</text>
<polyline fill="none" stroke="black" points="188,-431 338,-431 "/>
<text text-anchor="start" x="196" y="-418" font-family="Helvetica,sans-Serif" font-size="10.00"># betrayalThreshold</text>
<text text-anchor="start" x="196" y="-402" font-family="Helvetica,sans-Serif" font-size="10.00"># slaveryThreshold</text>
<text text-anchor="start" x="196" y="-386" font-family="Helvetica,sans-Serif" font-size="10.00"># moodsBetrayalCount</text>
<text text-anchor="start" x="196" y="-370" font-family="Helvetica,sans-Serif" font-size="10.00"># moodsSlaveryCount</text>
<polyline fill="none" stroke="black" points="188,-359 338,-359 "/>
<text text-anchor="start" x="196" y="-346" font-family="Helvetica,sans-Serif" font-size="10.00">+ Mood()</text>
<text text-anchor="start" x="196" y="-330" font-family="Helvetica,sans-Serif" font-size="10.00">+ getBetrayalThreshold()</text>
<text text-anchor="start" x="196" y="-314" font-family="Helvetica,sans-Serif" font-size="10.00">+ getSlaveryThreshold()</text>
<text text-anchor="start" x="196" y="-298" font-family="Helvetica,sans-Serif" font-size="10.00">+ getMoodsBetrayalCount()</text>
<text text-anchor="start" x="196" y="-282" font-family="Helvetica,sans-Serif" font-size="10.00">+ getMoodsSlaveryThreshold()</text>
<text text-anchor="start" x="196" y="-266" font-family="Helvetica,sans-Serif" font-size="10.00">+ incrementBetrayalCount()</text>
<text text-anchor="start" x="196" y="-250" font-family="Helvetica,sans-Serif" font-size="10.00">+ incrementSlaveryCount()</text>
<text text-anchor="start" x="196" y="-234" font-family="Helvetica,sans-Serif" font-size="10.00">+ getNextMood()</text>
<text text-anchor="start" x="196" y="-218" font-family="Helvetica,sans-Serif" font-size="10.00">+ getPreviousMood()</text>
</a>
</g>
<!-- Node4&#45;&gt;Node1 -->
<g id="edge6" class="edge"><title>Node4&#45;&gt;Node1</title>
<path fill="none" stroke="#404040" d="M263,-206.976C263,-192.9 263,-178.774 263,-165.292"/>
<polygon fill="none" stroke="#404040" points="263,-165.112 259,-159.112 263,-153.112 267,-159.112 263,-165.112"/>
<text text-anchor="middle" x="294.5" y="-179" font-family="Helvetica,sans-Serif" font-size="10.00"> #currentMood</text>
</g>
<!-- Node5 -->
<g id="node8" class="node"><title>Node5</title>
<polygon fill="white" stroke="#bfbfbf" points="188,-749 188,-837 334,-837 334,-749 188,-749"/>
<text text-anchor="start" x="196" y="-824" font-family="Helvetica,sans-Serif" font-size="10.00">HashSet&lt; gameplay.ai.mood.</text>
<text text-anchor="middle" x="261" y="-808" font-family="Helvetica,sans-Serif" font-size="10.00">ProbabilityMood &gt;</text>
<polyline fill="none" stroke="#bfbfbf" points="188,-797 334,-797 "/>
<text text-anchor="middle" x="261" y="-784" font-family="Helvetica,sans-Serif" font-size="10.00"> </text>
<polyline fill="none" stroke="#bfbfbf" points="188,-773 334,-773 "/>
<text text-anchor="middle" x="261" y="-760" font-family="Helvetica,sans-Serif" font-size="10.00"> </text>
</g>
<!-- Node5&#45;&gt;Node4 -->
<g id="edge8" class="edge"><title>Node5&#45;&gt;Node4</title>
<path fill="none" stroke="#404040" d="M261.192,-748.701C261.47,-684.484 261.997,-562.768 262.41,-467.223"/>
<polygon fill="none" stroke="#404040" points="262.411,-467.114 258.437,-461.096 262.463,-455.114 266.437,-461.131 262.411,-467.114"/>
<text text-anchor="middle" x="298" y="-569" font-family="Helvetica,sans-Serif" font-size="10.00"> #nextMoods</text>
<text text-anchor="middle" x="298" y="-553" font-family="Helvetica,sans-Serif" font-size="10.00">#previousMoods</text>
</g>
<!-- Node6 -->
<g id="node10" class="node"><title>Node6</title>
<a xlink:href="classworld_1_1_world.html" target="_top" xlink:title="World is a class used to handle the game world graphics. ">
<polygon fill="white" stroke="black" points="357,-239 357,-423 451,-423 451,-239 357,-239"/>
<text text-anchor="middle" x="404" y="-410" font-family="Helvetica,sans-Serif" font-size="10.00">world.World</text>
<polyline fill="none" stroke="black" points="357,-399 451,-399 "/>
<text text-anchor="start" x="365" y="-386" font-family="Helvetica,sans-Serif" font-size="10.00"># sizeX</text>
<text text-anchor="start" x="365" y="-370" font-family="Helvetica,sans-Serif" font-size="10.00"># sizeY</text>
<text text-anchor="start" x="365" y="-354" font-family="Helvetica,sans-Serif" font-size="10.00"># type</text>
<polyline fill="none" stroke="black" points="357,-343 451,-343 "/>
<text text-anchor="start" x="365" y="-330" font-family="Helvetica,sans-Serif" font-size="10.00">+ World()</text>
<text text-anchor="start" x="365" y="-314" font-family="Helvetica,sans-Serif" font-size="10.00">+ World()</text>
<text text-anchor="start" x="365" y="-298" font-family="Helvetica,sans-Serif" font-size="10.00">+ getSizeX()</text>
<text text-anchor="start" x="365" y="-282" font-family="Helvetica,sans-Serif" font-size="10.00">+ getSizeY()</text>
<text text-anchor="start" x="365" y="-266" font-family="Helvetica,sans-Serif" font-size="10.00">+ getMap()</text>
<text text-anchor="start" x="365" y="-250" font-family="Helvetica,sans-Serif" font-size="10.00"># generateWorld()</text>
</a>
</g>
<!-- Node6&#45;&gt;Node1 -->
<g id="edge10" class="edge"><title>Node6&#45;&gt;Node1</title>
<path fill="none" stroke="#404040" d="M365.086,-238.937C354.565,-216.564 342.579,-193.036 330,-172 327.245,-167.394 324.34,-162.719 321.345,-158.04"/>
<polygon fill="none" stroke="#404040" points="321.229,-157.863 314.6,-155.026 314.669,-147.815 321.298,-150.652 321.229,-157.863"/>
<text text-anchor="middle" x="369" y="-179" font-family="Helvetica,sans-Serif" font-size="10.00"> #currentWorld</text>
</g>
<!-- Node7 -->
<g id="node12" class="node"><title>Node7</title>
<a xlink:href="classworld_1_1scenery_1_1_scenery.html" target="_top" xlink:title="Class used to handle any world object. ">
<polygon fill="white" stroke="black" points="351.5,-669 351.5,-917 468.5,-917 468.5,-669 351.5,-669"/>
<text text-anchor="middle" x="410" y="-904" font-family="Helvetica,sans-Serif" font-size="10.00">world.scenery.Scenery</text>
<polyline fill="none" stroke="black" points="351.5,-893 468.5,-893 "/>
<text text-anchor="start" x="359.5" y="-880" font-family="Helvetica,sans-Serif" font-size="10.00"># height</text>
<text text-anchor="start" x="359.5" y="-864" font-family="Helvetica,sans-Serif" font-size="10.00"># width</text>
<text text-anchor="start" x="359.5" y="-848" font-family="Helvetica,sans-Serif" font-size="10.00"># xShift</text>
<text text-anchor="start" x="359.5" y="-832" font-family="Helvetica,sans-Serif" font-size="10.00"># yShift</text>
<text text-anchor="start" x="359.5" y="-816" font-family="Helvetica,sans-Serif" font-size="10.00"># visible</text>
<text text-anchor="start" x="359.5" y="-800" font-family="Helvetica,sans-Serif" font-size="10.00"># SCENERY_HEIGHT</text>
<text text-anchor="start" x="359.5" y="-784" font-family="Helvetica,sans-Serif" font-size="10.00"># SCENERY_WIDTH</text>
<polyline fill="none" stroke="black" points="351.5,-773 468.5,-773 "/>
<text text-anchor="start" x="359.5" y="-760" font-family="Helvetica,sans-Serif" font-size="10.00">+ Scenery()</text>
<text text-anchor="start" x="359.5" y="-744" font-family="Helvetica,sans-Serif" font-size="10.00">+ Scenery()</text>
<text text-anchor="start" x="359.5" y="-728" font-family="Helvetica,sans-Serif" font-size="10.00">+ Scenery()</text>
<text text-anchor="start" x="359.5" y="-712" font-family="Helvetica,sans-Serif" font-size="10.00">+ drawScenery()</text>
<text text-anchor="start" x="359.5" y="-696" font-family="Helvetica,sans-Serif" font-size="10.00">+ getSceneryHeight()</text>
<text text-anchor="start" x="359.5" y="-680" font-family="Helvetica,sans-Serif" font-size="10.00">+ getSceneryWidth()</text>
</a>
</g>
<!-- Node7&#45;&gt;Node6 -->
<g id="edge12" class="edge"><title>Node7&#45;&gt;Node6</title>
<path fill="none" stroke="#404040" d="M408.388,-668.889C407.44,-595.896 406.255,-504.636 405.355,-435.365"/>
<polygon fill="none" stroke="#404040" points="405.352,-435.133 401.275,-429.186 405.197,-423.134 409.274,-429.082 405.352,-435.133"/>
<text text-anchor="middle" x="422" y="-561" font-family="Helvetica,sans-Serif" font-size="10.00"> #map</text>
</g>
<!-- Node8 -->
<g id="node14" class="node"><title>Node8</title>
<polygon fill="white" stroke="#bfbfbf" points="388,-971 388,-1043 432,-1043 432,-971 388,-971"/>
<text text-anchor="middle" x="410" y="-1030" font-family="Helvetica,sans-Serif" font-size="10.00">Image</text>
<polyline fill="none" stroke="#bfbfbf" points="388,-1019 432,-1019 "/>
<text text-anchor="middle" x="410" y="-1006" font-family="Helvetica,sans-Serif" font-size="10.00"> </text>
<polyline fill="none" stroke="#bfbfbf" points="388,-995 432,-995 "/>
<text text-anchor="middle" x="410" y="-982" font-family="Helvetica,sans-Serif" font-size="10.00"> </text>
</g>
<!-- Node8&#45;&gt;Node7 -->
<g id="edge14" class="edge"><title>Node8&#45;&gt;Node7</title>
<path fill="none" stroke="#404040" d="M410,-970.698C410,-958.654 410,-944.447 410,-929.398"/>
<polygon fill="none" stroke="#404040" points="410,-929.175 406,-923.175 410,-917.175 414,-923.175 410,-929.175"/>
<text text-anchor="middle" x="440" y="-943" font-family="Helvetica,sans-Serif" font-size="10.00"> #spriteImage</text>
</g>
</g>
</svg>
        <g id="navigator" transform="translate(0 0)" fill="#404254">
                <rect fill="#f2f5e9" fill-opacity="0.5" stroke="#606060" stroke-width=".5" x="0" y="0" width="60" height="60"/>
                <use id="zoomplus" xlink:href="#zoomPlus" x="17" y="9" onmousedown="handleZoom(evt,'in')"/>
                <use id="zoomminus" xlink:href="#zoomMin" x="42" y="9" onmousedown="handleZoom(evt,'out')"/>
                <use id="reset" xlink:href="#resetDef" x="30" y="36" onmousedown="handleReset()"/>
                <g id="arrowUp" xlink:href="#dirArrow" transform="translate(30 24)" onmousedown="handlePan(0,-1)">
                  <use xlink:href="#rim" fill="#404040">
                        <set attributeName="fill" to="#808080" begin="arrowUp.mouseover" end="arrowUp.mouseout"/>
                  </use>
                  <path fill="none" stroke="white" stroke-width="1.5" d="M0,-3.0v7 M-2.5,-0.5L0,-3.0L2.5,-0.5"/>
                </g>
                <g id="arrowRight" xlink:href="#dirArrow" transform="rotate(90) translate(36 -43)" onmousedown="handlePan(1,0)">
                  <use xlink:href="#rim" fill="#404040">
                        <set attributeName="fill" to="#808080" begin="arrowRight.mouseover" end="arrowRight.mouseout"/>
                  </use>
                  <path fill="none" stroke="white" stroke-width="1.5" d="M0,-3.0v7 M-2.5,-0.5L0,-3.0L2.5,-0.5"/>
                </g>
                <g id="arrowDown" xlink:href="#dirArrow" transform="rotate(180) translate(-30 -48)" onmousedown="handlePan(0,1)">
                  <use xlink:href="#rim" fill="#404040">
                        <set attributeName="fill" to="#808080" begin="arrowDown.mouseover" end="arrowDown.mouseout"/>
                  </use>
                  <path fill="none" stroke="white" stroke-width="1.5" d="M0,-3.0v7 M-2.5,-0.5L0,-3.0L2.5,-0.5"/>
                </g>
                <g id="arrowLeft" xlink:href="#dirArrow" transform="rotate(270) translate(-36 17)" onmousedown="handlePan(-1,0)">
                  <use xlink:href="#rim" fill="#404040">
                        <set attributeName="fill" to="#808080" begin="arrowLeft.mouseover" end="arrowLeft.mouseout"/>
                  </use>
                  <path fill="none" stroke="white" stroke-width="1.5" d="M0,-3.0v7 M-2.5,-0.5L0,-3.0L2.5,-0.5"/>
                </g>
        </g>
        <svg viewBox="0 0 15 15" width="100%" height="30px" preserveAspectRatio="xMaxYMin meet">
         <g id="arrow_out" transform="scale(0.3 0.3)">
          <a xlink:href="classgameplay_1_1ai_1_1_a_i__coll__graph_org.svg" target="_base">
           <rect id="button" ry="5" rx="5" y="6" x="6" height="38" width="38"
                fill="#f2f5e9" fill-opacity="0.5" stroke="#606060" stroke-width="1.0"/>
           <path id="arrow"
             d="M 11.500037,31.436501 C 11.940474,20.09759 22.043105,11.32322 32.158766,21.979434 L 37.068811,17.246167 C 37.068811,17.246167 37.088388,32 37.088388,32 L 22.160133,31.978069 C 22.160133,31.978069 26.997745,27.140456 26.997745,27.140456 C 18.528582,18.264221 13.291696,25.230495 11.500037,31.436501 z"
             style="fill:#404040;"/>
          </a>
         </g>
        </svg>
</svg>
