<?xml version="1.0" encoding="UTF-8" standalone="no"?>
<!DOCTYPE svg PUBLIC "-//W3C//DTD SVG 1.1//EN"
 "http://www.w3.org/Graphics/SVG/1.1/DTD/svg11.dtd">
<!-- Generated by graphviz version 2.26.3 (20100126.1600)
 -->
<!-- Title: world.scenery.Scenery Pages: 1 -->
<svg width="1182pt" height="750pt"
 viewBox="0.00 0.00 1182.00 750.00" xmlns="http://www.w3.org/2000/svg" xmlns:xlink="http://www.w3.org/1999/xlink">
<g id="graph1" class="graph" transform="scale(1 1) rotate(0) translate(4 746)">
<title>world.scenery.Scenery</title>
<polygon fill="white" stroke="white" points="-4,5 -4,-746 1179,-746 1179,5 -4,5"/>
<!-- Node1 -->
<g id="node1" class="node"><title>Node1</title>
<polygon fill="#bfbfbf" stroke="black" points="582.5,-477 582.5,-741 699.5,-741 699.5,-477 582.5,-477"/>
<text text-anchor="middle" x="641" y="-728" font-family="Helvetica,sans-Serif" font-size="10.00">world.scenery.Scenery</text>
<polyline fill="none" stroke="black" points="582.5,-717 699.5,-717 "/>
<text text-anchor="start" x="590.5" y="-704" font-family="Helvetica,sans-Serif" font-size="10.00"># spriteImage</text>
<text text-anchor="start" x="590.5" y="-688" font-family="Helvetica,sans-Serif" font-size="10.00"># height</text>
<text text-anchor="start" x="590.5" y="-672" font-family="Helvetica,sans-Serif" font-size="10.00"># width</text>
<text text-anchor="start" x="590.5" y="-656" font-family="Helvetica,sans-Serif" font-size="10.00"># xShift</text>
<text text-anchor="start" x="590.5" y="-640" font-family="Helvetica,sans-Serif" font-size="10.00"># yShift</text>
<text text-anchor="start" x="590.5" y="-624" font-family="Helvetica,sans-Serif" font-size="10.00"># visible</text>
<text text-anchor="start" x="590.5" y="-608" font-family="Helvetica,sans-Serif" font-size="10.00"># SCENERY_HEIGHT</text>
<text text-anchor="start" x="590.5" y="-592" font-family="Helvetica,sans-Serif" font-size="10.00"># SCENERY_WIDTH</text>
<polyline fill="none" stroke="black" points="582.5,-581 699.5,-581 "/>
<text text-anchor="start" x="590.5" y="-568" font-family="Helvetica,sans-Serif" font-size="10.00">+ Scenery()</text>
<text text-anchor="start" x="590.5" y="-552" font-family="Helvetica,sans-Serif" font-size="10.00">+ Scenery()</text>
<text text-anchor="start" x="590.5" y="-536" font-family="Helvetica,sans-Serif" font-size="10.00">+ Scenery()</text>
<text text-anchor="start" x="590.5" y="-520" font-family="Helvetica,sans-Serif" font-size="10.00">+ drawScenery()</text>
<text text-anchor="start" x="590.5" y="-504" font-family="Helvetica,sans-Serif" font-size="10.00">+ getSceneryHeight()</text>
<text text-anchor="start" x="590.5" y="-488" font-family="Helvetica,sans-Serif" font-size="10.00">+ getSceneryWidth()</text>
</g>
<!-- Node2 -->
<g id="node3" class="node"><title>Node2</title>
<a xlink:href="classworld_1_1character_1_1_character.html" target="_top" xlink:title="Class used to handle a character (player or non&#45;player) ">
<polygon fill="white" stroke="black" points="62,-143 62,-439 194,-439 194,-143 62,-143"/>
<text text-anchor="middle" x="128" y="-426" font-family="Helvetica,sans-Serif" font-size="10.00">world.character.Character</text>
<polyline fill="none" stroke="black" points="62,-415 194,-415 "/>
<text text-anchor="start" x="70" y="-402" font-family="Helvetica,sans-Serif" font-size="10.00"># posX</text>
<text text-anchor="start" x="70" y="-386" font-family="Helvetica,sans-Serif" font-size="10.00"># posY</text>
<text text-anchor="start" x="70" y="-370" font-family="Helvetica,sans-Serif" font-size="10.00"># CHARACTER_HEIGHT</text>
<text text-anchor="start" x="70" y="-354" font-family="Helvetica,sans-Serif" font-size="10.00"># CHARACTER_WIDTH</text>
<polyline fill="none" stroke="black" points="62,-343 194,-343 "/>
<text text-anchor="start" x="70" y="-330" font-family="Helvetica,sans-Serif" font-size="10.00">+ Character()</text>
<text text-anchor="start" x="70" y="-314" font-family="Helvetica,sans-Serif" font-size="10.00">+ jumpX()</text>
<text text-anchor="start" x="70" y="-298" font-family="Helvetica,sans-Serif" font-size="10.00">+ jumpY()</text>
<text text-anchor="start" x="70" y="-282" font-family="Helvetica,sans-Serif" font-size="10.00">+ jump()</text>
<text text-anchor="start" x="70" y="-266" font-family="Helvetica,sans-Serif" font-size="10.00">+ moveX()</text>
<text text-anchor="start" x="70" y="-250" font-family="Helvetica,sans-Serif" font-size="10.00">+ moveY()</text>
<text text-anchor="start" x="70" y="-234" font-family="Helvetica,sans-Serif" font-size="10.00">+ move()</text>
<text text-anchor="start" x="70" y="-218" font-family="Helvetica,sans-Serif" font-size="10.00">+ triggerAction()</text>
<text text-anchor="start" x="70" y="-202" font-family="Helvetica,sans-Serif" font-size="10.00">+ playerNear()</text>
<text text-anchor="start" x="70" y="-186" font-family="Helvetica,sans-Serif" font-size="10.00">+ playerEnter()</text>
<text text-anchor="start" x="70" y="-170" font-family="Helvetica,sans-Serif" font-size="10.00">+ playerLeave()</text>
<text text-anchor="start" x="70" y="-154" font-family="Helvetica,sans-Serif" font-size="10.00">+ isTraversable()</text>
</a>
</g>
<!-- Node1&#45;&gt;Node2 -->
<g id="edge2" class="edge"><title>Node1&#45;&gt;Node2</title>
<path fill="none" stroke="midnightblue" d="M572.226,-598.346C478.446,-580.611 309.919,-536.914 203,-440 199.996,-437.277 197.096,-434.406 194.298,-431.412"/>
<polygon fill="none" stroke="midnightblue" points="571.703,-601.808 582.173,-600.182 572.974,-594.925 571.703,-601.808"/>
</g>
<!-- Node5 -->
<g id="node9" class="node"><title>Node5</title>
<a xlink:href="classworld_1_1scenery_1_1_flower.html" target="_top" xlink:title="Class used to handle a flower object. ">
<polygon fill="white" stroke="black" points="211.5,-255 211.5,-327 320.5,-327 320.5,-255 211.5,-255"/>
<text text-anchor="middle" x="266" y="-314" font-family="Helvetica,sans-Serif" font-size="10.00">world.scenery.Flower</text>
<polyline fill="none" stroke="black" points="211.5,-303 320.5,-303 "/>
<text text-anchor="middle" x="266" y="-290" font-family="Helvetica,sans-Serif" font-size="10.00"> </text>
<polyline fill="none" stroke="black" points="211.5,-279 320.5,-279 "/>
<text text-anchor="start" x="219.5" y="-266" font-family="Helvetica,sans-Serif" font-size="10.00">+ Flower()</text>
</a>
</g>
<!-- Node1&#45;&gt;Node5 -->
<g id="edge8" class="edge"><title>Node1&#45;&gt;Node5</title>
<path fill="none" stroke="midnightblue" d="M572.681,-587.207C503.055,-561.868 396.037,-513.833 329,-440 299.737,-407.771 282.814,-359.947 274.016,-327.227"/>
<polygon fill="none" stroke="midnightblue" points="571.655,-590.557 582.25,-590.633 574.014,-583.967 571.655,-590.557"/>
</g>
<!-- Node6 -->
<g id="node11" class="node"><title>Node6</title>
<a xlink:href="classworld_1_1scenery_1_1_grass.html" target="_top" xlink:title="Class used to handle a grass object. ">
<polygon fill="white" stroke="black" points="338,-255 338,-327 444,-327 444,-255 338,-255"/>
<text text-anchor="middle" x="391" y="-314" font-family="Helvetica,sans-Serif" font-size="10.00">world.scenery.Grass</text>
<polyline fill="none" stroke="black" points="338,-303 444,-303 "/>
<text text-anchor="middle" x="391" y="-290" font-family="Helvetica,sans-Serif" font-size="10.00"> </text>
<polyline fill="none" stroke="black" points="338,-279 444,-279 "/>
<text text-anchor="start" x="346" y="-266" font-family="Helvetica,sans-Serif" font-size="10.00">+ Grass()</text>
</a>
</g>
<!-- Node1&#45;&gt;Node6 -->
<g id="edge10" class="edge"><title>Node1&#45;&gt;Node6</title>
<path fill="none" stroke="midnightblue" d="M574.232,-561.144C534.814,-530.177 486.282,-486.972 453,-440 428.298,-405.137 411.024,-358.935 401.095,-327.276"/>
<polygon fill="none" stroke="midnightblue" points="572.451,-564.193 582.496,-567.563 576.745,-558.665 572.451,-564.193"/>
</g>
<!-- Node7 -->
<g id="node13" class="node"><title>Node7</title>
<a xlink:href="classworld_1_1scenery_1_1_ground.html" target="_top" xlink:title="Class used to handle a ground object. ">
<polygon fill="white" stroke="black" points="461.5,-255 461.5,-327 572.5,-327 572.5,-255 461.5,-255"/>
<text text-anchor="middle" x="517" y="-314" font-family="Helvetica,sans-Serif" font-size="10.00">world.scenery.Ground</text>
<polyline fill="none" stroke="black" points="461.5,-303 572.5,-303 "/>
<text text-anchor="middle" x="517" y="-290" font-family="Helvetica,sans-Serif" font-size="10.00"> </text>
<polyline fill="none" stroke="black" points="461.5,-279 572.5,-279 "/>
<text text-anchor="start" x="469.5" y="-266" font-family="Helvetica,sans-Serif" font-size="10.00">+ Ground()</text>
</a>
</g>
<!-- Node1&#45;&gt;Node7 -->
<g id="edge12" class="edge"><title>Node1&#45;&gt;Node7</title>
<path fill="none" stroke="midnightblue" d="M585.744,-467.294C565.608,-415.656 544.512,-361.555 531.087,-327.127"/>
<polygon fill="none" stroke="midnightblue" points="582.596,-468.857 589.49,-476.902 589.118,-466.314 582.596,-468.857"/>
</g>
<!-- Node8 -->
<g id="node15" class="node"><title>Node8</title>
<a xlink:href="classworld_1_1scenery_1_1_rock.html" target="_top" xlink:title="Class used to handle a rock object. ">
<polygon fill="white" stroke="black" points="589.5,-215 589.5,-367 692.5,-367 692.5,-215 589.5,-215"/>
<text text-anchor="middle" x="641" y="-354" font-family="Helvetica,sans-Serif" font-size="10.00">world.scenery.Rock</text>
<polyline fill="none" stroke="black" points="589.5,-343 692.5,-343 "/>
<text text-anchor="middle" x="641" y="-330" font-family="Helvetica,sans-Serif" font-size="10.00"> </text>
<polyline fill="none" stroke="black" points="589.5,-319 692.5,-319 "/>
<text text-anchor="start" x="597.5" y="-306" font-family="Helvetica,sans-Serif" font-size="10.00">+ Rock()</text>
<text text-anchor="start" x="597.5" y="-290" font-family="Helvetica,sans-Serif" font-size="10.00">+ triggerAction()</text>
<text text-anchor="start" x="597.5" y="-274" font-family="Helvetica,sans-Serif" font-size="10.00">+ playerNear()</text>
<text text-anchor="start" x="597.5" y="-258" font-family="Helvetica,sans-Serif" font-size="10.00">+ playerEnter()</text>
<text text-anchor="start" x="597.5" y="-242" font-family="Helvetica,sans-Serif" font-size="10.00">+ playerLeave()</text>
<text text-anchor="start" x="597.5" y="-226" font-family="Helvetica,sans-Serif" font-size="10.00">+ isTraversable()</text>
</a>
</g>
<!-- Node1&#45;&gt;Node8 -->
<g id="edge14" class="edge"><title>Node1&#45;&gt;Node8</title>
<path fill="none" stroke="midnightblue" d="M641,-466.786C641,-432.502 641,-397.164 641,-367.246"/>
<polygon fill="none" stroke="midnightblue" points="637.5,-466.902 641,-476.902 644.5,-466.902 637.5,-466.902"/>
</g>
<!-- Node9 -->
<g id="node17" class="node"><title>Node9</title>
<a xlink:href="classworld_1_1scenery_1_1_shore.html" target="_top" xlink:title="Class used to handle a shore object. ">
<polygon fill="white" stroke="black" points="709.5,-255 709.5,-327 814.5,-327 814.5,-255 709.5,-255"/>
<text text-anchor="middle" x="762" y="-314" font-family="Helvetica,sans-Serif" font-size="10.00">world.scenery.Shore</text>
<polyline fill="none" stroke="black" points="709.5,-303 814.5,-303 "/>
<text text-anchor="middle" x="762" y="-290" font-family="Helvetica,sans-Serif" font-size="10.00"> </text>
<polyline fill="none" stroke="black" points="709.5,-279 814.5,-279 "/>
<text text-anchor="start" x="717.5" y="-266" font-family="Helvetica,sans-Serif" font-size="10.00">+ Shore()</text>
</a>
</g>
<!-- Node1&#45;&gt;Node9 -->
<g id="edge16" class="edge"><title>Node1&#45;&gt;Node9</title>
<path fill="none" stroke="midnightblue" d="M694.92,-467.294C714.568,-415.656 735.154,-361.555 748.254,-327.127"/>
<polygon fill="none" stroke="midnightblue" points="691.549,-466.311 691.264,-476.902 698.091,-468.8 691.549,-466.311"/>
</g>
<!-- Node10 -->
<g id="node19" class="node"><title>Node10</title>
<a xlink:href="classworld_1_1scenery_1_1_shrub.html" target="_top" xlink:title="Class used to handle a shrub object. ">
<polygon fill="white" stroke="black" points="831.5,-255 831.5,-327 936.5,-327 936.5,-255 831.5,-255"/>
<text text-anchor="middle" x="884" y="-314" font-family="Helvetica,sans-Serif" font-size="10.00">world.scenery.Shrub</text>
<polyline fill="none" stroke="black" points="831.5,-303 936.5,-303 "/>
<text text-anchor="middle" x="884" y="-290" font-family="Helvetica,sans-Serif" font-size="10.00"> </text>
<polyline fill="none" stroke="black" points="831.5,-279 936.5,-279 "/>
<text text-anchor="start" x="839.5" y="-266" font-family="Helvetica,sans-Serif" font-size="10.00">+ Shrub()</text>
</a>
</g>
<!-- Node1&#45;&gt;Node10 -->
<g id="edge18" class="edge"><title>Node1&#45;&gt;Node10</title>
<path fill="none" stroke="midnightblue" d="M707.703,-559.139C745.491,-528.182 791.381,-485.676 823,-440 847.262,-404.952 864.265,-358.786 874.047,-327.185"/>
<polygon fill="none" stroke="midnightblue" points="705.337,-556.552 699.77,-565.567 709.743,-561.99 705.337,-556.552"/>
</g>
<!-- Node11 -->
<g id="node21" class="node"><title>Node11</title>
<a xlink:href="classworld_1_1scenery_1_1_tree.html" target="_top" xlink:title="Class used to handle a tree object. ">
<polygon fill="white" stroke="black" points="954,-215 954,-367 1052,-367 1052,-215 954,-215"/>
<text text-anchor="middle" x="1003" y="-354" font-family="Helvetica,sans-Serif" font-size="10.00">world.scenery.Tree</text>
<polyline fill="none" stroke="black" points="954,-343 1052,-343 "/>
<text text-anchor="middle" x="1003" y="-330" font-family="Helvetica,sans-Serif" font-size="10.00"> </text>
<polyline fill="none" stroke="black" points="954,-319 1052,-319 "/>
<text text-anchor="start" x="962" y="-306" font-family="Helvetica,sans-Serif" font-size="10.00">+ Tree()</text>
<text text-anchor="start" x="962" y="-290" font-family="Helvetica,sans-Serif" font-size="10.00">+ triggerAction()</text>
<text text-anchor="start" x="962" y="-274" font-family="Helvetica,sans-Serif" font-size="10.00">+ playerNear()</text>
<text text-anchor="start" x="962" y="-258" font-family="Helvetica,sans-Serif" font-size="10.00">+ playerEnter()</text>
<text text-anchor="start" x="962" y="-242" font-family="Helvetica,sans-Serif" font-size="10.00">+ playerLeave()</text>
<text text-anchor="start" x="962" y="-226" font-family="Helvetica,sans-Serif" font-size="10.00">+ isTraversable()</text>
</a>
</g>
<!-- Node1&#45;&gt;Node11 -->
<g id="edge20" class="edge"><title>Node1&#45;&gt;Node11</title>
<path fill="none" stroke="midnightblue" d="M709.322,-586.644C777.535,-561.122 881.155,-513.189 945,-440 963.065,-419.291 975.832,-392.316 984.697,-367.018"/>
<polygon fill="none" stroke="midnightblue" points="707.701,-583.511 699.524,-590.248 710.117,-590.081 707.701,-583.511"/>
</g>
<!-- Node12 -->
<g id="node23" class="node"><title>Node12</title>
<a xlink:href="classworld_1_1scenery_1_1_water.html" target="_top" xlink:title="Class used to handle a water object. ">
<polygon fill="white" stroke="black" points="1069.5,-215 1069.5,-367 1174.5,-367 1174.5,-215 1069.5,-215"/>
<text text-anchor="middle" x="1122" y="-354" font-family="Helvetica,sans-Serif" font-size="10.00">world.scenery.Water</text>
<polyline fill="none" stroke="black" points="1069.5,-343 1174.5,-343 "/>
<text text-anchor="middle" x="1122" y="-330" font-family="Helvetica,sans-Serif" font-size="10.00"> </text>
<polyline fill="none" stroke="black" points="1069.5,-319 1174.5,-319 "/>
<text text-anchor="start" x="1077.5" y="-306" font-family="Helvetica,sans-Serif" font-size="10.00">+ Water()</text>
<text text-anchor="start" x="1077.5" y="-290" font-family="Helvetica,sans-Serif" font-size="10.00">+ triggerAction()</text>
<text text-anchor="start" x="1077.5" y="-274" font-family="Helvetica,sans-Serif" font-size="10.00">+ playerNear()</text>
<text text-anchor="start" x="1077.5" y="-258" font-family="Helvetica,sans-Serif" font-size="10.00">+ playerEnter()</text>
<text text-anchor="start" x="1077.5" y="-242" font-family="Helvetica,sans-Serif" font-size="10.00">+ playerLeave()</text>
<text text-anchor="start" x="1077.5" y="-226" font-family="Helvetica,sans-Serif" font-size="10.00">+ isTraversable()</text>
</a>
</g>
<!-- Node1&#45;&gt;Node12 -->
<g id="edge22" class="edge"><title>Node1&#45;&gt;Node12</title>
<path fill="none" stroke="midnightblue" d="M709.816,-598.346C801.339,-580.783 962.942,-537.469 1061,-440 1080.92,-420.196 1094.61,-392.978 1103.88,-367.219"/>
<polygon fill="none" stroke="midnightblue" points="709.012,-594.935 699.826,-600.214 710.299,-601.816 709.012,-594.935"/>
</g>
<!-- Node3 -->
<g id="node5" class="node"><title>Node3</title>
<a xlink:href="classworld_1_1character_1_1_hero.html" target="_top" xlink:title="Class handling the main playing Character. ">
<polygon fill="white" stroke="black" points="-0.5,-17 -0.5,-89 106.5,-89 106.5,-17 -0.5,-17"/>
<text text-anchor="middle" x="53" y="-76" font-family="Helvetica,sans-Serif" font-size="10.00">world.character.Hero</text>
<polyline fill="none" stroke="black" points="-0.5,-65 106.5,-65 "/>
<text text-anchor="middle" x="53" y="-52" font-family="Helvetica,sans-Serif" font-size="10.00"> </text>
<polyline fill="none" stroke="black" points="-0.5,-41 106.5,-41 "/>
<text text-anchor="start" x="7.5" y="-28" font-family="Helvetica,sans-Serif" font-size="10.00">+ Hero()</text>
</a>
</g>
<!-- Node2&#45;&gt;Node3 -->
<g id="edge4" class="edge"><title>Node2&#45;&gt;Node3</title>
<path fill="none" stroke="midnightblue" d="M78.3079,-133.31C73.1947,-117.084 68.4209,-101.936 64.4279,-89.2644"/>
<polygon fill="none" stroke="midnightblue" points="75.0105,-134.492 81.3543,-142.978 81.6868,-132.388 75.0105,-134.492"/>
</g>
<!-- Node4 -->
<g id="node7" class="node"><title>Node4</title>
<a xlink:href="classworld_1_1character_1_1_talking_character.html" target="_top" xlink:title="Class handling a talking character. ">
<polygon fill="white" stroke="black" points="123.5,-1 123.5,-105 282.5,-105 282.5,-1 123.5,-1"/>
<text text-anchor="middle" x="203" y="-92" font-family="Helvetica,sans-Serif" font-size="10.00">world.character.TalkingCharacter</text>
<polyline fill="none" stroke="black" points="123.5,-81 282.5,-81 "/>
<text text-anchor="middle" x="203" y="-68" font-family="Helvetica,sans-Serif" font-size="10.00"> </text>
<polyline fill="none" stroke="black" points="123.5,-57 282.5,-57 "/>
<text text-anchor="start" x="131.5" y="-44" font-family="Helvetica,sans-Serif" font-size="10.00">+ TalkingCharacter()</text>
<text text-anchor="start" x="131.5" y="-28" font-family="Helvetica,sans-Serif" font-size="10.00">+ talk()</text>
<text text-anchor="start" x="131.5" y="-12" font-family="Helvetica,sans-Serif" font-size="10.00">+ triggerAction()</text>
</a>
</g>
<!-- Node2&#45;&gt;Node4 -->
<g id="edge6" class="edge"><title>Node2&#45;&gt;Node4</title>
<path fill="none" stroke="midnightblue" d="M177.687,-133.328C180.821,-123.381 183.828,-113.838 186.606,-105.023"/>
<polygon fill="none" stroke="midnightblue" points="174.313,-132.388 174.646,-142.978 180.99,-134.492 174.313,-132.388"/>
</g>
</g>
</svg>
