<?xml version="1.0" encoding="UTF-8" standalone="no"?>
<!DOCTYPE svg PUBLIC "-//W3C//DTD SVG 1.1//EN"
 "http://www.w3.org/Graphics/SVG/1.1/DTD/svg11.dtd">
<!-- Generated by graphviz version 2.26.3 (20100126.1600)
 -->
<!-- Title: world.scenery.Ground Pages: 1 -->
<!--zoomable 384 -->
<svg id="main" version="1.1" xmlns="http://www.w3.org/2000/svg" xmlns:xlink="http://www.w3.org/1999/xlink" xml:space="preserve" onload="init(evt)">
<style type="text/css"><![CDATA[
.edge:hover path { stroke: red; }
.edge:hover polygon { stroke: red; fill: red; }
]]></style>
<script type="text/javascript"><![CDATA[
var edges = document.getElementsByTagName('g');
if (edges && edges.length) {
  for (var i=0;i<edges.length;i++) {
    if (edges[i].id.substr(0,4)=='edge') {
      edges[i].setAttribute('class','edge');
    }
  }
}
]]></script>
        <defs>
                <circle id="rim" cx="0" cy="0" r="7"/>
                <circle id="rim2" cx="0" cy="0" r="3.5"/>
                <g id="zoomPlus">
                        <use xlink:href="#rim" fill="#404040">
                                <set attributeName="fill" to="#808080" begin="zoomplus.mouseover" end="zoomplus.mouseout"/>
                        </use>
                        <path d="M-4,0h8M0,-4v8" fill="none" stroke="white" stroke-width="1.5" pointer-events="none"/>
                </g>
                <g id="zoomMin">
                        <use xlink:href="#rim" fill="#404040">
                                <set attributeName="fill" to="#808080" begin="zoomminus.mouseover" end="zoomminus.mouseout"/>
                        </use>
                        <path d="M-4,0h8" fill="none" stroke="white" stroke-width="1.5" pointer-events="none"/>
                </g>
                <g id="dirArrow">
                        <path fill="none" stroke="white" stroke-width="1.5" d="M0,-3.0v7 M-2.5,-0.5L0,-3.0L2.5,-0.5"/>
                </g>
               <g id="resetDef">
                       <use xlink:href="#rim2" fill="#404040">
                               <set attributeName="fill" to="#808080" begin="reset.mouseover" end="reset.mouseout"/>
                       </use>
               </g>
        </defs>

<script type="text/javascript">
var viewWidth = 1402;
var viewHeight = 384;
var sectionId = 'dynsection-0';
</script>
<script xlink:href="svgpan.js"/>
<svg id="graph" class="graph">
<g id="viewport">
<title>world.scenery.Ground</title>
<polygon fill="white" stroke="white" points="-4,5 -4,-380 1399,-380 1399,5 -4,5"/>
<!-- Node1 -->
<g id="node1" class="node"><title>Node1</title>
<polygon fill="#bfbfbf" stroke="black" points="636.5,-1 636.5,-73 747.5,-73 747.5,-1 636.5,-1"/>
<text text-anchor="middle" x="692" y="-60" font-family="Helvetica,sans-Serif" font-size="10.00">world.scenery.Ground</text>
<polyline fill="none" stroke="black" points="636.5,-49 747.5,-49 "/>
<text text-anchor="middle" x="692" y="-36" font-family="Helvetica,sans-Serif" font-size="10.00"> </text>
<polyline fill="none" stroke="black" points="636.5,-25 747.5,-25 "/>
<text text-anchor="start" x="644.5" y="-12" font-family="Helvetica,sans-Serif" font-size="10.00">+ Ground()</text>
</g>
<!-- Node2 -->
<g id="node2" class="node"><title>Node2</title>
<a xlink:href="classworld_1_1scenery_1_1_scenery.html" target="_top" xlink:title="Class used to handle any world object. ">
<polygon fill="white" stroke="black" points="-0.5,-111 -0.5,-375 116.5,-375 116.5,-111 -0.5,-111"/>
<text text-anchor="middle" x="58" y="-362" font-family="Helvetica,sans-Serif" font-size="10.00">world.scenery.Scenery</text>
<polyline fill="none" stroke="black" points="-0.5,-351 116.5,-351 "/>
<text text-anchor="start" x="7.5" y="-338" font-family="Helvetica,sans-Serif" font-size="10.00"># spriteImage</text>
<text text-anchor="start" x="7.5" y="-322" font-family="Helvetica,sans-Serif" font-size="10.00"># height</text>
<text text-anchor="start" x="7.5" y="-306" font-family="Helvetica,sans-Serif" font-size="10.00"># width</text>
<text text-anchor="start" x="7.5" y="-290" font-family="Helvetica,sans-Serif" font-size="10.00"># xShift</text>
<text text-anchor="start" x="7.5" y="-274" font-family="Helvetica,sans-Serif" font-size="10.00"># yShift</text>
<text text-anchor="start" x="7.5" y="-258" font-family="Helvetica,sans-Serif" font-size="10.00"># visible</text>
<text text-anchor="start" x="7.5" y="-242" font-family="Helvetica,sans-Serif" font-size="10.00"># SCENERY_HEIGHT</text>
<text text-anchor="start" x="7.5" y="-226" font-family="Helvetica,sans-Serif" font-size="10.00"># SCENERY_WIDTH</text>
<polyline fill="none" stroke="black" points="-0.5,-215 116.5,-215 "/>
<text text-anchor="start" x="7.5" y="-202" font-family="Helvetica,sans-Serif" font-size="10.00">+ Scenery()</text>
<text text-anchor="start" x="7.5" y="-186" font-family="Helvetica,sans-Serif" font-size="10.00">+ Scenery()</text>
<text text-anchor="start" x="7.5" y="-170" font-family="Helvetica,sans-Serif" font-size="10.00">+ Scenery()</text>
<text text-anchor="start" x="7.5" y="-154" font-family="Helvetica,sans-Serif" font-size="10.00">+ drawScenery()</text>
<text text-anchor="start" x="7.5" y="-138" font-family="Helvetica,sans-Serif" font-size="10.00">+ getSceneryHeight()</text>
<text text-anchor="start" x="7.5" y="-122" font-family="Helvetica,sans-Serif" font-size="10.00">+ getSceneryWidth()</text>
</a>
</g>
<!-- Node2&#45;&gt;Node1 -->
<g id="edge2" class="edge"><title>Node2&#45;&gt;Node1</title>
<path fill="none" stroke="midnightblue" d="M124.448,-110.394C124.631,-110.262 124.815,-110.131 125,-110 166.311,-80.7506 501.833,-51.7617 636.435,-41.1918"/>
<polygon fill="none" stroke="midnightblue" points="122.119,-107.775 116.501,-116.757 126.495,-113.239 122.119,-107.775"/>
</g>
<!-- Node3 -->
<g id="node4" class="node"><title>Node3</title>
<a xlink:href="interfaceworld_1_1scenery_1_1_temperate_broadleaf_theme.html" target="_top" xlink:title="Interface used to define that a Scenery object have a Temperate Broadleaf style. ">
<polygon fill="white" stroke="black" points="133.5,-199 133.5,-287 300.5,-287 300.5,-199 133.5,-199"/>
<text text-anchor="start" x="141.5" y="-274" font-family="Helvetica,sans-Serif" font-size="10.00">world.scenery.TemperateBroadleaf</text>
<text text-anchor="middle" x="217" y="-258" font-family="Helvetica,sans-Serif" font-size="10.00">Theme</text>
<polyline fill="none" stroke="black" points="133.5,-247 300.5,-247 "/>
<text text-anchor="start" x="141.5" y="-234" font-family="Helvetica,sans-Serif" font-size="10.00">+ TEMPERATE_BROADLEAF</text>
<polyline fill="none" stroke="black" points="133.5,-223 300.5,-223 "/>
<text text-anchor="middle" x="217" y="-210" font-family="Helvetica,sans-Serif" font-size="10.00"> </text>
</a>
</g>
<!-- Node3&#45;&gt;Node1 -->
<g id="edge4" class="edge"><title>Node3&#45;&gt;Node1</title>
<path fill="none" stroke="midnightblue" d="M241.186,-189.789C256.645,-161.755 279.38,-129.279 309,-110 362.257,-75.3364 543.402,-52.2525 636.204,-42.4079"/>
<polygon fill="none" stroke="midnightblue" points="238.045,-188.242 236.423,-198.712 244.22,-191.538 238.045,-188.242"/>
</g>
<!-- Node4 -->
<g id="node6" class="node"><title>Node4</title>
<a xlink:href="interfaceworld_1_1scenery_1_1_taiga_theme.html" target="_top" xlink:title="Interface used to define that a Scenery object have a Taiga style. ">
<polygon fill="white" stroke="black" points="317.5,-207 317.5,-279 450.5,-279 450.5,-207 317.5,-207"/>
<text text-anchor="middle" x="384" y="-266" font-family="Helvetica,sans-Serif" font-size="10.00">world.scenery.TaigaTheme</text>
<polyline fill="none" stroke="black" points="317.5,-255 450.5,-255 "/>
<text text-anchor="start" x="325.5" y="-242" font-family="Helvetica,sans-Serif" font-size="10.00">+ TAIGA</text>
<polyline fill="none" stroke="black" points="317.5,-231 450.5,-231 "/>
<text text-anchor="middle" x="384" y="-218" font-family="Helvetica,sans-Serif" font-size="10.00"> </text>
</a>
</g>
<!-- Node4&#45;&gt;Node1 -->
<g id="edge6" class="edge"><title>Node4&#45;&gt;Node1</title>
<path fill="none" stroke="midnightblue" d="M399.607,-197.464C411.658,-168.623 431.047,-132.626 459,-110 510.235,-68.5275 585.196,-50.5034 636.155,-42.7433"/>
<polygon fill="none" stroke="midnightblue" points="396.28,-196.357 395.799,-206.941 402.775,-198.967 396.28,-196.357"/>
</g>
<!-- Node5 -->
<g id="node8" class="node"><title>Node5</title>
<a xlink:href="interfaceworld_1_1scenery_1_1_alpine_tundra_theme.html" target="_top" xlink:title="Interface used to define that a Scenery object have an Alpine Tundra style. ">
<polygon fill="white" stroke="black" points="468,-199 468,-287 604,-287 604,-199 468,-199"/>
<text text-anchor="start" x="476" y="-274" font-family="Helvetica,sans-Serif" font-size="10.00">world.scenery.AlpineTundra</text>
<text text-anchor="middle" x="536" y="-258" font-family="Helvetica,sans-Serif" font-size="10.00">Theme</text>
<polyline fill="none" stroke="black" points="468,-247 604,-247 "/>
<text text-anchor="start" x="476" y="-234" font-family="Helvetica,sans-Serif" font-size="10.00">+ ALPINE_TUNDRA</text>
<polyline fill="none" stroke="black" points="468,-223 604,-223 "/>
<text text-anchor="middle" x="536" y="-210" font-family="Helvetica,sans-Serif" font-size="10.00"> </text>
</a>
</g>
<!-- Node5&#45;&gt;Node1 -->
<g id="edge8" class="edge"><title>Node5&#45;&gt;Node1</title>
<path fill="none" stroke="midnightblue" d="M562.007,-189.871C575.567,-164.537 593.403,-134.492 613,-110 623.384,-97.0227 636.096,-84.2456 648.262,-73.0979"/>
<polygon fill="none" stroke="midnightblue" points="558.776,-188.494 557.209,-198.972 564.968,-191.758 558.776,-188.494"/>
</g>
<!-- Node6 -->
<g id="node10" class="node"><title>Node6</title>
<a xlink:href="interfaceworld_1_1scenery_1_1_steppe_theme.html" target="_top" xlink:title="Interface used to define that a Scenery object have a Steppe style. ">
<polygon fill="white" stroke="black" points="622,-207 622,-279 762,-279 762,-207 622,-207"/>
<text text-anchor="middle" x="692" y="-266" font-family="Helvetica,sans-Serif" font-size="10.00">world.scenery.SteppeTheme</text>
<polyline fill="none" stroke="black" points="622,-255 762,-255 "/>
<text text-anchor="start" x="630" y="-242" font-family="Helvetica,sans-Serif" font-size="10.00">+ STEPPE</text>
<polyline fill="none" stroke="black" points="622,-231 762,-231 "/>
<text text-anchor="middle" x="692" y="-218" font-family="Helvetica,sans-Serif" font-size="10.00"> </text>
</a>
</g>
<!-- Node6&#45;&gt;Node1 -->
<g id="edge10" class="edge"><title>Node6&#45;&gt;Node1</title>
<path fill="none" stroke="midnightblue" d="M692,-196.535C692,-159.25 692,-107.644 692,-73.3369"/>
<polygon fill="none" stroke="midnightblue" points="688.5,-196.645 692,-206.646 695.5,-196.646 688.5,-196.645"/>
</g>
<!-- Node7 -->
<g id="node12" class="node"><title>Node7</title>
<a xlink:href="interfaceworld_1_1scenery_1_1_cave_theme.html" target="_top" xlink:title="Interface used to tell that a Scenery object has a Cave style. ">
<polygon fill="white" stroke="black" points="779.5,-207 779.5,-279 912.5,-279 912.5,-207 779.5,-207"/>
<text text-anchor="middle" x="846" y="-266" font-family="Helvetica,sans-Serif" font-size="10.00">world.scenery.CaveTheme</text>
<polyline fill="none" stroke="black" points="779.5,-255 912.5,-255 "/>
<text text-anchor="start" x="787.5" y="-242" font-family="Helvetica,sans-Serif" font-size="10.00">+ CAVE</text>
<polyline fill="none" stroke="black" points="779.5,-231 912.5,-231 "/>
<text text-anchor="middle" x="846" y="-218" font-family="Helvetica,sans-Serif" font-size="10.00"> </text>
</a>
</g>
<!-- Node7&#45;&gt;Node1 -->
<g id="edge12" class="edge"><title>Node7&#45;&gt;Node1</title>
<path fill="none" stroke="midnightblue" d="M824.963,-197.797C811.429,-170.985 792.402,-137.062 771,-110 760.69,-96.9641 748.001,-84.1691 735.832,-73.023"/>
<polygon fill="none" stroke="midnightblue" points="821.932,-199.563 829.516,-206.962 828.201,-196.449 821.932,-199.563"/>
</g>
<!-- Node8 -->
<g id="node14" class="node"><title>Node8</title>
<a xlink:href="interfaceworld_1_1scenery_1_1_polar_desert_theme.html" target="_top" xlink:title="Interface used to define that a Scenery object has a Polar Desert style. ">
<polygon fill="white" stroke="black" points="929.5,-199 929.5,-287 1060.5,-287 1060.5,-199 929.5,-199"/>
<text text-anchor="start" x="937.5" y="-274" font-family="Helvetica,sans-Serif" font-size="10.00">world.scenery.PolarDesert</text>
<text text-anchor="middle" x="995" y="-258" font-family="Helvetica,sans-Serif" font-size="10.00">Theme</text>
<polyline fill="none" stroke="black" points="929.5,-247 1060.5,-247 "/>
<text text-anchor="start" x="937.5" y="-234" font-family="Helvetica,sans-Serif" font-size="10.00">+ POLAR_DESERT</text>
<polyline fill="none" stroke="black" points="929.5,-223 1060.5,-223 "/>
<text text-anchor="middle" x="995" y="-210" font-family="Helvetica,sans-Serif" font-size="10.00"> </text>
</a>
</g>
<!-- Node8&#45;&gt;Node1 -->
<g id="edge14" class="edge"><title>Node8&#45;&gt;Node1</title>
<path fill="none" stroke="midnightblue" d="M976.33,-189.568C964.349,-162.319 946.244,-130.658 921,-110 871.107,-69.1704 798.027,-51.0345 747.921,-43.0717"/>
<polygon fill="none" stroke="midnightblue" points="973.198,-191.148 980.314,-198.997 979.646,-188.423 973.198,-191.148"/>
</g>
<!-- Node9 -->
<g id="node16" class="node"><title>Node9</title>
<a xlink:href="interfaceworld_1_1scenery_1_1_xeric_shrublands_theme.html" target="_top" xlink:title="Interface used to define that a Scenery object have a Xeric Shrublands style. ">
<polygon fill="white" stroke="black" points="1077.5,-199 1077.5,-287 1228.5,-287 1228.5,-199 1077.5,-199"/>
<text text-anchor="start" x="1085.5" y="-274" font-family="Helvetica,sans-Serif" font-size="10.00">world.scenery.XericShrublands</text>
<text text-anchor="middle" x="1153" y="-258" font-family="Helvetica,sans-Serif" font-size="10.00">Theme</text>
<polyline fill="none" stroke="black" points="1077.5,-247 1228.5,-247 "/>
<text text-anchor="start" x="1085.5" y="-234" font-family="Helvetica,sans-Serif" font-size="10.00">+ XERIC_SHRUBLANDS</text>
<polyline fill="none" stroke="black" points="1077.5,-223 1228.5,-223 "/>
<text text-anchor="middle" x="1153" y="-210" font-family="Helvetica,sans-Serif" font-size="10.00"> </text>
</a>
</g>
<!-- Node9&#45;&gt;Node1 -->
<g id="edge16" class="edge"><title>Node9&#45;&gt;Node1</title>
<path fill="none" stroke="midnightblue" d="M1131.78,-189.513C1117.98,-161.59 1097.26,-129.309 1069,-110 1017.46,-74.7889 839.619,-52.0319 747.815,-42.3484"/>
<polygon fill="none" stroke="midnightblue" points="1128.73,-191.263 1136.19,-198.79 1135.05,-188.256 1128.73,-191.263"/>
</g>
<!-- Node10 -->
<g id="node18" class="node"><title>Node10</title>
<a xlink:href="interfaceworld_1_1scenery_1_1_savanna_theme.html" target="_top" xlink:title="Interface used to define that a Scenery object have a Savanna style. ">
<polygon fill="white" stroke="black" points="1246,-207 1246,-279 1394,-279 1394,-207 1246,-207"/>
<text text-anchor="middle" x="1320" y="-266" font-family="Helvetica,sans-Serif" font-size="10.00">world.scenery.SavannaTheme</text>
<polyline fill="none" stroke="black" points="1246,-255 1394,-255 "/>
<text text-anchor="start" x="1254" y="-242" font-family="Helvetica,sans-Serif" font-size="10.00">+ SAVANNA</text>
<polyline fill="none" stroke="black" points="1246,-231 1394,-231 "/>
<text text-anchor="middle" x="1320" y="-218" font-family="Helvetica,sans-Serif" font-size="10.00"> </text>
</a>
</g>
<!-- Node10&#45;&gt;Node1 -->
<g id="edge18" class="edge"><title>Node10&#45;&gt;Node1</title>
<path fill="none" stroke="midnightblue" d="M1303.49,-197.295C1290.23,-167.453 1268.57,-130.373 1237,-110 1156.89,-58.3079 869.983,-42.8394 747.771,-38.5374"/>
<polygon fill="none" stroke="midnightblue" points="1300.35,-198.873 1307.5,-206.699 1306.79,-196.128 1300.35,-198.873"/>
</g>
</g>
</svg>
        <g id="navigator" transform="translate(0 0)" fill="#404254">
                <rect fill="#f2f5e9" fill-opacity="0.5" stroke="#606060" stroke-width=".5" x="0" y="0" width="60" height="60"/>
                <use id="zoomplus" xlink:href="#zoomPlus" x="17" y="9" onmousedown="handleZoom(evt,'in')"/>
                <use id="zoomminus" xlink:href="#zoomMin" x="42" y="9" onmousedown="handleZoom(evt,'out')"/>
                <use id="reset" xlink:href="#resetDef" x="30" y="36" onmousedown="handleReset()"/>
                <g id="arrowUp" xlink:href="#dirArrow" transform="translate(30 24)" onmousedown="handlePan(0,-1)">
                  <use xlink:href="#rim" fill="#404040">
                        <set attributeName="fill" to="#808080" begin="arrowUp.mouseover" end="arrowUp.mouseout"/>
                  </use>
                  <path fill="none" stroke="white" stroke-width="1.5" d="M0,-3.0v7 M-2.5,-0.5L0,-3.0L2.5,-0.5"/>
                </g>
                <g id="arrowRight" xlink:href="#dirArrow" transform="rotate(90) translate(36 -43)" onmousedown="handlePan(1,0)">
                  <use xlink:href="#rim" fill="#404040">
                        <set attributeName="fill" to="#808080" begin="arrowRight.mouseover" end="arrowRight.mouseout"/>
                  </use>
                  <path fill="none" stroke="white" stroke-width="1.5" d="M0,-3.0v7 M-2.5,-0.5L0,-3.0L2.5,-0.5"/>
                </g>
                <g id="arrowDown" xlink:href="#dirArrow" transform="rotate(180) translate(-30 -48)" onmousedown="handlePan(0,1)">
                  <use xlink:href="#rim" fill="#404040">
                        <set attributeName="fill" to="#808080" begin="arrowDown.mouseover" end="arrowDown.mouseout"/>
                  </use>
                  <path fill="none" stroke="white" stroke-width="1.5" d="M0,-3.0v7 M-2.5,-0.5L0,-3.0L2.5,-0.5"/>
                </g>
                <g id="arrowLeft" xlink:href="#dirArrow" transform="rotate(270) translate(-36 17)" onmousedown="handlePan(-1,0)">
                  <use xlink:href="#rim" fill="#404040">
                        <set attributeName="fill" to="#808080" begin="arrowLeft.mouseover" end="arrowLeft.mouseout"/>
                  </use>
                  <path fill="none" stroke="white" stroke-width="1.5" d="M0,-3.0v7 M-2.5,-0.5L0,-3.0L2.5,-0.5"/>
                </g>
        </g>
        <svg viewBox="0 0 15 15" width="100%" height="30px" preserveAspectRatio="xMaxYMin meet">
         <g id="arrow_out" transform="scale(0.3 0.3)">
          <a xlink:href="classworld_1_1scenery_1_1_ground__inherit__graph_org.svg" target="_base">
           <rect id="button" ry="5" rx="5" y="6" x="6" height="38" width="38"
                fill="#f2f5e9" fill-opacity="0.5" stroke="#606060" stroke-width="1.0"/>
           <path id="arrow"
             d="M 11.500037,31.436501 C 11.940474,20.09759 22.043105,11.32322 32.158766,21.979434 L 37.068811,17.246167 C 37.068811,17.246167 37.088388,32 37.088388,32 L 22.160133,31.978069 C 22.160133,31.978069 26.997745,27.140456 26.997745,27.140456 C 18.528582,18.264221 13.291696,25.230495 11.500037,31.436501 z"
             style="fill:#404040;"/>
          </a>
         </g>
        </svg>
</svg>
