<?xml version="1.0" encoding="UTF-8" standalone="no"?>
<!DOCTYPE svg PUBLIC "-//W3C//DTD SVG 1.1//EN"
 "http://www.w3.org/Graphics/SVG/1.1/DTD/svg11.dtd">
<!-- Generated by graphviz version 2.26.3 (20100126.1600)
 -->
<!-- Title: window.topbar.TopBarButton Pages: 1 -->
<svg width="159pt" height="224pt"
 viewBox="0.00 0.00 159.00 224.00" xmlns="http://www.w3.org/2000/svg" xmlns:xlink="http://www.w3.org/1999/xlink">
<g id="graph1" class="graph" transform="scale(1 1) rotate(0) translate(4 220)">
<title>window.topbar.TopBarButton</title>
<polygon fill="white" stroke="white" points="-4,5 -4,-220 156,-220 156,5 -4,5"/>
<!-- Node1 -->
<g id="node1" class="node"><title>Node1</title>
<polygon fill="#bfbfbf" stroke="black" points="0,-1 0,-89 140,-89 140,-1 0,-1"/>
<text text-anchor="middle" x="70" y="-76" font-family="Helvetica,sans-Serif" font-size="10.00">window.topbar.TopBarButton</text>
<polyline fill="none" stroke="black" points="0,-65 140,-65 "/>
<text text-anchor="middle" x="70" y="-52" font-family="Helvetica,sans-Serif" font-size="10.00"> </text>
<polyline fill="none" stroke="black" points="0,-41 140,-41 "/>
<text text-anchor="start" x="8" y="-28" font-family="Helvetica,sans-Serif" font-size="10.00">+ TopBarButton()</text>
<text text-anchor="start" x="8" y="-12" font-family="Helvetica,sans-Serif" font-size="10.00">+ paintComponent()</text>
</g>
<!-- Node2 -->
<g id="node2" class="node"><title>Node2</title>
<polygon fill="white" stroke="#bfbfbf" points="13,-143 13,-215 63,-215 63,-143 13,-143"/>
<text text-anchor="middle" x="38" y="-202" font-family="Helvetica,sans-Serif" font-size="10.00">JButton</text>
<polyline fill="none" stroke="#bfbfbf" points="13,-191 63,-191 "/>
<text text-anchor="middle" x="38" y="-178" font-family="Helvetica,sans-Serif" font-size="10.00"> </text>
<polyline fill="none" stroke="#bfbfbf" points="13,-167 63,-167 "/>
<text text-anchor="middle" x="38" y="-154" font-family="Helvetica,sans-Serif" font-size="10.00"> </text>
</g>
<!-- Node2&#45;&gt;Node1 -->
<g id="edge2" class="edge"><title>Node2&#45;&gt;Node1</title>
<path fill="none" stroke="midnightblue" d="M49.0353,-132.79C52.3896,-118.744 56.0669,-103.345 59.3924,-89.4194"/>
<polygon fill="none" stroke="midnightblue" points="45.5782,-132.198 46.6597,-142.738 52.3868,-133.824 45.5782,-132.198"/>
</g>
<!-- Node3 -->
<g id="node4" class="node"><title>Node3</title>
<polygon fill="white" stroke="#bfbfbf" points="81,-143 81,-215 125,-215 125,-143 81,-143"/>
<text text-anchor="middle" x="103" y="-202" font-family="Helvetica,sans-Serif" font-size="10.00">Image</text>
<polyline fill="none" stroke="#bfbfbf" points="81,-191 125,-191 "/>
<text text-anchor="middle" x="103" y="-178" font-family="Helvetica,sans-Serif" font-size="10.00"> </text>
<polyline fill="none" stroke="#bfbfbf" points="81,-167 125,-167 "/>
<text text-anchor="middle" x="103" y="-154" font-family="Helvetica,sans-Serif" font-size="10.00"> </text>
</g>
<!-- Node3&#45;&gt;Node1 -->
<g id="edge4" class="edge"><title>Node3&#45;&gt;Node1</title>
<path fill="none" stroke="#404040" d="M94.0697,-142.738C90.9399,-130.029 87.3461,-115.436 83.9065,-101.469"/>
<polygon fill="none" stroke="#404040" points="83.8087,-101.071 78.4899,-96.2019 80.9391,-89.4194 86.2578,-94.2888 83.8087,-101.071"/>
<text text-anchor="middle" x="119.5" y="-115" font-family="Helvetica,sans-Serif" font-size="10.00"> #buttonImage</text>
</g>
</g>
</svg>
