<?xml version="1.0" encoding="UTF-8" standalone="no"?>
<!DOCTYPE svg PUBLIC "-//W3C//DTD SVG 1.1//EN"
 "http://www.w3.org/Graphics/SVG/1.1/DTD/svg11.dtd">
<!-- Generated by graphviz version 2.26.3 (20100126.1600)
 -->
<!-- Title: world.scenery.Rock Pages: 1 -->
<svg width="1044pt" height="576pt"
 viewBox="0.00 0.00 1044.00 576.00" xmlns="http://www.w3.org/2000/svg" xmlns:xlink="http://www.w3.org/1999/xlink">
<g id="graph1" class="graph" transform="scale(1 1) rotate(0) translate(4 572)">
<title>world.scenery.Rock</title>
<polygon fill="white" stroke="white" points="-4,5 -4,-572 1041,-572 1041,5 -4,5"/>
<!-- Node1 -->
<g id="node1" class="node"><title>Node1</title>
<polygon fill="#bfbfbf" stroke="black" points="466.5,-1 466.5,-153 569.5,-153 569.5,-1 466.5,-1"/>
<text text-anchor="middle" x="518" y="-140" font-family="Helvetica,sans-Serif" font-size="10.00">world.scenery.Rock</text>
<polyline fill="none" stroke="black" points="466.5,-129 569.5,-129 "/>
<text text-anchor="middle" x="518" y="-116" font-family="Helvetica,sans-Serif" font-size="10.00"> </text>
<polyline fill="none" stroke="black" points="466.5,-105 569.5,-105 "/>
<text text-anchor="start" x="474.5" y="-92" font-family="Helvetica,sans-Serif" font-size="10.00">+ Rock()</text>
<text text-anchor="start" x="474.5" y="-76" font-family="Helvetica,sans-Serif" font-size="10.00">+ triggerAction()</text>
<text text-anchor="start" x="474.5" y="-60" font-family="Helvetica,sans-Serif" font-size="10.00">+ playerNear()</text>
<text text-anchor="start" x="474.5" y="-44" font-family="Helvetica,sans-Serif" font-size="10.00">+ playerEnter()</text>
<text text-anchor="start" x="474.5" y="-28" font-family="Helvetica,sans-Serif" font-size="10.00">+ playerLeave()</text>
<text text-anchor="start" x="474.5" y="-12" font-family="Helvetica,sans-Serif" font-size="10.00">+ isTraversable()</text>
</g>
<!-- Node2 -->
<g id="node2" class="node"><title>Node2</title>
<a xlink:href="classworld_1_1scenery_1_1_scenery.html" target="_top" xlink:title="Class used to handle any world object. ">
<polygon fill="white" stroke="black" points="-0.5,-193 -0.5,-441 116.5,-441 116.5,-193 -0.5,-193"/>
<text text-anchor="middle" x="58" y="-428" font-family="Helvetica,sans-Serif" font-size="10.00">world.scenery.Scenery</text>
<polyline fill="none" stroke="black" points="-0.5,-417 116.5,-417 "/>
<text text-anchor="start" x="7.5" y="-404" font-family="Helvetica,sans-Serif" font-size="10.00"># height</text>
<text text-anchor="start" x="7.5" y="-388" font-family="Helvetica,sans-Serif" font-size="10.00"># width</text>
<text text-anchor="start" x="7.5" y="-372" font-family="Helvetica,sans-Serif" font-size="10.00"># xShift</text>
<text text-anchor="start" x="7.5" y="-356" font-family="Helvetica,sans-Serif" font-size="10.00"># yShift</text>
<text text-anchor="start" x="7.5" y="-340" font-family="Helvetica,sans-Serif" font-size="10.00"># visible</text>
<text text-anchor="start" x="7.5" y="-324" font-family="Helvetica,sans-Serif" font-size="10.00"># SCENERY_HEIGHT</text>
<text text-anchor="start" x="7.5" y="-308" font-family="Helvetica,sans-Serif" font-size="10.00"># SCENERY_WIDTH</text>
<polyline fill="none" stroke="black" points="-0.5,-297 116.5,-297 "/>
<text text-anchor="start" x="7.5" y="-284" font-family="Helvetica,sans-Serif" font-size="10.00">+ Scenery()</text>
<text text-anchor="start" x="7.5" y="-268" font-family="Helvetica,sans-Serif" font-size="10.00">+ Scenery()</text>
<text text-anchor="start" x="7.5" y="-252" font-family="Helvetica,sans-Serif" font-size="10.00">+ Scenery()</text>
<text text-anchor="start" x="7.5" y="-236" font-family="Helvetica,sans-Serif" font-size="10.00">+ drawScenery()</text>
<text text-anchor="start" x="7.5" y="-220" font-family="Helvetica,sans-Serif" font-size="10.00">+ getSceneryHeight()</text>
<text text-anchor="start" x="7.5" y="-204" font-family="Helvetica,sans-Serif" font-size="10.00">+ getSceneryWidth()</text>
</a>
</g>
<!-- Node2&#45;&gt;Node1 -->
<g id="edge2" class="edge"><title>Node2&#45;&gt;Node1</title>
<path fill="none" stroke="midnightblue" d="M124.196,-192.659C124.463,-192.438 124.731,-192.218 125,-192 226.57,-109.575 385.157,-86.2269 466.329,-79.6134"/>
<polygon fill="none" stroke="midnightblue" points="121.783,-190.122 116.712,-199.425 126.477,-195.315 121.783,-190.122"/>
</g>
<!-- Node3 -->
<g id="node4" class="node"><title>Node3</title>
<polygon fill="white" stroke="#bfbfbf" points="36,-495 36,-567 80,-567 80,-495 36,-495"/>
<text text-anchor="middle" x="58" y="-554" font-family="Helvetica,sans-Serif" font-size="10.00">Image</text>
<polyline fill="none" stroke="#bfbfbf" points="36,-543 80,-543 "/>
<text text-anchor="middle" x="58" y="-530" font-family="Helvetica,sans-Serif" font-size="10.00"> </text>
<polyline fill="none" stroke="#bfbfbf" points="36,-519 80,-519 "/>
<text text-anchor="middle" x="58" y="-506" font-family="Helvetica,sans-Serif" font-size="10.00"> </text>
</g>
<!-- Node3&#45;&gt;Node2 -->
<g id="edge4" class="edge"><title>Node3&#45;&gt;Node2</title>
<path fill="none" stroke="#404040" d="M58,-494.698C58,-482.654 58,-468.447 58,-453.398"/>
<polygon fill="none" stroke="#404040" points="58.0001,-453.175 54,-447.175 58,-441.175 62,-447.175 58.0001,-453.175"/>
<text text-anchor="middle" x="88" y="-467" font-family="Helvetica,sans-Serif" font-size="10.00"> #spriteImage</text>
</g>
<!-- Node4 -->
<g id="node6" class="node"><title>Node4</title>
<a xlink:href="interfaceworld_1_1_interactive_object.html" target="_top" xlink:title="Interface telling that the object interacts with the player. ">
<polygon fill="white" stroke="black" points="133.5,-249 133.5,-385 250.5,-385 250.5,-249 133.5,-249"/>
<text text-anchor="middle" x="192" y="-372" font-family="Helvetica,sans-Serif" font-size="10.00">world.InteractiveObject</text>
<polyline fill="none" stroke="black" points="133.5,-361 250.5,-361 "/>
<text text-anchor="middle" x="192" y="-348" font-family="Helvetica,sans-Serif" font-size="10.00"> </text>
<polyline fill="none" stroke="black" points="133.5,-337 250.5,-337 "/>
<text text-anchor="start" x="141.5" y="-324" font-family="Helvetica,sans-Serif" font-size="10.00">+ triggerAction()</text>
<text text-anchor="start" x="141.5" y="-308" font-family="Helvetica,sans-Serif" font-size="10.00">+ playerNear()</text>
<text text-anchor="start" x="141.5" y="-292" font-family="Helvetica,sans-Serif" font-size="10.00">+ playerEnter()</text>
<text text-anchor="start" x="141.5" y="-276" font-family="Helvetica,sans-Serif" font-size="10.00">+ playerLeave()</text>
<text text-anchor="start" x="141.5" y="-260" font-family="Helvetica,sans-Serif" font-size="10.00">+ isTraversable()</text>
</a>
</g>
<!-- Node4&#45;&gt;Node1 -->
<g id="edge6" class="edge"><title>Node4&#45;&gt;Node1</title>
<path fill="none" stroke="midnightblue" d="M223.129,-239.749C232.722,-222.472 244.633,-205.339 259,-192 318.76,-136.515 409.71,-104.67 466.409,-89.113"/>
<polygon fill="none" stroke="midnightblue" points="219.932,-238.306 218.322,-248.778 226.111,-241.595 219.932,-238.306"/>
</g>
<!-- Node5 -->
<g id="node8" class="node"><title>Node5</title>
<a xlink:href="interfaceworld_1_1scenery_1_1_temperate_broadleaf_theme.html" target="_top" xlink:title="Interface used to define that a Scenery object have a Temperate Broadleaf style. ">
<polygon fill="white" stroke="black" points="267.5,-273 267.5,-361 434.5,-361 434.5,-273 267.5,-273"/>
<text text-anchor="start" x="275.5" y="-348" font-family="Helvetica,sans-Serif" font-size="10.00">world.scenery.TemperateBroadleaf</text>
<text text-anchor="middle" x="351" y="-332" font-family="Helvetica,sans-Serif" font-size="10.00">Theme</text>
<polyline fill="none" stroke="black" points="267.5,-321 434.5,-321 "/>
<text text-anchor="start" x="275.5" y="-308" font-family="Helvetica,sans-Serif" font-size="10.00">+ TEMPERATE_BROADLEAF</text>
<polyline fill="none" stroke="black" points="267.5,-297 434.5,-297 "/>
<text text-anchor="middle" x="351" y="-284" font-family="Helvetica,sans-Serif" font-size="10.00"> </text>
</a>
</g>
<!-- Node5&#45;&gt;Node1 -->
<g id="edge8" class="edge"><title>Node5&#45;&gt;Node1</title>
<path fill="none" stroke="midnightblue" d="M387.632,-264.355C410.681,-231.231 440.776,-187.98 466.243,-151.381"/>
<polygon fill="none" stroke="midnightblue" points="384.469,-262.773 381.63,-272.98 390.215,-266.771 384.469,-262.773"/>
</g>
<!-- Node6 -->
<g id="node10" class="node"><title>Node6</title>
<a xlink:href="interfaceworld_1_1scenery_1_1_taiga_theme.html" target="_top" xlink:title="Interface used to define that a Scenery object have a Taiga style. ">
<polygon fill="white" stroke="black" points="451.5,-281 451.5,-353 584.5,-353 584.5,-281 451.5,-281"/>
<text text-anchor="middle" x="518" y="-340" font-family="Helvetica,sans-Serif" font-size="10.00">world.scenery.TaigaTheme</text>
<polyline fill="none" stroke="black" points="451.5,-329 584.5,-329 "/>
<text text-anchor="start" x="459.5" y="-316" font-family="Helvetica,sans-Serif" font-size="10.00">+ TAIGA</text>
<polyline fill="none" stroke="black" points="451.5,-305 584.5,-305 "/>
<text text-anchor="middle" x="518" y="-292" font-family="Helvetica,sans-Serif" font-size="10.00"> </text>
</a>
</g>
<!-- Node6&#45;&gt;Node1 -->
<g id="edge10" class="edge"><title>Node6&#45;&gt;Node1</title>
<path fill="none" stroke="midnightblue" d="M518,-270.472C518,-237.233 518,-191.769 518,-153.264"/>
<polygon fill="none" stroke="midnightblue" points="514.5,-270.81 518,-280.81 521.5,-270.81 514.5,-270.81"/>
</g>
<!-- Node7 -->
<g id="node12" class="node"><title>Node7</title>
<a xlink:href="interfaceworld_1_1scenery_1_1_alpine_tundra_theme.html" target="_top" xlink:title="Interface used to define that a Scenery object have an Alpine Tundra style. ">
<polygon fill="white" stroke="black" points="602,-273 602,-361 738,-361 738,-273 602,-273"/>
<text text-anchor="start" x="610" y="-348" font-family="Helvetica,sans-Serif" font-size="10.00">world.scenery.AlpineTundra</text>
<text text-anchor="middle" x="670" y="-332" font-family="Helvetica,sans-Serif" font-size="10.00">Theme</text>
<polyline fill="none" stroke="black" points="602,-321 738,-321 "/>
<text text-anchor="start" x="610" y="-308" font-family="Helvetica,sans-Serif" font-size="10.00">+ ALPINE_TUNDRA</text>
<polyline fill="none" stroke="black" points="602,-297 738,-297 "/>
<text text-anchor="middle" x="670" y="-284" font-family="Helvetica,sans-Serif" font-size="10.00"> </text>
</a>
</g>
<!-- Node7&#45;&gt;Node1 -->
<g id="edge12" class="edge"><title>Node7&#45;&gt;Node1</title>
<path fill="none" stroke="midnightblue" d="M637.881,-264.184C624.182,-241.834 607.939,-215.565 593,-192 585.024,-179.418 576.472,-166.125 568.1,-153.218"/>
<polygon fill="none" stroke="midnightblue" points="634.987,-266.161 643.193,-272.862 640.957,-262.506 634.987,-266.161"/>
</g>
<!-- Node8 -->
<g id="node14" class="node"><title>Node8</title>
<a xlink:href="interfaceworld_1_1scenery_1_1_cave_theme.html" target="_top" xlink:title="Interface used to tell that a Scenery object has a Cave style. ">
<polygon fill="white" stroke="black" points="755.5,-281 755.5,-353 888.5,-353 888.5,-281 755.5,-281"/>
<text text-anchor="middle" x="822" y="-340" font-family="Helvetica,sans-Serif" font-size="10.00">world.scenery.CaveTheme</text>
<polyline fill="none" stroke="black" points="755.5,-329 888.5,-329 "/>
<text text-anchor="start" x="763.5" y="-316" font-family="Helvetica,sans-Serif" font-size="10.00">+ CAVE</text>
<polyline fill="none" stroke="black" points="755.5,-305 888.5,-305 "/>
<text text-anchor="middle" x="822" y="-292" font-family="Helvetica,sans-Serif" font-size="10.00"> </text>
</a>
</g>
<!-- Node8&#45;&gt;Node1 -->
<g id="edge14" class="edge"><title>Node8&#45;&gt;Node1</title>
<path fill="none" stroke="midnightblue" d="M802.653,-271.71C789.833,-245.839 770.961,-214.227 747,-192 695.304,-144.044 619.838,-111.387 569.854,-93.4686"/>
<polygon fill="none" stroke="midnightblue" points="799.611,-273.46 807.101,-280.954 805.919,-270.425 799.611,-273.46"/>
</g>
<!-- Node9 -->
<g id="node16" class="node"><title>Node9</title>
<a xlink:href="interfaceworld_1_1scenery_1_1_polar_desert_theme.html" target="_top" xlink:title="Interface used to define that a Scenery object has a Polar Desert style. ">
<polygon fill="white" stroke="black" points="905.5,-273 905.5,-361 1036.5,-361 1036.5,-273 905.5,-273"/>
<text text-anchor="start" x="913.5" y="-348" font-family="Helvetica,sans-Serif" font-size="10.00">world.scenery.PolarDesert</text>
<text text-anchor="middle" x="971" y="-332" font-family="Helvetica,sans-Serif" font-size="10.00">Theme</text>
<polyline fill="none" stroke="black" points="905.5,-321 1036.5,-321 "/>
<text text-anchor="start" x="913.5" y="-308" font-family="Helvetica,sans-Serif" font-size="10.00">+ POLAR_DESERT</text>
<polyline fill="none" stroke="black" points="905.5,-297 1036.5,-297 "/>
<text text-anchor="middle" x="971" y="-284" font-family="Helvetica,sans-Serif" font-size="10.00"> </text>
</a>
</g>
<!-- Node9&#45;&gt;Node1 -->
<g id="edge16" class="edge"><title>Node9&#45;&gt;Node1</title>
<path fill="none" stroke="midnightblue" d="M950.196,-263.446C938.073,-238.545 920.484,-210.432 897,-192 798.42,-114.629 648.116,-89.1363 569.696,-80.8697"/>
<polygon fill="none" stroke="midnightblue" points="947.167,-265.231 954.576,-272.805 953.508,-262.264 947.167,-265.231"/>
</g>
</g>
</svg>
