<?xml version="1.0" encoding="UTF-8" standalone="no"?>
<!DOCTYPE svg PUBLIC "-//W3C//DTD SVG 1.1//EN"
 "http://www.w3.org/Graphics/SVG/1.1/DTD/svg11.dtd">
<!-- Generated by graphviz version 2.26.3 (20100126.1600)
 -->
<!-- Title: debug.Verbose Pages: 1 -->
<svg width="90pt" height="288pt"
 viewBox="0.00 0.00 90.00 288.00" xmlns="http://www.w3.org/2000/svg" xmlns:xlink="http://www.w3.org/1999/xlink">
<g id="graph1" class="graph" transform="scale(1 1) rotate(0) translate(4 284)">
<title>debug.Verbose</title>
<polygon fill="white" stroke="white" points="-4,5 -4,-284 87,-284 87,5 -4,5"/>
<!-- Node1 -->
<g id="node1" class="node"><title>Node1</title>
<polygon fill="#bfbfbf" stroke="black" points="-0.5,-1 -0.5,-153 82.5,-153 82.5,-1 -0.5,-1"/>
<text text-anchor="middle" x="41" y="-140" font-family="Helvetica,sans-Serif" font-size="10.00">debug.Verbose</text>
<polyline fill="none" stroke="black" points="-0.5,-129 82.5,-129 "/>
<text text-anchor="start" x="7.5" y="-116" font-family="Helvetica,sans-Serif" font-size="10.00"># verboseMode</text>
<polyline fill="none" stroke="black" points="-0.5,-105 82.5,-105 "/>
<text text-anchor="start" x="7.5" y="-92" font-family="Helvetica,sans-Serif" font-size="10.00">+ Verbose()</text>
<text text-anchor="start" x="7.5" y="-76" font-family="Helvetica,sans-Serif" font-size="10.00">+ critical()</text>
<text text-anchor="start" x="7.5" y="-60" font-family="Helvetica,sans-Serif" font-size="10.00">+ serious()</text>
<text text-anchor="start" x="7.5" y="-44" font-family="Helvetica,sans-Serif" font-size="10.00">+ warning()</text>
<text text-anchor="start" x="7.5" y="-28" font-family="Helvetica,sans-Serif" font-size="10.00">+ information()</text>
<text text-anchor="start" x="7.5" y="-12" font-family="Helvetica,sans-Serif" font-size="10.00">+ calls()</text>
</g>
<!-- Node2 -->
<g id="node2" class="node"><title>Node2</title>
<polygon fill="white" stroke="#bfbfbf" points="18,-207 18,-279 64,-279 64,-207 18,-207"/>
<text text-anchor="middle" x="41" y="-266" font-family="Helvetica,sans-Serif" font-size="10.00">Logger</text>
<polyline fill="none" stroke="#bfbfbf" points="18,-255 64,-255 "/>
<text text-anchor="middle" x="41" y="-242" font-family="Helvetica,sans-Serif" font-size="10.00"> </text>
<polyline fill="none" stroke="#bfbfbf" points="18,-231 64,-231 "/>
<text text-anchor="middle" x="41" y="-218" font-family="Helvetica,sans-Serif" font-size="10.00"> </text>
</g>
<!-- Node2&#45;&gt;Node1 -->
<g id="edge2" class="edge"><title>Node2&#45;&gt;Node1</title>
<path fill="none" stroke="#404040" d="M41,-206.98C41,-194.614 41,-180.173 41,-165.502"/>
<polygon fill="none" stroke="#404040" points="41.0001,-165.164 37,-159.164 41,-153.164 45,-159.164 41.0001,-165.164"/>
<text text-anchor="middle" x="52" y="-179" font-family="Helvetica,sans-Serif" font-size="10.00"> ~log</text>
</g>
</g>
</svg>
