<?xml version="1.0" encoding="UTF-8" standalone="no"?>
<!DOCTYPE svg PUBLIC "-//W3C//DTD SVG 1.1//EN"
 "http://www.w3.org/Graphics/SVG/1.1/DTD/svg11.dtd">
<!-- Generated by graphviz version 2.26.3 (20100126.1600)
 -->
<!-- Title: world.scenery.Rock Pages: 1 -->
<!--zoomable 464 -->
<svg id="main" version="1.1" xmlns="http://www.w3.org/2000/svg" xmlns:xlink="http://www.w3.org/1999/xlink" xml:space="preserve" onload="init(evt)">
<style type="text/css"><![CDATA[
.edge:hover path { stroke: red; }
.edge:hover polygon { stroke: red; fill: red; }
]]></style>
<script type="text/javascript"><![CDATA[
var edges = document.getElementsByTagName('g');
if (edges && edges.length) {
  for (var i=0;i<edges.length;i++) {
    if (edges[i].id.substr(0,4)=='edge') {
      edges[i].setAttribute('class','edge');
    }
  }
}
]]></script>
        <defs>
                <circle id="rim" cx="0" cy="0" r="7"/>
                <circle id="rim2" cx="0" cy="0" r="3.5"/>
                <g id="zoomPlus">
                        <use xlink:href="#rim" fill="#404040">
                                <set attributeName="fill" to="#808080" begin="zoomplus.mouseover" end="zoomplus.mouseout"/>
                        </use>
                        <path d="M-4,0h8M0,-4v8" fill="none" stroke="white" stroke-width="1.5" pointer-events="none"/>
                </g>
                <g id="zoomMin">
                        <use xlink:href="#rim" fill="#404040">
                                <set attributeName="fill" to="#808080" begin="zoomminus.mouseover" end="zoomminus.mouseout"/>
                        </use>
                        <path d="M-4,0h8" fill="none" stroke="white" stroke-width="1.5" pointer-events="none"/>
                </g>
                <g id="dirArrow">
                        <path fill="none" stroke="white" stroke-width="1.5" d="M0,-3.0v7 M-2.5,-0.5L0,-3.0L2.5,-0.5"/>
                </g>
               <g id="resetDef">
                       <use xlink:href="#rim2" fill="#404040">
                               <set attributeName="fill" to="#808080" begin="reset.mouseover" end="reset.mouseout"/>
                       </use>
               </g>
        </defs>

<script type="text/javascript">
var viewWidth = 1044;
var viewHeight = 464;
var sectionId = 'dynsection-0';
</script>
<script xlink:href="svgpan.js"/>
<svg id="graph" class="graph">
<g id="viewport">
<title>world.scenery.Rock</title>
<polygon fill="white" stroke="white" points="-4,5 -4,-460 1041,-460 1041,5 -4,5"/>
<!-- Node1 -->
<g id="node1" class="node"><title>Node1</title>
<polygon fill="#bfbfbf" stroke="black" points="466.5,-1 466.5,-153 569.5,-153 569.5,-1 466.5,-1"/>
<text text-anchor="middle" x="518" y="-140" font-family="Helvetica,sans-Serif" font-size="10.00">world.scenery.Rock</text>
<polyline fill="none" stroke="black" points="466.5,-129 569.5,-129 "/>
<text text-anchor="middle" x="518" y="-116" font-family="Helvetica,sans-Serif" font-size="10.00"> </text>
<polyline fill="none" stroke="black" points="466.5,-105 569.5,-105 "/>
<text text-anchor="start" x="474.5" y="-92" font-family="Helvetica,sans-Serif" font-size="10.00">+ Rock()</text>
<text text-anchor="start" x="474.5" y="-76" font-family="Helvetica,sans-Serif" font-size="10.00">+ triggerAction()</text>
<text text-anchor="start" x="474.5" y="-60" font-family="Helvetica,sans-Serif" font-size="10.00">+ playerNear()</text>
<text text-anchor="start" x="474.5" y="-44" font-family="Helvetica,sans-Serif" font-size="10.00">+ playerEnter()</text>
<text text-anchor="start" x="474.5" y="-28" font-family="Helvetica,sans-Serif" font-size="10.00">+ playerLeave()</text>
<text text-anchor="start" x="474.5" y="-12" font-family="Helvetica,sans-Serif" font-size="10.00">+ isTraversable()</text>
</g>
<!-- Node2 -->
<g id="node2" class="node"><title>Node2</title>
<a xlink:href="classworld_1_1scenery_1_1_scenery.html" target="_top" xlink:title="Class used to handle any world object. ">
<polygon fill="white" stroke="black" points="-0.5,-191 -0.5,-455 116.5,-455 116.5,-191 -0.5,-191"/>
<text text-anchor="middle" x="58" y="-442" font-family="Helvetica,sans-Serif" font-size="10.00">world.scenery.Scenery</text>
<polyline fill="none" stroke="black" points="-0.5,-431 116.5,-431 "/>
<text text-anchor="start" x="7.5" y="-418" font-family="Helvetica,sans-Serif" font-size="10.00"># spriteImage</text>
<text text-anchor="start" x="7.5" y="-402" font-family="Helvetica,sans-Serif" font-size="10.00"># height</text>
<text text-anchor="start" x="7.5" y="-386" font-family="Helvetica,sans-Serif" font-size="10.00"># width</text>
<text text-anchor="start" x="7.5" y="-370" font-family="Helvetica,sans-Serif" font-size="10.00"># xShift</text>
<text text-anchor="start" x="7.5" y="-354" font-family="Helvetica,sans-Serif" font-size="10.00"># yShift</text>
<text text-anchor="start" x="7.5" y="-338" font-family="Helvetica,sans-Serif" font-size="10.00"># visible</text>
<text text-anchor="start" x="7.5" y="-322" font-family="Helvetica,sans-Serif" font-size="10.00"># SCENERY_HEIGHT</text>
<text text-anchor="start" x="7.5" y="-306" font-family="Helvetica,sans-Serif" font-size="10.00"># SCENERY_WIDTH</text>
<polyline fill="none" stroke="black" points="-0.5,-295 116.5,-295 "/>
<text text-anchor="start" x="7.5" y="-282" font-family="Helvetica,sans-Serif" font-size="10.00">+ Scenery()</text>
<text text-anchor="start" x="7.5" y="-266" font-family="Helvetica,sans-Serif" font-size="10.00">+ Scenery()</text>
<text text-anchor="start" x="7.5" y="-250" font-family="Helvetica,sans-Serif" font-size="10.00">+ Scenery()</text>
<text text-anchor="start" x="7.5" y="-234" font-family="Helvetica,sans-Serif" font-size="10.00">+ drawScenery()</text>
<text text-anchor="start" x="7.5" y="-218" font-family="Helvetica,sans-Serif" font-size="10.00">+ getSceneryHeight()</text>
<text text-anchor="start" x="7.5" y="-202" font-family="Helvetica,sans-Serif" font-size="10.00">+ getSceneryWidth()</text>
</a>
</g>
<!-- Node2&#45;&gt;Node1 -->
<g id="edge2" class="edge"><title>Node2&#45;&gt;Node1</title>
<path fill="none" stroke="midnightblue" d="M124.191,-190.677C124.46,-190.45 124.729,-190.224 125,-190 177.474,-146.509 372.299,-104.692 466.433,-86.5017"/>
<polygon fill="none" stroke="midnightblue" points="121.646,-188.263 116.673,-197.619 126.395,-193.406 121.646,-188.263"/>
</g>
<!-- Node3 -->
<g id="node4" class="node"><title>Node3</title>
<a xlink:href="interfaceworld_1_1_interactive_object.html" target="_top" xlink:title="{world.InteractiveObject\n||+ triggerAction()\l+ playerNear()\l+ playerEnter()\l+ playerLeave()\l+ isTraversable()\l}">
<polygon fill="white" stroke="black" points="133.5,-255 133.5,-391 250.5,-391 250.5,-255 133.5,-255"/>
<text text-anchor="middle" x="192" y="-378" font-family="Helvetica,sans-Serif" font-size="10.00">world.InteractiveObject</text>
<polyline fill="none" stroke="black" points="133.5,-367 250.5,-367 "/>
<text text-anchor="middle" x="192" y="-354" font-family="Helvetica,sans-Serif" font-size="10.00"> </text>
<polyline fill="none" stroke="black" points="133.5,-343 250.5,-343 "/>
<text text-anchor="start" x="141.5" y="-330" font-family="Helvetica,sans-Serif" font-size="10.00">+ triggerAction()</text>
<text text-anchor="start" x="141.5" y="-314" font-family="Helvetica,sans-Serif" font-size="10.00">+ playerNear()</text>
<text text-anchor="start" x="141.5" y="-298" font-family="Helvetica,sans-Serif" font-size="10.00">+ playerEnter()</text>
<text text-anchor="start" x="141.5" y="-282" font-family="Helvetica,sans-Serif" font-size="10.00">+ playerLeave()</text>
<text text-anchor="start" x="141.5" y="-266" font-family="Helvetica,sans-Serif" font-size="10.00">+ isTraversable()</text>
</a>
</g>
<!-- Node3&#45;&gt;Node1 -->
<g id="edge4" class="edge"><title>Node3&#45;&gt;Node1</title>
<path fill="none" stroke="midnightblue" d="M219.781,-245.659C229.774,-225.641 242.714,-205.41 259,-190 318.154,-134.028 409.494,-103.131 466.407,-88.3252"/>
<polygon fill="none" stroke="midnightblue" points="216.555,-244.293 215.396,-254.824 222.869,-247.314 216.555,-244.293"/>
</g>
<!-- Node4 -->
<g id="node6" class="node"><title>Node4</title>
<a xlink:href="interfaceworld_1_1scenery_1_1_temperate_broadleaf_theme.html" target="_top" xlink:title="Interface used to define that a Scenery object have a Temperate Broadleaf style. ">
<polygon fill="white" stroke="black" points="267.5,-279 267.5,-367 434.5,-367 434.5,-279 267.5,-279"/>
<text text-anchor="start" x="275.5" y="-354" font-family="Helvetica,sans-Serif" font-size="10.00">world.scenery.TemperateBroadleaf</text>
<text text-anchor="middle" x="351" y="-338" font-family="Helvetica,sans-Serif" font-size="10.00">Theme</text>
<polyline fill="none" stroke="black" points="267.5,-327 434.5,-327 "/>
<text text-anchor="start" x="275.5" y="-314" font-family="Helvetica,sans-Serif" font-size="10.00">+ TEMPERATE_BROADLEAF</text>
<polyline fill="none" stroke="black" points="267.5,-303 434.5,-303 "/>
<text text-anchor="middle" x="351" y="-290" font-family="Helvetica,sans-Serif" font-size="10.00"> </text>
</a>
</g>
<!-- Node4&#45;&gt;Node1 -->
<g id="edge6" class="edge"><title>Node4&#45;&gt;Node1</title>
<path fill="none" stroke="midnightblue" d="M386.769,-270.31C409.921,-236.206 440.445,-191.243 466.227,-153.264"/>
<polygon fill="none" stroke="midnightblue" points="383.77,-268.497 381.049,-278.736 389.562,-272.428 383.77,-268.497"/>
</g>
<!-- Node5 -->
<g id="node8" class="node"><title>Node5</title>
<a xlink:href="interfaceworld_1_1scenery_1_1_taiga_theme.html" target="_top" xlink:title="Interface used to define that a Scenery object have a Taiga style. ">
<polygon fill="white" stroke="black" points="451.5,-287 451.5,-359 584.5,-359 584.5,-287 451.5,-287"/>
<text text-anchor="middle" x="518" y="-346" font-family="Helvetica,sans-Serif" font-size="10.00">world.scenery.TaigaTheme</text>
<polyline fill="none" stroke="black" points="451.5,-335 584.5,-335 "/>
<text text-anchor="start" x="459.5" y="-322" font-family="Helvetica,sans-Serif" font-size="10.00">+ TAIGA</text>
<polyline fill="none" stroke="black" points="451.5,-311 584.5,-311 "/>
<text text-anchor="middle" x="518" y="-298" font-family="Helvetica,sans-Serif" font-size="10.00"> </text>
</a>
</g>
<!-- Node5&#45;&gt;Node1 -->
<g id="edge8" class="edge"><title>Node5&#45;&gt;Node1</title>
<path fill="none" stroke="midnightblue" d="M518,-276.629C518,-241.838 518,-193.451 518,-153.029"/>
<polygon fill="none" stroke="midnightblue" points="514.5,-276.966 518,-286.966 521.5,-276.966 514.5,-276.966"/>
</g>
<!-- Node6 -->
<g id="node10" class="node"><title>Node6</title>
<a xlink:href="interfaceworld_1_1scenery_1_1_alpine_tundra_theme.html" target="_top" xlink:title="Interface used to define that a Scenery object have an Alpine Tundra style. ">
<polygon fill="white" stroke="black" points="602,-279 602,-367 738,-367 738,-279 602,-279"/>
<text text-anchor="start" x="610" y="-354" font-family="Helvetica,sans-Serif" font-size="10.00">world.scenery.AlpineTundra</text>
<text text-anchor="middle" x="670" y="-338" font-family="Helvetica,sans-Serif" font-size="10.00">Theme</text>
<polyline fill="none" stroke="black" points="602,-327 738,-327 "/>
<text text-anchor="start" x="610" y="-314" font-family="Helvetica,sans-Serif" font-size="10.00">+ ALPINE_TUNDRA</text>
<polyline fill="none" stroke="black" points="602,-303 738,-303 "/>
<text text-anchor="middle" x="670" y="-290" font-family="Helvetica,sans-Serif" font-size="10.00"> </text>
</a>
</g>
<!-- Node6&#45;&gt;Node1 -->
<g id="edge10" class="edge"><title>Node6&#45;&gt;Node1</title>
<path fill="none" stroke="midnightblue" d="M640.338,-270.061C626.327,-245.502 609.163,-216.047 593,-190 585.551,-177.996 577.474,-165.411 569.472,-153.178"/>
<polygon fill="none" stroke="midnightblue" points="637.363,-271.91 645.35,-278.872 643.448,-268.449 637.363,-271.91"/>
</g>
<!-- Node7 -->
<g id="node12" class="node"><title>Node7</title>
<a xlink:href="interfaceworld_1_1scenery_1_1_cave_theme.html" target="_top" xlink:title="Interface used to tell that a Scenery object has a Cave style. ">
<polygon fill="white" stroke="black" points="755.5,-287 755.5,-359 888.5,-359 888.5,-287 755.5,-287"/>
<text text-anchor="middle" x="822" y="-346" font-family="Helvetica,sans-Serif" font-size="10.00">world.scenery.CaveTheme</text>
<polyline fill="none" stroke="black" points="755.5,-335 888.5,-335 "/>
<text text-anchor="start" x="763.5" y="-322" font-family="Helvetica,sans-Serif" font-size="10.00">+ CAVE</text>
<polyline fill="none" stroke="black" points="755.5,-311 888.5,-311 "/>
<text text-anchor="middle" x="822" y="-298" font-family="Helvetica,sans-Serif" font-size="10.00"> </text>
</a>
</g>
<!-- Node7&#45;&gt;Node1 -->
<g id="edge12" class="edge"><title>Node7&#45;&gt;Node1</title>
<path fill="none" stroke="midnightblue" d="M804.675,-277.725C792.101,-249.642 772.774,-214.392 747,-190 695.802,-141.547 619.863,-109.691 569.666,-92.5066"/>
<polygon fill="none" stroke="midnightblue" points="801.487,-279.169 808.681,-286.947 807.908,-276.381 801.487,-279.169"/>
</g>
<!-- Node8 -->
<g id="node14" class="node"><title>Node8</title>
<a xlink:href="interfaceworld_1_1scenery_1_1_polar_desert_theme.html" target="_top" xlink:title="Interface used to define that a Scenery object has a Polar Desert style. ">
<polygon fill="white" stroke="black" points="905.5,-279 905.5,-367 1036.5,-367 1036.5,-279 905.5,-279"/>
<text text-anchor="start" x="913.5" y="-354" font-family="Helvetica,sans-Serif" font-size="10.00">world.scenery.PolarDesert</text>
<text text-anchor="middle" x="971" y="-338" font-family="Helvetica,sans-Serif" font-size="10.00">Theme</text>
<polyline fill="none" stroke="black" points="905.5,-327 1036.5,-327 "/>
<text text-anchor="start" x="913.5" y="-314" font-family="Helvetica,sans-Serif" font-size="10.00">+ POLAR_DESERT</text>
<polyline fill="none" stroke="black" points="905.5,-303 1036.5,-303 "/>
<text text-anchor="middle" x="971" y="-290" font-family="Helvetica,sans-Serif" font-size="10.00"> </text>
</a>
</g>
<!-- Node8&#45;&gt;Node1 -->
<g id="edge14" class="edge"><title>Node8&#45;&gt;Node1</title>
<path fill="none" stroke="midnightblue" d="M952.486,-269.376C940.549,-242.072 922.437,-210.419 897,-190 799.283,-111.559 648.276,-87.5294 569.62,-80.1974"/>
<polygon fill="none" stroke="midnightblue" points="949.355,-270.96 956.452,-278.827 955.809,-268.251 949.355,-270.96"/>
</g>
</g>
</svg>
        <g id="navigator" transform="translate(0 0)" fill="#404254">
                <rect fill="#f2f5e9" fill-opacity="0.5" stroke="#606060" stroke-width=".5" x="0" y="0" width="60" height="60"/>
                <use id="zoomplus" xlink:href="#zoomPlus" x="17" y="9" onmousedown="handleZoom(evt,'in')"/>
                <use id="zoomminus" xlink:href="#zoomMin" x="42" y="9" onmousedown="handleZoom(evt,'out')"/>
                <use id="reset" xlink:href="#resetDef" x="30" y="36" onmousedown="handleReset()"/>
                <g id="arrowUp" xlink:href="#dirArrow" transform="translate(30 24)" onmousedown="handlePan(0,-1)">
                  <use xlink:href="#rim" fill="#404040">
                        <set attributeName="fill" to="#808080" begin="arrowUp.mouseover" end="arrowUp.mouseout"/>
                  </use>
                  <path fill="none" stroke="white" stroke-width="1.5" d="M0,-3.0v7 M-2.5,-0.5L0,-3.0L2.5,-0.5"/>
                </g>
                <g id="arrowRight" xlink:href="#dirArrow" transform="rotate(90) translate(36 -43)" onmousedown="handlePan(1,0)">
                  <use xlink:href="#rim" fill="#404040">
                        <set attributeName="fill" to="#808080" begin="arrowRight.mouseover" end="arrowRight.mouseout"/>
                  </use>
                  <path fill="none" stroke="white" stroke-width="1.5" d="M0,-3.0v7 M-2.5,-0.5L0,-3.0L2.5,-0.5"/>
                </g>
                <g id="arrowDown" xlink:href="#dirArrow" transform="rotate(180) translate(-30 -48)" onmousedown="handlePan(0,1)">
                  <use xlink:href="#rim" fill="#404040">
                        <set attributeName="fill" to="#808080" begin="arrowDown.mouseover" end="arrowDown.mouseout"/>
                  </use>
                  <path fill="none" stroke="white" stroke-width="1.5" d="M0,-3.0v7 M-2.5,-0.5L0,-3.0L2.5,-0.5"/>
                </g>
                <g id="arrowLeft" xlink:href="#dirArrow" transform="rotate(270) translate(-36 17)" onmousedown="handlePan(-1,0)">
                  <use xlink:href="#rim" fill="#404040">
                        <set attributeName="fill" to="#808080" begin="arrowLeft.mouseover" end="arrowLeft.mouseout"/>
                  </use>
                  <path fill="none" stroke="white" stroke-width="1.5" d="M0,-3.0v7 M-2.5,-0.5L0,-3.0L2.5,-0.5"/>
                </g>
        </g>
        <svg viewBox="0 0 15 15" width="100%" height="30px" preserveAspectRatio="xMaxYMin meet">
         <g id="arrow_out" transform="scale(0.3 0.3)">
          <a xlink:href="classworld_1_1scenery_1_1_rock__inherit__graph_org.svg" target="_base">
           <rect id="button" ry="5" rx="5" y="6" x="6" height="38" width="38"
                fill="#f2f5e9" fill-opacity="0.5" stroke="#606060" stroke-width="1.0"/>
           <path id="arrow"
             d="M 11.500037,31.436501 C 11.940474,20.09759 22.043105,11.32322 32.158766,21.979434 L 37.068811,17.246167 C 37.068811,17.246167 37.088388,32 37.088388,32 L 22.160133,31.978069 C 22.160133,31.978069 26.997745,27.140456 26.997745,27.140456 C 18.528582,18.264221 13.291696,25.230495 11.500037,31.436501 z"
             style="fill:#404040;"/>
          </a>
         </g>
        </svg>
</svg>
