<?xml version="1.0" encoding="UTF-8" standalone="no"?>
<!DOCTYPE svg PUBLIC "-//W3C//DTD SVG 1.1//EN"
 "http://www.w3.org/Graphics/SVG/1.1/DTD/svg11.dtd">
<!-- Generated by graphviz version 2.26.3 (20100126.1600)
 -->
<!-- Title: world.scenery.Water Pages: 1 -->
<svg width="556pt" height="464pt"
 viewBox="0.00 0.00 556.00 464.00" xmlns="http://www.w3.org/2000/svg" xmlns:xlink="http://www.w3.org/1999/xlink">
<g id="graph1" class="graph" transform="scale(1 1) rotate(0) translate(4 460)">
<title>world.scenery.Water</title>
<polygon fill="white" stroke="white" points="-4,5 -4,-460 553,-460 553,5 -4,5"/>
<!-- Node1 -->
<g id="node1" class="node"><title>Node1</title>
<polygon fill="#bfbfbf" stroke="black" points="210.5,-1 210.5,-153 315.5,-153 315.5,-1 210.5,-1"/>
<text text-anchor="middle" x="263" y="-140" font-family="Helvetica,sans-Serif" font-size="10.00">world.scenery.Water</text>
<polyline fill="none" stroke="black" points="210.5,-129 315.5,-129 "/>
<text text-anchor="middle" x="263" y="-116" font-family="Helvetica,sans-Serif" font-size="10.00"> </text>
<polyline fill="none" stroke="black" points="210.5,-105 315.5,-105 "/>
<text text-anchor="start" x="218.5" y="-92" font-family="Helvetica,sans-Serif" font-size="10.00">+ Water()</text>
<text text-anchor="start" x="218.5" y="-76" font-family="Helvetica,sans-Serif" font-size="10.00">+ triggerAction()</text>
<text text-anchor="start" x="218.5" y="-60" font-family="Helvetica,sans-Serif" font-size="10.00">+ playerNear()</text>
<text text-anchor="start" x="218.5" y="-44" font-family="Helvetica,sans-Serif" font-size="10.00">+ playerEnter()</text>
<text text-anchor="start" x="218.5" y="-28" font-family="Helvetica,sans-Serif" font-size="10.00">+ playerLeave()</text>
<text text-anchor="start" x="218.5" y="-12" font-family="Helvetica,sans-Serif" font-size="10.00">+ isTraversable()</text>
</g>
<!-- Node2 -->
<g id="node2" class="node"><title>Node2</title>
<a xlink:href="classworld_1_1scenery_1_1_scenery.html" target="_top" xlink:title="Class used to handle any world object. ">
<polygon fill="white" stroke="black" points="-0.5,-191 -0.5,-455 116.5,-455 116.5,-191 -0.5,-191"/>
<text text-anchor="middle" x="58" y="-442" font-family="Helvetica,sans-Serif" font-size="10.00">world.scenery.Scenery</text>
<polyline fill="none" stroke="black" points="-0.5,-431 116.5,-431 "/>
<text text-anchor="start" x="7.5" y="-418" font-family="Helvetica,sans-Serif" font-size="10.00"># spriteImage</text>
<text text-anchor="start" x="7.5" y="-402" font-family="Helvetica,sans-Serif" font-size="10.00"># height</text>
<text text-anchor="start" x="7.5" y="-386" font-family="Helvetica,sans-Serif" font-size="10.00"># width</text>
<text text-anchor="start" x="7.5" y="-370" font-family="Helvetica,sans-Serif" font-size="10.00"># xShift</text>
<text text-anchor="start" x="7.5" y="-354" font-family="Helvetica,sans-Serif" font-size="10.00"># yShift</text>
<text text-anchor="start" x="7.5" y="-338" font-family="Helvetica,sans-Serif" font-size="10.00"># visible</text>
<text text-anchor="start" x="7.5" y="-322" font-family="Helvetica,sans-Serif" font-size="10.00"># SCENERY_HEIGHT</text>
<text text-anchor="start" x="7.5" y="-306" font-family="Helvetica,sans-Serif" font-size="10.00"># SCENERY_WIDTH</text>
<polyline fill="none" stroke="black" points="-0.5,-295 116.5,-295 "/>
<text text-anchor="start" x="7.5" y="-282" font-family="Helvetica,sans-Serif" font-size="10.00">+ Scenery()</text>
<text text-anchor="start" x="7.5" y="-266" font-family="Helvetica,sans-Serif" font-size="10.00">+ Scenery()</text>
<text text-anchor="start" x="7.5" y="-250" font-family="Helvetica,sans-Serif" font-size="10.00">+ Scenery()</text>
<text text-anchor="start" x="7.5" y="-234" font-family="Helvetica,sans-Serif" font-size="10.00">+ drawScenery()</text>
<text text-anchor="start" x="7.5" y="-218" font-family="Helvetica,sans-Serif" font-size="10.00">+ getSceneryHeight()</text>
<text text-anchor="start" x="7.5" y="-202" font-family="Helvetica,sans-Serif" font-size="10.00">+ getSceneryWidth()</text>
</a>
</g>
<!-- Node2&#45;&gt;Node1 -->
<g id="edge2" class="edge"><title>Node2&#45;&gt;Node1</title>
<path fill="none" stroke="midnightblue" d="M122.563,-193.098C123.369,-192.054 124.181,-191.021 125,-190 149.111,-159.918 182.409,-132.369 210.256,-112.005"/>
<polygon fill="none" stroke="midnightblue" points="119.633,-191.173 116.506,-201.296 125.263,-195.333 119.633,-191.173"/>
</g>
<!-- Node3 -->
<g id="node4" class="node"><title>Node3</title>
<a xlink:href="interfaceworld_1_1_interactive_object.html" target="_top" xlink:title="{world.InteractiveObject\n||+ triggerAction()\l+ playerNear()\l+ playerEnter()\l+ playerLeave()\l+ isTraversable()\l}">
<polygon fill="white" stroke="black" points="133.5,-255 133.5,-391 250.5,-391 250.5,-255 133.5,-255"/>
<text text-anchor="middle" x="192" y="-378" font-family="Helvetica,sans-Serif" font-size="10.00">world.InteractiveObject</text>
<polyline fill="none" stroke="black" points="133.5,-367 250.5,-367 "/>
<text text-anchor="middle" x="192" y="-354" font-family="Helvetica,sans-Serif" font-size="10.00"> </text>
<polyline fill="none" stroke="black" points="133.5,-343 250.5,-343 "/>
<text text-anchor="start" x="141.5" y="-330" font-family="Helvetica,sans-Serif" font-size="10.00">+ triggerAction()</text>
<text text-anchor="start" x="141.5" y="-314" font-family="Helvetica,sans-Serif" font-size="10.00">+ playerNear()</text>
<text text-anchor="start" x="141.5" y="-298" font-family="Helvetica,sans-Serif" font-size="10.00">+ playerEnter()</text>
<text text-anchor="start" x="141.5" y="-282" font-family="Helvetica,sans-Serif" font-size="10.00">+ playerLeave()</text>
<text text-anchor="start" x="141.5" y="-266" font-family="Helvetica,sans-Serif" font-size="10.00">+ isTraversable()</text>
</a>
</g>
<!-- Node3&#45;&gt;Node1 -->
<g id="edge4" class="edge"><title>Node3&#45;&gt;Node1</title>
<path fill="none" stroke="midnightblue" d="M214.51,-245.008C222.984,-215.647 232.604,-182.316 241.029,-153.126"/>
<polygon fill="none" stroke="midnightblue" points="211.093,-244.224 211.683,-254.802 217.819,-246.165 211.093,-244.224"/>
</g>
<!-- Node4 -->
<g id="node6" class="node"><title>Node4</title>
<a xlink:href="interfaceworld_1_1scenery_1_1_taiga_theme.html" target="_top" xlink:title="Interface used to define that a Scenery object have a Taiga style. ">
<polygon fill="white" stroke="black" points="267.5,-287 267.5,-359 400.5,-359 400.5,-287 267.5,-287"/>
<text text-anchor="middle" x="334" y="-346" font-family="Helvetica,sans-Serif" font-size="10.00">world.scenery.TaigaTheme</text>
<polyline fill="none" stroke="black" points="267.5,-335 400.5,-335 "/>
<text text-anchor="start" x="275.5" y="-322" font-family="Helvetica,sans-Serif" font-size="10.00">+ TAIGA</text>
<polyline fill="none" stroke="black" points="267.5,-311 400.5,-311 "/>
<text text-anchor="middle" x="334" y="-298" font-family="Helvetica,sans-Serif" font-size="10.00"> </text>
</a>
</g>
<!-- Node4&#45;&gt;Node1 -->
<g id="edge6" class="edge"><title>Node4&#45;&gt;Node1</title>
<path fill="none" stroke="midnightblue" d="M320.746,-277.078C310.696,-242.255 296.66,-193.625 284.943,-153.029"/>
<polygon fill="none" stroke="midnightblue" points="317.464,-278.329 323.6,-286.966 324.19,-276.388 317.464,-278.329"/>
</g>
<!-- Node5 -->
<g id="node8" class="node"><title>Node5</title>
<a xlink:href="interfaceworld_1_1scenery_1_1_polar_desert_theme.html" target="_top" xlink:title="Interface used to define that a Scenery object has a Polar Desert style. ">
<polygon fill="white" stroke="black" points="417.5,-279 417.5,-367 548.5,-367 548.5,-279 417.5,-279"/>
<text text-anchor="start" x="425.5" y="-354" font-family="Helvetica,sans-Serif" font-size="10.00">world.scenery.PolarDesert</text>
<text text-anchor="middle" x="483" y="-338" font-family="Helvetica,sans-Serif" font-size="10.00">Theme</text>
<polyline fill="none" stroke="black" points="417.5,-327 548.5,-327 "/>
<text text-anchor="start" x="425.5" y="-314" font-family="Helvetica,sans-Serif" font-size="10.00">+ POLAR_DESERT</text>
<polyline fill="none" stroke="black" points="417.5,-303 548.5,-303 "/>
<text text-anchor="middle" x="483" y="-290" font-family="Helvetica,sans-Serif" font-size="10.00"> </text>
</a>
</g>
<!-- Node5&#45;&gt;Node1 -->
<g id="edge8" class="edge"><title>Node5&#45;&gt;Node1</title>
<path fill="none" stroke="midnightblue" d="M459.536,-269.632C446.765,-243.983 429.401,-213.738 409,-190 382.155,-158.763 345.474,-130.414 315.595,-109.924"/>
<polygon fill="none" stroke="midnightblue" points="456.503,-271.397 464.03,-278.853 462.795,-268.33 456.503,-271.397"/>
</g>
</g>
</svg>
