<?xml version="1.0" encoding="UTF-8" standalone="no"?>
<!DOCTYPE svg PUBLIC "-//W3C//DTD SVG 1.1//EN"
 "http://www.w3.org/Graphics/SVG/1.1/DTD/svg11.dtd">
<!-- Generated by graphviz version 2.26.3 (20100126.1600)
 -->
<!-- Title: window.topbar.TopBar Pages: 1 -->
<!--zoomable 462 -->
<svg id="main" version="1.1" xmlns="http://www.w3.org/2000/svg" xmlns:xlink="http://www.w3.org/1999/xlink" xml:space="preserve" onload="init(evt)">
<style type="text/css"><![CDATA[
.edge:hover path { stroke: red; }
.edge:hover polygon { stroke: red; fill: red; }
]]></style>
<script type="text/javascript"><![CDATA[
var edges = document.getElementsByTagName('g');
if (edges && edges.length) {
  for (var i=0;i<edges.length;i++) {
    if (edges[i].id.substr(0,4)=='edge') {
      edges[i].setAttribute('class','edge');
    }
  }
}
]]></script>
        <defs>
                <circle id="rim" cx="0" cy="0" r="7"/>
                <circle id="rim2" cx="0" cy="0" r="3.5"/>
                <g id="zoomPlus">
                        <use xlink:href="#rim" fill="#404040">
                                <set attributeName="fill" to="#808080" begin="zoomplus.mouseover" end="zoomplus.mouseout"/>
                        </use>
                        <path d="M-4,0h8M0,-4v8" fill="none" stroke="white" stroke-width="1.5" pointer-events="none"/>
                </g>
                <g id="zoomMin">
                        <use xlink:href="#rim" fill="#404040">
                                <set attributeName="fill" to="#808080" begin="zoomminus.mouseover" end="zoomminus.mouseout"/>
                        </use>
                        <path d="M-4,0h8" fill="none" stroke="white" stroke-width="1.5" pointer-events="none"/>
                </g>
                <g id="dirArrow">
                        <path fill="none" stroke="white" stroke-width="1.5" d="M0,-3.0v7 M-2.5,-0.5L0,-3.0L2.5,-0.5"/>
                </g>
               <g id="resetDef">
                       <use xlink:href="#rim2" fill="#404040">
                               <set attributeName="fill" to="#808080" begin="reset.mouseover" end="reset.mouseout"/>
                       </use>
               </g>
        </defs>

<script type="text/javascript">
var viewWidth = 222;
var viewHeight = 462;
var sectionId = 'dynsection-1';
</script>
<script xlink:href="svgpan.js"/>
<svg id="graph" class="graph">
<g id="viewport">
<title>window.topbar.TopBar</title>
<polygon fill="white" stroke="white" points="-4,5 -4,-458 219,-458 219,5 -4,5"/>
<!-- Node1 -->
<g id="node1" class="node"><title>Node1</title>
<polygon fill="#bfbfbf" stroke="black" points="3,-1 3,-169 115,-169 115,-1 3,-1"/>
<text text-anchor="middle" x="59" y="-156" font-family="Helvetica,sans-Serif" font-size="10.00">window.topbar.TopBar</text>
<polyline fill="none" stroke="black" points="3,-145 115,-145 "/>
<text text-anchor="start" x="11" y="-132" font-family="Helvetica,sans-Serif" font-size="10.00"># TOPBAR_HEIGHT</text>
<text text-anchor="start" x="11" y="-116" font-family="Helvetica,sans-Serif" font-size="10.00"># TOPBAR_MARGIN</text>
<polyline fill="none" stroke="black" points="3,-105 115,-105 "/>
<text text-anchor="start" x="11" y="-92" font-family="Helvetica,sans-Serif" font-size="10.00">+ TopBar()</text>
<text text-anchor="start" x="11" y="-76" font-family="Helvetica,sans-Serif" font-size="10.00">+ hidePauseButton()</text>
<text text-anchor="start" x="11" y="-60" font-family="Helvetica,sans-Serif" font-size="10.00">+ showPauseButton()</text>
<text text-anchor="start" x="11" y="-44" font-family="Helvetica,sans-Serif" font-size="10.00">+ paintComponent()</text>
<text text-anchor="start" x="11" y="-28" font-family="Helvetica,sans-Serif" font-size="10.00">+ getTopBarHeight()</text>
<text text-anchor="start" x="11" y="-12" font-family="Helvetica,sans-Serif" font-size="10.00">+ getTopBarMargin()</text>
</g>
<!-- Node2 -->
<g id="node2" class="node"><title>Node2</title>
<polygon fill="white" stroke="#bfbfbf" points="-0.5,-247 -0.5,-319 46.5,-319 46.5,-247 -0.5,-247"/>
<text text-anchor="middle" x="23" y="-306" font-family="Helvetica,sans-Serif" font-size="10.00">JPanel</text>
<polyline fill="none" stroke="#bfbfbf" points="-0.5,-295 46.5,-295 "/>
<text text-anchor="middle" x="23" y="-282" font-family="Helvetica,sans-Serif" font-size="10.00"> </text>
<polyline fill="none" stroke="#bfbfbf" points="-0.5,-271 46.5,-271 "/>
<text text-anchor="middle" x="23" y="-258" font-family="Helvetica,sans-Serif" font-size="10.00"> </text>
</g>
<!-- Node2&#45;&gt;Node1 -->
<g id="edge2" class="edge"><title>Node2&#45;&gt;Node1</title>
<path fill="none" stroke="midnightblue" d="M31.3929,-236.839C35.0607,-216.666 39.4812,-192.354 43.6993,-169.154"/>
<polygon fill="none" stroke="midnightblue" points="27.9483,-236.219 29.603,-246.684 34.8354,-237.471 27.9483,-236.219"/>
</g>
<!-- Node3 -->
<g id="node4" class="node"><title>Node3</title>
<a xlink:href="classwindow_1_1topbar_1_1_top_bar_button.html" target="_top" xlink:title="Class handling the UI buttons. ">
<polygon fill="white" stroke="black" points="64,-239 64,-327 204,-327 204,-239 64,-239"/>
<text text-anchor="middle" x="134" y="-314" font-family="Helvetica,sans-Serif" font-size="10.00">window.topbar.TopBarButton</text>
<polyline fill="none" stroke="black" points="64,-303 204,-303 "/>
<text text-anchor="middle" x="134" y="-290" font-family="Helvetica,sans-Serif" font-size="10.00"> </text>
<polyline fill="none" stroke="black" points="64,-279 204,-279 "/>
<text text-anchor="start" x="72" y="-266" font-family="Helvetica,sans-Serif" font-size="10.00">+ TopBarButton()</text>
<text text-anchor="start" x="72" y="-250" font-family="Helvetica,sans-Serif" font-size="10.00">+ paintComponent()</text>
</a>
</g>
<!-- Node3&#45;&gt;Node1 -->
<g id="edge4" class="edge"><title>Node3&#45;&gt;Node1</title>
<path fill="none" stroke="#404040" d="M117.169,-238.565C110.609,-221.249 102.823,-200.693 95.1151,-180.344"/>
<polygon fill="none" stroke="#404040" points="95.1,-180.304 89.234,-176.11 90.8492,-169.082 96.7153,-173.276 95.1,-180.304"/>
<text text-anchor="middle" x="141" y="-211" font-family="Helvetica,sans-Serif" font-size="10.00"> #pauseButton</text>
<text text-anchor="middle" x="141" y="-195" font-family="Helvetica,sans-Serif" font-size="10.00">#closeButton</text>
</g>
<!-- Node4 -->
<g id="node6" class="node"><title>Node4</title>
<polygon fill="white" stroke="#bfbfbf" points="76,-381 76,-453 126,-453 126,-381 76,-381"/>
<text text-anchor="middle" x="101" y="-440" font-family="Helvetica,sans-Serif" font-size="10.00">JButton</text>
<polyline fill="none" stroke="#bfbfbf" points="76,-429 126,-429 "/>
<text text-anchor="middle" x="101" y="-416" font-family="Helvetica,sans-Serif" font-size="10.00"> </text>
<polyline fill="none" stroke="#bfbfbf" points="76,-405 126,-405 "/>
<text text-anchor="middle" x="101" y="-392" font-family="Helvetica,sans-Serif" font-size="10.00"> </text>
</g>
<!-- Node4&#45;&gt;Node3 -->
<g id="edge6" class="edge"><title>Node4&#45;&gt;Node3</title>
<path fill="none" stroke="midnightblue" d="M112.38,-370.79C115.839,-356.744 119.632,-341.345 123.061,-327.419"/>
<polygon fill="none" stroke="midnightblue" points="108.923,-370.191 109.93,-380.738 115.72,-371.865 108.923,-370.191"/>
</g>
<!-- Node5 -->
<g id="node8" class="node"><title>Node5</title>
<polygon fill="white" stroke="#bfbfbf" points="144,-381 144,-453 188,-453 188,-381 144,-381"/>
<text text-anchor="middle" x="166" y="-440" font-family="Helvetica,sans-Serif" font-size="10.00">Image</text>
<polyline fill="none" stroke="#bfbfbf" points="144,-429 188,-429 "/>
<text text-anchor="middle" x="166" y="-416" font-family="Helvetica,sans-Serif" font-size="10.00"> </text>
<polyline fill="none" stroke="#bfbfbf" points="144,-405 188,-405 "/>
<text text-anchor="middle" x="166" y="-392" font-family="Helvetica,sans-Serif" font-size="10.00"> </text>
</g>
<!-- Node5&#45;&gt;Node3 -->
<g id="edge8" class="edge"><title>Node5&#45;&gt;Node3</title>
<path fill="none" stroke="#404040" d="M157.34,-380.738C154.305,-368.029 150.82,-353.436 147.485,-339.469"/>
<polygon fill="none" stroke="#404040" points="147.395,-339.091 142.111,-334.184 144.608,-327.419 149.892,-332.326 147.395,-339.091"/>
<text text-anchor="middle" x="182.5" y="-353" font-family="Helvetica,sans-Serif" font-size="10.00"> #buttonImage</text>
</g>
</g>
</svg>
        <g id="navigator" transform="translate(0 0)" fill="#404254">
                <rect fill="#f2f5e9" fill-opacity="0.5" stroke="#606060" stroke-width=".5" x="0" y="0" width="60" height="60"/>
                <use id="zoomplus" xlink:href="#zoomPlus" x="17" y="9" onmousedown="handleZoom(evt,'in')"/>
                <use id="zoomminus" xlink:href="#zoomMin" x="42" y="9" onmousedown="handleZoom(evt,'out')"/>
                <use id="reset" xlink:href="#resetDef" x="30" y="36" onmousedown="handleReset()"/>
                <g id="arrowUp" xlink:href="#dirArrow" transform="translate(30 24)" onmousedown="handlePan(0,-1)">
                  <use xlink:href="#rim" fill="#404040">
                        <set attributeName="fill" to="#808080" begin="arrowUp.mouseover" end="arrowUp.mouseout"/>
                  </use>
                  <path fill="none" stroke="white" stroke-width="1.5" d="M0,-3.0v7 M-2.5,-0.5L0,-3.0L2.5,-0.5"/>
                </g>
                <g id="arrowRight" xlink:href="#dirArrow" transform="rotate(90) translate(36 -43)" onmousedown="handlePan(1,0)">
                  <use xlink:href="#rim" fill="#404040">
                        <set attributeName="fill" to="#808080" begin="arrowRight.mouseover" end="arrowRight.mouseout"/>
                  </use>
                  <path fill="none" stroke="white" stroke-width="1.5" d="M0,-3.0v7 M-2.5,-0.5L0,-3.0L2.5,-0.5"/>
                </g>
                <g id="arrowDown" xlink:href="#dirArrow" transform="rotate(180) translate(-30 -48)" onmousedown="handlePan(0,1)">
                  <use xlink:href="#rim" fill="#404040">
                        <set attributeName="fill" to="#808080" begin="arrowDown.mouseover" end="arrowDown.mouseout"/>
                  </use>
                  <path fill="none" stroke="white" stroke-width="1.5" d="M0,-3.0v7 M-2.5,-0.5L0,-3.0L2.5,-0.5"/>
                </g>
                <g id="arrowLeft" xlink:href="#dirArrow" transform="rotate(270) translate(-36 17)" onmousedown="handlePan(-1,0)">
                  <use xlink:href="#rim" fill="#404040">
                        <set attributeName="fill" to="#808080" begin="arrowLeft.mouseover" end="arrowLeft.mouseout"/>
                  </use>
                  <path fill="none" stroke="white" stroke-width="1.5" d="M0,-3.0v7 M-2.5,-0.5L0,-3.0L2.5,-0.5"/>
                </g>
        </g>
        <svg viewBox="0 0 15 15" width="100%" height="30px" preserveAspectRatio="xMaxYMin meet">
         <g id="arrow_out" transform="scale(0.3 0.3)">
          <a xlink:href="classwindow_1_1topbar_1_1_top_bar__coll__graph_org.svg" target="_base">
           <rect id="button" ry="5" rx="5" y="6" x="6" height="38" width="38"
                fill="#f2f5e9" fill-opacity="0.5" stroke="#606060" stroke-width="1.0"/>
           <path id="arrow"
             d="M 11.500037,31.436501 C 11.940474,20.09759 22.043105,11.32322 32.158766,21.979434 L 37.068811,17.246167 C 37.068811,17.246167 37.088388,32 37.088388,32 L 22.160133,31.978069 C 22.160133,31.978069 26.997745,27.140456 26.997745,27.140456 C 18.528582,18.264221 13.291696,25.230495 11.500037,31.436501 z"
             style="fill:#404040;"/>
          </a>
         </g>
        </svg>
</svg>
