<?xml version="1.0" encoding="UTF-8" standalone="no"?>
<!DOCTYPE svg PUBLIC "-//W3C//DTD SVG 1.1//EN"
 "http://www.w3.org/Graphics/SVG/1.1/DTD/svg11.dtd">
<!-- Generated by graphviz version 2.26.3 (20100126.1600)
 -->
<!-- Title: gameplay/ai Pages: 1 -->
<svg width="254pt" height="116pt"
 viewBox="0.00 0.00 254.00 116.00" xmlns="http://www.w3.org/2000/svg" xmlns:xlink="http://www.w3.org/1999/xlink">
<g id="graph1" class="graph" transform="scale(1 1) rotate(0) translate(4 112)">
<title>gameplay/ai</title>
<polygon fill="white" stroke="white" points="-4,5 -4,-112 251,-112 251,5 -4,5"/>
<g id="graph2" class="cluster"><title>clusterdir_1185030844786df31eb5c50dc7b70078</title>
<a xlink:href="dir_1185030844786df31eb5c50dc7b70078.html" target="_top" xlink:title="gameplay">
<polygon fill="#ddddee" stroke="black" points="8,-8 8,-100 238,-100 238,-8 8,-8"/>
<text text-anchor="middle" x="123" y="-87" font-family="Helvetica,sans-Serif" font-size="10.00">gameplay</text>
</a>
</g>
<g id="graph3" class="cluster"><title>clusterdir_0e4c4e4fb443abd4640a3fdbe0a442d9</title>
<a xlink:href="dir_0e4c4e4fb443abd4640a3fdbe0a442d9.html" target="_top">
<polygon fill="#eeeeff" stroke="black" points="16,-16 16,-68 230,-68 230,-16 16,-16"/>
</a>
</g>
<!-- dir_0e4c4e4fb443abd4640a3fdbe0a442d9 -->
<g id="node3" class="node"><title>dir_0e4c4e4fb443abd4640a3fdbe0a442d9</title>
<text text-anchor="middle" x="195" y="-41" font-family="Helvetica,sans-Serif" font-size="10.00">ai</text>
</g>
<!-- dir_d1ea84ec56cde8d9594c510b9b2b46b1 -->
<g id="node4" class="node"><title>dir_d1ea84ec56cde8d9594c510b9b2b46b1</title>
<a xlink:href="dir_d1ea84ec56cde8d9594c510b9b2b46b1.html" target="_top" xlink:title="mood">
<polygon fill="white" stroke="black" points="150,-60 96,-60 96,-24 150,-24 150,-60"/>
<text text-anchor="middle" x="123" y="-41" font-family="Helvetica,sans-Serif" font-size="10.00">mood</text>
</a>
</g>
<!-- dir_71259da5406f3b9f422d4dff85873970 -->
<g id="node5" class="node"><title>dir_71259da5406f3b9f422d4dff85873970</title>
<a xlink:href="dir_71259da5406f3b9f422d4dff85873970.html" target="_top" xlink:title="phrasing">
<polygon fill="white" stroke="black" points="78,-60 24,-60 24,-24 78,-24 78,-60"/>
<text text-anchor="middle" x="51" y="-41" font-family="Helvetica,sans-Serif" font-size="10.00">phrasing</text>
</a>
</g>
</g>
</svg>
