<?xml version="1.0" encoding="UTF-8" standalone="no"?>
<!DOCTYPE svg PUBLIC "-//W3C//DTD SVG 1.1//EN"
 "http://www.w3.org/Graphics/SVG/1.1/DTD/svg11.dtd">
<!-- Generated by graphviz version 2.26.3 (20100126.1600)
 -->
<!-- Title: Graph Legend Pages: 1 -->
<svg width="506pt" height="184pt"
 viewBox="0.00 0.00 506.00 184.00" xmlns="http://www.w3.org/2000/svg" xmlns:xlink="http://www.w3.org/1999/xlink">
<g id="graph1" class="graph" transform="scale(1 1) rotate(0) translate(4 180)">
<title>Graph Legend</title>
<polygon fill="white" stroke="white" points="-4,5 -4,-180 503,-180 503,5 -4,5"/>
<!-- Node9 -->
<g id="node1" class="node"><title>Node9</title>
<polygon fill="#bfbfbf" stroke="black" points="291,-24 237,-24 237,-1.42109e-14 291,-3.55271e-15 291,-24"/>
<text text-anchor="middle" x="264" y="-11" font-family="Helvetica,sans-Serif" font-size="10.00">Inherited</text>
</g>
<!-- Node10 -->
<g id="node2" class="node"><title>Node10</title>
<a xlink:href="$classPublicBase.html" xlink:title="PublicBase">
<polygon fill="none" stroke="black" points="66,-100 2.84217e-14,-100 0,-76 66,-76 66,-100"/>
<text text-anchor="middle" x="33" y="-87" font-family="Helvetica,sans-Serif" font-size="10.00">PublicBase</text>
</a>
</g>
<!-- Node10&#45;&gt;Node9 -->
<g id="edge2" class="edge"><title>Node10&#45;&gt;Node9</title>
<path fill="none" stroke="midnightblue" d="M75.6999,-73.9516C122.742,-58.4745 196.985,-34.0481 236.737,-20.9697"/>
<polygon fill="midnightblue" stroke="midnightblue" points="74.5019,-70.6611 66.0967,-77.1111 76.6896,-77.3104 74.5019,-70.6611"/>
</g>
<!-- Node11 -->
<g id="node4" class="node"><title>Node11</title>
<a xlink:href="$classTruncated.html" xlink:title="Truncated">
<polygon fill="none" stroke="red" points="62,-176 4,-176 4,-152 62,-152 62,-176"/>
<text text-anchor="middle" x="33" y="-163" font-family="Helvetica,sans-Serif" font-size="10.00">Truncated</text>
</a>
</g>
<!-- Node11&#45;&gt;Node10 -->
<g id="edge4" class="edge"><title>Node11&#45;&gt;Node10</title>
<path fill="none" stroke="midnightblue" d="M33,-141.437C33,-128.024 33,-111.52 33,-100.433"/>
<polygon fill="midnightblue" stroke="midnightblue" points="29.5001,-141.789 33,-151.789 36.5001,-141.789 29.5001,-141.789"/>
</g>
<!-- Node13 -->
<g id="node6" class="node"><title>Node13</title>
<a xlink:href="$classProtectedBase.html" xlink:title="ProtectedBase">
<polygon fill="none" stroke="black" points="164,-100 84,-100 84,-76 164,-76 164,-100"/>
<text text-anchor="middle" x="124" y="-87" font-family="Helvetica,sans-Serif" font-size="10.00">ProtectedBase</text>
</a>
</g>
<!-- Node13&#45;&gt;Node9 -->
<g id="edge6" class="edge"><title>Node13&#45;&gt;Node9</title>
<path fill="none" stroke="darkgreen" d="M155.298,-71.0095C181.449,-56.8135 218.109,-36.9123 241.457,-24.2377"/>
<polygon fill="darkgreen" stroke="darkgreen" points="153.302,-68.1106 146.183,-75.9576 156.642,-74.2626 153.302,-68.1106"/>
</g>
<!-- Node14 -->
<g id="node8" class="node"><title>Node14</title>
<a xlink:href="$classPrivateBase.html" xlink:title="PrivateBase">
<polygon fill="none" stroke="black" points="252,-100 182,-100 182,-76 252,-76 252,-100"/>
<text text-anchor="middle" x="217" y="-87" font-family="Helvetica,sans-Serif" font-size="10.00">PrivateBase</text>
</a>
</g>
<!-- Node14&#45;&gt;Node9 -->
<g id="edge8" class="edge"><title>Node14&#45;&gt;Node9</title>
<path fill="none" stroke="#8b1a1a" d="M229.968,-67.0307C238.426,-53.353 249.18,-35.9638 256.311,-24.4329"/>
<polygon fill="#8b1a1a" stroke="#8b1a1a" points="226.834,-65.4433 224.551,-75.7893 232.788,-69.1251 226.834,-65.4433"/>
</g>
<!-- Node15 -->
<g id="node10" class="node"><title>Node15</title>
<polygon fill="none" stroke="#bfbfbf" points="352,-100 270,-100 270,-76 352,-76 352,-100"/>
<text text-anchor="middle" x="311" y="-87" font-family="Helvetica,sans-Serif" font-size="10.00">Undocumented</text>
</g>
<!-- Node15&#45;&gt;Node9 -->
<g id="edge10" class="edge"><title>Node15&#45;&gt;Node9</title>
<path fill="none" stroke="midnightblue" d="M298.032,-67.0307C289.574,-53.353 278.82,-35.9638 271.689,-24.4329"/>
<polygon fill="midnightblue" stroke="midnightblue" points="295.212,-69.1251 303.449,-75.7893 301.166,-65.4433 295.212,-69.1251"/>
</g>
<!-- Node16 -->
<g id="node12" class="node"><title>Node16</title>
<a xlink:href="$classTempl.html" xlink:title="Templ&lt; int &gt;">
<polygon fill="none" stroke="black" points="440,-100 370,-100 370,-76 440,-76 440,-100"/>
<text text-anchor="middle" x="405" y="-87" font-family="Helvetica,sans-Serif" font-size="10.00">Templ&lt; int &gt;</text>
</a>
</g>
<!-- Node16&#45;&gt;Node9 -->
<g id="edge12" class="edge"><title>Node16&#45;&gt;Node9</title>
<path fill="none" stroke="midnightblue" d="M373.824,-71.196C347.465,-56.9882 310.322,-36.9679 286.704,-24.2377"/>
<polygon fill="midnightblue" stroke="midnightblue" points="372.195,-74.2938 382.658,-75.9576 375.516,-68.1318 372.195,-74.2938"/>
</g>
<!-- Node17 -->
<g id="node14" class="node"><title>Node17</title>
<a xlink:href="$classTempl.html" xlink:title="Templ&lt; T &gt;">
<polygon fill="none" stroke="black" points="438,-176 372,-176 372,-152 438,-152 438,-176"/>
<text text-anchor="middle" x="405" y="-163" font-family="Helvetica,sans-Serif" font-size="10.00">Templ&lt; T &gt;</text>
</a>
</g>
<!-- Node17&#45;&gt;Node16 -->
<g id="edge14" class="edge"><title>Node17&#45;&gt;Node16</title>
<path fill="none" stroke="orange" stroke-dasharray="5,2" d="M405,-141.437C405,-128.024 405,-111.52 405,-100.433"/>
<polygon fill="orange" stroke="orange" points="401.5,-141.789 405,-151.789 408.5,-141.789 401.5,-141.789"/>
<text text-anchor="middle" x="419.5" y="-125" font-family="Helvetica,sans-Serif" font-size="10.00">&lt; int &gt;</text>
</g>
<!-- Node18 -->
<g id="node16" class="node"><title>Node18</title>
<a xlink:href="$classUsed.html" xlink:title="Used">
<polygon fill="none" stroke="black" points="498,-100 458,-100 458,-76 498,-76 498,-100"/>
<text text-anchor="middle" x="478" y="-87" font-family="Helvetica,sans-Serif" font-size="10.00">Used</text>
</a>
</g>
<!-- Node18&#45;&gt;Node9 -->
<g id="edge16" class="edge"><title>Node18&#45;&gt;Node9</title>
<path fill="none" stroke="#9a32cd" stroke-dasharray="5,2" d="M448.34,-75.8748C387.017,-52.7588 325.593,-32.1578 291.142,-20.8295"/>
<polygon fill="#9a32cd" stroke="#9a32cd" points="447.188,-79.1812 457.78,-79.4537 449.67,-72.6358 447.188,-79.1812"/>
<text text-anchor="middle" x="428.5" y="-49" font-family="Helvetica,sans-Serif" font-size="10.00">m_usedClass</text>
</g>
</g>
</svg>
