<?xml version="1.0" encoding="UTF-8" standalone="no"?>
<!DOCTYPE svg PUBLIC "-//W3C//DTD SVG 1.1//EN"
 "http://www.w3.org/Graphics/SVG/1.1/DTD/svg11.dtd">
<!-- Generated by graphviz version 2.26.3 (20100126.1600)
 -->
<!-- Title: Graphical Class Hierarchy Pages: 1 -->
<svg width="536pt" height="496pt"
 viewBox="0.00 0.00 536.00 496.00" xmlns="http://www.w3.org/2000/svg" xmlns:xlink="http://www.w3.org/1999/xlink">
<g id="graph1" class="graph" transform="scale(1 1) rotate(0) translate(4 492)">
<title>Graphical Class Hierarchy</title>
<polygon fill="white" stroke="white" points="-4,5 -4,-492 533,-492 533,5 -4,5"/>
<!-- Node1 -->
<g id="node1" class="node"><title>Node1</title>
<a xlink:href="interfaceworld_1_1scenery_1_1_alpine_tundra_theme.html" target="_top" xlink:title="Interface used to define that a Scenery object have an Alpine Tundra style. ">
<polygon fill="white" stroke="black" points="16,-248 16,-288 152,-288 152,-248 16,-248"/>
<text text-anchor="start" x="24" y="-275" font-family="Helvetica,sans-Serif" font-size="10.00">world.scenery.AlpineTundra</text>
<text text-anchor="middle" x="84" y="-259" font-family="Helvetica,sans-Serif" font-size="10.00">Theme</text>
</a>
</g>
<!-- Node2 -->
<g id="node3" class="node"><title>Node2</title>
<a xlink:href="classworld_1_1scenery_1_1_flower.html" target="_top" xlink:title="Class used to handle a flower object. ">
<polygon fill="white" stroke="black" points="213.5,-189 213.5,-213 322.5,-213 322.5,-189 213.5,-189"/>
<text text-anchor="middle" x="268" y="-200" font-family="Helvetica,sans-Serif" font-size="10.00">world.scenery.Flower</text>
</a>
</g>
<!-- Node1&#45;&gt;Node2 -->
<g id="edge2" class="edge"><title>Node1&#45;&gt;Node2</title>
<path fill="none" stroke="midnightblue" d="M154.395,-244.333C159.019,-242.582 163.589,-240.797 168,-239 184.387,-232.325 187.562,-228.549 204,-222 211.93,-218.841 220.542,-215.775 228.802,-213.008"/>
<polygon fill="midnightblue" stroke="midnightblue" points="153.016,-241.111 144.856,-247.869 155.45,-247.674 153.016,-241.111"/>
</g>
<!-- Node3 -->
<g id="node5" class="node"><title>Node3</title>
<a xlink:href="classworld_1_1scenery_1_1_grass.html" target="_top" xlink:title="Class used to handle a grass object. ">
<polygon fill="white" stroke="black" points="215,-357 215,-381 321,-381 321,-357 215,-357"/>
<text text-anchor="middle" x="268" y="-368" font-family="Helvetica,sans-Serif" font-size="10.00">world.scenery.Grass</text>
</a>
</g>
<!-- Node1&#45;&gt;Node3 -->
<g id="edge4" class="edge"><title>Node1&#45;&gt;Node3</title>
<path fill="none" stroke="midnightblue" d="M161.43,-292.499C163.698,-293.92 165.895,-295.419 168,-297 190.183,-313.664 181.69,-331.507 204,-348 208.796,-351.545 214.221,-354.511 219.834,-356.989"/>
<polygon fill="midnightblue" stroke="midnightblue" points="162.806,-289.257 152.376,-287.396 159.369,-295.355 162.806,-289.257"/>
</g>
<!-- Node4 -->
<g id="node7" class="node"><title>Node4</title>
<a xlink:href="classworld_1_1scenery_1_1_ground.html" target="_top" xlink:title="Class used to handle a ground object. ">
<polygon fill="white" stroke="black" points="212.5,-273 212.5,-297 323.5,-297 323.5,-273 212.5,-273"/>
<text text-anchor="middle" x="268" y="-284" font-family="Helvetica,sans-Serif" font-size="10.00">world.scenery.Ground</text>
</a>
</g>
<!-- Node1&#45;&gt;Node4 -->
<g id="edge6" class="edge"><title>Node1&#45;&gt;Node4</title>
<path fill="none" stroke="midnightblue" d="M162.604,-275.262C179.386,-276.813 196.776,-278.42 212.475,-279.87"/>
<polygon fill="midnightblue" stroke="midnightblue" points="162.533,-271.741 152.253,-274.306 161.889,-278.711 162.533,-271.741"/>
</g>
<!-- Node5 -->
<g id="node9" class="node"><title>Node5</title>
<a xlink:href="classworld_1_1scenery_1_1_rock.html" target="_top" xlink:title="Class used to handle a rock object. ">
<polygon fill="white" stroke="black" points="216.5,-147 216.5,-171 319.5,-171 319.5,-147 216.5,-147"/>
<text text-anchor="middle" x="268" y="-158" font-family="Helvetica,sans-Serif" font-size="10.00">world.scenery.Rock</text>
</a>
</g>
<!-- Node1&#45;&gt;Node5 -->
<g id="edge8" class="edge"><title>Node1&#45;&gt;Node5</title>
<path fill="none" stroke="midnightblue" d="M160.908,-244.117C163.372,-242.517 165.746,-240.814 168,-239 191.93,-219.74 179.922,-199.075 204,-180 208.491,-176.442 213.608,-173.476 218.946,-171.007"/>
<polygon fill="midnightblue" stroke="midnightblue" points="159.108,-241.115 152.221,-249.166 162.625,-247.167 159.108,-241.115"/>
</g>
<!-- Node6 -->
<g id="node11" class="node"><title>Node6</title>
<a xlink:href="classworld_1_1scenery_1_1_shrub.html" target="_top" xlink:title="Class used to handle a shrub object. ">
<polygon fill="white" stroke="black" points="215.5,-315 215.5,-339 320.5,-339 320.5,-315 215.5,-315"/>
<text text-anchor="middle" x="268" y="-326" font-family="Helvetica,sans-Serif" font-size="10.00">world.scenery.Shrub</text>
</a>
</g>
<!-- Node1&#45;&gt;Node6 -->
<g id="edge10" class="edge"><title>Node1&#45;&gt;Node6</title>
<path fill="none" stroke="midnightblue" d="M156.178,-291.144C181.614,-299.3 209.172,-308.137 230.566,-314.997"/>
<polygon fill="midnightblue" stroke="midnightblue" points="157.142,-287.778 146.551,-288.057 155.004,-294.443 157.142,-287.778"/>
</g>
<!-- Node7 -->
<g id="node13" class="node"><title>Node7</title>
<a xlink:href="classworld_1_1scenery_1_1_tree.html" target="_top" xlink:title="Class used to handle a tree object. ">
<polygon fill="white" stroke="black" points="219,-231 219,-255 317,-255 317,-231 219,-231"/>
<text text-anchor="middle" x="268" y="-242" font-family="Helvetica,sans-Serif" font-size="10.00">world.scenery.Tree</text>
</a>
</g>
<!-- Node1&#45;&gt;Node7 -->
<g id="edge12" class="edge"><title>Node1&#45;&gt;Node7</title>
<path fill="none" stroke="midnightblue" d="M162.202,-257.375C181.405,-254.766 201.429,-252.045 218.824,-249.682"/>
<polygon fill="midnightblue" stroke="midnightblue" points="161.691,-253.912 152.253,-258.726 162.634,-260.848 161.691,-253.912"/>
</g>
<!-- Node8 -->
<g id="node14" class="node"><title>Node8</title>
<a xlink:href="interfaceworld_1_1scenery_1_1_cave_theme.html" target="_top" xlink:title="Interface used to tell that a Scenery object has a Cave style. ">
<polygon fill="white" stroke="black" points="17.5,-206 17.5,-230 150.5,-230 150.5,-206 17.5,-206"/>
<text text-anchor="middle" x="84" y="-217" font-family="Helvetica,sans-Serif" font-size="10.00">world.scenery.CaveTheme</text>
</a>
</g>
<!-- Node8&#45;&gt;Node4 -->
<g id="edge14" class="edge"><title>Node8&#45;&gt;Node4</title>
<path fill="none" stroke="midnightblue" d="M153.393,-233.203C158.41,-234.953 163.329,-236.88 168,-239 185.739,-247.049 186.563,-255.317 204,-264 210.699,-267.336 218.049,-270.317 225.305,-272.911"/>
<polygon fill="midnightblue" stroke="midnightblue" points="154.255,-229.804 143.664,-230.056 152.101,-236.464 154.255,-229.804"/>
</g>
<!-- Node8&#45;&gt;Node5 -->
<g id="edge16" class="edge"><title>Node8&#45;&gt;Node5</title>
<path fill="none" stroke="midnightblue" d="M148.439,-203.27C155.1,-201.338 161.723,-199.242 168,-197 184.663,-191.048 187.562,-186.549 204,-180 211.93,-176.841 220.542,-173.775 228.802,-171.008"/>
<polygon fill="midnightblue" stroke="midnightblue" points="147.385,-199.93 138.689,-205.983 149.262,-206.674 147.385,-199.93"/>
</g>
<!-- Node8&#45;&gt;Node6 -->
<g id="edge18" class="edge"><title>Node8&#45;&gt;Node6</title>
<path fill="none" stroke="midnightblue" d="M159.704,-233.47C162.609,-235.132 165.39,-236.969 168,-239 194.677,-259.762 178.089,-284.29 204,-306 208.213,-309.53 213.036,-312.471 218.103,-314.922"/>
<polygon fill="midnightblue" stroke="midnightblue" points="161.184,-230.298 150.67,-228.994 158.077,-236.57 161.184,-230.298"/>
</g>
<!-- Node8&#45;&gt;Node7 -->
<g id="edge20" class="edge"><title>Node8&#45;&gt;Node7</title>
<path fill="none" stroke="midnightblue" d="M160.844,-228.441C180.466,-231.107 201.035,-233.901 218.845,-236.321"/>
<polygon fill="midnightblue" stroke="midnightblue" points="161.069,-224.939 150.688,-227.061 160.126,-231.875 161.069,-224.939"/>
</g>
<!-- Node9 -->
<g id="node19" class="node"><title>Node9</title>
<a xlink:href="interfaceworld_1_1_interactive_object.html" target="_top" xlink:title="world.InteractiveObject">
<polygon fill="white" stroke="black" points="25.5,-22 25.5,-46 142.5,-46 142.5,-22 25.5,-22"/>
<text text-anchor="middle" x="84" y="-33" font-family="Helvetica,sans-Serif" font-size="10.00">world.InteractiveObject</text>
</a>
</g>
<!-- Node9&#45;&gt;Node5 -->
<g id="edge28" class="edge"><title>Node9&#45;&gt;Node5</title>
<path fill="none" stroke="midnightblue" d="M152.545,-45.247C158.116,-47.8681 163.373,-51.0765 168,-55 198.669,-81.0038 174.288,-110.908 204,-138 207.889,-141.546 212.387,-144.494 217.162,-146.944"/>
<polygon fill="midnightblue" stroke="midnightblue" points="153.509,-41.8619 142.926,-41.3675 150.891,-48.3538 153.509,-41.8619"/>
</g>
<!-- Node9&#45;&gt;Node7 -->
<g id="edge30" class="edge"><title>Node9&#45;&gt;Node7</title>
<path fill="none" stroke="midnightblue" d="M152.224,-43.7123C158.072,-46.6252 163.472,-50.3216 168,-55 220.805,-109.558 153.195,-165.575 204,-222 208.147,-226.606 213.32,-230.205 218.917,-233.016"/>
<polygon fill="midnightblue" stroke="midnightblue" points="153.304,-40.3705 142.727,-39.7514 150.609,-46.8311 153.304,-40.3705"/>
</g>
<!-- Node10 -->
<g id="node21" class="node"><title>Node10</title>
<a xlink:href="classworld_1_1character_1_1_character.html" target="_top" xlink:title="Class used to handle a character (player or non&#45;player) ">
<polygon fill="white" stroke="black" points="204,-21 204,-45 332,-45 332,-21 204,-21"/>
<text text-anchor="middle" x="268" y="-32" font-family="Helvetica,sans-Serif" font-size="10.00">world.character.Character</text>
</a>
</g>
<!-- Node9&#45;&gt;Node10 -->
<g id="edge22" class="edge"><title>Node9&#45;&gt;Node10</title>
<path fill="none" stroke="midnightblue" d="M152.939,-33.6253C169.603,-33.5348 187.345,-33.4383 203.782,-33.349"/>
<polygon fill="midnightblue" stroke="midnightblue" points="152.705,-30.1265 142.725,-33.6808 152.744,-37.1263 152.705,-30.1265"/>
</g>
<!-- Node13 -->
<g id="node29" class="node"><title>Node13</title>
<a xlink:href="classworld_1_1scenery_1_1_water.html" target="_top" xlink:title="Class used to handle a water object. ">
<polygon fill="white" stroke="black" points="215.5,-63 215.5,-87 320.5,-87 320.5,-63 215.5,-63"/>
<text text-anchor="middle" x="268" y="-74" font-family="Helvetica,sans-Serif" font-size="10.00">world.scenery.Water</text>
</a>
</g>
<!-- Node9&#45;&gt;Node13 -->
<g id="edge32" class="edge"><title>Node9&#45;&gt;Node13</title>
<path fill="none" stroke="midnightblue" d="M148.132,-48.2902C170.128,-53.1916 194.472,-58.6159 215.442,-63.2888"/>
<polygon fill="midnightblue" stroke="midnightblue" points="148.733,-44.8384 138.211,-46.0796 147.21,-51.6708 148.733,-44.8384"/>
</g>
<!-- Node11 -->
<g id="node23" class="node"><title>Node11</title>
<a xlink:href="classworld_1_1character_1_1_hero.html" target="_top" xlink:title="world.character.Hero">
<polygon fill="white" stroke="black" points="394.5,-42 394.5,-66 501.5,-66 501.5,-42 394.5,-42"/>
<text text-anchor="middle" x="448" y="-53" font-family="Helvetica,sans-Serif" font-size="10.00">world.character.Hero</text>
</a>
</g>
<!-- Node10&#45;&gt;Node11 -->
<g id="edge24" class="edge"><title>Node10&#45;&gt;Node11</title>
<path fill="none" stroke="midnightblue" d="M342.395,-41.6794C359.867,-43.7178 378.148,-45.8506 394.496,-47.7578"/>
<polygon fill="midnightblue" stroke="midnightblue" points="342.56,-38.175 332.222,-40.4925 341.749,-45.1279 342.56,-38.175"/>
</g>
<!-- Node12 -->
<g id="node25" class="node"><title>Node12</title>
<a xlink:href="classworld_1_1character_1_1_talking_character.html" target="_top" xlink:title="Class handling a talking character. ">
<polygon fill="white" stroke="black" points="368.5,-0 368.5,-24 527.5,-24 527.5,-0 368.5,-0"/>
<text text-anchor="middle" x="448" y="-11" font-family="Helvetica,sans-Serif" font-size="10.00">world.character.TalkingCharacter</text>
</a>
</g>
<!-- Node10&#45;&gt;Node12 -->
<g id="edge26" class="edge"><title>Node10&#45;&gt;Node12</title>
<path fill="none" stroke="midnightblue" d="M342.235,-24.3393C350.859,-23.3331 359.683,-22.3036 368.376,-21.2895"/>
<polygon fill="midnightblue" stroke="midnightblue" points="341.749,-20.8721 332.222,-25.5075 342.56,-27.825 341.749,-20.8721"/>
</g>
<!-- Node14 -->
<g id="node30" class="node"><title>Node14</title>
<a xlink:href="interfaceworld_1_1scenery_1_1_polar_desert_theme.html" target="_top" xlink:title="Interface used to define that a Scenery object has a Polar Desert style. ">
<polygon fill="white" stroke="black" points="18.5,-64 18.5,-104 149.5,-104 149.5,-64 18.5,-64"/>
<text text-anchor="start" x="26.5" y="-91" font-family="Helvetica,sans-Serif" font-size="10.00">world.scenery.PolarDesert</text>
<text text-anchor="middle" x="84" y="-75" font-family="Helvetica,sans-Serif" font-size="10.00">Theme</text>
</a>
</g>
<!-- Node14&#45;&gt;Node4 -->
<g id="edge34" class="edge"><title>Node14&#45;&gt;Node4</title>
<path fill="none" stroke="midnightblue" d="M158.255,-104.384C161.799,-106.926 165.086,-109.785 168,-113 214.327,-164.125 157.282,-213.233 204,-264 207.247,-267.528 211.095,-270.465 215.269,-272.909"/>
<polygon fill="midnightblue" stroke="midnightblue" points="159.921,-101.299 149.577,-99.0092 156.236,-107.25 159.921,-101.299"/>
</g>
<!-- Node14&#45;&gt;Node5 -->
<g id="edge36" class="edge"><title>Node14&#45;&gt;Node5</title>
<path fill="none" stroke="midnightblue" d="M157.284,-107.93C160.947,-109.552 164.539,-111.243 168,-113 185.37,-121.817 186.563,-129.317 204,-138 210.699,-141.336 218.049,-144.317 225.305,-146.911"/>
<polygon fill="midnightblue" stroke="midnightblue" points="158.637,-104.702 148.063,-104.043 155.918,-111.152 158.637,-104.702"/>
</g>
<!-- Node14&#45;&gt;Node6 -->
<g id="edge40" class="edge"><title>Node14&#45;&gt;Node6</title>
<path fill="none" stroke="midnightblue" d="M158.447,-104.214C161.943,-106.799 165.167,-109.713 168,-113 224.969,-179.093 146.525,-240.346 204,-306 207.235,-309.695 211.131,-312.744 215.385,-315.257"/>
<polygon fill="midnightblue" stroke="midnightblue" points="160.174,-101.165 149.855,-98.7629 156.424,-107.076 160.174,-101.165"/>
</g>
<!-- Node14&#45;&gt;Node7 -->
<g id="edge42" class="edge"><title>Node14&#45;&gt;Node7</title>
<path fill="none" stroke="midnightblue" d="M158.154,-104.833C161.696,-107.262 165.013,-109.973 168,-113 203.832,-149.317 167.89,-185.96 204,-222 208.221,-226.213 213.301,-229.581 218.729,-232.273"/>
<polygon fill="midnightblue" stroke="midnightblue" points="159.908,-101.804 149.531,-99.6641 156.309,-107.808 159.908,-101.804"/>
</g>
<!-- Node14&#45;&gt;Node13 -->
<g id="edge44" class="edge"><title>Node14&#45;&gt;Node13</title>
<path fill="none" stroke="midnightblue" d="M159.894,-80.2878C178.541,-79.3757 198.099,-78.4191 215.375,-77.5741"/>
<polygon fill="midnightblue" stroke="midnightblue" points="159.466,-76.8045 149.649,-80.7889 159.808,-83.7961 159.466,-76.8045"/>
</g>
<!-- Node15 -->
<g id="node34" class="node"><title>Node15</title>
<a xlink:href="classworld_1_1scenery_1_1_shore.html" target="_top" xlink:title="Class used to handle a shore object. ">
<polygon fill="white" stroke="black" points="215.5,-105 215.5,-129 320.5,-129 320.5,-105 215.5,-105"/>
<text text-anchor="middle" x="268" y="-116" font-family="Helvetica,sans-Serif" font-size="10.00">world.scenery.Shore</text>
</a>
</g>
<!-- Node14&#45;&gt;Node15 -->
<g id="edge38" class="edge"><title>Node14&#45;&gt;Node15</title>
<path fill="none" stroke="midnightblue" d="M159.635,-97.565C178.36,-100.923 198.019,-104.449 215.375,-107.562"/>
<polygon fill="midnightblue" stroke="midnightblue" points="160.11,-94.0944 149.649,-95.774 158.874,-100.984 160.11,-94.0944"/>
</g>
<!-- Node16 -->
<g id="node38" class="node"><title>Node16</title>
<a xlink:href="interfaceworld_1_1scenery_1_1_savanna_theme.html" target="_top" xlink:title="Interface used to define that a Scenery object have a Savanna style. ">
<polygon fill="white" stroke="black" points="10,-464 10,-488 158,-488 158,-464 10,-464"/>
<text text-anchor="middle" x="84" y="-475" font-family="Helvetica,sans-Serif" font-size="10.00">world.scenery.SavannaTheme</text>
</a>
</g>
<!-- Node16&#45;&gt;Node3 -->
<g id="edge46" class="edge"><title>Node16&#45;&gt;Node3</title>
<path fill="none" stroke="midnightblue" d="M155.669,-460.557C159.92,-458.884 164.064,-457.037 168,-455 205.214,-435.738 240.324,-400.069 257.321,-381.292"/>
<polygon fill="midnightblue" stroke="midnightblue" points="154.457,-457.273 146.229,-463.948 156.824,-463.861 154.457,-457.273"/>
</g>
<!-- Node16&#45;&gt;Node4 -->
<g id="edge48" class="edge"><title>Node16&#45;&gt;Node4</title>
<path fill="none" stroke="midnightblue" d="M164.585,-458.14C165.768,-457.146 166.908,-456.1 168,-455 215.983,-406.636 157.791,-356.061 204,-306 207.252,-302.477 211.104,-299.544 215.28,-297.102"/>
<polygon fill="midnightblue" stroke="midnightblue" points="162.42,-455.383 156.219,-463.973 166.424,-461.125 162.42,-455.383"/>
</g>
<!-- Node16&#45;&gt;Node6 -->
<g id="edge50" class="edge"><title>Node16&#45;&gt;Node6</title>
<path fill="none" stroke="midnightblue" d="M163.964,-458.384C165.361,-457.319 166.709,-456.192 168,-455 204.862,-420.96 168.388,-383.346 204,-348 207.569,-344.458 211.745,-341.513 216.222,-339.065"/>
<polygon fill="midnightblue" stroke="midnightblue" points="162,-455.486 155.477,-463.835 165.783,-461.376 162,-455.486"/>
</g>
<!-- Node16&#45;&gt;Node7 -->
<g id="edge52" class="edge"><title>Node16&#45;&gt;Node7</title>
<path fill="none" stroke="midnightblue" d="M165.104,-457.825C166.105,-456.925 167.072,-455.984 168,-455 227.264,-392.152 147.039,-328.943 204,-264 208.087,-259.341 213.225,-255.71 218.803,-252.883"/>
<polygon fill="midnightblue" stroke="midnightblue" points="162.781,-455.189 156.811,-463.941 166.936,-460.822 162.781,-455.189"/>
</g>
<!-- Node17 -->
<g id="node43" class="node"><title>Node17</title>
<a xlink:href="classworld_1_1scenery_1_1_scenery.html" target="_top" xlink:title="Class used to handle any world object. ">
<polygon fill="white" stroke="black" points="26,-122 26,-146 142,-146 142,-122 26,-122"/>
<text text-anchor="middle" x="84" y="-133" font-family="Helvetica,sans-Serif" font-size="10.00">world.scenery.Scenery</text>
</a>
</g>
<!-- Node17&#45;&gt;Node2 -->
<g id="edge56" class="edge"><title>Node17&#45;&gt;Node2</title>
<path fill="none" stroke="midnightblue" d="M152.179,-148.784C157.616,-150.643 162.952,-152.709 168,-155 185.739,-163.049 186.563,-171.317 204,-180 210.699,-183.336 218.049,-186.317 225.305,-188.911"/>
<polygon fill="midnightblue" stroke="midnightblue" points="152.914,-145.345 142.323,-145.657 150.797,-152.017 152.914,-145.345"/>
</g>
<!-- Node17&#45;&gt;Node3 -->
<g id="edge58" class="edge"><title>Node17&#45;&gt;Node3</title>
<path fill="none" stroke="midnightblue" d="M151.398,-143.106C157.591,-146.114 163.293,-149.999 168,-155 227.804,-218.54 146.525,-282.346 204,-348 207.081,-351.519 210.762,-354.452 214.78,-356.895"/>
<polygon fill="midnightblue" stroke="midnightblue" points="152.615,-139.823 142.034,-139.299 149.979,-146.308 152.615,-139.823"/>
</g>
<!-- Node17&#45;&gt;Node4 -->
<g id="edge60" class="edge"><title>Node17&#45;&gt;Node4</title>
<path fill="none" stroke="midnightblue" d="M151.721,-144.226C157.668,-147.037 163.229,-150.57 168,-155 205.385,-189.716 167.89,-227.96 204,-264 207.559,-267.552 211.728,-270.504 216.202,-272.956"/>
<polygon fill="midnightblue" stroke="midnightblue" points="152.699,-140.848 142.115,-140.376 150.095,-147.345 152.699,-140.848"/>
</g>
<!-- Node17&#45;&gt;Node5 -->
<g id="edge62" class="edge"><title>Node17&#45;&gt;Node5</title>
<path fill="none" stroke="midnightblue" d="M152.155,-143.26C173.398,-146.146 196.463,-149.28 216.379,-151.986"/>
<polygon fill="midnightblue" stroke="midnightblue" points="152.599,-139.788 142.219,-141.91 151.656,-146.725 152.599,-139.788"/>
</g>
<!-- Node17&#45;&gt;Node6 -->
<g id="edge66" class="edge"><title>Node17&#45;&gt;Node6</title>
<path fill="none" stroke="midnightblue" d="M151.852,-143.684C157.823,-146.597 163.352,-150.301 168,-155 216.517,-204.051 157.282,-255.233 204,-306 207.247,-309.528 211.095,-312.465 215.269,-314.909"/>
<polygon fill="midnightblue" stroke="midnightblue" points="152.75,-140.27 142.169,-139.729 150.103,-146.75 152.75,-140.27"/>
</g>
<!-- Node17&#45;&gt;Node7 -->
<g id="edge68" class="edge"><title>Node17&#45;&gt;Node7</title>
<path fill="none" stroke="midnightblue" d="M151.514,-145.361C157.409,-147.952 163.018,-151.122 168,-155 194.677,-175.762 178.089,-200.29 204,-222 208.392,-225.68 213.448,-228.721 218.752,-231.232"/>
<polygon fill="midnightblue" stroke="midnightblue" points="152.654,-142.049 142.063,-141.748 150.154,-148.588 152.654,-142.049"/>
</g>
<!-- Node17&#45;&gt;Node10 -->
<g id="edge54" class="edge"><title>Node17&#45;&gt;Node10</title>
<path fill="none" stroke="midnightblue" d="M151.99,-122.051C157.677,-119.576 163.112,-116.594 168,-113 192.749,-94.8045 179.922,-73.0754 204,-54 208.491,-50.4417 213.608,-47.4763 218.946,-45.007"/>
<polygon fill="midnightblue" stroke="midnightblue" points="150.339,-118.934 142.232,-125.754 152.823,-125.478 150.339,-118.934"/>
</g>
<!-- Node17&#45;&gt;Node13 -->
<g id="edge70" class="edge"><title>Node17&#45;&gt;Node13</title>
<path fill="none" stroke="midnightblue" d="M148.439,-119.27C155.1,-117.338 161.723,-115.242 168,-113 184.663,-107.048 187.562,-102.549 204,-96 211.93,-92.8406 220.542,-89.7754 228.802,-87.0077"/>
<polygon fill="midnightblue" stroke="midnightblue" points="147.385,-115.93 138.689,-121.983 149.262,-122.674 147.385,-115.93"/>
</g>
<!-- Node17&#45;&gt;Node15 -->
<g id="edge64" class="edge"><title>Node17&#45;&gt;Node15</title>
<path fill="none" stroke="midnightblue" d="M152.305,-127.689C173.18,-125.761 195.801,-123.671 215.458,-121.854"/>
<polygon fill="midnightblue" stroke="midnightblue" points="151.854,-124.216 142.219,-128.621 152.498,-131.186 151.854,-124.216"/>
</g>
<!-- Node18 -->
<g id="node53" class="node"><title>Node18</title>
<a xlink:href="interfaceworld_1_1scenery_1_1_steppe_theme.html" target="_top" xlink:title="Interface used to define that a Scenery object have a Steppe style. ">
<polygon fill="white" stroke="black" points="14,-422 14,-446 154,-446 154,-422 14,-422"/>
<text text-anchor="middle" x="84" y="-433" font-family="Helvetica,sans-Serif" font-size="10.00">world.scenery.SteppeTheme</text>
</a>
</g>
<!-- Node18&#45;&gt;Node3 -->
<g id="edge72" class="edge"><title>Node18&#45;&gt;Node3</title>
<path fill="none" stroke="midnightblue" d="M148.076,-419.184C154.85,-417.261 161.598,-415.191 168,-413 194.559,-403.91 223.832,-390.625 243.804,-381.032"/>
<polygon fill="midnightblue" stroke="midnightblue" points="146.891,-415.88 138.169,-421.895 148.738,-422.632 146.891,-415.88"/>
</g>
<!-- Node18&#45;&gt;Node4 -->
<g id="edge74" class="edge"><title>Node18&#45;&gt;Node4</title>
<path fill="none" stroke="midnightblue" d="M163.174,-416.976C164.855,-415.738 166.468,-414.415 168,-413 204.862,-378.96 168.388,-341.346 204,-306 207.569,-302.458 211.745,-299.513 216.222,-297.065"/>
<polygon fill="midnightblue" stroke="midnightblue" points="160.941,-414.241 154.272,-422.473 164.619,-420.197 160.941,-414.241"/>
</g>
<!-- Node18&#45;&gt;Node6 -->
<g id="edge76" class="edge"><title>Node18&#45;&gt;Node6</title>
<path fill="none" stroke="midnightblue" d="M162.245,-416.965C164.236,-415.733 166.16,-414.414 168,-413 194.19,-392.883 178.552,-369.047 204,-348 208.235,-344.497 213.073,-341.573 218.148,-339.132"/>
<polygon fill="midnightblue" stroke="midnightblue" points="160.318,-414.026 153.142,-421.821 163.612,-420.202 160.318,-414.026"/>
</g>
<!-- Node18&#45;&gt;Node7 -->
<g id="edge78" class="edge"><title>Node18&#45;&gt;Node7</title>
<path fill="none" stroke="midnightblue" d="M162.791,-417.584C164.623,-416.172 166.366,-414.647 168,-413 215.983,-364.636 157.791,-314.061 204,-264 208.124,-259.532 213.214,-256.012 218.706,-253.24"/>
<polygon fill="midnightblue" stroke="midnightblue" points="160.768,-414.724 154.245,-423.073 164.55,-420.614 160.768,-414.724"/>
</g>
<!-- Node19 -->
<g id="node58" class="node"><title>Node19</title>
<a xlink:href="interfaceworld_1_1scenery_1_1_taiga_theme.html" target="_top" xlink:title="Interface used to define that a Scenery object have a Taiga style. ">
<polygon fill="white" stroke="black" points="17.5,-164 17.5,-188 150.5,-188 150.5,-164 17.5,-164"/>
<text text-anchor="middle" x="84" y="-175" font-family="Helvetica,sans-Serif" font-size="10.00">world.scenery.TaigaTheme</text>
</a>
</g>
<!-- Node19&#45;&gt;Node2 -->
<g id="edge80" class="edge"><title>Node19&#45;&gt;Node2</title>
<path fill="none" stroke="midnightblue" d="M160.94,-186.454C178.534,-188.844 196.883,-191.337 213.319,-193.571"/>
<polygon fill="midnightblue" stroke="midnightblue" points="161.069,-182.939 150.688,-185.061 160.126,-189.875 161.069,-182.939"/>
</g>
<!-- Node19&#45;&gt;Node3 -->
<g id="edge82" class="edge"><title>Node19&#45;&gt;Node3</title>
<path fill="none" stroke="midnightblue" d="M159.585,-190.103C162.609,-192.122 165.438,-194.41 168,-197 216.517,-246.051 157.282,-297.233 204,-348 207.247,-351.528 211.095,-354.465 215.269,-356.909"/>
<polygon fill="midnightblue" stroke="midnightblue" points="161.049,-186.911 150.611,-185.093 157.636,-193.023 161.049,-186.911"/>
</g>
<!-- Node19&#45;&gt;Node4 -->
<g id="edge84" class="edge"><title>Node19&#45;&gt;Node4</title>
<path fill="none" stroke="midnightblue" d="M159.704,-191.47C162.609,-193.132 165.39,-194.969 168,-197 194.677,-217.762 178.089,-242.29 204,-264 208.213,-267.53 213.036,-270.471 218.103,-272.922"/>
<polygon fill="midnightblue" stroke="midnightblue" points="161.184,-188.298 150.67,-186.994 158.077,-194.57 161.184,-188.298"/>
</g>
<!-- Node19&#45;&gt;Node5 -->
<g id="edge86" class="edge"><title>Node19&#45;&gt;Node5</title>
<path fill="none" stroke="midnightblue" d="M160.681,-168.915C179.406,-167.185 199.002,-165.375 216.247,-163.781"/>
<polygon fill="midnightblue" stroke="midnightblue" points="160.324,-165.433 150.688,-169.839 160.968,-172.404 160.324,-165.433"/>
</g>
<!-- Node19&#45;&gt;Node6 -->
<g id="edge90" class="edge"><title>Node19&#45;&gt;Node6</title>
<path fill="none" stroke="midnightblue" d="M159.517,-190.5C162.538,-192.417 165.387,-194.574 168,-197 205.385,-231.716 167.89,-269.96 204,-306 207.559,-309.552 211.728,-312.504 216.202,-314.956"/>
<polygon fill="midnightblue" stroke="midnightblue" points="161.074,-187.364 150.609,-185.711 157.759,-193.529 161.074,-187.364"/>
</g>
<!-- Node19&#45;&gt;Node7 -->
<g id="edge92" class="edge"><title>Node19&#45;&gt;Node7</title>
<path fill="none" stroke="midnightblue" d="M153.393,-191.203C158.41,-192.953 163.329,-194.88 168,-197 185.739,-205.049 186.563,-213.317 204,-222 210.699,-225.336 218.049,-228.317 225.305,-230.911"/>
<polygon fill="midnightblue" stroke="midnightblue" points="154.255,-187.804 143.664,-188.056 152.101,-194.464 154.255,-187.804"/>
</g>
<!-- Node19&#45;&gt;Node13 -->
<g id="edge94" class="edge"><title>Node19&#45;&gt;Node13</title>
<path fill="none" stroke="midnightblue" d="M160.036,-160.09C162.809,-158.546 165.477,-156.855 168,-155 192.749,-136.805 179.922,-115.075 204,-96 208.491,-92.4417 213.608,-89.4763 218.946,-87.007"/>
<polygon fill="midnightblue" stroke="midnightblue" points="158.344,-157.02 150.871,-164.53 161.396,-163.32 158.344,-157.02"/>
</g>
<!-- Node19&#45;&gt;Node15 -->
<g id="edge88" class="edge"><title>Node19&#45;&gt;Node15</title>
<path fill="none" stroke="midnightblue" d="M148.439,-161.27C155.1,-159.338 161.723,-157.242 168,-155 184.663,-149.048 187.562,-144.549 204,-138 211.93,-134.841 220.542,-131.775 228.802,-129.008"/>
<polygon fill="midnightblue" stroke="midnightblue" points="147.385,-157.93 138.689,-163.983 149.262,-164.674 147.385,-157.93"/>
</g>
<!-- Node20 -->
<g id="node67" class="node"><title>Node20</title>
<a xlink:href="interfaceworld_1_1scenery_1_1_temperate_broadleaf_theme.html" target="_top" xlink:title="Interface used to define that a Scenery object have a Temperate Broadleaf style. ">
<polygon fill="white" stroke="black" points="0.5,-306 0.5,-346 167.5,-346 167.5,-306 0.5,-306"/>
<text text-anchor="start" x="8.5" y="-333" font-family="Helvetica,sans-Serif" font-size="10.00">world.scenery.TemperateBroadleaf</text>
<text text-anchor="middle" x="84" y="-317" font-family="Helvetica,sans-Serif" font-size="10.00">Theme</text>
</a>
</g>
<!-- Node20&#45;&gt;Node2 -->
<g id="edge96" class="edge"><title>Node20&#45;&gt;Node2</title>
<path fill="none" stroke="midnightblue" d="M164.435,-299.973C165.658,-299.017 166.848,-298.026 168,-297 195.605,-272.402 176.206,-246.385 204,-222 208.044,-218.452 212.7,-215.502 217.619,-213.048"/>
<polygon fill="midnightblue" stroke="midnightblue" points="162.205,-297.257 155.924,-305.79 166.155,-303.036 162.205,-297.257"/>
</g>
<!-- Node20&#45;&gt;Node3 -->
<g id="edge98" class="edge"><title>Node20&#45;&gt;Node3</title>
<path fill="none" stroke="midnightblue" d="M177.415,-347.831C190.831,-350.966 204.208,-354.092 216.402,-356.942"/>
<polygon fill="midnightblue" stroke="midnightblue" points="178.189,-344.417 167.655,-345.55 176.596,-351.234 178.189,-344.417"/>
</g>
<!-- Node20&#45;&gt;Node4 -->
<g id="edge100" class="edge"><title>Node20&#45;&gt;Node4</title>
<path fill="none" stroke="midnightblue" d="M177.654,-305.132C190.133,-302.351 202.571,-299.579 214.05,-297.022"/>
<polygon fill="midnightblue" stroke="midnightblue" points="176.654,-301.768 167.655,-307.36 178.177,-308.601 176.654,-301.768"/>
</g>
<!-- Node20&#45;&gt;Node5 -->
<g id="edge102" class="edge"><title>Node20&#45;&gt;Node5</title>
<path fill="none" stroke="midnightblue" d="M165.194,-299.718C166.159,-298.842 167.095,-297.936 168,-297 205.813,-257.882 165.888,-218.826 204,-180 207.604,-176.328 211.86,-173.298 216.438,-170.798"/>
<polygon fill="midnightblue" stroke="midnightblue" points="163.023,-296.973 157.289,-305.882 167.327,-302.493 163.023,-296.973"/>
</g>
<!-- Node20&#45;&gt;Node6 -->
<g id="edge104" class="edge"><title>Node20&#45;&gt;Node6</title>
<path fill="none" stroke="midnightblue" d="M177.955,-326.511C190.809,-326.58 203.612,-326.65 215.36,-326.714"/>
<polygon fill="midnightblue" stroke="midnightblue" points="177.674,-323.009 167.655,-326.455 177.636,-330.009 177.674,-323.009"/>
</g>
<!-- Node20&#45;&gt;Node7 -->
<g id="edge106" class="edge"><title>Node20&#45;&gt;Node7</title>
<path fill="none" stroke="midnightblue" d="M159.843,-301.499C162.638,-300.067 165.368,-298.568 168,-297 186.648,-285.893 185.267,-274.963 204,-264 209.854,-260.574 216.34,-257.623 222.872,-255.107"/>
<polygon fill="midnightblue" stroke="midnightblue" points="158.249,-298.381 150.727,-305.843 161.26,-304.7 158.249,-298.381"/>
</g>
<!-- Node21 -->
<g id="node74" class="node"><title>Node21</title>
<a xlink:href="interfaceworld_1_1scenery_1_1_xeric_shrublands_theme.html" target="_top" xlink:title="Interface used to define that a Scenery object have a Xeric Shrublands style. ">
<polygon fill="white" stroke="black" points="8.5,-364 8.5,-404 159.5,-404 159.5,-364 8.5,-364"/>
<text text-anchor="start" x="16.5" y="-391" font-family="Helvetica,sans-Serif" font-size="10.00">world.scenery.XericShrublands</text>
<text text-anchor="middle" x="84" y="-375" font-family="Helvetica,sans-Serif" font-size="10.00">Theme</text>
</a>
</g>
<!-- Node21&#45;&gt;Node4 -->
<g id="edge108" class="edge"><title>Node21&#45;&gt;Node4</title>
<path fill="none" stroke="midnightblue" d="M162.363,-358.842C164.3,-357.618 166.183,-356.338 168,-355 189.759,-338.975 182.118,-321.858 204,-306 208.829,-302.5 214.274,-299.562 219.898,-297.099"/>
<polygon fill="midnightblue" stroke="midnightblue" points="160.526,-355.86 153.576,-363.856 163.996,-361.94 160.526,-355.86"/>
</g>
<!-- Node21&#45;&gt;Node6 -->
<g id="edge110" class="edge"><title>Node21&#45;&gt;Node6</title>
<path fill="none" stroke="midnightblue" d="M158.166,-361.025C182.424,-353.51 208.403,-345.462 229.002,-339.081"/>
<polygon fill="midnightblue" stroke="midnightblue" points="157.129,-357.682 148.613,-363.984 159.201,-364.368 157.129,-357.682"/>
</g>
<!-- Node21&#45;&gt;Node7 -->
<g id="edge112" class="edge"><title>Node21&#45;&gt;Node7</title>
<path fill="none" stroke="midnightblue" d="M164.994,-357.701C166.025,-356.83 167.028,-355.93 168,-355 199.429,-324.933 172.341,-293.824 204,-264 208.341,-259.911 213.492,-256.617 218.959,-253.965"/>
<polygon fill="midnightblue" stroke="midnightblue" points="162.606,-355.111 156.594,-363.835 166.734,-360.764 162.606,-355.111"/>
</g>
</g>
</svg>
