<?xml version="1.0" encoding="UTF-8" standalone="no"?>
<!DOCTYPE svg PUBLIC "-//W3C//DTD SVG 1.1//EN"
 "http://www.w3.org/Graphics/SVG/1.1/DTD/svg11.dtd">
<!-- Generated by graphviz version 2.26.3 (20100126.1600)
 -->
<!-- Title: Graphical Class Hierarchy Pages: 1 -->
<svg width="204pt" height="74pt"
 viewBox="0.00 0.00 204.00 74.00" xmlns="http://www.w3.org/2000/svg" xmlns:xlink="http://www.w3.org/1999/xlink">
<g id="graph1" class="graph" transform="scale(1 1) rotate(0) translate(4 70)">
<title>Graphical Class Hierarchy</title>
<polygon fill="white" stroke="white" points="-4,5 -4,-70 201,-70 201,5 -4,5"/>
<!-- Node1 -->
<g id="node1" class="node"><title>Node1</title>
<polygon fill="white" stroke="#bfbfbf" points="0.5,-21 0.5,-45 47.5,-45 47.5,-21 0.5,-21"/>
<text text-anchor="middle" x="24" y="-32" font-family="Helvetica,sans-Serif" font-size="10.00">JPanel</text>
</g>
<!-- Node2 -->
<g id="node3" class="node"><title>Node2</title>
<a xlink:href="a00031.html" target="_top" xlink:title="Class handling the top bar of the program&#39;s main window. ">
<polygon fill="white" stroke="black" points="84,-42 84,-66 196,-66 196,-42 84,-42"/>
<text text-anchor="middle" x="140" y="-53" font-family="Helvetica,sans-Serif" font-size="10.00">window.topbar.TopBar</text>
</a>
</g>
<!-- Node1&#45;&gt;Node2 -->
<g id="edge2" class="edge"><title>Node1&#45;&gt;Node2</title>
<path fill="none" stroke="midnightblue" d="M57.6317,-39.0885C65.8138,-40.5697 74.7866,-42.1941 83.7056,-43.8088"/>
<polygon fill="midnightblue" stroke="midnightblue" points="58.2178,-35.6378 47.7542,-37.3003 56.9708,-42.5258 58.2178,-35.6378"/>
</g>
<!-- Node3 -->
<g id="node5" class="node"><title>Node3</title>
<a xlink:href="a00034.html" target="_top" xlink:title="Class used to handle the window&#39;s user interface. ">
<polygon fill="white" stroke="black" points="103.5,-0 103.5,-24 176.5,-24 176.5,-0 103.5,-0"/>
<text text-anchor="middle" x="140" y="-11" font-family="Helvetica,sans-Serif" font-size="10.00">window.ui.UI</text>
</a>
</g>
<!-- Node1&#45;&gt;Node3 -->
<g id="edge4" class="edge"><title>Node1&#45;&gt;Node3</title>
<path fill="none" stroke="midnightblue" d="M57.7111,-26.8971C72.0623,-24.2991 88.8348,-21.2627 103.48,-18.6114"/>
<polygon fill="midnightblue" stroke="midnightblue" points="56.9708,-23.4742 47.7542,-28.6997 58.2178,-30.3622 56.9708,-23.4742"/>
</g>
</g>
</svg>
