<?xml version="1.0" encoding="UTF-8" standalone="no"?>
<!DOCTYPE svg PUBLIC "-//W3C//DTD SVG 1.1//EN"
 "http://www.w3.org/Graphics/SVG/1.1/DTD/svg11.dtd">
<!-- Generated by graphviz version 2.26.3 (20100126.1600)
 -->
<!-- Title: Graphical Class Hierarchy Pages: 1 -->
<svg width="332pt" height="158pt"
 viewBox="0.00 0.00 332.00 158.00" xmlns="http://www.w3.org/2000/svg" xmlns:xlink="http://www.w3.org/1999/xlink">
<g id="graph1" class="graph" transform="scale(1 1) rotate(0) translate(4 154)">
<title>Graphical Class Hierarchy</title>
<polygon fill="white" stroke="white" points="-4,5 -4,-154 329,-154 329,5 -4,5"/>
<!-- Node1 -->
<g id="node1" class="node"><title>Node1</title>
<a xlink:href="classgameplay_1_1ai_1_1mood_1_1_mood.html" target="_top" xlink:title="Abstract class representing an AI mood. ">
<polygon fill="white" stroke="black" points="0,-63 0,-87 122,-87 122,-63 0,-63"/>
<text text-anchor="middle" x="61" y="-74" font-family="Helvetica,sans-Serif" font-size="10.00">gameplay.ai.mood.Mood</text>
</a>
</g>
<!-- Node2 -->
<g id="node3" class="node"><title>Node2</title>
<a xlink:href="classgameplay_1_1ai_1_1mood_1_1_anger.html" target="_top" xlink:title="gameplay.ai.mood.Anger">
<polygon fill="white" stroke="black" points="179,-126 179,-150 303,-150 303,-126 179,-126"/>
<text text-anchor="middle" x="241" y="-137" font-family="Helvetica,sans-Serif" font-size="10.00">gameplay.ai.mood.Anger</text>
</a>
</g>
<!-- Node1&#45;&gt;Node2 -->
<g id="edge2" class="edge"><title>Node1&#45;&gt;Node2</title>
<path fill="none" stroke="midnightblue" d="M94.8254,-91.2404C113.226,-99.6666 136.55,-109.696 158,-117 167.568,-120.258 177.909,-123.267 187.937,-125.929"/>
<polygon fill="midnightblue" stroke="midnightblue" points="96.2325,-88.035 85.688,-87.0032 93.2876,-94.3854 96.2325,-88.035"/>
</g>
<!-- Node3 -->
<g id="node5" class="node"><title>Node3</title>
<a xlink:href="classgameplay_1_1ai_1_1mood_1_1_curiosity.html" target="_top" xlink:title="gameplay.ai.mood.Curiosity">
<polygon fill="white" stroke="black" points="172.5,-84 172.5,-108 309.5,-108 309.5,-84 172.5,-84"/>
<text text-anchor="middle" x="241" y="-95" font-family="Helvetica,sans-Serif" font-size="10.00">gameplay.ai.mood.Curiosity</text>
</a>
</g>
<!-- Node1&#45;&gt;Node3 -->
<g id="edge4" class="edge"><title>Node1&#45;&gt;Node3</title>
<path fill="none" stroke="midnightblue" d="M132.154,-83.3013C145.353,-84.8412 159.119,-86.4472 172.245,-87.9785"/>
<polygon fill="midnightblue" stroke="midnightblue" points="132.529,-79.8214 122.191,-82.1389 131.718,-86.7743 132.529,-79.8214"/>
</g>
<!-- Node4 -->
<g id="node7" class="node"><title>Node4</title>
<a xlink:href="classgameplay_1_1ai_1_1mood_1_1_depression.html" target="_top" xlink:title="gameplay.ai.mood.Depression">
<polygon fill="white" stroke="black" points="167,-42 167,-66 315,-66 315,-42 167,-42"/>
<text text-anchor="middle" x="241" y="-53" font-family="Helvetica,sans-Serif" font-size="10.00">gameplay.ai.mood.Depression</text>
</a>
</g>
<!-- Node1&#45;&gt;Node4 -->
<g id="edge6" class="edge"><title>Node1&#45;&gt;Node4</title>
<path fill="none" stroke="midnightblue" d="M132.454,-66.6637C143.778,-65.3425 155.512,-63.9736 166.896,-62.6455"/>
<polygon fill="midnightblue" stroke="midnightblue" points="131.718,-63.2257 122.191,-67.8611 132.529,-70.1786 131.718,-63.2257"/>
</g>
<!-- Node5 -->
<g id="node9" class="node"><title>Node5</title>
<a xlink:href="classgameplay_1_1ai_1_1mood_1_1_power_complex.html" target="_top" xlink:title="gameplay.ai.mood.PowerComplex">
<polygon fill="white" stroke="black" points="158.5,-0 158.5,-24 323.5,-24 323.5,-0 158.5,-0"/>
<text text-anchor="middle" x="241" y="-11" font-family="Helvetica,sans-Serif" font-size="10.00">gameplay.ai.mood.PowerComplex</text>
</a>
</g>
<!-- Node1&#45;&gt;Node5 -->
<g id="edge8" class="edge"><title>Node1&#45;&gt;Node5</title>
<path fill="none" stroke="midnightblue" d="M94.8254,-58.7596C113.226,-50.3334 136.55,-40.3043 158,-33 167.568,-29.7418 177.909,-26.7329 187.937,-24.0707"/>
<polygon fill="midnightblue" stroke="midnightblue" points="93.2876,-55.6146 85.688,-62.9968 96.2325,-61.965 93.2876,-55.6146"/>
</g>
</g>
</svg>
