<?xml version="1.0" encoding="UTF-8" standalone="no"?>
<!DOCTYPE svg PUBLIC "-//W3C//DTD SVG 1.1//EN"
 "http://www.w3.org/Graphics/SVG/1.1/DTD/svg11.dtd">
<!-- Generated by graphviz version 2.26.3 (20100126.1600)
 -->
<!-- Title: world.scenery.PolarDesertTheme Pages: 1 -->
<svg width="720pt" height="288pt"
 viewBox="0.00 0.00 720.00 288.00" xmlns="http://www.w3.org/2000/svg" xmlns:xlink="http://www.w3.org/1999/xlink">
<g id="graph1" class="graph" transform="scale(1 1) rotate(0) translate(4 284)">
<title>world.scenery.PolarDesertTheme</title>
<polygon fill="white" stroke="white" points="-4,5 -4,-284 717,-284 717,5 -4,5"/>
<!-- Node1 -->
<g id="node1" class="node"><title>Node1</title>
<polygon fill="#bfbfbf" stroke="black" points="295.5,-191 295.5,-279 426.5,-279 426.5,-191 295.5,-191"/>
<text text-anchor="start" x="303.5" y="-266" font-family="Helvetica,sans-Serif" font-size="10.00">world.scenery.PolarDesert</text>
<text text-anchor="middle" x="361" y="-250" font-family="Helvetica,sans-Serif" font-size="10.00">Theme</text>
<polyline fill="none" stroke="black" points="295.5,-239 426.5,-239 "/>
<text text-anchor="start" x="303.5" y="-226" font-family="Helvetica,sans-Serif" font-size="10.00">+ POLAR_DESERT</text>
<polyline fill="none" stroke="black" points="295.5,-215 426.5,-215 "/>
<text text-anchor="middle" x="361" y="-202" font-family="Helvetica,sans-Serif" font-size="10.00"> </text>
</g>
<!-- Node2 -->
<g id="node3" class="node"><title>Node2</title>
<a xlink:href="classworld_1_1scenery_1_1_ground.html" target="_top" xlink:title="Class used to handle a ground object. ">
<polygon fill="white" stroke="black" points="-0.5,-41 -0.5,-113 110.5,-113 110.5,-41 -0.5,-41"/>
<text text-anchor="middle" x="55" y="-100" font-family="Helvetica,sans-Serif" font-size="10.00">world.scenery.Ground</text>
<polyline fill="none" stroke="black" points="-0.5,-89 110.5,-89 "/>
<text text-anchor="middle" x="55" y="-76" font-family="Helvetica,sans-Serif" font-size="10.00"> </text>
<polyline fill="none" stroke="black" points="-0.5,-65 110.5,-65 "/>
<text text-anchor="start" x="7.5" y="-52" font-family="Helvetica,sans-Serif" font-size="10.00">+ Ground()</text>
</a>
</g>
<!-- Node1&#45;&gt;Node2 -->
<g id="edge2" class="edge"><title>Node1&#45;&gt;Node2</title>
<path fill="none" stroke="midnightblue" d="M285.59,-221.076C235.206,-209.172 169.216,-188.367 119,-154 103.22,-143.201 89.1851,-127.466 78.3083,-113.03"/>
<polygon fill="none" stroke="midnightblue" points="284.92,-224.513 295.449,-223.339 286.486,-217.691 284.92,-224.513"/>
</g>
<!-- Node3 -->
<g id="node5" class="node"><title>Node3</title>
<a xlink:href="classworld_1_1scenery_1_1_rock.html" target="_top" xlink:title="Class used to handle a rock object. ">
<polygon fill="white" stroke="black" points="127.5,-1 127.5,-153 230.5,-153 230.5,-1 127.5,-1"/>
<text text-anchor="middle" x="179" y="-140" font-family="Helvetica,sans-Serif" font-size="10.00">world.scenery.Rock</text>
<polyline fill="none" stroke="black" points="127.5,-129 230.5,-129 "/>
<text text-anchor="middle" x="179" y="-116" font-family="Helvetica,sans-Serif" font-size="10.00"> </text>
<polyline fill="none" stroke="black" points="127.5,-105 230.5,-105 "/>
<text text-anchor="start" x="135.5" y="-92" font-family="Helvetica,sans-Serif" font-size="10.00">+ Rock()</text>
<text text-anchor="start" x="135.5" y="-76" font-family="Helvetica,sans-Serif" font-size="10.00">+ triggerAction()</text>
<text text-anchor="start" x="135.5" y="-60" font-family="Helvetica,sans-Serif" font-size="10.00">+ playerNear()</text>
<text text-anchor="start" x="135.5" y="-44" font-family="Helvetica,sans-Serif" font-size="10.00">+ playerEnter()</text>
<text text-anchor="start" x="135.5" y="-28" font-family="Helvetica,sans-Serif" font-size="10.00">+ playerLeave()</text>
<text text-anchor="start" x="135.5" y="-12" font-family="Helvetica,sans-Serif" font-size="10.00">+ isTraversable()</text>
</a>
</g>
<!-- Node1&#45;&gt;Node3 -->
<g id="edge4" class="edge"><title>Node1&#45;&gt;Node3</title>
<path fill="none" stroke="midnightblue" d="M286.845,-191.308C270.329,-180.1 253.449,-167.393 239,-154 236.141,-151.35 233.312,-148.555 230.53,-145.662"/>
<polygon fill="none" stroke="midnightblue" points="285.171,-194.398 295.434,-197.029 289.051,-188.573 285.171,-194.398"/>
</g>
<!-- Node4 -->
<g id="node7" class="node"><title>Node4</title>
<a xlink:href="classworld_1_1scenery_1_1_shore.html" target="_top" xlink:title="Class used to handle a shore object. ">
<polygon fill="white" stroke="black" points="247.5,-41 247.5,-113 352.5,-113 352.5,-41 247.5,-41"/>
<text text-anchor="middle" x="300" y="-100" font-family="Helvetica,sans-Serif" font-size="10.00">world.scenery.Shore</text>
<polyline fill="none" stroke="black" points="247.5,-89 352.5,-89 "/>
<text text-anchor="middle" x="300" y="-76" font-family="Helvetica,sans-Serif" font-size="10.00"> </text>
<polyline fill="none" stroke="black" points="247.5,-65 352.5,-65 "/>
<text text-anchor="start" x="255.5" y="-52" font-family="Helvetica,sans-Serif" font-size="10.00">+ Shore()</text>
</a>
</g>
<!-- Node1&#45;&gt;Node4 -->
<g id="edge6" class="edge"><title>Node1&#45;&gt;Node4</title>
<path fill="none" stroke="midnightblue" d="M340.359,-181.537C331.651,-158.982 321.742,-133.314 313.921,-113.058"/>
<polygon fill="none" stroke="midnightblue" points="337.141,-182.92 344.008,-190.988 343.671,-180.399 337.141,-182.92"/>
</g>
<!-- Node5 -->
<g id="node9" class="node"><title>Node5</title>
<a xlink:href="classworld_1_1scenery_1_1_shrub.html" target="_top" xlink:title="Class used to handle a shrub object. ">
<polygon fill="white" stroke="black" points="369.5,-41 369.5,-113 474.5,-113 474.5,-41 369.5,-41"/>
<text text-anchor="middle" x="422" y="-100" font-family="Helvetica,sans-Serif" font-size="10.00">world.scenery.Shrub</text>
<polyline fill="none" stroke="black" points="369.5,-89 474.5,-89 "/>
<text text-anchor="middle" x="422" y="-76" font-family="Helvetica,sans-Serif" font-size="10.00"> </text>
<polyline fill="none" stroke="black" points="369.5,-65 474.5,-65 "/>
<text text-anchor="start" x="377.5" y="-52" font-family="Helvetica,sans-Serif" font-size="10.00">+ Shrub()</text>
</a>
</g>
<!-- Node1&#45;&gt;Node5 -->
<g id="edge8" class="edge"><title>Node1&#45;&gt;Node5</title>
<path fill="none" stroke="midnightblue" d="M381.641,-181.537C390.349,-158.982 400.258,-133.314 408.079,-113.058"/>
<polygon fill="none" stroke="midnightblue" points="378.329,-180.399 377.992,-190.988 384.859,-182.92 378.329,-180.399"/>
</g>
<!-- Node6 -->
<g id="node11" class="node"><title>Node6</title>
<a xlink:href="classworld_1_1scenery_1_1_tree.html" target="_top" xlink:title="Class used to handle a tree object. ">
<polygon fill="white" stroke="black" points="492,-1 492,-153 590,-153 590,-1 492,-1"/>
<text text-anchor="middle" x="541" y="-140" font-family="Helvetica,sans-Serif" font-size="10.00">world.scenery.Tree</text>
<polyline fill="none" stroke="black" points="492,-129 590,-129 "/>
<text text-anchor="middle" x="541" y="-116" font-family="Helvetica,sans-Serif" font-size="10.00"> </text>
<polyline fill="none" stroke="black" points="492,-105 590,-105 "/>
<text text-anchor="start" x="500" y="-92" font-family="Helvetica,sans-Serif" font-size="10.00">+ Tree()</text>
<text text-anchor="start" x="500" y="-76" font-family="Helvetica,sans-Serif" font-size="10.00">+ triggerAction()</text>
<text text-anchor="start" x="500" y="-60" font-family="Helvetica,sans-Serif" font-size="10.00">+ playerNear()</text>
<text text-anchor="start" x="500" y="-44" font-family="Helvetica,sans-Serif" font-size="10.00">+ playerEnter()</text>
<text text-anchor="start" x="500" y="-28" font-family="Helvetica,sans-Serif" font-size="10.00">+ playerLeave()</text>
<text text-anchor="start" x="500" y="-12" font-family="Helvetica,sans-Serif" font-size="10.00">+ isTraversable()</text>
</a>
</g>
<!-- Node1&#45;&gt;Node6 -->
<g id="edge10" class="edge"><title>Node1&#45;&gt;Node6</title>
<path fill="none" stroke="midnightblue" d="M435.315,-191.48C451.824,-180.264 468.661,-167.511 483,-154 486.045,-151.131 489.049,-148.087 491.99,-144.932"/>
<polygon fill="none" stroke="midnightblue" points="433.109,-188.744 426.727,-197.201 436.99,-194.57 433.109,-188.744"/>
</g>
<!-- Node7 -->
<g id="node13" class="node"><title>Node7</title>
<a xlink:href="classworld_1_1scenery_1_1_water.html" target="_top" xlink:title="Class used to handle a water object. ">
<polygon fill="white" stroke="black" points="607.5,-1 607.5,-153 712.5,-153 712.5,-1 607.5,-1"/>
<text text-anchor="middle" x="660" y="-140" font-family="Helvetica,sans-Serif" font-size="10.00">world.scenery.Water</text>
<polyline fill="none" stroke="black" points="607.5,-129 712.5,-129 "/>
<text text-anchor="middle" x="660" y="-116" font-family="Helvetica,sans-Serif" font-size="10.00"> </text>
<polyline fill="none" stroke="black" points="607.5,-105 712.5,-105 "/>
<text text-anchor="start" x="615.5" y="-92" font-family="Helvetica,sans-Serif" font-size="10.00">+ Water()</text>
<text text-anchor="start" x="615.5" y="-76" font-family="Helvetica,sans-Serif" font-size="10.00">+ triggerAction()</text>
<text text-anchor="start" x="615.5" y="-60" font-family="Helvetica,sans-Serif" font-size="10.00">+ playerNear()</text>
<text text-anchor="start" x="615.5" y="-44" font-family="Helvetica,sans-Serif" font-size="10.00">+ playerEnter()</text>
<text text-anchor="start" x="615.5" y="-28" font-family="Helvetica,sans-Serif" font-size="10.00">+ playerLeave()</text>
<text text-anchor="start" x="615.5" y="-12" font-family="Helvetica,sans-Serif" font-size="10.00">+ isTraversable()</text>
</a>
</g>
<!-- Node1&#45;&gt;Node7 -->
<g id="edge12" class="edge"><title>Node1&#45;&gt;Node7</title>
<path fill="none" stroke="midnightblue" d="M436.753,-220.881C486.243,-208.979 550.454,-188.251 599,-154 601.787,-152.034 604.511,-149.905 607.165,-147.65"/>
<polygon fill="none" stroke="midnightblue" points="435.687,-217.536 426.744,-223.217 437.278,-224.353 435.687,-217.536"/>
</g>
</g>
</svg>
