<?xml version="1.0" encoding="UTF-8" standalone="no"?>
<!DOCTYPE svg PUBLIC "-//W3C//DTD SVG 1.1//EN"
 "http://www.w3.org/Graphics/SVG/1.1/DTD/svg11.dtd">
<!-- Generated by graphviz version 2.26.3 (20100126.1600)
 -->
<!-- Title: world.scenery.SteppeTheme Pages: 1 -->
<svg width="480pt" height="272pt"
 viewBox="0.00 0.00 480.00 272.00" xmlns="http://www.w3.org/2000/svg" xmlns:xlink="http://www.w3.org/1999/xlink">
<g id="graph1" class="graph" transform="scale(1 1) rotate(0) translate(4 268)">
<title>world.scenery.SteppeTheme</title>
<polygon fill="white" stroke="white" points="-4,5 -4,-268 477,-268 477,5 -4,5"/>
<!-- Node1 -->
<g id="node1" class="node"><title>Node1</title>
<polygon fill="#bfbfbf" stroke="black" points="171,-191 171,-263 311,-263 311,-191 171,-191"/>
<text text-anchor="middle" x="241" y="-250" font-family="Helvetica,sans-Serif" font-size="10.00">world.scenery.SteppeTheme</text>
<polyline fill="none" stroke="black" points="171,-239 311,-239 "/>
<text text-anchor="start" x="179" y="-226" font-family="Helvetica,sans-Serif" font-size="10.00">+ STEPPE</text>
<polyline fill="none" stroke="black" points="171,-215 311,-215 "/>
<text text-anchor="middle" x="241" y="-202" font-family="Helvetica,sans-Serif" font-size="10.00"> </text>
</g>
<!-- Node2 -->
<g id="node3" class="node"><title>Node2</title>
<a xlink:href="classworld_1_1scenery_1_1_grass.html" target="_top" xlink:title="Class used to handle a grass object. ">
<polygon fill="white" stroke="black" points="0,-41 0,-113 106,-113 106,-41 0,-41"/>
<text text-anchor="middle" x="53" y="-100" font-family="Helvetica,sans-Serif" font-size="10.00">world.scenery.Grass</text>
<polyline fill="none" stroke="black" points="0,-89 106,-89 "/>
<text text-anchor="middle" x="53" y="-76" font-family="Helvetica,sans-Serif" font-size="10.00"> </text>
<polyline fill="none" stroke="black" points="0,-65 106,-65 "/>
<text text-anchor="start" x="8" y="-52" font-family="Helvetica,sans-Serif" font-size="10.00">+ Grass()</text>
</a>
</g>
<!-- Node1&#45;&gt;Node2 -->
<g id="edge2" class="edge"><title>Node1&#45;&gt;Node2</title>
<path fill="none" stroke="midnightblue" d="M161.915,-187.173C145.642,-177.366 129.167,-166.152 115,-154 101.192,-142.155 88.1884,-126.918 77.6912,-113.128"/>
<polygon fill="none" stroke="midnightblue" points="160.526,-190.417 170.919,-192.474 164.077,-184.384 160.526,-190.417"/>
</g>
<!-- Node3 -->
<g id="node5" class="node"><title>Node3</title>
<a xlink:href="classworld_1_1scenery_1_1_ground.html" target="_top" xlink:title="Class used to handle a ground object. ">
<polygon fill="white" stroke="black" points="123.5,-41 123.5,-113 234.5,-113 234.5,-41 123.5,-41"/>
<text text-anchor="middle" x="179" y="-100" font-family="Helvetica,sans-Serif" font-size="10.00">world.scenery.Ground</text>
<polyline fill="none" stroke="black" points="123.5,-89 234.5,-89 "/>
<text text-anchor="middle" x="179" y="-76" font-family="Helvetica,sans-Serif" font-size="10.00"> </text>
<polyline fill="none" stroke="black" points="123.5,-65 234.5,-65 "/>
<text text-anchor="start" x="131.5" y="-52" font-family="Helvetica,sans-Serif" font-size="10.00">+ Ground()</text>
</a>
</g>
<!-- Node1&#45;&gt;Node3 -->
<g id="edge4" class="edge"><title>Node1&#45;&gt;Node3</title>
<path fill="none" stroke="midnightblue" d="M222.104,-181.285C213.08,-159.452 202.432,-133.691 193.978,-113.236"/>
<polygon fill="none" stroke="midnightblue" points="218.937,-182.784 225.992,-190.689 225.406,-180.111 218.937,-182.784"/>
</g>
<!-- Node4 -->
<g id="node7" class="node"><title>Node4</title>
<a xlink:href="classworld_1_1scenery_1_1_shrub.html" target="_top" xlink:title="Class used to handle a shrub object. ">
<polygon fill="white" stroke="black" points="251.5,-41 251.5,-113 356.5,-113 356.5,-41 251.5,-41"/>
<text text-anchor="middle" x="304" y="-100" font-family="Helvetica,sans-Serif" font-size="10.00">world.scenery.Shrub</text>
<polyline fill="none" stroke="black" points="251.5,-89 356.5,-89 "/>
<text text-anchor="middle" x="304" y="-76" font-family="Helvetica,sans-Serif" font-size="10.00"> </text>
<polyline fill="none" stroke="black" points="251.5,-65 356.5,-65 "/>
<text text-anchor="start" x="259.5" y="-52" font-family="Helvetica,sans-Serif" font-size="10.00">+ Shrub()</text>
</a>
</g>
<!-- Node1&#45;&gt;Node4 -->
<g id="edge6" class="edge"><title>Node1&#45;&gt;Node4</title>
<path fill="none" stroke="midnightblue" d="M260.2,-181.285C269.37,-159.452 280.19,-133.691 288.781,-113.236"/>
<polygon fill="none" stroke="midnightblue" points="256.896,-180.114 256.251,-190.689 263.35,-182.825 256.896,-180.114"/>
</g>
<!-- Node5 -->
<g id="node9" class="node"><title>Node5</title>
<a xlink:href="classworld_1_1scenery_1_1_tree.html" target="_top" xlink:title="Class used to handle a tree object. ">
<polygon fill="white" stroke="black" points="374,-1 374,-153 472,-153 472,-1 374,-1"/>
<text text-anchor="middle" x="423" y="-140" font-family="Helvetica,sans-Serif" font-size="10.00">world.scenery.Tree</text>
<polyline fill="none" stroke="black" points="374,-129 472,-129 "/>
<text text-anchor="middle" x="423" y="-116" font-family="Helvetica,sans-Serif" font-size="10.00"> </text>
<polyline fill="none" stroke="black" points="374,-105 472,-105 "/>
<text text-anchor="start" x="382" y="-92" font-family="Helvetica,sans-Serif" font-size="10.00">+ Tree()</text>
<text text-anchor="start" x="382" y="-76" font-family="Helvetica,sans-Serif" font-size="10.00">+ triggerAction()</text>
<text text-anchor="start" x="382" y="-60" font-family="Helvetica,sans-Serif" font-size="10.00">+ playerNear()</text>
<text text-anchor="start" x="382" y="-44" font-family="Helvetica,sans-Serif" font-size="10.00">+ playerEnter()</text>
<text text-anchor="start" x="382" y="-28" font-family="Helvetica,sans-Serif" font-size="10.00">+ playerLeave()</text>
<text text-anchor="start" x="382" y="-12" font-family="Helvetica,sans-Serif" font-size="10.00">+ isTraversable()</text>
</a>
</g>
<!-- Node1&#45;&gt;Node5 -->
<g id="edge8" class="edge"><title>Node1&#45;&gt;Node5</title>
<path fill="none" stroke="midnightblue" d="M319.928,-186.862C335.656,-177.163 351.476,-166.07 365,-154 367.997,-151.325 370.941,-148.476 373.817,-145.507"/>
<polygon fill="none" stroke="midnightblue" points="317.98,-183.95 311.216,-192.105 321.589,-189.948 317.98,-183.95"/>
</g>
</g>
</svg>
